<?xml version="1.0" standalone="no"?>
<!DOCTYPE svg PUBLIC "-//W3C//DTD SVG 1.1//EN" "http://www.w3.org/Graphics/SVG/1.1/DTD/svg11.dtd" >
<svg xmlns="http://www.w3.org/2000/svg" xmlns:xlink="http://www.w3.org/1999/xlink" version="1.1">
<metadata>
Created by FontForge 20170731 at Mon Apr 17 23:11:15 2023
 By Aleksey,,,
(c) 2019 Klim Type Foundry. All Rights Reserved.
</metadata>
<defs>
<font id="SohneMono-LeichtKursiv" horiz-adv-x="1228" >
  <font-face 
    font-family="Copyright Klim Type Foundry"
    font-weight="300"
    font-style="italic"
    font-stretch="normal"
    units-per-em="2048"
    panose-1="2 11 3 9 3 2 2 13 2 3"
    ascent="1638"
    descent="-410"
    x-height="1069"
    cap-height="1470"
    bbox="-670 -389 2126 1968"
    underline-thickness="112"
    underline-position="-493"
    slope="-8"
    unicode-range="U+000D-F6C3"
  />
<missing-glyph 
d="M102 0v1470h1229v-1470h-1229zM373 496l104 -105l240 240l241 -240l103 105l-238 241l238 240l-103 104l-241 -239l-240 239l-104 -104l239 -240z" />
    <glyph glyph-name=".notdef" 
d="M102 0v1470h1229v-1470h-1229zM373 496l104 -105l240 240l241 -240l103 105l-238 241l238 240l-103 104l-241 -239l-240 239l-104 -104l239 -240z" />
    <glyph glyph-name=".null" horiz-adv-x="0" 
 />
    <glyph glyph-name="uni000D" unicode="&#xd;" 
 />
    <glyph glyph-name="space" unicode=" " 
 />
    <glyph glyph-name="exclam" unicode="!" 
d="M651 428h-102l115 1042h165zM631 0h-185l29 197h182z" />
    <glyph glyph-name="quotedbl" unicode="&#x22;" 
d="M522 850h-94l51 620h166zM891 850h-94l51 620h166z" />
    <glyph glyph-name="numbersign" unicode="#" 
d="M188 0h-127l170 449h-190l14 112h219l132 348h-218l15 113h246l169 448h130l-170 -448h348l170 448h127l-170 -448h190l-14 -113h-217l-133 -348h217l-15 -112h-243l-170 -449h-131l170 449h-349zM535 909l-134 -348h349l133 348h-348z" />
    <glyph glyph-name="dollar" unicode="$" 
d="M29 342l116 74q40 -124 137 -202q95 -77 230 -95l84 588q-233 72 -315 152q-82 81 -82 204q0 179 141 297q142 119 365 119l26 194h113l-29 -203q152 -23 255 -104q106 -83 136 -197l-112 -71q-30 96 -109 163t-186 89l-76 -541q230 -72 316 -158q85 -85 85 -215
q0 -189 -143 -313q-145 -125 -373 -131l-28 -197h-113l29 203q-169 22 -297 116q-126 92 -170 228zM338 1083q0 -81 59 -134q60 -54 217 -105l72 516q-151 -1 -250 -81q-98 -79 -98 -196zM985 416q0 85 -60 145t-223 113l-77 -561q158 7 260 94q100 85 100 209z" />
    <glyph glyph-name="percent" unicode="%" 
d="M137 1075q0 179 81 298q81 118 208 118q103 0 160 -76q57 -77 57 -209q0 -180 -81 -298q-80 -117 -208 -117q-103 0 -159 75q-58 78 -58 209zM1165 1470h138l-1182 -1470h-137zM240 1077q0 -91 31 -138q31 -48 89 -48q78 0 128 89q51 91 51 224q0 88 -31 139
q-30 50 -88 50q-78 0 -129 -90t-51 -226zM643 264q0 180 81 298t208 118q103 0 160 -76q57 -77 57 -209q0 -179 -81 -298q-80 -117 -208 -117q-104 0 -160 75q-57 77 -57 209zM748 266q0 -90 30 -139t88 -49q78 0 128 90q50 91 50 225q0 90 -30 138q-31 49 -88 49
q-75 0 -127 -91q-51 -90 -51 -223z" />
    <glyph glyph-name="ampersand" unicode="&#x26;" 
d="M1063 748l119 -23q-27 -136 -81 -257t-134 -218l198 -250h-155l-127 160q-98 -87 -209 -134q-110 -46 -228 -46q-187 0 -301 102t-114 274q0 141 84 252t256 199q-49 80 -71 151q-24 76 -24 152q0 161 105 271t264 110q139 0 225 -83t86 -214q0 -126 -99 -231t-302 -191
l340 -428q59 81 104 186q42 98 64 218zM641 1380q-105 0 -172 -76q-68 -77 -68 -192q0 -60 22 -126q21 -64 64 -126q2 0 5.5 2t4.5 2q6 2 7 2q165 62 247 143q80 79 80 177q0 83 -53 139q-52 55 -137 55zM162 369q0 -123 80 -197t215 -74q97 0 185 39q89 39 169 113
l-377 471q-138 -68 -206 -156q-66 -85 -66 -196z" />
    <glyph glyph-name="quotesingle" unicode="'" 
d="M707 850h-95l52 620h165z" />
    <glyph glyph-name="parenleft" unicode="(" 
d="M389 510q0 275 123 545q123 271 334 456h151q-217 -202 -340 -468q-122 -263 -122 -533q0 -202 58 -386q59 -186 163 -325h-138q-112 151 -171 331q-58 177 -58 380z" />
    <glyph glyph-name="parenright" unicode=")" 
d="M874 801q0 -277 -122 -545q-124 -272 -334 -457h-152q217 202 340 468q123 265 123 534q0 202 -58 386q-58 185 -163 324h137q113 -151 171 -330q58 -177 58 -380z" />
    <glyph glyph-name="asterisk" unicode="*" 
d="M928 840l-92 -60l-148 254l-219 -254l-82 66l221 254l-286 96l47 98l286 -98l43 315h107l-45 -315l313 98l17 -102l-314 -98z" />
    <glyph glyph-name="plus" unicode="+" 
d="M1161 762l-16 -123h-455l-65 -453h-121l65 453h-454l16 123h455l63 455h121l-63 -455h454z" />
    <glyph glyph-name="comma" unicode="," 
d="M530 0h-104l33 242h225l-35 -262q-23 -152 -107 -230q-86 -80 -229 -84l13 96q91 12 141 65q49 52 61 153z" />
    <glyph glyph-name="hyphen" unicode="-" 
d="M889 537h-549l16 122h549z" />
    <glyph glyph-name="period" unicode="." 
d="M649 0h-221l35 238h219z" />
    <glyph glyph-name="slash" unicode="/" 
d="M215 -201h-147l981 1712h147z" />
    <glyph glyph-name="zero" unicode="0" 
d="M96 594q0 378 178 637q179 260 447 260q217 0 341 -165q124 -164 124 -449q0 -378 -178 -637q-179 -260 -447 -260q-217 0 -341 164t-124 450zM236 598q0 -230 88 -361q89 -133 241 -133q202 0 342 226t140 542q0 229 -89 362q-88 132 -241 132q-203 0 -342 -225
q-139 -224 -139 -543z" />
    <glyph glyph-name="one" unicode="1" 
d="M772 1479h107l-193 -1358h369l-17 -121h-917l16 121h410l143 1009h-389l16 107l213 8q114 5 166 55q54 52 76 179z" />
    <glyph glyph-name="two" unicode="2" 
d="M41 0l16 121l586 438q189 142 277 265q90 126 90 251q0 129 -85 211t-220 82q-156 0 -260 -110q-103 -109 -103 -279q0 -36 4 -63q5 -35 10 -54h-135q-8 30 -11 57q-3 30 -3 66q0 219 142 362q143 144 360 144q193 0 317 -115q123 -114 123 -297q0 -154 -100 -299
q-100 -144 -312 -301l-475 -354h797l-19 -125h-999z" />
    <glyph glyph-name="three" unicode="3" 
d="M1108 436q0 -192 -149 -324t-373 -132q-221 0 -361 124q-141 124 -147 332l135 27q7 -164 112 -263q104 -98 265 -98q162 0 271 97q108 96 108 239q0 123 -87 198t-227 75h-174l19 118h180q147 0 245 85q99 85 99 208q0 108 -83 177t-214 69q-142 0 -244 -84
q-103 -85 -143 -237l-131 32q56 194 194 302q140 110 330 110q189 0 309 -101q121 -102 121 -260q0 -131 -82 -229q-81 -98 -219 -137q114 -33 179 -121q67 -90 67 -207z" />
    <glyph glyph-name="four" unicode="4" 
d="M879 403l-58 -403h-131l55 403h-716l14 111l795 956h192l-135 -948h289l-17 -119h-288zM877 1333l-676 -811h561z" />
    <glyph glyph-name="five" unicode="5" 
d="M657 842q-85 0 -164 -36q-82 -37 -137 -101l-127 30l164 735h781l-19 -124h-666l-116 -504q65 59 142 88q82 31 167 31q186 0 303 -124q117 -125 117 -315q0 -224 -154 -384q-152 -158 -383 -158q-197 0 -328 118q-132 118 -153 318l135 24q21 -160 114 -250t236 -90
q169 0 283 121q115 123 115 293q0 145 -86 237q-85 91 -224 91z" />
    <glyph glyph-name="six" unicode="6" 
d="M786 1491q167 0 281 -96q115 -97 139 -256l-125 -39q-16 122 -99 196t-206 74q-195 0 -343 -187q-149 -188 -177 -476q62 121 178 194q114 72 254 72q190 0 312 -123q122 -124 122 -313q0 -231 -153 -394t-379 -163q-221 0 -347 154t-126 433q0 390 192 657t477 267z
M264 436q0 -146 93 -240q94 -96 235 -96q163 0 280 126t117 298q0 144 -92 236t-235 92q-166 0 -282 -122t-116 -294z" />
    <glyph glyph-name="seven" unicode="7" 
d="M1118 1346h-768l-37 -267h-127l56 391h1061l-19 -122q-300 -299 -453 -607q-153 -309 -213 -741h-145q62 425 217 751q156 328 428 595z" />
    <glyph glyph-name="eight" unicode="8" 
d="M238 1094q0 169 133 283t342 114q196 0 317 -100t121 -261q0 -123 -77 -218q-78 -96 -210 -136q128 -47 197 -138q69 -92 69 -210q0 -190 -160 -319t-405 -129q-227 0 -367 109q-141 109 -141 284q0 151 106 271q105 119 277 153q-96 45 -150 124q-52 76 -52 173z
M369 1094q0 -112 87 -181t224 -69q147 0 244 80q96 80 96 200q0 111 -86 182q-85 70 -223 70q-147 0 -245 -81q-97 -81 -97 -201zM197 387q0 -128 104 -208q105 -81 266 -81q180 0 302 98t122 238q0 127 -105 208t-268 81q-179 0 -300 -97t-121 -239z" />
    <glyph glyph-name="nine" unicode="9" 
d="M500 -20q-167 0 -281 96q-115 97 -139 256l125 39q17 -124 99 -197q83 -74 206 -74q194 0 343 188t177 476q-63 -122 -178 -195q-112 -71 -254 -71q-190 0 -312 123q-122 124 -122 313q0 230 153 393q153 164 379 164q221 0 347 -155t126 -433q0 -389 -192 -656
t-477 -267zM1022 1034q0 146 -93 241t-235 95q-163 0 -280 -126t-117 -298q0 -143 92 -235q93 -93 236 -93q165 0 281 122t116 294z" />
    <glyph glyph-name="colon" unicode=":" 
d="M649 0h-221l35 238h219zM758 768h-221l34 238h220z" />
    <glyph glyph-name="semicolon" unicode=";" 
d="M530 0h-104l33 242h225l-35 -262q-23 -152 -107 -230q-86 -80 -229 -84l13 96q91 12 141 65q49 52 61 153zM758 768h-221l34 238h220z" />
    <glyph glyph-name="less" unicode="&#x3c;" 
d="M1012 190l-830 441l19 141l954 438l-18 -143l-826 -375l719 -377z" />
    <glyph glyph-name="equal" unicode="=" 
d="M1147 842h-979l16 123h979zM1090 438h-979l18 123h977z" />
    <glyph glyph-name="greater" unicode="&#x3e;" 
d="M264 1210l830 -440l-19 -141l-954 -439l18 144l826 375l-719 376z" />
    <glyph glyph-name="question" unicode="?" 
d="M1030 1090q0 125 -82 201q-83 77 -217 77q-142 0 -248 -86q-103 -84 -147 -242l-129 33q52 194 195 307t335 111q201 0 318 -108q116 -107 116 -285q0 -188 -133 -318q-134 -131 -338 -143l-28 -209h-131l43 313q202 0 325 97q121 96 121 252zM639 0h-184l28 197h183z
" />
    <glyph glyph-name="at" unicode="@" 
d="M860 180q88 0 162 173q74 174 74 384q0 220 -95 348q-94 127 -262 127q-130 0 -252 -86q-119 -83 -208 -241q-71 -127 -108 -271q-38 -149 -38 -297q0 -256 112 -403q111 -145 310 -145q97 0 176 33q84 35 152 100l59 -80q-84 -79 -180 -117q-99 -39 -211 -39
q-245 0 -389 173t-144 474q0 170 47 341t130 309q106 170 245 260q142 92 301 92q215 0 341 -155q126 -154 126 -417q0 -276 -106 -470q-106 -195 -254 -195q-66 0 -105 40q-38 39 -36 107q-38 -74 -94 -114q-58 -41 -121 -41q-91 0 -143 74t-52 208q0 218 106 399t252 181
q71 0 118 -42q46 -41 52 -112l41 140h105l-156 -576q-22 -77 -10 -120q12 -42 55 -42zM522 174q62 0 116 71t87 191l41 160q27 102 0 168q-27 65 -96 65q-101 0 -178 -152q-78 -153 -78 -319q0 -90 27 -137t81 -47z" />
    <glyph glyph-name="A" unicode="A" 
d="M-29 0l703 1470h155l277 -1470h-141l-76 428h-567l-201 -428h-150zM866 553l-133 754l-352 -754h485z" />
    <glyph glyph-name="B" unicode="B" 
d="M631 0h-557l207 1470h469q208 0 318 -88q112 -89 112 -249q0 -140 -82 -243q-83 -104 -209 -128q116 -33 181 -117q65 -85 65 -207q0 -194 -139 -316t-365 -122zM401 1348l-73 -527h368q160 0 253 81t93 214q0 116 -78 173q-80 59 -233 59h-330zM670 696h-359l-82 -573
h408q164 0 262 88t98 231q0 123 -84 189q-83 65 -243 65z" />
    <glyph glyph-name="C" unicode="C" 
d="M772 1491q175 0 300 -110q124 -109 157 -298l-135 -39q-27 152 -114 236t-214 84q-215 0 -368 -226q-152 -225 -152 -530q0 -232 98 -366q100 -136 266 -136q126 0 230 82t166 230l127 -56q-82 -184 -219 -283q-136 -99 -308 -99q-230 0 -363 167q-134 169 -134 459
q0 160 43 308q45 155 120 272q94 146 225 225q131 80 275 80z" />
    <glyph glyph-name="D" unicode="D" 
d="M389 0h-315l207 1470h272q287 0 453 -172q165 -171 165 -464q0 -366 -215 -601q-214 -233 -567 -233zM403 1346l-172 -1221h156q294 0 470 197q175 196 175 509q0 233 -132 374t-359 141h-138z" />
    <glyph glyph-name="E" unicode="E" 
d="M74 0l207 1470h950l-19 -124h-809l-71 -523h692l-18 -125h-693l-80 -573h809l-18 -125h-950z" />
    <glyph glyph-name="F" unicode="F" 
d="M360 686l-96 -686h-141l207 1470h925l-18 -124h-784l-74 -535h665l-18 -125h-666z" />
    <glyph glyph-name="G" unicode="G" 
d="M1047 0h-117l37 260q-57 -133 -161 -207q-103 -73 -235 -73q-210 0 -337 172q-128 173 -128 452q0 157 42 307t120 273q96 147 226 227t272 80q176 0 289 -105q113 -106 137 -292l-131 -39q-21 148 -98 228q-78 81 -201 81q-212 0 -364 -227t-152 -531q0 -223 93 -361
q94 -139 249 -139q157 0 270 139t143 369h-372l18 125h504z" />
    <glyph glyph-name="H" unicode="H" 
d="M977 823l90 647h143l-206 -1470h-144l98 698h-645l-96 -698h-143l207 1470h143l-92 -647h645z" />
    <glyph glyph-name="I" unicode="I" 
d="M629 125h436l-18 -125h-1018l18 125h438l170 1221h-438l19 124h1017l-18 -124h-436z" />
    <glyph glyph-name="J" unicode="J" 
d="M397 -20q-75 0 -153 9q-81 9 -138 25l19 142q64 -19 133 -29q70 -10 139 -10q227 0 343 89t143 279l118 861h-620l18 124h764l-141 -1005q-34 -241 -192 -364q-155 -121 -433 -121z" />
    <glyph glyph-name="K" unicode="K" 
d="M281 1470h143l-102 -731l794 731h180l-708 -653l522 -817h-160l-465 723l-192 -178l-76 -545h-143z" />
    <glyph glyph-name="L" unicode="L" 
d="M1049 0h-910l207 1470h141l-188 -1345h768z" />
    <glyph glyph-name="M" unicode="M" 
d="M1073 1257l-487 -1257h-94l-136 1257l-176 -1257h-127l207 1470h191l129 -1173l452 1173h199l-207 -1470h-127z" />
    <glyph glyph-name="N" unicode="N" 
d="M1075 1470h135l-206 -1470h-127l-492 1249l-176 -1249h-135l207 1470h151l473 -1202z" />
    <glyph glyph-name="O" unicode="O" 
d="M1176 879q0 -375 -177 -638q-175 -261 -438 -261q-211 0 -332 163q-120 161 -120 449q0 376 176 638q175 261 438 261q210 0 332 -164q121 -163 121 -448zM1038 877q0 225 -86 356t-233 131q-200 0 -336 -227q-137 -229 -137 -543q0 -225 86 -356q86 -132 233 -132
q199 0 336 228q137 229 137 543z" />
    <glyph glyph-name="P" unicode="P" 
d="M715 655h-408l-90 -655h-143l207 1470h495q218 0 337 -98q120 -99 120 -278q0 -200 -140 -319q-141 -120 -378 -120zM406 1346l-80 -566h383q177 0 281 84t104 223q0 126 -86 192q-87 67 -246 67h-356z" />
    <glyph glyph-name="Q" unicode="Q" 
d="M723 8q-32 -12 -81 -21q-38 -7 -81 -7q-211 0 -332 163q-120 161 -120 449q0 376 176 638q175 261 438 261q210 0 332 -164q121 -163 121 -448q0 -259 -93 -482q-91 -218 -249 -329q40 -65 111 -112q77 -51 161 -73l-92 -98q-87 23 -172 88q-81 62 -119 135zM1038 877
q0 225 -86 356t-233 131q-200 0 -336 -227q-137 -229 -137 -543q0 -225 86 -356q86 -132 233 -132q199 0 336 228q137 229 137 543z" />
    <glyph glyph-name="R" unicode="R" 
d="M633 655h-326l-90 -655h-143l207 1470h495q219 0 339 -99t120 -279q0 -182 -121 -299q-123 -118 -330 -136l338 -657h-153zM406 1346l-80 -566h383q177 0 281 84t104 223q0 126 -86 192q-87 67 -246 67h-356z" />
    <glyph glyph-name="S" unicode="S" 
d="M582 -20q-207 0 -361 98q-157 100 -209 262l123 70q47 -144 168 -225t283 -81q169 0 279 89t110 227q0 104 -77 166q-75 60 -255 104q-229 57 -336 149q-106 91 -106 236q0 183 140 299q141 117 361 117q183 0 319 -84t181 -225l-115 -70q-40 116 -145 185t-246 69
q-158 0 -257 -78t-99 -198q0 -99 85 -162q89 -65 271 -111q223 -55 322 -144q98 -88 98 -237q0 -203 -149 -330q-148 -126 -385 -126z" />
    <glyph glyph-name="T" unicode="T" 
d="M1321 1470l-18 -124h-504l-189 -1346h-143l188 1346h-503l18 124h1151z" />
    <glyph glyph-name="U" unicode="U" 
d="M571 -20q-240 0 -356 152q-117 154 -80 423l129 915h142l-127 -909q-30 -220 46 -334t250 -114q167 0 260 108t126 340l129 909h141l-127 -915q-40 -288 -174 -432q-133 -143 -359 -143z" />
    <glyph glyph-name="V" unicode="V" 
d="M1311 1470l-713 -1470h-156l-264 1470h144l223 -1286l616 1286h150z" />
    <glyph glyph-name="W" unicode="W" 
d="M291 270l395 1200h115l33 -1200l374 1200h131l-469 -1470h-125l-34 1225l-408 -1225h-127l-24 1470h124z" />
    <glyph glyph-name="X" unicode="X" 
d="M180 1470h150l323 -602l492 602h160l-582 -714l403 -756h-147l-346 643l-522 -643h-162l612 756z" />
    <glyph glyph-name="Y" unicode="Y" 
d="M295 1470l346 -712l547 712h158l-648 -839l-88 -631h-143l88 631l-412 839h152z" />
    <glyph glyph-name="Z" unicode="Z" 
d="M211 125h876l-18 -125h-1059l17 111l1040 1235h-856l18 124h1039l-17 -110z" />
    <glyph glyph-name="bracketleft" unicode="[" 
d="M1049 1397h-449l-209 -1485h449l-17 -113h-583l241 1712h584z" />
    <glyph glyph-name="backslash" unicode="\" 
d="M637 1511l119 -1712h-131l-119 1712h131z" />
    <glyph glyph-name="bracketright" unicode="]" 
d="M242 -86h448l209 1485h-448l16 112h584l-242 -1712h-584z" />
    <glyph glyph-name="asciicircum" unicode="^" 
d="M258 866l422 604h133l254 -604h-135l-199 473l-330 -473h-145z" />
    <glyph glyph-name="underscore" unicode="_" 
d="M821 -240h-631l15 119h631z" />
    <glyph glyph-name="grave" unicode="`" 
d="M774 1470l88 -282h-98l-152 282h162z" />
    <glyph glyph-name="a" unicode="a" 
d="M1075 113l-16 -113q-127 -24 -198 14q-72 39 -66 121q-51 -67 -150 -112q-95 -43 -203 -43q-154 0 -245 76q-93 78 -93 208q0 146 120 240q119 94 358 133l280 45l10 72q12 100 -45 157q-58 58 -172 58q-114 2 -196 -49q-83 -51 -123 -150l-119 45q56 132 173 203
q118 72 276 72q177 0 270 -90t72 -240l-80 -570q-8 -58 27 -75q37 -18 120 -2zM463 92q137 0 237 75t115 183l31 225l-244 -43q-184 -34 -274 -98q-88 -63 -88 -164q0 -85 59 -131q61 -47 164 -47z" />
    <glyph glyph-name="b" unicode="b" 
d="M725 1090q179 0 284 -128t105 -346q0 -265 -143 -450q-144 -186 -359 -186q-122 0 -210 61t-121 170l-29 -211h-135l207 1470h135l-82 -585q49 94 143 149q95 56 205 56zM694 969q-141 0 -240 -107q-100 -107 -122 -282l-13 -80q-24 -176 56 -289t225 -113q161 0 268 148
t107 364q0 168 -75 263q-76 96 -206 96z" />
    <glyph glyph-name="c" unicode="c" 
d="M694 971q-177 0 -298 -148q-120 -147 -120 -362q0 -166 90 -265q89 -98 240 -98q121 0 207 62t129 178l113 -47q-53 -147 -173 -230q-118 -81 -284 -81q-210 0 -333 126q-124 127 -124 349q0 264 160 450q159 185 399 185q168 0 283 -88t139 -230l-123 -45
q-21 113 -102 178q-83 66 -203 66z" />
    <glyph glyph-name="d" unicode="d" 
d="M502 -20q-179 0 -283 126t-104 347q0 266 143 451q144 186 356 186q122 0 210 -63q89 -64 122 -169l86 612h137l-208 -1470h-136l25 182q-51 -92 -144 -147q-92 -55 -204 -55zM535 98q139 0 238 107q100 108 124 284l10 80q24 177 -55 288q-80 112 -223 112
q-163 0 -269 -147q-106 -146 -106 -363q0 -171 75 -265q76 -96 206 -96z" />
    <glyph glyph-name="e" unicode="e" 
d="M590 -20q-209 0 -326 126q-119 128 -119 349q0 267 155 451t388 184q214 0 322 -146t75 -377l-6 -43h-800q-3 -21 -3 -23v-40q0 -167 86 -265t236 -98q114 0 200 60t126 170l112 -47q-60 -146 -174 -224q-113 -77 -272 -77zM682 973q-138 0 -241 -93t-144 -249h659
q17 157 -58 249q-75 93 -216 93z" />
    <glyph glyph-name="f" unicode="f" 
d="M975 117l-17 -117h-903l17 117h342l118 835h-342l17 117h340q29 206 152 313q126 109 323 109q53 0 117 -8q47 -6 102 -21l-16 -119q-48 12 -101 20q-49 7 -100 7q-153 0 -238 -74q-83 -72 -104 -227h496l-17 -117h-495l-117 -835h426z" />
    <glyph glyph-name="g" unicode="g" 
d="M1112 1069l-139 -981q-33 -232 -163 -354q-131 -123 -343 -123q-175 0 -291 79q-117 80 -147 220l118 45q30 -112 115 -171q83 -58 213 -58q153 0 244 91q92 92 119 269l18 139q-56 -97 -144 -150q-86 -52 -198 -52q-185 0 -292 122t-107 332q0 259 142 435
q143 178 359 178q118 0 207 -60q88 -59 125 -164l29 203h135zM901 524l6 54q22 172 -57 281q-80 110 -225 110q-160 0 -267 -142q-106 -140 -106 -346q0 -161 76 -250q76 -90 209 -90q143 0 242 104q100 104 122 279z" />
    <glyph glyph-name="h" unicode="h" 
d="M266 0h-135l207 1470h135l-78 -563q55 85 148 134t198 49q166 0 252 -109t62 -289l-99 -692h-135l97 674q18 136 -40 212q-59 77 -180 77q-129 0 -225 -90q-94 -88 -115 -228z" />
    <glyph glyph-name="i" unicode="i" 
d="M840 1288h-158l27 182h157zM1067 0h-975l17 117h419l117 835h-418l17 117h555l-135 -952h419z" />
    <glyph glyph-name="j" unicode="j" 
d="M1010 1288h-156l25 182h157zM332 -266q161 0 247 70t107 216l131 932h-557l16 117h693l-152 -1069q-27 -192 -150 -290q-125 -99 -337 -99q-70 0 -140 10q-73 10 -124 27l18 121q54 -17 120 -26t128 -9z" />
    <glyph glyph-name="k" unicode="k" 
d="M369 1470h135l-135 -956l616 555h180l-491 -430l377 -639h-154l-324 551l-227 -199l-49 -352h-135z" />
    <glyph glyph-name="l" unicode="l" 
d="M1067 0h-975l17 117h419l174 1237h-417l14 116h555l-190 -1353h419z" />
    <glyph glyph-name="m" unicode="m" 
d="M469 967q-75 0 -128 -63t-69 -167l-102 -737h-127l152 1073h127l-19 -121q30 62 89 100t126 38q74 0 124 -41q51 -41 67 -117q33 67 99 112q67 46 140 46q109 0 166 -86t39 -224l-111 -780h-127l107 754q15 97 -16 155t-101 58q-75 0 -128 -63q-51 -61 -66 -167
l-105 -737h-127l107 754q14 96 -17 156q-30 57 -100 57z" />
    <glyph glyph-name="n" unicode="n" 
d="M266 0h-135l152 1069h135l-23 -162q55 85 148 134t198 49q166 0 252 -109t62 -289l-99 -692h-135l97 674q18 136 -40 212q-59 77 -180 77q-129 0 -225 -90q-94 -88 -115 -228z" />
    <glyph glyph-name="o" unicode="o" 
d="M131 457q0 266 153 449q154 184 384 184q199 0 313 -129q115 -130 115 -351q0 -265 -153 -448q-152 -182 -384 -182q-199 0 -313 128q-115 129 -115 349zM266 461q0 -169 81 -267t220 -98q168 0 281 150q113 151 113 362q0 170 -81 268q-81 97 -221 97q-168 0 -280 -150
q-113 -151 -113 -362z" />
    <glyph glyph-name="p" unicode="p" 
d="M725 1090q179 0 284 -128t105 -346q0 -265 -143 -450q-144 -186 -359 -186q-122 0 -210 61t-121 170l-80 -580h-135l200 1438h135l-24 -184q49 94 143 149q95 56 205 56zM694 969q-141 0 -240 -107q-100 -107 -122 -282l-13 -80q-24 -176 56 -289t225 -113q161 0 268 148
t107 364q0 168 -75 263q-76 96 -206 96z" />
    <glyph glyph-name="q" unicode="q" 
d="M502 -20q-179 0 -283 126t-104 347q0 266 143 451q144 186 356 186q122 0 210 -63q89 -64 122 -169l29 211h137l-203 -1438h-135l76 551q-51 -92 -144 -147q-92 -55 -204 -55zM535 98q139 0 238 107q100 108 124 284l10 80q24 177 -55 288q-80 112 -223 112
q-163 0 -269 -147q-106 -146 -106 -363q0 -171 75 -265q76 -96 206 -96z" />
    <glyph glyph-name="r" unicode="r" 
d="M928 0h-875l17 117h317l117 835h-316l17 117h448l-30 -211q68 108 179 170q112 62 247 62q44 0 97 -8q57 -9 81 -17l-19 -133q-39 12 -87 18t-91 6q-168 0 -295 -100q-126 -99 -147 -254l-68 -485h422z" />
    <glyph glyph-name="s" unicode="s" 
d="M571 -20q-183 0 -312 75q-133 77 -173 207l111 68q34 -111 137 -174q104 -64 244 -64q134 0 219 57q86 57 86 146q0 67 -59 109q-58 42 -216 81q-215 50 -298 116t-83 171q0 139 119 228q121 90 303 90q161 0 279 -71q117 -70 145 -181l-108 -62q-29 93 -115 146t-209 53
q-122 0 -202 -53q-79 -52 -79 -134q0 -60 57 -101q56 -40 245 -85q192 -46 275 -115q81 -67 81 -176q0 -145 -126 -238t-321 -93z" />
    <glyph glyph-name="t" unicode="t" 
d="M762 -10q-187 0 -290 89q-102 88 -79 245l88 628h-334l17 117h334l43 309h133l-43 -309h491l-16 -117h-492l-86 -620q-17 -109 46 -164q62 -55 200 -55q60 0 117 9q51 8 119 28l-19 -125q-70 -20 -126 -28q-49 -7 -103 -7z" />
    <glyph glyph-name="u" unicode="u" 
d="M958 1069h138l-152 -1069h-135l22 162q-56 -86 -147 -134q-92 -48 -199 -48q-168 0 -253 107q-84 106 -60 288l96 694h138l-97 -674q-21 -135 38 -212t181 -77q131 0 226 89q93 87 114 229z" />
    <glyph glyph-name="v" unicode="v" 
d="M1200 1069l-618 -1069h-131l-275 1069h135l228 -899l516 899h145z" />
    <glyph glyph-name="w" unicode="w" 
d="M295 201l338 868h115l59 -868l326 868h131l-414 -1069h-121l-65 879l-345 -879h-126l-76 1069h123z" />
    <glyph glyph-name="x" unicode="x" 
d="M1026 0h-147l-273 471l-399 -471h-154l482 565l-293 504h147l238 -418l356 418h156l-437 -512z" />
    <glyph glyph-name="y" unicode="y" 
d="M1200 1069l-698 -1208q-84 -148 -153 -197q-68 -49 -171 -49q-33 0 -60 4q-37 6 -55 10l17 119q17 -5 48 -10q23 -4 50 -4q64 0 106 33q43 34 93 122l82 140l-283 1042l135 -2l236 -885l508 885h145z" />
    <glyph glyph-name="z" unicode="z" 
d="M262 117h735l-16 -117h-911l14 102l856 850h-729l16 117h899l-16 -106z" />
    <glyph glyph-name="braceleft" unicode="{" 
d="M319 598h-94l15 115h94q63 0 102 39q38 38 49 112l45 314q22 162 120 248q97 85 261 85h244l-16 -114h-207q-129 0 -195 -60t-84 -194l-39 -279q-12 -85 -50 -137t-107 -76q66 -27 88 -74t10 -131l-39 -278q-18 -123 37 -188q55 -66 176 -66h201l-17 -115h-208
q-161 0 -250 92t-72 244l43 311q11 77 -16 114q-27 38 -91 38z" />
    <glyph glyph-name="bar" unicode="|" 
d="M575 -201h-133l242 1712h133z" />
    <glyph glyph-name="braceright" unicode="}" 
d="M944 713h94l-14 -115h-94q-64 0 -103 -39q-38 -38 -49 -113l-45 -313q-23 -163 -120 -249q-97 -85 -261 -85h-243l16 115h207q129 0 194 59q66 60 84 195l39 278q12 87 50 138q37 50 108 75q-65 27 -88 75q-22 47 -10 130l39 279q18 123 -37 188q-56 66 -176 66h-201
l16 114h209q161 0 250 -92q89 -91 72 -243l-43 -312q-10 -76 16 -113q27 -38 90 -38z" />
    <glyph glyph-name="asciitilde" unicode="~" 
d="M494 772q37 0 70 -16q34 -16 87 -66q43 -39 66 -51t45 -12q43 0 79 40q35 39 56 107h111q-30 -131 -97 -208q-65 -74 -151 -74q-38 0 -71 16q-37 18 -87 65q-43 41 -63 52q-23 12 -45 12q-43 0 -80 -40t-58 -108h-110q30 133 96 208t152 75z" />
    <glyph glyph-name="uni00A0" unicode="&#xa0;" 
 />
    <glyph glyph-name="exclamdown" unicode="&#xa1;" 
d="M635 1042h102l-114 -1042h-166zM655 1470h185l-29 -196h-182z" />
    <glyph glyph-name="cent" unicode="&#xa2;" 
d="M590 -217h-111l29 205q-167 33 -261 160q-95 128 -95 321q0 251 145 429q147 180 369 198l28 209h111l-31 -211q142 -17 235 -102t115 -218l-125 -47q-12 104 -75 173t-164 81l-127 -889q111 6 194 71q81 63 125 179l107 -49q-58 -149 -173 -231t-268 -82zM283 471
q0 -147 63 -245q62 -97 178 -124l125 879q-163 -24 -265 -168q-101 -143 -101 -342z" />
    <glyph glyph-name="sterling" unicode="&#xa3;" 
d="M481 164q-50 -87 -128 -136q-77 -48 -165 -48q-91 0 -151 54t-60 138q0 99 75 168q76 70 188 70q46 0 96 -16q45 -15 94 -46q3 12 5 39q1 14 1 41q0 39 -8 89q-6 40 -25 104h-225l17 110h174q-30 89 -42 148q-12 60 -12 116q0 210 142 354q141 142 356 142
q186 0 302 -107t116 -274q0 -58 -17 -124q-16 -61 -47 -124h-129q27 54 43 118q15 60 15 114q0 124 -78 200q-77 76 -209 76q-157 0 -259 -106q-101 -105 -101 -271q0 -47 10 -97q12 -58 43 -165h342l-17 -110h-295q15 -69 18 -97q5 -45 5 -80q0 -49 -7 -90q-7 -39 -20 -82
q134 -114 192 -141t118 -27q97 0 156 65q58 64 79 196h123q-22 -182 -117 -284q-94 -101 -241 -101q-86 0 -160 35q-73 35 -197 149zM233 309q-63 0 -103 -37t-40 -94q0 -42 30 -69t77 -27q60 0 115 41q53 40 87 115q-40 34 -84 54q-38 17 -82 17z" />
    <glyph glyph-name="yen" unicode="&#xa5;" 
d="M539 403h-385l14 105h385l27 194h-383l14 107h324l-336 661h151l312 -641l489 641h160l-520 -661h325l-16 -107h-385l-27 -194h385l-14 -105h-385l-58 -403h-135z" />
    <glyph glyph-name="section" unicode="&#xa7;" 
d="M893 471q28 -28 43 -64q14 -34 14 -83q0 -150 -114 -249q-115 -100 -299 -100q-170 0 -296 84q-127 85 -157 222l111 59q27 -113 122 -181q96 -69 226 -69q118 0 196 61q76 60 76 150q0 64 -58 106q-58 41 -202 82q-192 56 -263 115q-73 61 -73 160q0 77 39 142
q40 66 113 112q-33 28 -48 66q-16 40 -16 85q0 138 106 230t273 92q153 0 263 -71q109 -70 136 -187l-108 -62q-29 99 -108 153q-80 54 -191 54q-104 0 -170 -51t-66 -133q0 -64 54 -103q55 -39 194 -79q178 -50 258 -118q78 -66 78 -175q0 -77 -34 -139q-36 -66 -99 -109z
M352 791q0 -61 57 -102t205 -85q71 -22 110 -36q53 -19 73 -29q48 28 71 68q25 44 25 91q0 71 -59 114q-63 46 -203 85q-62 18 -90 29q-61 23 -70 28q-55 -24 -87 -68t-32 -95z" />
    <glyph glyph-name="dieresis" unicode="&#xa8;" 
d="M631 1274h-158l27 184h157zM963 1274h-156l24 184h158z" />
    <glyph glyph-name="copyright" unicode="&#xa9;" 
d="M1214 879q0 -378 -185 -638q-186 -261 -466 -261q-224 0 -358 168q-135 170 -135 444q0 378 185 638q186 261 466 261q223 0 358 -169t135 -443zM1124 879q0 237 -110 381q-111 145 -293 145q-243 0 -402 -237t-159 -576q0 -237 110 -381q111 -145 293 -145
q244 0 402 236q159 237 159 577zM608 307q-116 0 -182 90t-66 254q0 220 98 368q97 146 244 146q95 0 153 -61q59 -62 69 -172l-113 -33q-6 75 -37 117q-30 41 -80 41q-89 0 -151 -122t-62 -286q0 -111 36 -171t97 -60q46 0 87 41q40 40 67 116l106 -34q-40 -114 -108 -174
t-158 -60z" />
    <glyph glyph-name="ordfeminine" unicode="&#xaa;" 
d="M1030 807l-14 -105q-90 -16 -151 9q-57 24 -62 82q-38 -48 -104 -76q-67 -29 -142 -29q-112 0 -177 56q-67 58 -67 151q0 107 87 174q88 68 255 92l195 31l6 43q7 66 -29 102q-37 37 -112 37q-76 2 -127 -32q-55 -36 -78 -97l-119 35q39 100 126 152q88 53 208 53
q135 0 207 -66q71 -66 55 -178l-53 -383q-4 -37 18 -49q23 -12 78 -2zM588 791q90 0 154 48q65 48 75 119l19 140l-162 -27q-118 -21 -174 -61q-58 -41 -58 -107q0 -53 39 -83q38 -29 107 -29zM979 440h-713l15 101h712z" />
    <glyph glyph-name="guillemotleft" unicode="&#xab;" 
d="M549 197l-342 290l18 136l422 288l-18 -151l-310 -209l250 -211zM967 197l-342 290l18 136l422 288l-18 -151l-310 -209l250 -211z" />
    <glyph glyph-name="registered" unicode="&#xae;" 
d="M258 1024q0 194 135 330q135 137 326 137q174 0 286 -110q111 -109 111 -281q0 -194 -135 -330q-135 -137 -326 -137q-175 0 -285 109q-112 110 -112 282zM319 1024q0 -145 96 -241q95 -95 240 -95q166 0 283 122t117 290q0 144 -96 240t-240 96q-166 0 -283 -122
t-117 -290zM758 1030l98 -178h-88l-94 166h-82l-25 -166h-82l62 432h180q73 0 113 -33q41 -33 41 -88q0 -51 -33 -87q-32 -35 -90 -46zM797 1157q0 28 -23 45t-61 17h-95l-18 -138h107q42 0 66 21t24 55z" />
    <glyph glyph-name="macron" unicode="&#xaf;" 
d="M995 1366l-14 -109h-530l14 109h530z" />
    <glyph glyph-name="degree" unicode="&#xb0;" 
d="M436 1196q0 120 86 208q86 87 207 87q109 0 182 -73q72 -72 72 -181q0 -124 -85 -210q-86 -87 -208 -87q-109 0 -181 74q-73 75 -73 182zM541 1200q0 -65 45 -110q46 -46 112 -46q74 0 127 56q54 57 54 131q0 67 -45 112q-46 46 -113 46q-75 0 -128 -56q-52 -55 -52 -133
z" />
    <glyph glyph-name="uni00B2" unicode="&#xb2;" 
d="M346 655l12 90l316 236q98 71 146 137q46 62 46 127q0 64 -40 103q-39 38 -105 38q-78 0 -127 -55t-49 -141q0 -29 1 -37q2 -16 5 -23h-111q-5 15 -6 31q-2 22 -2 35q0 128 84 210q85 83 213 83q112 0 184 -66t72 -170q0 -83 -52 -162q-53 -80 -163 -159l-235 -174h399
l-16 -103h-572z" />
    <glyph glyph-name="uni00B3" unicode="&#xb3;" 
d="M956 901q0 -111 -84 -184q-85 -74 -215 -74q-123 0 -206 71t-84 187l112 19q4 -79 55 -128t130 -49t129 46q51 47 51 114q0 61 -42 96q-43 35 -112 35h-92l14 94h97q72 0 118 40q47 41 47 102q0 52 -38 84t-103 32q-71 0 -120 -40q-50 -41 -68 -115l-109 18
q30 112 111 176t192 64q113 0 181 -58q69 -59 69 -151q0 -70 -43 -125q-44 -56 -115 -80q58 -17 92 -63q33 -44 33 -111z" />
    <glyph glyph-name="acute" unicode="&#xb4;" 
d="M662 1188h-111l149 282h181z" />
    <glyph glyph-name="paragraph" unicode="&#xb6;" 
d="M854 0h-137l188 1348h-147l-80 -568h-100q-175 0 -272 82t-97 230q0 166 121 272t315 106h588l-16 -122h-175z" />
    <glyph glyph-name="periodcentered" unicode="&#xb7;" 
d="M719 498h-221l34 237h220z" />
    <glyph glyph-name="cedilla" unicode="&#xb8;" 
d="M698 -221q0 -76 -58 -122t-153 -46q-63 0 -114 22q-53 23 -88 64l67 72q30 -34 65 -52q36 -18 75 -18q47 0 75 22q29 23 29 60q0 41 -42 63q-44 24 -118 25l66 149h82l-39 -88q72 -12 113 -51q40 -39 40 -100z" />
    <glyph glyph-name="uni00B9" unicode="&#xb9;" 
d="M752 1479h86l-101 -723h193l-15 -101h-528l14 101h220l73 504h-211l13 86l108 4q69 5 101 32q31 27 47 97z" />
    <glyph glyph-name="ordmasculine" unicode="&#xba;" 
d="M334 1034q0 190 111 321q111 130 282 130q148 0 234 -93q86 -94 86 -253q0 -189 -112 -321q-111 -130 -282 -130q-147 0 -233 93q-86 94 -86 253zM465 1036q0 -111 52 -175t142 -64q112 0 185 98q74 100 74 240q0 111 -54 177q-52 64 -143 64q-109 0 -182 -98
q-74 -100 -74 -242zM932 440h-664l15 101h663z" />
    <glyph glyph-name="guillemotright" unicode="&#xbb;" 
d="M686 913l342 -290l-18 -136l-422 -288l18 151l309 209l-249 211zM268 913l342 -290l-18 -136l-422 -288l18 151l310 209l-250 211z" />
    <glyph glyph-name="onequarter" unicode="&#xbc;" horiz-adv-x="2457" 
d="M752 1479h86l-101 -723h193l-15 -101h-528l14 101h220l73 504h-211l13 86l108 4q69 5 101 32q31 27 47 97zM559 0l1262 1470h131l-1260 -1470h-133zM1923 213l-29 -213h-108l31 213h-392l15 88l418 520h153l-74 -514h146l-15 -94h-145zM1886 719l-332 -412h275z" />
    <glyph glyph-name="onehalf" unicode="&#xbd;" horiz-adv-x="2457" 
d="M752 1479h86l-101 -723h193l-15 -101h-528l14 101h220l73 504h-211l13 86l108 4q69 5 101 32q31 27 47 97zM559 0l1262 1470h131l-1260 -1470h-133zM1483 0l12 90l315 236q100 73 147 137q46 62 46 127q0 63 -40 102t-105 39q-78 0 -127 -55q-50 -56 -50 -141
q0 -29 1 -37q2 -13 6 -23h-111q-5 15 -6 31q-2 22 -2 35q0 127 84 210q85 83 213 83q112 0 184 -66t72 -170q0 -84 -52 -163q-53 -80 -163 -159l-236 -174h400l-17 -102h-571z" />
    <glyph glyph-name="threequarters" unicode="&#xbe;" horiz-adv-x="2457" 
d="M956 901q0 -111 -84 -184q-85 -74 -215 -74q-123 0 -206 71t-84 187l112 19q4 -79 55 -128t130 -49t129 46q51 47 51 114q0 61 -42 96q-43 35 -112 35h-92l14 94h97q72 0 118 40q47 41 47 102q0 52 -38 84t-103 32q-71 0 -120 -40q-50 -41 -68 -115l-109 18
q30 112 111 176t192 64q113 0 181 -58q69 -59 69 -151q0 -70 -43 -125q-44 -56 -115 -80q58 -17 92 -63q33 -44 33 -111zM559 0l1262 1470h131l-1260 -1470h-133zM1923 213l-29 -213h-108l31 213h-392l15 88l418 520h153l-74 -514h146l-15 -94h-145zM1886 719l-332 -412h275
z" />
    <glyph glyph-name="questiondown" unicode="&#xbf;" 
d="M256 389q0 -126 82 -202t217 -76q142 0 248 86q103 84 147 241l129 -32q-53 -196 -195 -308q-141 -112 -335 -110q-202 0 -318 107t-116 286q0 187 133 317q135 132 338 144l28 209h131l-43 -314q-204 0 -325 -96t-121 -252zM647 1479h184l-28 -197h-182z" />
    <glyph glyph-name="Agrave" unicode="&#xc0;" 
d="M-29 0l703 1470h155l277 -1470h-141l-76 428h-567l-201 -428h-150zM866 553l-133 754l-352 -754h485zM623 1870l196 -293h-108l-273 293h185z" />
    <glyph glyph-name="Aacute" unicode="&#xc1;" 
d="M-29 0l703 1470h155l277 -1470h-141l-76 428h-567l-201 -428h-150zM866 553l-133 754l-352 -754h485zM809 1577h-119l266 293h197z" />
    <glyph glyph-name="Acircumflex" unicode="&#xc2;" 
d="M-29 0l703 1470h155l277 -1470h-141l-76 428h-567l-201 -428h-150zM866 553l-133 754l-352 -754h485zM719 1870h166l200 -293h-106l-184 203l-240 -203h-119z" />
    <glyph glyph-name="Atilde" unicode="&#xc3;" 
d="M-29 0l703 1470h155l277 -1470h-141l-76 428h-567l-201 -428h-150zM866 553l-133 754l-352 -754h485zM1051 1837h100q-24 -120 -87 -189t-146 -69q-40 0 -74 15q-35 15 -88 65q-43 40 -67 52q-22 11 -48 11q-46 0 -79 -36q-33 -35 -54 -109h-102q24 121 87 190
q64 70 146 70q39 0 74 -15q34 -15 88 -67q46 -40 68 -51q24 -12 49 -12q44 0 78 37t55 108z" />
    <glyph glyph-name="Adieresis" unicode="&#xc4;" 
d="M-29 0l703 1470h155l277 -1470h-141l-76 428h-567l-201 -428h-150zM866 553l-133 754l-352 -754h485zM670 1589h-156l25 183h157zM1010 1589h-158l27 183h157z" />
    <glyph glyph-name="Aring" unicode="&#xc5;" 
d="M549 1602q0 92 63 156q63 65 158 65q88 0 145 -57q58 -58 58 -142q0 -66 -37 -121t-98 -82l268 -1421h-141l-76 428h-567l-201 -428h-150l682 1427q-49 22 -76 69q-28 48 -28 106zM643 1602q0 -48 31 -79q30 -30 80 -30q53 0 89 39t36 92q0 50 -32 80q-33 31 -79 31
q-53 0 -89 -39t-36 -94zM866 553l-133 754l-352 -754h485z" />
    <glyph glyph-name="AE" unicode="&#xc6;" 
d="M-76 0l740 1470h665l-18 -124h-420l-72 -523h357l-19 -125h-356l-80 -573h418l-17 -125h-559l62 436h-336l-219 -436h-146zM756 1374l-406 -815h291z" />
    <glyph glyph-name="Ccedilla" unicode="&#xc7;" 
d="M707 -221q0 -75 -59 -122q-58 -46 -152 -46q-64 0 -115 22q-53 23 -88 64l67 72q30 -34 65 -52q36 -18 75 -18q47 0 75 22q29 23 29 60q0 41 -42 63q-44 24 -118 25l54 121q-186 39 -287 201q-102 163 -102 415q0 160 43 308q45 155 120 272q94 146 225 225
q131 80 275 80q175 0 300 -110q124 -109 157 -298l-135 -39q-27 152 -114 236t-214 84q-215 0 -368 -226q-152 -225 -152 -530q0 -232 98 -366q100 -136 266 -136q126 0 230 82t166 230l127 -56q-82 -184 -219 -283q-136 -99 -308 -99h-15h-16l-22 -50q73 -12 114 -51
q40 -39 40 -100z" />
    <glyph glyph-name="Egrave" unicode="&#xc8;" 
d="M74 0l207 1470h950l-19 -124h-809l-71 -523h692l-18 -125h-693l-80 -573h809l-18 -125h-950zM686 1870l197 -293h-109l-272 293h184z" />
    <glyph glyph-name="Eacute" unicode="&#xc9;" 
d="M74 0l207 1470h950l-19 -124h-809l-71 -523h692l-18 -125h-693l-80 -573h809l-18 -125h-950zM752 1577h-119l266 293h197z" />
    <glyph glyph-name="Ecircumflex" unicode="&#xca;" 
d="M74 0l207 1470h950l-19 -124h-809l-71 -523h692l-18 -125h-693l-80 -573h809l-18 -125h-950zM733 1870h166l201 -293h-107l-184 203l-240 -203h-118z" />
    <glyph glyph-name="Edieresis" unicode="&#xcb;" 
d="M74 0l207 1470h950l-19 -124h-809l-71 -523h692l-18 -125h-693l-80 -573h809l-18 -125h-950zM676 1589h-156l25 183h157zM1016 1589h-158l27 183h157z" />
    <glyph glyph-name="Igrave" unicode="&#xcc;" 
d="M629 125h436l-18 -125h-1018l18 125h438l170 1221h-438l19 124h1017l-18 -124h-436zM635 1870l196 -293h-108l-272 293h184z" />
    <glyph glyph-name="Iacute" unicode="&#xcd;" 
d="M629 125h436l-18 -125h-1018l18 125h438l170 1221h-438l19 124h1017l-18 -124h-436zM817 1577h-119l267 293h196z" />
    <glyph glyph-name="Icircumflex" unicode="&#xce;" 
d="M629 125h436l-18 -125h-1018l18 125h438l170 1221h-438l19 124h1017l-18 -124h-436zM719 1870h166l200 -293h-106l-184 203l-240 -203h-119z" />
    <glyph glyph-name="Idieresis" unicode="&#xcf;" 
d="M629 125h436l-18 -125h-1018l18 125h438l170 1221h-438l19 124h1017l-18 -124h-436zM670 1589h-156l25 183h157zM1010 1589h-158l27 183h157z" />
    <glyph glyph-name="Eth" unicode="&#xd0;" 
d="M389 0h-315l98 696h-117l17 127h118l91 647h272q287 0 453 -172q165 -171 165 -464q0 -366 -215 -601q-214 -233 -567 -233zM311 696l-80 -571h156q294 0 469 196q174 195 174 510q0 233 -132 374t-357 141h-138l-73 -523h352l-18 -127h-353z" />
    <glyph glyph-name="Ntilde" unicode="&#xd1;" 
d="M1075 1470h135l-206 -1470h-127l-492 1249l-176 -1249h-135l207 1470h151l473 -1202zM1051 1837h100q-24 -120 -87 -189t-146 -69q-40 0 -74 15q-35 15 -88 65q-43 40 -67 52q-22 11 -48 11q-46 0 -79 -36q-33 -35 -54 -109h-102q24 121 87 190q64 70 146 70q39 0 74 -15
q34 -15 88 -67q46 -40 68 -51q24 -12 49 -12q44 0 78 37t55 108z" />
    <glyph glyph-name="Ograve" unicode="&#xd2;" 
d="M1176 879q0 -375 -177 -638q-175 -261 -438 -261q-211 0 -332 163q-120 161 -120 449q0 376 176 638q175 261 438 261q210 0 332 -164q121 -163 121 -448zM1038 877q0 225 -86 356t-233 131q-200 0 -336 -227q-137 -229 -137 -543q0 -225 86 -356q86 -132 233 -132
q199 0 336 228q137 229 137 543zM674 1870l196 -293h-108l-273 293h185z" />
    <glyph glyph-name="Oacute" unicode="&#xd3;" 
d="M1176 879q0 -375 -177 -638q-175 -261 -438 -261q-211 0 -332 163q-120 161 -120 449q0 376 176 638q175 261 438 261q210 0 332 -164q121 -163 121 -448zM1038 877q0 225 -86 356t-233 131q-200 0 -336 -227q-137 -229 -137 -543q0 -225 86 -356q86 -132 233 -132
q199 0 336 228q137 229 137 543zM825 1577h-118l266 293h196z" />
    <glyph glyph-name="Ocircumflex" unicode="&#xd4;" 
d="M1176 879q0 -375 -177 -638q-175 -261 -438 -261q-211 0 -332 163q-120 161 -120 449q0 376 176 638q175 261 438 261q210 0 332 -164q121 -163 121 -448zM1038 877q0 225 -86 356t-233 131q-200 0 -336 -227q-137 -229 -137 -543q0 -225 86 -356q86 -132 233 -132
q199 0 336 228q137 229 137 543zM719 1870h166l200 -293h-106l-184 203l-240 -203h-119z" />
    <glyph glyph-name="Otilde" unicode="&#xd5;" 
d="M1176 879q0 -375 -177 -638q-175 -261 -438 -261q-211 0 -332 163q-120 161 -120 449q0 376 176 638q175 261 438 261q210 0 332 -164q121 -163 121 -448zM1038 877q0 225 -86 356t-233 131q-200 0 -336 -227q-137 -229 -137 -543q0 -225 86 -356q86 -132 233 -132
q199 0 336 228q137 229 137 543zM1051 1837h100q-24 -120 -87 -189t-146 -69q-40 0 -74 15q-35 15 -88 65q-43 40 -67 52q-22 11 -48 11q-46 0 -79 -36q-33 -35 -54 -109h-102q24 121 87 190q64 70 146 70q39 0 74 -15q34 -15 88 -67q46 -40 68 -51q24 -12 49 -12
q44 0 78 37t55 108z" />
    <glyph glyph-name="Odieresis" unicode="&#xd6;" 
d="M1176 879q0 -375 -177 -638q-175 -261 -438 -261q-211 0 -332 163q-120 161 -120 449q0 376 176 638q175 261 438 261q210 0 332 -164q121 -163 121 -448zM1038 877q0 225 -86 356t-233 131q-200 0 -336 -227q-137 -229 -137 -543q0 -225 86 -356q86 -132 233 -132
q199 0 336 228q137 229 137 543zM670 1589h-156l25 183h157zM1010 1589h-158l27 183h157z" />
    <glyph glyph-name="multiply" unicode="&#xd7;" 
d="M145 340l412 362l-311 363l88 78l313 -363l406 363l80 -86l-410 -365l307 -360l-90 -80l-309 360l-410 -362z" />
    <glyph glyph-name="Oslash" unicode="&#xd8;" 
d="M92 -43l-84 63l168 213q-31 73 -50 166q-17 85 -17 193q0 376 176 638q175 261 438 261q104 0 185 -40q84 -41 143 -118l141 180l84 -63l-168 -213q31 -73 50 -166q18 -90 18 -192q0 -375 -177 -638q-175 -261 -438 -261q-106 0 -185 39q-84 41 -143 118zM719 1368
q-199 0 -338 -228q-139 -227 -139 -546q0 -65 8 -129q8 -60 24 -111l689 871q-43 68 -105 106q-61 37 -139 37zM565 102q201 0 339 228t138 547q0 65 -8 129q-7 58 -24 110l-688 -870q45 -71 104 -107q61 -37 139 -37z" />
    <glyph glyph-name="Ugrave" unicode="&#xd9;" 
d="M569 -20q-240 0 -356 152q-117 154 -80 423l129 915h141l-127 -909q-30 -219 47 -334q77 -114 250 -114q167 0 260 108q92 106 125 340l129 909h142l-127 -915q-40 -288 -174 -432q-133 -143 -359 -143zM684 1870l197 -293h-109l-272 293h184z" />
    <glyph glyph-name="Uacute" unicode="&#xda;" 
d="M569 -20q-240 0 -356 152q-117 154 -80 423l129 915h141l-127 -909q-30 -219 47 -334q77 -114 250 -114q167 0 260 108q92 106 125 340l129 909h142l-127 -915q-40 -288 -174 -432q-133 -143 -359 -143zM764 1577h-119l266 293h197z" />
    <glyph glyph-name="Ucircumflex" unicode="&#xdb;" 
d="M569 -20q-240 0 -356 152q-117 154 -80 423l129 915h141l-127 -909q-30 -219 47 -334q77 -114 250 -114q167 0 260 108q92 106 125 340l129 909h142l-127 -915q-40 -288 -174 -432q-133 -143 -359 -143zM719 1870h166l200 -293h-106l-184 203l-240 -203h-119z" />
    <glyph glyph-name="Udieresis" unicode="&#xdc;" 
d="M569 -20q-240 0 -356 152q-117 154 -80 423l129 915h141l-127 -909q-30 -219 47 -334q77 -114 250 -114q167 0 260 108q92 106 125 340l129 909h142l-127 -915q-40 -288 -174 -432q-133 -143 -359 -143zM670 1589h-156l25 183h157zM1010 1589h-158l27 183h157z" />
    <glyph glyph-name="Yacute" unicode="&#xdd;" 
d="M295 1470l346 -712l547 712h158l-648 -839l-88 -631h-143l88 631l-412 839h152zM776 1577h-119l267 293h196z" />
    <glyph glyph-name="Thorn" unicode="&#xde;" 
d="M1196 809q0 -199 -139 -320q-138 -120 -377 -120h-412l-51 -369h-143l207 1470h143l-41 -288h356q216 0 337 -98q120 -98 120 -275zM723 1061h-356l-82 -572h387q175 0 279 86t104 228q0 122 -86 190t-246 68z" />
    <glyph glyph-name="germandbls" unicode="&#xdf;" horiz-adv-x="1232" 
d="M244 0h-135l143 1018q30 224 156 350q125 125 321 125q170 0 275 -93q104 -92 104 -241q0 -121 -80 -213t-211 -121q146 -40 223 -134q76 -92 76 -234q0 -207 -138 -338q-139 -131 -362 -131q-53 0 -115 8q-63 8 -106 22l17 117q50 -17 102 -24q63 -9 102 -9
q166 0 267 99q100 99 100 254q0 145 -102 228q-103 83 -281 83h-92l16 119h123q149 0 238 72q88 72 88 194q0 103 -69 164q-68 61 -181 61q-137 0 -225 -94q-89 -95 -113 -268z" />
    <glyph glyph-name="agrave" unicode="&#xe0;" 
d="M1075 113l-16 -113q-127 -24 -198 14q-72 39 -66 121q-51 -67 -150 -112q-95 -43 -203 -43q-154 0 -245 76q-93 78 -93 208q0 146 120 240q119 94 358 133l280 45l10 72q12 100 -45 157q-58 58 -172 58q-114 2 -196 -49q-83 -51 -123 -150l-119 45q56 132 173 203
q118 72 276 72q177 0 270 -90t72 -240l-80 -570q-8 -58 27 -75q37 -18 120 -2zM463 92q137 0 237 75t115 183l31 225l-244 -43q-184 -34 -274 -98q-88 -63 -88 -164q0 -85 59 -131q61 -47 164 -47zM659 1470l89 -282h-99l-151 282h161z" />
    <glyph glyph-name="aacute" unicode="&#xe1;" 
d="M1075 113l-16 -113q-127 -24 -198 14q-72 39 -66 121q-51 -67 -150 -112q-95 -43 -203 -43q-154 0 -245 76q-93 78 -93 208q0 146 120 240q119 94 358 133l280 45l10 72q12 100 -45 157q-58 58 -172 58q-114 2 -196 -49q-83 -51 -123 -150l-119 45q56 132 173 203
q118 72 276 72q177 0 270 -90t72 -240l-80 -570q-8 -58 27 -75q37 -18 120 -2zM463 92q137 0 237 75t115 183l31 225l-244 -43q-184 -34 -274 -98q-88 -63 -88 -164q0 -85 59 -131q61 -47 164 -47zM752 1188h-111l150 282h180z" />
    <glyph glyph-name="acircumflex" unicode="&#xe2;" 
d="M1075 113l-16 -113q-127 -24 -198 14q-72 39 -66 121q-51 -67 -150 -112q-95 -43 -203 -43q-154 0 -245 76q-93 78 -93 208q0 146 120 240q119 94 358 133l280 45l10 72q12 100 -45 157q-58 58 -172 58q-114 2 -196 -49q-83 -51 -123 -150l-119 45q56 132 173 203
q118 72 276 72q177 0 270 -90t72 -240l-80 -570q-8 -58 27 -75q37 -18 120 -2zM463 92q137 0 237 75t115 183l31 225l-244 -43q-184 -34 -274 -98q-88 -63 -88 -164q0 -85 59 -131q61 -47 164 -47zM647 1470h156l160 -282h-103l-143 188l-195 -188h-114z" />
    <glyph glyph-name="atilde" unicode="&#xe3;" 
d="M1075 113l-16 -113q-127 -24 -198 14q-72 39 -66 121q-51 -67 -150 -112q-95 -43 -203 -43q-154 0 -245 76q-93 78 -93 208q0 146 120 240q119 94 358 133l280 45l10 72q12 100 -45 157q-58 58 -172 58q-114 2 -196 -49q-83 -51 -123 -150l-119 45q56 132 173 203
q118 72 276 72q177 0 270 -90t72 -240l-80 -570q-8 -58 27 -75q37 -18 120 -2zM463 92q137 0 237 75t115 183l31 225l-244 -43q-184 -34 -274 -98q-88 -63 -88 -164q0 -85 59 -131q61 -47 164 -47zM590 1352q-39 0 -69 -36q-28 -34 -50 -108h-94q22 121 77 188q54 66 130 66
q35 0 65 -15q29 -15 80 -67q38 -38 59 -50q19 -11 41 -11q40 0 70 37q32 40 49 108h94q-22 -121 -76 -188q-54 -68 -130 -68q-35 0 -67 17q-35 18 -79 65q-38 38 -59 50t-41 12z" />
    <glyph glyph-name="adieresis" unicode="&#xe4;" 
d="M1075 113l-16 -113q-127 -24 -198 14q-72 39 -66 121q-51 -67 -150 -112q-95 -43 -203 -43q-154 0 -245 76q-93 78 -93 208q0 146 120 240q119 94 358 133l280 45l10 72q12 100 -45 157q-58 58 -172 58q-114 2 -196 -49q-83 -51 -123 -150l-119 45q56 132 173 203
q118 72 276 72q177 0 270 -90t72 -240l-80 -570q-8 -58 27 -75q37 -18 120 -2zM463 92q137 0 237 75t115 183l31 225l-244 -43q-184 -34 -274 -98q-88 -63 -88 -164q0 -85 59 -131q61 -47 164 -47zM614 1274h-157l26 184h158zM946 1274h-155l24 184h158z" />
    <glyph glyph-name="aring" unicode="&#xe5;" 
d="M1075 113l-16 -113q-127 -24 -198 14q-72 39 -66 121q-51 -67 -150 -112q-95 -43 -203 -43q-154 0 -245 76q-93 78 -93 208q0 146 120 240q119 94 358 133l280 45l10 72q12 100 -45 157q-58 58 -172 58q-114 2 -196 -49q-83 -51 -123 -150l-119 45q56 132 173 203
q118 72 276 72q177 0 270 -90t72 -240l-80 -570q-8 -58 27 -75q37 -18 120 -2zM463 92q137 0 237 75t115 183l31 225l-244 -43q-184 -34 -274 -98q-88 -63 -88 -164q0 -85 59 -131q61 -47 164 -47zM518 1341q0 81 59 138t140 57q80 0 130 -50t50 -126q0 -82 -57 -139
q-58 -58 -142 -58q-78 0 -129 51t-51 127zM604 1341q0 -41 28 -71q27 -29 68 -29q47 0 80 35q33 34 33 82q0 41 -28 71q-27 29 -70 29q-47 0 -79 -35t-32 -82z" />
    <glyph glyph-name="ae" unicode="&#xe6;" 
d="M1055 332l104 -45q-44 -147 -133 -227t-207 -80q-97 0 -169 57q-73 58 -103 158q-46 -101 -125 -159q-77 -56 -176 -56q-114 0 -184 74t-70 198q0 175 128 277t359 102h58l16 123q15 97 -26 156t-119 59q-80 0 -135 -55q-53 -53 -80 -158l-107 35q30 133 120 216
q89 81 208 83q88 0 152 -47q63 -47 81 -128q58 89 126 131q71 44 153 44q156 0 236 -147q79 -145 44 -374l-4 -45h-567q0 -8 -1.5 -24.5t-2.5 -25.5q-2 -34 -2 -50q0 -151 53 -239q52 -87 147 -87q78 0 136 61q57 60 90 173zM920 971q-90 0 -162 -92q-73 -92 -107 -248h441
q16 149 -31 245q-47 95 -141 95zM117 258q0 -77 39 -121q39 -43 110 -43q88 0 153 75t81 198l22 157h-41q-181 0 -273 -66q-91 -66 -91 -200z" />
    <glyph glyph-name="ccedilla" unicode="&#xe7;" 
d="M694 971q-177 0 -298 -148q-120 -147 -120 -362q0 -166 90 -265q89 -98 240 -98q121 0 207 62t129 178l113 -47q-53 -147 -173 -230q-118 -81 -284 -81h-16h-17l-22 -50q72 -12 113 -51q40 -39 40 -100q0 -76 -58 -122t-153 -46q-63 0 -114 22q-53 23 -88 64l67 72
q30 -34 65 -52q36 -18 74 -18q48 0 76 22q29 23 29 60q0 41 -42 63q-44 24 -118 25l53 121q-164 33 -255 154t-91 311q0 264 160 450q159 185 399 185q168 0 283 -88t139 -230l-123 -45q-21 113 -102 178q-83 66 -203 66z" />
    <glyph glyph-name="egrave" unicode="&#xe8;" 
d="M590 -20q-209 0 -326 126q-119 128 -119 349q0 267 155 451t388 184q214 0 322 -146t75 -377l-6 -43h-800q-3 -21 -3 -23v-40q0 -167 86 -265t236 -98q114 0 200 60t126 170l112 -47q-60 -146 -174 -224q-113 -77 -272 -77zM682 973q-138 0 -241 -93t-144 -249h659
q17 157 -58 249q-75 93 -216 93zM715 1470l88 -282h-98l-152 282h162z" />
    <glyph glyph-name="eacute" unicode="&#xe9;" 
d="M590 -20q-209 0 -326 126q-119 128 -119 349q0 267 155 451t388 184q214 0 322 -146t75 -377l-6 -43h-800q-3 -21 -3 -23v-40q0 -167 86 -265t236 -98q114 0 200 60t126 170l112 -47q-60 -146 -174 -224q-113 -77 -272 -77zM682 973q-138 0 -241 -93t-144 -249h659
q17 157 -58 249q-75 93 -216 93zM788 1188h-110l149 282h181z" />
    <glyph glyph-name="ecircumflex" unicode="&#xea;" 
d="M590 -20q-209 0 -326 126q-119 128 -119 349q0 267 155 451t388 184q214 0 322 -146t75 -377l-6 -43h-800q-3 -21 -3 -23v-40q0 -167 86 -265t236 -98q114 0 200 60t126 170l112 -47q-60 -146 -174 -224q-113 -77 -272 -77zM682 973q-138 0 -241 -93t-144 -249h659
q17 157 -58 249q-75 93 -216 93zM692 1470h156l160 -282h-103l-143 188l-195 -188h-114z" />
    <glyph glyph-name="edieresis" unicode="&#xeb;" 
d="M590 -20q-209 0 -326 126q-119 128 -119 349q0 267 155 451t388 184q214 0 322 -146t75 -377l-6 -43h-800q-3 -21 -3 -23v-40q0 -167 86 -265t236 -98q114 0 200 60t126 170l112 -47q-60 -146 -174 -224q-113 -77 -272 -77zM682 973q-138 0 -241 -93t-144 -249h659
q17 157 -58 249q-75 93 -216 93zM657 1274h-157l26 184h158zM989 1274h-155l24 184h158z" />
    <glyph glyph-name="igrave" unicode="&#xec;" 
d="M1067 0h-975l17 117h419l117 835h-418l17 117h555l-135 -952h419zM700 1470l88 -282h-98l-151 282h161z" />
    <glyph glyph-name="iacute" unicode="&#xed;" 
d="M1067 0h-975l17 117h419l117 835h-418l17 117h555l-135 -952h419zM811 1188h-111l150 282h180z" />
    <glyph glyph-name="icircumflex" unicode="&#xee;" 
d="M1067 0h-975l17 117h419l117 835h-418l17 117h555l-135 -952h419zM705 1470h155l160 -282h-102l-144 188l-194 -188h-115z" />
    <glyph glyph-name="idieresis" unicode="&#xef;" 
d="M1067 0h-975l17 117h419l117 835h-418l17 117h555l-135 -952h419zM668 1274h-158l27 184h157zM999 1274h-155l24 184h158z" />
    <glyph glyph-name="eth" unicode="&#xf0;" 
d="M662 1085q98 0 175 -42q76 -42 113 -117q-18 86 -65 169q-44 77 -117 148l-340 -94l14 111l230 63q-38 28 -99 61q-63 34 -110 54l110 55q69 -30 123 -61q59 -34 107 -72l268 74l-16 -111l-162 -45q108 -114 160 -257q53 -145 53 -319q0 -321 -150 -522
q-149 -200 -393 -200q-198 0 -315 129t-117 348q0 265 152 447q151 181 379 181zM268 461q0 -169 80 -267t221 -98q169 0 280 149q112 150 112 363q0 170 -80 268q-79 97 -219 97q-168 0 -281 -148t-113 -364z" />
    <glyph glyph-name="ntilde" unicode="&#xf1;" 
d="M266 0h-135l152 1069h135l-23 -162q55 85 148 134t198 49q166 0 252 -109t62 -289l-99 -692h-135l97 674q18 136 -40 212q-59 77 -180 77q-129 0 -225 -90q-94 -88 -115 -228zM614 1352q-38 0 -68 -36q-28 -34 -50 -108h-95q22 121 77 188q54 66 130 66q36 0 66 -15
q29 -15 80 -67q38 -38 59 -50q19 -11 41 -11q40 0 70 37q32 40 49 108h94q-22 -119 -77 -188q-54 -68 -130 -68q-34 0 -66 17q-35 18 -79 65q-37 37 -60 50q-21 12 -41 12z" />
    <glyph glyph-name="ograve" unicode="&#xf2;" 
d="M131 457q0 266 153 449q154 184 384 184q199 0 313 -129q115 -130 115 -351q0 -265 -153 -448q-152 -182 -384 -182q-199 0 -313 128q-115 129 -115 349zM266 461q0 -169 81 -267t220 -98q168 0 281 150q113 151 113 362q0 170 -81 268q-81 97 -221 97q-168 0 -280 -150
q-113 -151 -113 -362zM684 1470l88 -282h-98l-152 282h162z" />
    <glyph glyph-name="oacute" unicode="&#xf3;" 
d="M131 457q0 266 153 449q154 184 384 184q199 0 313 -129q115 -130 115 -351q0 -265 -153 -448q-152 -182 -384 -182q-199 0 -313 128q-115 129 -115 349zM266 461q0 -169 81 -267t220 -98q168 0 281 150q113 151 113 362q0 170 -81 268q-81 97 -221 97q-168 0 -280 -150
q-113 -151 -113 -362zM756 1188h-111l150 282h180z" />
    <glyph glyph-name="ocircumflex" unicode="&#xf4;" 
d="M131 457q0 266 153 449q154 184 384 184q199 0 313 -129q115 -130 115 -351q0 -265 -153 -448q-152 -182 -384 -182q-199 0 -313 128q-115 129 -115 349zM266 461q0 -169 81 -267t220 -98q168 0 281 150q113 151 113 362q0 170 -81 268q-81 97 -221 97q-168 0 -280 -150
q-113 -151 -113 -362zM668 1470h155l160 -282h-102l-144 188l-194 -188h-115z" />
    <glyph glyph-name="otilde" unicode="&#xf5;" 
d="M131 457q0 266 153 449q154 184 384 184q199 0 313 -129q115 -130 115 -351q0 -265 -153 -448q-152 -182 -384 -182q-199 0 -313 128q-115 129 -115 349zM266 461q0 -169 81 -267t220 -98q168 0 281 150q113 151 113 362q0 170 -81 268q-81 97 -221 97q-168 0 -280 -150
q-113 -151 -113 -362zM594 1352q-39 0 -69 -36q-28 -34 -50 -108h-94q22 121 77 188q54 66 130 66q35 0 65 -15q29 -15 80 -67q37 -37 60 -50q19 -11 41 -11q39 0 69 37q32 40 49 108h95q-22 -119 -77 -188q-54 -68 -130 -68q-35 0 -67 17q-35 18 -79 65q-38 38 -59 50
t-41 12z" />
    <glyph glyph-name="odieresis" unicode="&#xf6;" 
d="M131 457q0 266 153 449q154 184 384 184q199 0 313 -129q115 -130 115 -351q0 -265 -153 -448q-152 -182 -384 -182q-199 0 -313 128q-115 129 -115 349zM266 461q0 -169 81 -267t220 -98q168 0 281 150q113 151 113 362q0 170 -81 268q-81 97 -221 97q-168 0 -280 -150
q-113 -151 -113 -362zM631 1274h-158l27 184h157zM963 1274h-156l24 184h158z" />
    <glyph glyph-name="divide" unicode="&#xf7;" 
d="M770 1008h-182l24 180h183zM1145 639h-1030l16 123h1030zM659 215h-184l27 178h182z" />
    <glyph glyph-name="oslash" unicode="&#xf8;" 
d="M1096 610q0 -265 -153 -448q-152 -182 -384 -182q-91 0 -162 26q-73 27 -129 78l-125 -133l-75 69l135 146q-35 58 -53 131q-19 78 -19 160q0 266 153 449q154 184 384 184q87 0 166 -28q74 -26 131 -83l112 119l78 -70l-127 -133q31 -54 50 -129q18 -72 18 -156z
M659 975q-167 0 -281 -150t-114 -364q0 -53 8 -104q7 -44 27 -89l578 615q-38 43 -97 68q-56 24 -121 24zM567 92q169 0 284 151q114 150 114 365q0 44 -9 100q-7 45 -24 83l-576 -613q39 -41 95 -64q55 -22 116 -22z" />
    <glyph glyph-name="ugrave" unicode="&#xf9;" 
d="M958 1069h138l-152 -1069h-135l22 162q-56 -86 -147 -134q-92 -48 -199 -48q-168 0 -253 107q-84 106 -60 288l96 694h138l-97 -674q-21 -135 38 -212t181 -77q131 0 226 89q93 87 114 229zM674 1470l88 -282h-98l-152 282h162z" />
    <glyph glyph-name="uacute" unicode="&#xfa;" 
d="M958 1069h138l-152 -1069h-135l22 162q-56 -86 -147 -134q-92 -48 -199 -48q-168 0 -253 107q-84 106 -60 288l96 694h138l-97 -674q-21 -135 38 -212t181 -77q131 0 226 89q93 87 114 229zM739 1188h-110l149 282h180z" />
    <glyph glyph-name="ucircumflex" unicode="&#xfb;" 
d="M958 1069h138l-152 -1069h-135l22 162q-56 -86 -147 -134q-92 -48 -199 -48q-168 0 -253 107q-84 106 -60 288l96 694h138l-97 -674q-21 -135 38 -212t181 -77q131 0 226 89q93 87 114 229zM659 1470h156l160 -282h-103l-143 188l-194 -188h-115z" />
    <glyph glyph-name="udieresis" unicode="&#xfc;" 
d="M958 1069h138l-152 -1069h-135l22 162q-56 -86 -147 -134q-92 -48 -199 -48q-168 0 -253 107q-84 106 -60 288l96 694h138l-97 -674q-21 -135 38 -212t181 -77q131 0 226 89q93 87 114 229zM623 1274h-158l27 184h157zM954 1274h-155l24 184h158z" />
    <glyph glyph-name="yacute" unicode="&#xfd;" 
d="M1200 1069l-698 -1208q-84 -148 -153 -197q-68 -49 -171 -49q-33 0 -60 4q-37 6 -55 10l17 119q17 -5 48 -10q23 -4 50 -4q64 0 106 33q43 34 93 122l82 140l-283 1042l135 -2l236 -885l508 885h145zM754 1188h-111l150 282h180z" />
    <glyph glyph-name="thorn" unicode="&#xfe;" 
d="M725 1090q179 0 284 -127t105 -347q0 -265 -143 -450q-144 -186 -359 -186q-122 0 -210 61t-121 170l-80 -580h-135l258 1839h135l-82 -585q49 94 143 149q95 56 205 56zM694 969q-141 0 -240 -107q-100 -107 -122 -282l-13 -80q-22 -175 58 -289q80 -113 223 -113
q161 0 268 148t107 364q0 168 -75 263q-76 96 -206 96z" />
    <glyph glyph-name="ydieresis" unicode="&#xff;" 
d="M1200 1069l-698 -1208q-84 -148 -153 -197q-68 -49 -171 -49q-33 0 -60 4q-37 6 -55 10l17 119q17 -5 48 -10q23 -4 50 -4q64 0 106 33q43 34 93 122l82 140l-283 1042l135 -2l236 -885l508 885h145zM631 1274h-158l27 184h157zM963 1274h-156l24 184h158z" />
    <glyph glyph-name="Amacron" unicode="&#x100;" 
d="M-29 0l703 1470h155l277 -1470h-141l-76 428h-567l-201 -428h-150zM866 553l-133 754l-352 -754h485zM1090 1726l-17 -110h-616l16 110h617z" />
    <glyph glyph-name="amacron" unicode="&#x101;" 
d="M1075 113l-16 -113q-127 -24 -198 14q-72 39 -66 121q-51 -67 -150 -112q-95 -43 -203 -43q-154 0 -245 76q-93 78 -93 208q0 146 120 240q119 94 358 133l280 45l10 72q12 100 -45 157q-58 58 -172 58q-114 2 -196 -49q-83 -51 -123 -150l-119 45q56 132 173 203
q118 72 276 72q177 0 270 -90t72 -240l-80 -570q-8 -58 27 -75q37 -18 120 -2zM463 92q137 0 237 75t115 183l31 225l-244 -43q-184 -34 -274 -98q-88 -63 -88 -164q0 -85 59 -131q61 -47 164 -47zM985 1366l-14 -109h-531l15 109h530z" />
    <glyph glyph-name="Abreve" unicode="&#x102;" 
d="M-29 0l703 1470h155l277 -1470h-141l-76 428h-567l-201 -428h-150zM866 553l-133 754l-352 -754h485zM778 1575q-133 0 -208 80q-74 79 -68 215h106q-2 -94 45 -147q46 -52 129 -52q84 0 143 53q57 51 74 146h101q-21 -137 -106 -216t-216 -79z" />
    <glyph glyph-name="abreve" unicode="&#x103;" 
d="M1075 113l-16 -113q-127 -24 -198 14q-72 39 -66 121q-51 -67 -150 -112q-95 -43 -203 -43q-154 0 -245 76q-93 78 -93 208q0 146 120 240q119 94 358 133l280 45l10 72q12 100 -45 157q-58 58 -172 58q-114 2 -196 -49q-83 -51 -123 -150l-119 45q56 132 173 203
q118 72 276 72q177 0 270 -90t72 -240l-80 -570q-8 -58 27 -75q37 -18 120 -2zM463 92q137 0 237 75t115 183l31 225l-244 -43q-184 -34 -274 -98q-88 -63 -88 -164q0 -85 59 -131q61 -47 164 -47zM707 1280q73 0 118 49t60 141h96q-16 -138 -89 -215q-71 -75 -190 -75
q-123 0 -185 75q-62 76 -52 215h96q-4 -90 34 -141q37 -49 112 -49z" />
    <glyph glyph-name="Aogonek" unicode="&#x104;" 
d="M903 -383q-71 0 -117 41q-45 40 -45 106q0 67 54 136q52 67 161 141l-67 387h-567l-201 -428h-150l703 1470h155l277 -1470h-82q-86 -65 -133 -121q-43 -52 -43 -98q0 -35 21 -53q22 -19 63 -19q18 0 37 4q10 2 41 11l-11 -91q-23 -7 -50 -12q-23 -4 -46 -4zM866 553
l-133 754l-352 -754h485z" />
    <glyph glyph-name="aogonek" unicode="&#x105;" 
d="M1008 -276l-13 -91q-29 -8 -50 -12t-46 -4q-70 0 -115 42t-45 108q0 59 43 121q43 63 121 112q-56 12 -84 49t-24 86q-51 -67 -150 -112q-95 -43 -203 -43q-154 0 -245 76q-93 78 -93 208q0 146 120 240q119 94 358 133l280 45l10 72q12 100 -45 157q-58 58 -172 58
q-114 2 -196 -49q-83 -51 -123 -150l-119 45q56 132 173 203q118 72 276 72q177 0 270 -90t72 -240l-80 -570q-8 -58 27 -75q37 -18 120 -2l-16 -113q-106 -50 -159 -103q-54 -54 -54 -112q0 -34 21 -55t61 -21q20 0 39 4q10 2 41 11zM463 92q137 0 237 75t115 183l31 225
l-244 -43q-184 -33 -273 -96t-89 -166q0 -85 59 -131q61 -47 164 -47z" />
    <glyph glyph-name="Cacute" unicode="&#x106;" 
d="M772 1491q175 0 300 -110q124 -109 157 -298l-135 -39q-27 152 -114 236t-214 84q-215 0 -368 -226q-152 -225 -152 -530q0 -232 98 -366q100 -136 266 -136q126 0 230 82t166 230l127 -56q-82 -184 -219 -283q-136 -99 -308 -99q-230 0 -363 167q-134 169 -134 459
q0 160 43 308q45 155 120 272q94 146 225 225q131 80 275 80zM834 1577h-119l266 293h197z" />
    <glyph glyph-name="cacute" unicode="&#x107;" 
d="M694 971q-177 0 -298 -148q-120 -147 -120 -362q0 -166 90 -265q89 -98 240 -98q121 0 207 62t129 178l113 -47q-53 -147 -173 -230q-118 -81 -284 -81q-210 0 -333 126q-124 127 -124 349q0 264 160 450q159 185 399 185q168 0 283 -88t139 -230l-123 -45
q-21 113 -102 178q-83 66 -203 66zM793 1188h-111l149 282h181z" />
    <glyph glyph-name="Ccircumflex" unicode="&#x108;" 
d="M772 1491q175 0 300 -110q124 -109 157 -298l-135 -39q-27 152 -114 236t-214 84q-215 0 -368 -226q-152 -225 -152 -530q0 -232 98 -366q100 -136 266 -136q126 0 230 82t166 230l127 -56q-82 -184 -219 -283q-136 -99 -308 -99q-230 0 -363 167q-134 169 -134 459
q0 160 43 308q45 155 120 272q94 146 225 225q131 80 275 80zM772 1870h166l201 -293h-107l-184 203l-240 -203h-119z" />
    <glyph glyph-name="ccircumflex" unicode="&#x109;" 
d="M694 971q-177 0 -298 -148q-120 -147 -120 -362q0 -166 90 -265q89 -98 240 -98q121 0 207 62t129 178l113 -47q-53 -147 -173 -230q-118 -81 -284 -81q-210 0 -333 126q-124 127 -124 349q0 264 160 450q159 185 399 185q168 0 283 -88t139 -230l-123 -45
q-21 113 -102 178q-83 66 -203 66zM700 1470h156l160 -282h-103l-143 188l-195 -188h-114z" />
    <glyph glyph-name="Cdotaccent" unicode="&#x10a;" 
d="M772 1491q175 0 300 -110q124 -109 157 -298l-135 -39q-27 152 -114 236t-214 84q-215 0 -368 -226q-152 -225 -152 -530q0 -232 98 -366q100 -136 266 -136q126 0 230 82t166 230l127 -56q-82 -184 -219 -283q-136 -99 -308 -99q-230 0 -363 167q-134 169 -134 459
q0 160 43 308q45 155 120 272q94 146 225 225q131 80 275 80zM895 1589h-160l25 183h162z" />
    <glyph glyph-name="cdotaccent" unicode="&#x10b;" 
d="M694 971q-177 0 -298 -148q-120 -147 -120 -362q0 -166 90 -265q89 -98 240 -98q121 0 207 62t129 178l113 -47q-53 -147 -173 -230q-118 -81 -284 -81q-210 0 -333 126q-124 127 -124 349q0 264 160 450q159 185 399 185q168 0 283 -88t139 -230l-123 -45
q-21 113 -102 178q-83 66 -203 66zM829 1288h-157l26 182h156z" />
    <glyph glyph-name="Ccaron" unicode="&#x10c;" 
d="M772 1491q175 0 300 -110q124 -109 157 -298l-135 -39q-27 152 -114 236t-214 84q-215 0 -368 -226q-152 -225 -152 -530q0 -232 98 -366q100 -136 266 -136q126 0 230 82t166 230l127 -56q-82 -184 -219 -283q-136 -99 -308 -99q-230 0 -363 167q-134 169 -134 459
q0 160 43 308q45 155 120 272q94 146 225 225q131 80 275 80zM1178 1870l-283 -293h-166l-201 293h105l184 -203l242 203h119z" />
    <glyph glyph-name="ccaron" unicode="&#x10d;" 
d="M694 971q-177 0 -298 -148q-120 -147 -120 -362q0 -166 90 -265q89 -98 240 -98q121 0 207 62t129 178l113 -47q-53 -147 -173 -230q-118 -81 -284 -81q-210 0 -333 126q-124 127 -124 349q0 264 160 450q159 185 399 185q168 0 283 -88t139 -230l-123 -45
q-21 113 -102 178q-83 66 -203 66zM1063 1470l-238 -282h-155l-160 282h102l142 -188l194 188h115z" />
    <glyph glyph-name="Dcaron" unicode="&#x10e;" 
d="M389 0h-315l207 1470h272q287 0 453 -172q165 -171 165 -464q0 -366 -215 -601q-214 -233 -567 -233zM403 1346l-172 -1221h156q294 0 470 197q175 196 175 509q0 233 -132 374t-359 141h-138zM1145 1870l-283 -293h-166l-200 293h104l184 -203l242 203h119z" />
    <glyph glyph-name="dcaron" unicode="&#x10f;" 
d="M1305 1063h-88l90 407h151zM471 -20q-175 0 -276 126q-103 129 -103 347q0 265 142 450q143 187 354 187q115 0 200 -62q84 -61 117 -170l86 612h137l-208 -1470h-136l27 182q-51 -92 -142 -147t-198 -55zM856 489l10 80q24 177 -52 288q-77 112 -214 112
q-157 0 -264 -149t-107 -363q0 -167 73 -263t200 -96q134 0 232 107t122 284z" />
    <glyph glyph-name="Dcroat" unicode="&#x110;" 
d="M389 0h-315l98 696h-117l17 127h118l91 647h272q287 0 453 -172q165 -171 165 -464q0 -366 -215 -601q-214 -233 -567 -233zM311 696l-80 -571h156q294 0 469 196q174 195 174 510q0 233 -132 374t-357 141h-138l-73 -523h352l-18 -127h-353z" />
    <glyph glyph-name="dcroat" unicode="&#x111;" 
d="M502 -20q-179 0 -283 126t-104 347q0 266 143 451q144 186 356 186q122 0 210 -63q89 -64 122 -169l47 338h-311l16 109h312l22 165h137l-24 -165h125l-17 -109h-123l-169 -1196h-136l25 182q-51 -92 -144 -147q-92 -55 -204 -55zM535 98q139 0 238 107q100 108 124 284
l10 80q24 177 -55 288q-80 112 -223 112q-163 0 -269 -147q-106 -146 -106 -363q0 -171 75 -265q76 -96 206 -96z" />
    <glyph glyph-name="Emacron" unicode="&#x112;" 
d="M74 0l207 1470h950l-19 -124h-809l-71 -523h692l-18 -125h-693l-80 -573h809l-18 -125h-950zM1090 1726l-17 -110h-616l16 110h617z" />
    <glyph glyph-name="emacron" unicode="&#x113;" 
d="M590 -20q-209 0 -326 126q-119 128 -119 349q0 267 155 451t388 184q214 0 322 -146t75 -377l-6 -43h-800q-3 -21 -3 -23v-40q0 -167 86 -265t236 -98q114 0 200 60t126 170l112 -47q-60 -146 -174 -224q-113 -77 -272 -77zM682 973q-138 0 -241 -93t-144 -249h659
q17 157 -58 249q-75 93 -216 93zM1018 1366l-14 -109h-531l14 109h531z" />
    <glyph glyph-name="Ebreve" unicode="&#x114;" 
d="M74 0l207 1470h950l-19 -124h-809l-71 -523h692l-18 -125h-693l-80 -573h809l-18 -125h-950zM791 1575q-133 0 -208 80t-69 215h107q-1 -94 45 -147q46 -52 129 -52t142 53q58 52 75 146h100q-21 -138 -105 -216q-85 -79 -216 -79z" />
    <glyph glyph-name="ebreve" unicode="&#x115;" 
d="M590 -20q-209 0 -326 126q-119 128 -119 349q0 267 155 451t388 184q214 0 322 -146t75 -377l-6 -43h-800q-3 -21 -3 -23v-40q0 -167 86 -265t236 -98q114 0 200 60t126 170l112 -47q-60 -146 -174 -224q-113 -77 -272 -77zM682 973q-138 0 -241 -93t-144 -249h659
q17 157 -58 249q-75 93 -216 93zM748 1280q73 0 118 49t60 141h96q-16 -138 -89 -215q-71 -75 -190 -75q-123 0 -185 75q-62 76 -52 215h96q-4 -90 34 -141q37 -49 112 -49z" />
    <glyph glyph-name="Edotaccent" unicode="&#x116;" 
d="M74 0l207 1470h950l-19 -124h-809l-71 -523h692l-18 -125h-693l-80 -573h809l-18 -125h-950zM854 1589h-160l25 183h162z" />
    <glyph glyph-name="edotaccent" unicode="&#x117;" 
d="M590 -20q-209 0 -326 126q-119 128 -119 349q0 267 155 451t388 184q214 0 322 -146t75 -377l-6 -43h-800q-3 -21 -3 -23v-40q0 -167 86 -265t236 -98q114 0 200 60t126 170l112 -47q-60 -146 -174 -224q-113 -77 -272 -77zM682 973q-138 0 -241 -93t-144 -249h659
q17 157 -58 249q-75 93 -216 93zM823 1288h-157l26 182h156z" />
    <glyph glyph-name="Eogonek" unicode="&#x118;" 
d="M778 -383q-70 0 -116 41t-46 106q0 58 39 115q40 58 119 121h-700l207 1470h950l-19 -124h-809l-71 -523h692l-18 -125h-693l-80 -573h809l-18 -125h-125q-86 -65 -133 -121q-43 -52 -43 -98q0 -35 21 -53q22 -19 63 -19q18 0 37 4q10 2 41 11l-11 -91q-23 -7 -50 -12
q-23 -4 -46 -4z" />
    <glyph glyph-name="eogonek" unicode="&#x119;" 
d="M786 14q-109 -51 -168 -112q-59 -60 -59 -121q0 -34 22 -53t62 -19q18 0 37 4q10 2 41 11l-10 -91q-22 -7 -51 -12q-23 -4 -46 -4q-70 0 -116 41q-45 40 -45 106q0 58 33 111q35 56 100 105q-207 2 -324 129t-117 346q0 267 155 451t388 184q214 0 322 -146t75 -377
l-6 -43h-800q-3 -21 -3 -23v-40q0 -167 86 -265t236 -98q114 0 200 60t126 170l112 -47q-39 -95 -99 -159q-59 -64 -151 -108zM682 973q-138 0 -241 -93t-144 -249h659q17 157 -58 249q-75 93 -216 93z" />
    <glyph glyph-name="Ecaron" unicode="&#x11a;" 
d="M74 0l207 1470h950l-19 -124h-809l-71 -523h692l-18 -125h-693l-80 -573h809l-18 -125h-950zM1141 1870l-283 -293h-166l-200 293h104l184 -203l242 203h119z" />
    <glyph glyph-name="ecaron" unicode="&#x11b;" 
d="M590 -20q-209 0 -326 126q-119 128 -119 349q0 267 155 451t388 184q214 0 322 -146t75 -377l-6 -43h-800q-3 -21 -3 -23v-40q0 -167 86 -265t236 -98q114 0 200 60t126 170l112 -47q-60 -146 -174 -224q-113 -77 -272 -77zM682 973q-138 0 -241 -93t-144 -249h659
q17 157 -58 249q-75 93 -216 93zM1051 1470l-238 -282h-156l-159 282h102l141 -188l195 188h115z" />
    <glyph glyph-name="Gcircumflex" unicode="&#x11c;" 
d="M1047 0h-117l37 260q-57 -133 -161 -207q-103 -73 -235 -73q-210 0 -337 172q-128 173 -128 452q0 157 42 307t120 273q96 147 226 227t272 80q176 0 289 -105q113 -106 137 -292l-131 -39q-21 148 -98 228q-78 81 -201 81q-212 0 -364 -227t-152 -531q0 -223 93 -361
q94 -139 249 -139q157 0 270 139t143 369h-372l18 125h504zM748 1870h165l201 -293h-106l-185 203l-239 -203h-119z" />
    <glyph glyph-name="gcircumflex" unicode="&#x11d;" 
d="M1112 1069l-139 -981q-33 -232 -163 -354q-131 -123 -343 -123q-175 0 -291 79q-117 80 -147 220l118 45q30 -112 115 -171q83 -58 213 -58q153 0 244 91q92 92 119 269l18 139q-56 -97 -144 -150q-86 -52 -198 -52q-185 0 -292 122t-107 332q0 259 142 435
q143 178 359 178q118 0 207 -60q88 -59 125 -164l29 203h135zM901 524l6 54q22 172 -57 281q-80 110 -225 110q-160 0 -267 -142q-106 -140 -106 -346q0 -161 76 -250q76 -90 209 -90q143 0 242 104q100 104 122 279zM674 1470h155l160 -282h-102l-144 188l-194 -188h-115z
" />
    <glyph glyph-name="Gbreve" unicode="&#x11e;" 
d="M1047 0h-117l37 260q-57 -133 -161 -207q-103 -73 -235 -73q-210 0 -337 172q-128 173 -128 452q0 157 42 307t120 273q96 147 226 227t272 80q176 0 289 -105q113 -106 137 -292l-131 -39q-21 148 -98 228q-78 81 -201 81q-212 0 -364 -227t-152 -531q0 -223 93 -361
q94 -139 249 -139q157 0 270 139t143 369h-372l18 125h504zM807 1575q-133 0 -208 80t-69 215h107q-1 -94 45 -147q46 -52 129 -52t142 53q58 52 75 146h100q-21 -138 -105 -216q-85 -79 -216 -79z" />
    <glyph glyph-name="gbreve" unicode="&#x11f;" 
d="M1112 1069l-139 -981q-33 -232 -163 -354q-131 -123 -343 -123q-175 0 -291 79q-117 80 -147 220l118 45q30 -112 115 -171q83 -58 213 -58q153 0 244 91q92 92 119 269l18 139q-56 -97 -144 -150q-86 -52 -198 -52q-185 0 -292 122t-107 332q0 259 142 435
q143 178 359 178q118 0 207 -60q88 -59 125 -164l29 203h135zM901 524l6 54q22 172 -57 281q-80 110 -225 110q-160 0 -267 -142q-106 -140 -106 -346q0 -161 76 -250q76 -90 209 -90q143 0 242 104q100 104 122 279zM729 1280q74 0 119 49q44 48 59 141h97
q-16 -137 -90 -215q-71 -75 -189 -75q-123 0 -185 75q-63 77 -53 215h97q-4 -92 33 -141t112 -49z" />
    <glyph glyph-name="Gdotaccent" unicode="&#x120;" 
d="M1047 0h-117l37 260q-57 -133 -161 -207q-103 -73 -235 -73q-210 0 -337 172q-128 173 -128 452q0 157 42 307t120 273q96 147 226 227t272 80q176 0 289 -105q113 -106 137 -292l-131 -39q-21 148 -98 228q-78 81 -201 81q-212 0 -364 -227t-152 -531q0 -223 93 -361
q94 -139 249 -139q157 0 270 139t143 369h-372l18 125h504zM868 1589h-159l24 183h162z" />
    <glyph glyph-name="gdotaccent" unicode="&#x121;" 
d="M1112 1069l-139 -981q-33 -232 -163 -354q-131 -123 -343 -123q-175 0 -291 79q-117 80 -147 220l118 45q30 -112 115 -171q83 -58 213 -58q153 0 244 91q92 92 119 269l18 139q-56 -97 -144 -150q-86 -52 -198 -52q-185 0 -292 122t-107 332q0 259 142 435
q143 178 359 178q118 0 207 -60q88 -59 125 -164l29 203h135zM901 524l6 54q22 172 -57 281q-80 110 -225 110q-160 0 -267 -142q-106 -140 -106 -346q0 -161 76 -250q76 -90 209 -90q143 0 242 104q100 104 122 279zM791 1288h-158l26 182h156z" />
    <glyph glyph-name="uni0122" unicode="&#x122;" 
d="M1047 0h-117l37 260q-57 -133 -161 -207q-103 -73 -235 -73q-210 0 -337 172q-128 173 -128 452q0 157 42 307t120 273q96 147 226 227t272 80q176 0 289 -105q113 -106 137 -292l-131 -39q-21 148 -98 228q-78 81 -201 81q-212 0 -364 -227t-152 -531q0 -223 93 -361
q94 -139 249 -139q157 0 270 139t143 369h-372l18 125h504zM528 -209h-65l18 135h160l-18 -129q-12 -83 -72 -130q-60 -46 -154 -42l11 66q57 0 84 23q28 24 36 77z" />
    <glyph glyph-name="uni0123" unicode="&#x123;" 
d="M1112 1069l-139 -981q-33 -232 -163 -354q-131 -123 -343 -123q-175 0 -291 79q-117 80 -147 220l118 45q30 -112 115 -171q83 -58 213 -58q153 0 244 91q92 92 119 269l18 139q-56 -97 -144 -150q-86 -52 -198 -52q-185 0 -292 122t-107 332q0 259 142 435
q143 178 359 178q118 0 207 -60q88 -59 125 -164l29 203h135zM901 524l6 54q22 172 -57 281q-80 110 -225 110q-160 0 -267 -142q-106 -140 -106 -346q0 -161 76 -250q76 -90 209 -90q143 0 242 104q100 104 122 279zM739 1323h64l-19 -135h-159l20 129q12 83 72 130
q60 46 151 42l-8 -66q-59 0 -85 -23q-29 -25 -36 -77z" />
    <glyph glyph-name="Hcircumflex" unicode="&#x124;" 
d="M977 823l90 647h143l-206 -1470h-144l98 698h-645l-96 -698h-143l207 1470h143l-92 -647h645zM719 1870h166l200 -293h-106l-184 203l-240 -203h-119z" />
    <glyph glyph-name="hcircumflex" unicode="&#x125;" 
d="M266 0h-135l207 1470h135l-78 -563q55 85 148 134t198 49q166 0 252 -109t62 -289l-99 -692h-135l97 674q18 136 -40 212q-59 77 -180 77q-129 0 -225 -90q-94 -88 -115 -228zM723 1890h166l201 -293h-107l-184 203l-240 -203h-119z" />
    <glyph glyph-name="Hbar" unicode="&#x126;" 
d="M1296 1137l-18 -125h-135l-142 -1012h-143l84 602h-639l-84 -602h-143l141 1012h-133l18 125h134l47 333h143l-47 -333h639l47 333h143l-47 -333h135zM360 1012l-41 -287h642l40 287h-641z" />
    <glyph glyph-name="hbar" unicode="&#x127;" 
d="M266 0h-135l168 1196h-158l17 109h157l23 165h135l-22 -165h278l-16 -109h-279l-39 -289q55 85 148 134t198 49q166 0 252 -109t62 -289l-99 -692h-135l97 674q18 136 -40 212q-59 77 -180 77q-129 0 -225 -90q-94 -88 -115 -228z" />
    <glyph glyph-name="Itilde" unicode="&#x128;" 
d="M629 125h436l-18 -125h-1018l18 125h438l170 1221h-438l19 124h1017l-18 -124h-436zM1053 1837h100q-24 -120 -87 -189t-146 -69q-40 0 -74 15q-35 15 -88 65q-43 40 -67 52q-22 11 -48 11q-46 0 -79 -36q-33 -35 -54 -109h-102q24 121 87 190q64 70 146 70q39 0 74 -15
q34 -15 88 -67q46 -40 68 -51q24 -12 49 -12q44 0 78 37t55 108z" />
    <glyph glyph-name="itilde" unicode="&#x129;" 
d="M1067 0h-975l17 117h419l117 835h-418l17 117h555l-135 -952h419zM645 1352q-38 0 -68 -36t-51 -108h-94q22 121 77 188q54 66 130 66q36 0 66 -15q27 -14 79 -67q37 -37 60 -50q19 -11 41 -11q39 0 69 37q33 42 50 108h94q-22 -119 -77 -188q-54 -68 -130 -68
q-35 0 -67 17q-35 18 -79 65q-38 38 -59 50t-41 12z" />
    <glyph glyph-name="Imacron" unicode="&#x12a;" 
d="M629 125h436l-18 -125h-1018l18 125h438l170 1221h-438l19 124h1017l-18 -124h-436zM1090 1726l-17 -110h-616l16 110h617z" />
    <glyph glyph-name="imacron" unicode="&#x12b;" 
d="M1067 0h-975l17 117h419l117 835h-418l17 117h555l-135 -952h419zM1032 1366l-14 -109h-531l15 109h530z" />
    <glyph glyph-name="Ibreve" unicode="&#x12c;" 
d="M629 125h436l-18 -125h-1018l18 125h438l170 1221h-438l19 124h1017l-18 -124h-436zM778 1575q-133 0 -208 80q-74 79 -68 215h106q-2 -94 45 -147q46 -52 129 -52q84 0 143 53q57 51 74 146h101q-21 -137 -106 -216t-216 -79z" />
    <glyph glyph-name="ibreve" unicode="&#x12d;" 
d="M1067 0h-975l17 117h419l117 835h-418l17 117h555l-135 -952h419zM766 1280q74 0 119 49q44 48 59 141h96q-16 -138 -89 -215q-71 -75 -189 -75q-123 0 -185 75q-63 77 -53 215h97q-5 -92 33 -141q37 -49 112 -49z" />
    <glyph glyph-name="Iogonek" unicode="&#x12e;" 
d="M477 -383q-71 0 -117 41q-45 40 -45 106q0 58 39 115q40 58 119 121h-444l18 125h438l170 1221h-438l19 124h1017l-18 -124h-436l-170 -1221h436l-18 -125h-449q-86 -65 -133 -121q-43 -52 -43 -98q0 -35 21 -53q22 -19 63 -19q18 0 37 4q10 2 41 11l-11 -91
q-23 -7 -50 -12q-23 -4 -46 -4z" />
    <glyph glyph-name="iogonek" unicode="&#x12f;" 
d="M840 1288h-158l27 182h157zM504 0h-412l17 117h419l117 835h-418l17 117h555l-135 -952h419l-16 -117h-438q-86 -65 -133 -121q-43 -52 -43 -98q0 -35 21 -53q22 -19 63 -19q17 0 36 4q10 2 41 11l-10 -91q-23 -7 -50 -12q-23 -4 -46 -4q-71 0 -117 41q-45 40 -45 106
q0 58 39 115q40 58 119 121z" />
    <glyph glyph-name="Idotaccent" unicode="&#x130;" 
d="M629 125h436l-18 -125h-1018l18 125h438l170 1221h-438l19 124h1017l-18 -124h-436zM842 1589h-160l25 183h161z" />
    <glyph glyph-name="dotlessi" unicode="&#x131;" 
d="M1067 0h-975l17 117h419l117 835h-418l17 117h555l-135 -952h419z" />
    <glyph glyph-name="Jcircumflex" unicode="&#x134;" 
d="M397 -20q-75 0 -153 9q-81 9 -138 25l19 142q64 -19 133 -29q70 -10 139 -10q227 0 343 89t143 279l118 861h-620l18 124h764l-141 -1005q-34 -241 -192 -364q-155 -121 -433 -121zM1059 1870h166l200 -293h-106l-184 203l-240 -203h-119z" />
    <glyph glyph-name="jcircumflex" unicode="&#x135;" 
d="M332 -266q161 0 247 70t107 216l131 932h-557l16 117h693l-152 -1069q-27 -192 -150 -290q-125 -99 -337 -99q-70 0 -140 10q-73 10 -124 27l18 121q54 -17 120 -26t128 -9zM872 1470h156l160 -282h-103l-143 188l-194 -188h-115z" />
    <glyph glyph-name="uni0136" unicode="&#x136;" 
d="M281 1470h143l-102 -731l794 731h180l-708 -653l522 -817h-160l-465 723l-192 -178l-76 -545h-143zM526 -209h-65l18 135h160l-18 -129q-12 -83 -72 -130q-60 -46 -154 -42l11 66q56 0 83 23q30 25 37 77z" />
    <glyph glyph-name="uni0137" unicode="&#x137;" 
d="M369 1470h135l-135 -956l616 555h180l-491 -430l377 -639h-154l-324 551l-227 -199l-49 -352h-135zM555 -209h-66l19 135h160l-19 -129q-12 -84 -71 -130q-60 -46 -154 -42l10 66q57 0 84 23q30 25 37 77z" />
    <glyph glyph-name="kgreenlandic" unicode="&#x138;" 
d="M311 1069h138l-78 -555l614 555h180l-491 -430l377 -639h-154l-324 551l-227 -199l-49 -352h-135z" />
    <glyph glyph-name="Lacute" unicode="&#x139;" 
d="M1049 0h-910l207 1470h141l-188 -1345h768zM494 1577h-119l266 293h197z" />
    <glyph glyph-name="lacute" unicode="&#x13a;" 
d="M1067 0h-975l17 117h419l174 1237h-417l14 116h555l-190 -1353h419zM858 1649h-119l267 293h196z" />
    <glyph glyph-name="uni013B" unicode="&#x13b;" 
d="M1049 0h-910l207 1470h141l-188 -1345h768zM535 -209h-66l18 135h160l-18 -129q-12 -83 -72 -130q-60 -46 -154 -42l11 66q57 0 84 23q30 25 37 77z" />
    <glyph glyph-name="uni013C" unicode="&#x13c;" 
d="M1067 0h-975l17 117h419l174 1237h-417l14 116h555l-190 -1353h419zM537 -209h-66l18 135h160l-18 -129q-12 -83 -72 -130q-60 -46 -153 -42l10 66q57 0 84 23q30 25 37 77z" />
    <glyph glyph-name="Lcaron" unicode="&#x13d;" 
d="M1049 0h-910l207 1470h141l-188 -1345h768zM897 1063h-92l90 407h154z" />
    <glyph glyph-name="lcaron" unicode="&#x13e;" 
d="M1067 0h-975l17 117h419l174 1237h-417l14 116h555l-190 -1353h419zM1030 1063h-92l90 407h154z" />
    <glyph glyph-name="Ldot" unicode="&#x13f;" 
d="M1049 0h-910l207 1470h141l-188 -1345h768zM999 694h-157l26 183h156z" />
    <glyph glyph-name="ldot" unicode="&#x140;" 
d="M1067 0h-975l17 117h419l174 1237h-417l14 116h555l-190 -1353h419zM1370 688h-158l27 182h156z" />
    <glyph glyph-name="Lslash" unicode="&#x141;" 
d="M1049 0h-910l80 573l-174 -67l16 127l177 69l108 768h141l-100 -710l367 143l-19 -127l-364 -143l-72 -508h768z" />
    <glyph glyph-name="lslash" unicode="&#x142;" 
d="M1094 0h-975l16 117h420l84 594l-274 -140l18 136l274 139l72 508h-418l15 116h555l-78 -548l274 139l-18 -135l-275 -140l-94 -669h420z" />
    <glyph glyph-name="Nacute" unicode="&#x143;" 
d="M1075 1470h135l-206 -1470h-127l-492 1249l-176 -1249h-135l207 1470h151l473 -1202zM756 1577h-119l266 293h197z" />
    <glyph glyph-name="nacute" unicode="&#x144;" 
d="M266 0h-135l152 1069h135l-23 -162q55 85 148 134t198 49q166 0 252 -109t62 -289l-99 -692h-135l97 674q18 136 -40 212q-59 77 -180 77q-129 0 -225 -90q-94 -88 -115 -228zM770 1188h-111l150 282h180z" />
    <glyph glyph-name="uni0145" unicode="&#x145;" 
d="M1075 1470h135l-206 -1470h-127l-492 1249l-176 -1249h-135l207 1470h151l473 -1202zM496 -209h-66l19 135h159l-18 -129q-12 -83 -72 -130q-60 -46 -153 -42l10 66q57 0 84 23q30 25 37 77z" />
    <glyph glyph-name="uni0146" unicode="&#x146;" 
d="M266 0h-135l152 1069h135l-23 -162q55 85 148 134t198 49q166 0 252 -109t62 -289l-99 -692h-135l97 674q18 136 -40 212q-59 77 -180 77q-129 0 -225 -90q-94 -88 -115 -228zM522 -209h-65l18 135h160l-19 -129q-12 -84 -71 -130q-60 -46 -154 -42l10 66q57 0 84 23
q30 25 37 77z" />
    <glyph glyph-name="Ncaron" unicode="&#x147;" 
d="M1075 1470h135l-206 -1470h-127l-492 1249l-176 -1249h-135l207 1470h151l473 -1202zM1126 1870l-282 -293h-166l-201 293h105l184 -203l242 203h118z" />
    <glyph glyph-name="ncaron" unicode="&#x148;" 
d="M266 0h-135l152 1069h135l-23 -162q55 85 148 134t198 49q166 0 252 -109t62 -289l-99 -692h-135l97 674q18 136 -40 212q-59 77 -180 77q-129 0 -225 -90q-94 -88 -115 -228zM1049 1470l-238 -282h-156l-159 282h102l141 -188l195 188h115z" />
    <glyph glyph-name="Eng" unicode="&#x14a;" 
d="M510 -266q162 0 249 68q89 69 111 208l-485 1239l-176 -1249h-135l207 1470h151l473 -1202l170 1202h135l-204 -1466q-27 -189 -158 -291q-130 -102 -340 -102q-71 0 -138 10q-71 11 -116 27l16 121q52 -17 115 -26q66 -9 125 -9z" />
    <glyph glyph-name="eng" unicode="&#x14b;" 
d="M471 -266q161 0 247 70t107 216l93 654q18 136 -40 212q-59 77 -180 77q-129 0 -225 -90q-94 -88 -115 -228l-92 -645h-135l152 1069h135l-23 -162q55 85 148 134t198 49q166 0 252 -109t62 -289l-99 -692q-27 -192 -151 -290q-124 -99 -338 -99q-67 0 -137 10
q-74 11 -125 27l18 121q54 -17 120 -26t128 -9z" />
    <glyph glyph-name="Omacron" unicode="&#x14c;" 
d="M1176 879q0 -375 -177 -638q-175 -261 -438 -261q-211 0 -332 163q-120 161 -120 449q0 376 176 638q175 261 438 261q210 0 332 -164q121 -163 121 -448zM1038 877q0 225 -86 356t-233 131q-200 0 -336 -227q-137 -229 -137 -543q0 -225 86 -356q86 -132 233 -132
q199 0 336 228q137 229 137 543zM1090 1726l-17 -110h-616l16 110h617z" />
    <glyph glyph-name="omacron" unicode="&#x14d;" 
d="M131 457q0 266 153 449q154 184 384 184q199 0 313 -129q115 -130 115 -351q0 -265 -153 -448q-152 -182 -384 -182q-199 0 -313 128q-115 129 -115 349zM266 461q0 -169 81 -267t220 -98q168 0 281 150q113 151 113 362q0 170 -81 268q-81 97 -221 97q-168 0 -280 -150
q-113 -151 -113 -362zM995 1366l-14 -109h-530l14 109h530z" />
    <glyph glyph-name="Obreve" unicode="&#x14e;" 
d="M1176 879q0 -375 -177 -638q-175 -261 -438 -261q-211 0 -332 163q-120 161 -120 449q0 376 176 638q175 261 438 261q210 0 332 -164q121 -163 121 -448zM1038 877q0 225 -86 356t-233 131q-200 0 -336 -227q-137 -229 -137 -543q0 -225 86 -356q86 -132 233 -132
q199 0 336 228q137 229 137 543zM778 1575q-133 0 -208 80q-74 79 -68 215h106q-2 -94 45 -147q46 -52 129 -52q84 0 143 53q57 51 74 146h101q-21 -137 -106 -216t-216 -79z" />
    <glyph glyph-name="obreve" unicode="&#x14f;" 
d="M131 457q0 266 153 449q154 184 384 184q199 0 313 -129q115 -130 115 -351q0 -265 -153 -448q-152 -182 -384 -182q-199 0 -313 128q-115 129 -115 349zM266 461q0 -169 81 -267t220 -98q168 0 281 150q113 151 113 362q0 170 -81 268q-81 97 -221 97q-168 0 -280 -150
q-113 -151 -113 -362zM729 1280q74 0 119 49q44 48 59 141h97q-16 -137 -90 -215q-71 -75 -189 -75q-123 0 -185 75q-63 77 -53 215h97q-4 -92 33 -141t112 -49z" />
    <glyph glyph-name="Ohungarumlaut" unicode="&#x150;" 
d="M1176 879q0 -375 -177 -638q-175 -261 -438 -261q-211 0 -332 163q-120 161 -120 449q0 376 176 638q175 261 438 261q210 0 332 -164q121 -163 121 -448zM1038 877q0 225 -86 356t-233 131q-200 0 -336 -227q-137 -229 -137 -543q0 -225 86 -356q86 -132 233 -132
q199 0 336 228q137 229 137 543zM993 1577h-116l237 293h176zM639 1577h-117l240 293h174z" />
    <glyph glyph-name="ohungarumlaut" unicode="&#x151;" 
d="M131 457q0 266 153 449q154 184 384 184q199 0 313 -129q115 -130 115 -351q0 -265 -153 -448q-152 -182 -384 -182q-199 0 -313 128q-115 129 -115 349zM266 461q0 -169 81 -267t220 -98q168 0 281 150q113 151 113 362q0 170 -81 268q-81 97 -221 97q-168 0 -280 -150
q-113 -151 -113 -362zM905 1188h-104l162 282h165zM610 1188h-104l162 282h166z" />
    <glyph glyph-name="OE" unicode="&#x152;" 
d="M49 618q0 365 187 609q186 243 475 243h620l-18 -124h-428l-72 -523h358l-18 -125h-358l-80 -573h428l-19 -125h-583q-232 0 -362 166t-130 452zM573 123l170 1225h-47q-218 0 -364 -213q-146 -214 -146 -517q0 -230 97 -363q96 -132 268 -132h22z" />
    <glyph glyph-name="oe" unicode="&#x153;" 
d="M1044 340l117 -45q-45 -145 -136 -230t-202 -85q-89 0 -153 53q-64 54 -97 153q-52 -101 -125 -154q-71 -52 -155 -52q-128 0 -199 107t-71 296q0 303 107 504q108 203 286 203q87 0 148 -52t89 -153q51 97 126 152q73 53 159 53q151 0 225 -148q74 -147 39 -377l-4 -41
h-522q-3 -19 -5 -58q-1 -18 -1 -56q0 -150 41 -234q40 -82 116 -82q70 0 127 66t90 180zM932 975q-80 0 -145 -95t-95 -251h387q18 146 -22 245q-41 101 -125 101zM555 680q0 146 -37 220q-38 75 -108 75q-111 0 -183 -179q-71 -176 -71 -407q0 -147 35 -220q36 -75 106 -75
q111 0 184 178q74 180 74 408z" />
    <glyph glyph-name="Racute" unicode="&#x154;" 
d="M633 655h-326l-90 -655h-143l207 1470h495q219 0 339 -99t120 -279q0 -182 -121 -299q-123 -118 -330 -136l338 -657h-153zM406 1346l-80 -566h383q177 0 281 84t104 223q0 126 -86 192q-87 67 -246 67h-356zM788 1577h-118l266 293h197z" />
    <glyph glyph-name="racute" unicode="&#x155;" 
d="M928 0h-875l17 117h317l117 835h-316l17 117h448l-30 -211q68 108 179 170q112 62 247 62q44 0 97 -8q57 -9 81 -17l-19 -133q-39 12 -87 18t-91 6q-168 0 -295 -100q-126 -99 -147 -254l-68 -485h422zM852 1188h-111l150 282h180z" />
    <glyph glyph-name="uni0156" unicode="&#x156;" 
d="M633 655h-326l-90 -655h-143l207 1470h495q219 0 339 -99t120 -279q0 -182 -121 -299q-123 -118 -330 -136l338 -657h-153zM406 1346l-80 -566h383q177 0 281 84t104 223q0 126 -86 192q-87 67 -246 67h-356zM537 -209h-66l18 135h160l-18 -129q-12 -83 -72 -130
q-60 -46 -153 -42l10 66q57 0 84 23q30 25 37 77z" />
    <glyph glyph-name="uni0157" unicode="&#x157;" 
d="M928 0h-875l17 117h317l117 835h-316l17 117h448l-30 -211q68 108 179 170q112 62 247 62q44 0 97 -8q57 -9 81 -17l-19 -133q-39 12 -87 18t-91 6q-168 0 -295 -100q-126 -99 -147 -254l-68 -485h422zM395 -209h-65l18 135h160l-19 -129q-12 -84 -71 -130
q-60 -46 -154 -42l10 66q57 0 84 23q30 25 37 77z" />
    <glyph glyph-name="Rcaron" unicode="&#x158;" 
d="M633 655h-326l-90 -655h-143l207 1470h495q219 0 339 -99t120 -279q0 -182 -121 -299q-123 -118 -330 -136l338 -657h-153zM406 1346l-80 -566h383q177 0 281 84t104 223q0 126 -86 192q-87 67 -246 67h-356zM1165 1870l-282 -293h-166l-201 293h105l184 -203l242 203
h118z" />
    <glyph glyph-name="rcaron" unicode="&#x159;" 
d="M928 0h-875l17 117h317l117 835h-316l17 117h448l-30 -211q68 108 179 170q112 62 247 62q44 0 97 -8q57 -9 81 -17l-19 -133q-39 12 -87 18t-91 6q-168 0 -295 -100q-126 -99 -147 -254l-68 -485h422zM1126 1470l-237 -282h-156l-160 282h103l141 -188l195 188h114z" />
    <glyph glyph-name="Sacute" unicode="&#x15a;" 
d="M582 -20q-207 0 -361 98q-157 100 -209 262l123 70q47 -144 168 -225t283 -81q169 0 279 89t110 227q0 104 -77 166q-75 60 -255 104q-229 57 -336 149q-106 91 -106 236q0 183 140 299q141 117 361 117q183 0 319 -84t181 -225l-115 -70q-40 116 -145 185t-246 69
q-158 0 -257 -78t-99 -198q0 -99 85 -162q89 -65 271 -111q223 -55 322 -144q98 -88 98 -237q0 -203 -149 -330q-148 -126 -385 -126zM813 1577h-119l267 293h196z" />
    <glyph glyph-name="sacute" unicode="&#x15b;" 
d="M571 -20q-183 0 -312 75q-133 77 -173 207l111 68q34 -111 137 -174q104 -64 244 -64q134 0 219 57q86 57 86 146q0 67 -59 109q-58 42 -216 81q-215 50 -298 116t-83 171q0 139 119 228q121 90 303 90q161 0 279 -71q117 -70 145 -181l-108 -62q-29 93 -115 146t-209 53
q-122 0 -202 -53q-79 -52 -79 -134q0 -60 57 -101q56 -40 245 -85q192 -46 275 -115q81 -67 81 -176q0 -145 -126 -238t-321 -93zM739 1188h-110l149 282h180z" />
    <glyph glyph-name="Scircumflex" unicode="&#x15c;" 
d="M582 -20q-207 0 -361 98q-157 100 -209 262l123 70q47 -144 168 -225t283 -81q169 0 279 89t110 227q0 104 -77 166q-75 60 -255 104q-229 57 -336 149q-106 91 -106 236q0 183 140 299q141 117 361 117q183 0 319 -84t181 -225l-115 -70q-40 116 -145 185t-246 69
q-158 0 -257 -78t-99 -198q0 -99 85 -162q89 -65 271 -111q223 -55 322 -144q98 -88 98 -237q0 -203 -149 -330q-148 -126 -385 -126zM731 1870h166l201 -293h-107l-184 203l-240 -203h-118z" />
    <glyph glyph-name="scircumflex" unicode="&#x15d;" 
d="M571 -20q-183 0 -312 75q-133 77 -173 207l111 68q34 -111 137 -174q104 -64 244 -64q134 0 219 57q86 57 86 146q0 67 -59 109q-58 42 -216 81q-215 50 -298 116t-83 171q0 139 119 228q121 90 303 90q161 0 279 -71q117 -70 145 -181l-108 -62q-29 93 -115 146t-209 53
q-122 0 -202 -53q-79 -52 -79 -134q0 -60 57 -101q56 -40 245 -85q192 -46 275 -115q81 -67 81 -176q0 -145 -126 -238t-321 -93zM655 1470h156l160 -282h-103l-143 188l-195 -188h-114z" />
    <glyph glyph-name="Scedilla" unicode="&#x15e;" 
d="M12 340l123 70q47 -144 168 -225t283 -81q169 0 279 89t110 227q0 104 -77 166q-75 60 -255 104q-229 57 -336 149q-106 91 -106 236q0 183 140 299q141 117 361 117q183 0 319 -84t181 -225l-115 -70q-40 116 -145 185t-246 69q-158 0 -257 -78t-99 -198q0 -99 85 -162
q89 -65 271 -111q223 -55 322 -144q98 -88 98 -237q0 -203 -149 -330q-148 -126 -385 -126h-27q-6 0 -16 2l-23 -52q74 -12 114 -51t40 -100q0 -75 -59 -122q-58 -46 -152 -46q-64 0 -115 22q-53 23 -88 64l68 72q30 -35 64 -52q36 -18 75 -18q48 0 76 22t28 60q0 41 -42 63
q-44 24 -117 25l53 121q-164 27 -284 120t-165 230z" />
    <glyph glyph-name="scedilla" unicode="&#x15f;" 
d="M86 262l111 68q34 -111 137 -174q104 -64 244 -64q132 0 219 58q86 57 86 145q0 67 -59 109q-58 42 -216 81q-215 50 -298 116t-83 171q0 139 119 228q121 90 303 90q161 0 279 -71q117 -70 145 -181l-108 -62q-29 93 -115 146t-209 53q-122 0 -202 -53q-79 -52 -79 -134
q0 -60 57 -101q56 -40 245 -85q192 -46 275 -115q81 -67 81 -176q0 -145 -126 -238t-321 -93h-36q-9 0 -23 2l-23 -52q73 -12 114 -51q40 -39 40 -100q0 -76 -58 -122t-153 -46q-64 0 -115 22q-53 23 -88 64l68 72q30 -35 64 -52q36 -18 75 -18q48 0 76 22q29 23 29 60
q0 41 -42 63q-44 24 -118 25l53 123q-133 27 -224 97t-124 173z" />
    <glyph glyph-name="Scaron" unicode="&#x160;" 
d="M582 -20q-207 0 -361 98q-157 100 -209 262l123 70q47 -144 168 -225t283 -81q169 0 279 89t110 227q0 104 -77 166q-75 60 -255 104q-229 57 -336 149q-106 91 -106 236q0 183 140 299q141 117 361 117q183 0 319 -84t181 -225l-115 -70q-40 116 -145 185t-246 69
q-158 0 -257 -78t-99 -198q0 -99 85 -162q89 -65 271 -111q223 -55 322 -144q98 -88 98 -237q0 -203 -149 -330q-148 -126 -385 -126zM1139 1870l-283 -293h-166l-201 293h105l184 -203l242 203h119z" />
    <glyph glyph-name="scaron" unicode="&#x161;" 
d="M571 -20q-183 0 -312 75q-133 77 -173 207l111 68q34 -111 137 -174q104 -64 244 -64q134 0 219 57q86 57 86 146q0 67 -59 109q-58 42 -216 81q-215 50 -298 116t-83 171q0 139 119 228q121 90 303 90q161 0 279 -71q117 -70 145 -181l-108 -62q-29 93 -115 146t-209 53
q-122 0 -202 -53q-79 -52 -79 -134q0 -60 57 -101q56 -40 245 -85q192 -46 275 -115q81 -67 81 -176q0 -145 -126 -238t-321 -93zM1014 1470l-238 -282h-155l-160 282h102l142 -188l194 188h115z" />
    <glyph glyph-name="uni0162" unicode="&#x162;" 
d="M700 -221q0 -76 -58 -122t-153 -46q-63 0 -114 22q-53 23 -88 64l67 72q30 -34 65 -52q36 -18 75 -18q47 0 75 22q29 23 29 60q0 41 -42 63q-44 24 -118 25l58 131h-29l188 1346h-503l18 124h1151l-18 -124h-504l-189 -1346h-32l-31 -70q72 -12 113 -51q40 -39 40 -100z
" />
    <glyph glyph-name="uni0163" unicode="&#x163;" 
d="M393 324l88 628h-334l17 117h334l43 309h133l-43 -309h491l-16 -117h-492l-86 -620q-17 -109 46 -164q62 -55 200 -55q60 0 117 9q51 8 119 28l-19 -125q-70 -20 -126 -28q-49 -7 -103 -7q-17 0 -55 2q-27 1 -60 8l-31 -70q74 -12 114 -51t40 -100q0 -76 -58 -122
t-153 -46q-64 0 -115 22q-53 23 -88 64l68 72q30 -35 64 -52q36 -18 75 -18q48 0 76 22q29 23 29 60q0 41 -42 63q-44 24 -118 25l65 149h5q-106 39 -152 117q-48 80 -33 189z" />
    <glyph glyph-name="Tcaron" unicode="&#x164;" 
d="M1321 1470l-18 -124h-504l-189 -1346h-143l188 1346h-503l18 124h1151zM1126 1870l-282 -293h-166l-201 293h105l184 -203l242 203h118z" />
    <glyph glyph-name="tcaron" unicode="&#x165;" 
d="M762 -10q-187 0 -290 89q-102 88 -79 245l88 628h-334l17 117h334l43 309h133l-43 -309h491l-16 -117h-492l-86 -620q-17 -109 46 -164q62 -55 200 -55q60 0 117 9q51 8 119 28l-19 -125q-70 -20 -126 -28q-49 -7 -103 -7zM846 1182h-92l90 407h153z" />
    <glyph glyph-name="Tbar" unicode="&#x166;" 
d="M965 823l-19 -127h-237l-99 -696h-143l98 696h-239l18 127h238l73 523h-503l18 124h1151l-18 -124h-504l-74 -523h240z" />
    <glyph glyph-name="tbar" unicode="&#x167;" 
d="M762 -10q-187 0 -290 89q-102 88 -79 245l33 231h-334l17 117h333l39 280h-334l17 117h334l43 309h133l-43 -309h491l-16 -117h-492l-39 -280h492l-16 -117h-492l-31 -223q-17 -109 46 -164q62 -55 200 -55q60 0 117 9q51 8 119 28l-19 -125q-70 -20 -126 -28
q-49 -7 -103 -7z" />
    <glyph glyph-name="Utilde" unicode="&#x168;" 
d="M569 -20q-240 0 -356 152q-117 154 -80 423l129 915h141l-127 -909q-30 -219 47 -334q77 -114 250 -114q167 0 260 108q92 106 125 340l129 909h142l-127 -915q-40 -288 -174 -432q-133 -143 -359 -143zM1051 1837h100q-24 -120 -87 -189t-146 -69q-40 0 -74 15
q-35 15 -88 65q-43 40 -67 52q-22 11 -48 11q-46 0 -79 -36q-33 -35 -54 -109h-102q24 121 87 190q64 70 146 70q39 0 74 -15q34 -15 88 -67q46 -40 68 -51q24 -12 49 -12q44 0 78 37t55 108z" />
    <glyph glyph-name="utilde" unicode="&#x169;" 
d="M958 1069h138l-152 -1069h-135l22 162q-56 -86 -147 -134q-92 -48 -199 -48q-168 0 -253 107q-84 106 -60 288l96 694h138l-97 -674q-21 -135 38 -212t181 -77q131 0 226 89q93 87 114 229zM598 1352q-39 0 -69 -36q-28 -34 -50 -108h-94q22 121 77 188q54 66 130 66
q35 0 65 -15q29 -15 80 -67q37 -37 60 -50q19 -11 41 -11q39 0 69 37q32 40 49 108h95q-22 -119 -77 -188q-54 -68 -130 -68q-35 0 -67 17q-35 18 -79 65q-38 38 -59 50t-41 12z" />
    <glyph glyph-name="Umacron" unicode="&#x16a;" 
d="M569 -20q-240 0 -356 152q-117 154 -80 423l129 915h141l-127 -909q-30 -219 47 -334q77 -114 250 -114q167 0 260 108q92 106 125 340l129 909h142l-127 -915q-40 -288 -174 -432q-133 -143 -359 -143zM1090 1726l-17 -110h-616l16 110h617z" />
    <glyph glyph-name="umacron" unicode="&#x16b;" 
d="M958 1069h138l-152 -1069h-135l22 162q-56 -86 -147 -134q-92 -48 -199 -48q-168 0 -253 107q-84 106 -60 288l96 694h138l-97 -674q-21 -135 38 -212t181 -77q131 0 226 89q93 87 114 229zM987 1366l-14 -109h-531l15 109h530z" />
    <glyph glyph-name="Ubreve" unicode="&#x16c;" 
d="M569 -20q-240 0 -356 152q-117 154 -80 423l129 915h141l-127 -909q-30 -219 47 -334q77 -114 250 -114q167 0 260 108q92 106 125 340l129 909h142l-127 -915q-40 -288 -174 -432q-133 -143 -359 -143zM778 1575q-133 0 -208 80q-74 79 -68 215h106q-2 -94 45 -147
q46 -52 129 -52q84 0 143 53q57 51 74 146h101q-21 -137 -106 -216t-216 -79z" />
    <glyph glyph-name="ubreve" unicode="&#x16d;" 
d="M958 1069h138l-152 -1069h-135l22 162q-56 -86 -147 -134q-92 -48 -199 -48q-168 0 -253 107q-84 106 -60 288l96 694h138l-97 -674q-21 -135 38 -212t181 -77q131 0 226 89q93 87 114 229zM721 1280q74 0 119 49q44 48 59 141h96q-16 -138 -89 -215q-71 -75 -189 -75
q-124 0 -186 75q-62 76 -52 215h96q-4 -90 34 -141q37 -49 112 -49z" />
    <glyph glyph-name="Uring" unicode="&#x16e;" 
d="M569 -20q-240 0 -356 152q-117 154 -80 423l129 915h141l-127 -909q-30 -219 47 -334q77 -114 250 -114q167 0 260 108q92 106 125 340l129 909h142l-127 -915q-40 -288 -174 -432q-133 -143 -359 -143zM573 1747q0 91 64 157q63 64 158 64q89 0 145 -56q57 -57 57 -143
q0 -89 -63 -154t-158 -65q-88 0 -146 56q-57 56 -57 141zM668 1747q0 -49 30 -79t80 -30q53 0 89 39t36 92q0 50 -32 80q-33 31 -78 31q-54 0 -90 -39q-35 -38 -35 -94z" />
    <glyph glyph-name="uring" unicode="&#x16f;" 
d="M958 1069h138l-152 -1069h-135l22 162q-56 -86 -147 -134q-92 -48 -199 -48q-168 0 -253 107q-84 106 -60 288l96 694h138l-97 -674q-21 -135 38 -212t181 -77q131 0 226 89q93 87 114 229zM530 1341q0 81 59 138t140 57q80 0 130 -50t50 -126q0 -82 -57 -139
q-58 -58 -141 -58q-78 0 -129 51q-52 52 -52 127zM616 1341q0 -41 28 -71q27 -29 69 -29q47 0 80 35q32 33 32 82q0 44 -27 72t-71 28q-47 0 -79 -35t-32 -82z" />
    <glyph glyph-name="Uhungarumlaut" unicode="&#x170;" 
d="M569 -20q-240 0 -356 152q-117 154 -80 423l129 915h141l-127 -909q-30 -219 47 -334q77 -114 250 -114q167 0 260 108q92 106 125 340l129 909h142l-127 -915q-40 -288 -174 -432q-133 -143 -359 -143zM973 1577h-117l238 293h176zM618 1577h-116l239 293h174z" />
    <glyph glyph-name="uhungarumlaut" unicode="&#x171;" 
d="M958 1069h138l-152 -1069h-135l22 162q-56 -86 -147 -134q-92 -48 -199 -48q-168 0 -253 107q-84 106 -60 288l96 694h138l-97 -674q-21 -135 38 -212t181 -77q131 0 226 89q93 87 114 229zM897 1188h-104l161 282h166zM602 1188h-104l161 282h166z" />
    <glyph glyph-name="Uogonek" unicode="&#x172;" 
d="M702 -276l-10 -91q-23 -7 -50 -12q-23 -4 -46 -4q-71 0 -117 41q-45 40 -45 106q0 52 35 110q33 55 98 106q-238 2 -353 153q-116 153 -79 422l129 915h142l-127 -909q-30 -220 46 -334t250 -114q167 0 260 108t126 340l129 909h141l-127 -915q-30 -214 -110 -347
q-81 -134 -212 -190q-115 -51 -177 -114q-64 -65 -64 -123q0 -35 21 -53q22 -19 63 -19q18 0 37 4q6 1 40 11z" />
    <glyph glyph-name="uogonek" unicode="&#x173;" 
d="M780 -383q-70 0 -116 41t-46 106q0 60 49 126q50 67 146 137l18 135q-56 -86 -147 -134q-92 -48 -199 -48q-168 0 -253 107q-84 106 -60 288l96 694h137l-96 -674q-21 -135 38 -212t181 -77q131 0 226 89q93 87 114 229l90 645h138l-152 -1069h-43q-86 -65 -133 -121
q-43 -52 -43 -98q0 -35 21 -53q22 -19 63 -19q18 0 37 4q10 2 41 11l-10 -91q-22 -7 -51 -12q-23 -4 -46 -4z" />
    <glyph glyph-name="Wcircumflex" unicode="&#x174;" 
d="M291 270l395 1200h115l33 -1200l374 1200h131l-469 -1470h-125l-34 1225l-408 -1225h-127l-24 1470h124zM719 1870h166l200 -293h-106l-184 203l-240 -203h-119z" />
    <glyph glyph-name="wcircumflex" unicode="&#x175;" 
d="M295 201l338 868h115l59 -868l326 868h131l-414 -1069h-121l-65 879l-345 -879h-126l-76 1069h123zM668 1470h155l160 -282h-102l-144 188l-194 -188h-115z" />
    <glyph glyph-name="Ycircumflex" unicode="&#x176;" 
d="M295 1470l346 -712l547 712h158l-648 -839l-88 -631h-143l88 631l-412 839h152zM719 1870h166l200 -293h-106l-184 203l-240 -203h-119z" />
    <glyph glyph-name="ycircumflex" unicode="&#x177;" 
d="M1200 1069l-698 -1208q-84 -148 -153 -197q-68 -49 -171 -49q-33 0 -60 4q-37 6 -55 10l17 119q17 -5 48 -10q23 -4 50 -4q64 0 106 33q43 34 93 122l82 140l-283 1042l135 -2l236 -885l508 885h145zM668 1470h155l160 -282h-102l-144 188l-194 -188h-115z" />
    <glyph glyph-name="Ydieresis" unicode="&#x178;" 
d="M295 1470l346 -712l547 712h158l-648 -839l-88 -631h-143l88 631l-412 839h152zM670 1589h-156l25 183h157zM1010 1589h-158l27 183h157z" />
    <glyph glyph-name="Zacute" unicode="&#x179;" 
d="M211 125h876l-18 -125h-1059l17 111l1040 1235h-856l18 124h1039l-17 -110zM758 1577h-119l266 293h197z" />
    <glyph glyph-name="zacute" unicode="&#x17a;" 
d="M262 117h735l-16 -117h-911l14 102l856 850h-729l16 117h899l-16 -106zM727 1188h-111l150 282h180z" />
    <glyph glyph-name="Zdotaccent" unicode="&#x17b;" 
d="M211 125h876l-18 -125h-1059l17 111l1040 1235h-856l18 124h1039l-17 -110zM842 1589h-160l25 183h161z" />
    <glyph glyph-name="zdotaccent" unicode="&#x17c;" 
d="M262 117h735l-16 -117h-911l14 102l856 850h-729l16 117h899l-16 -106zM786 1288h-157l26 182h156z" />
    <glyph glyph-name="Zcaron" unicode="&#x17d;" 
d="M211 125h876l-18 -125h-1059l17 111l1040 1235h-856l18 124h1039l-17 -110zM1130 1870l-282 -293h-166l-201 293h105l184 -203l242 203h118z" />
    <glyph glyph-name="zcaron" unicode="&#x17e;" 
d="M262 117h735l-16 -117h-911l14 102l856 850h-729l16 117h899l-16 -106zM1016 1470l-238 -282h-155l-160 282h102l142 -188l194 188h115z" />
    <glyph glyph-name="florin" unicode="&#x192;" 
d="M600 762h-223l14 104h240l86 285q50 167 143 253q94 87 225 87q73 0 134 -26q59 -25 92 -70l-72 -95q-25 36 -64 55t-85 19q-79 0 -140 -61q-62 -62 -96 -172l-84 -275h262l-14 -104h-279l-127 -420q-51 -179 -144 -271q-92 -91 -224 -91q-74 0 -133 26q-61 27 -99 72
l72 94q26 -34 69 -55q42 -21 87 -21q77 0 137 65q59 63 98 191z" />
    <glyph glyph-name="AEacute" unicode="&#x1fc;" 
d="M-76 0l740 1470h665l-18 -124h-420l-72 -523h357l-19 -125h-356l-80 -573h418l-17 -125h-559l62 436h-336l-219 -436h-146zM756 1374l-406 -815h291zM999 1577h-118l266 293h196z" />
    <glyph glyph-name="aeacute" unicode="&#x1fd;" 
d="M1055 332l104 -45q-44 -147 -133 -227t-207 -80q-97 0 -169 57q-73 58 -103 158q-46 -101 -125 -159q-77 -56 -176 -56q-114 0 -184 74t-70 198q0 175 128 277t359 102h58l16 123q15 97 -26 156t-119 59q-80 0 -135 -55q-53 -53 -80 -158l-107 35q30 133 120 216
q89 81 208 83q88 0 152 -47q63 -47 81 -128q58 89 126 131q71 44 153 44q156 0 236 -147q79 -145 44 -374l-4 -45h-567q0 -8 -1.5 -24.5t-2.5 -25.5q-2 -34 -2 -50q0 -151 53 -239q52 -87 147 -87q78 0 136 61q57 60 90 173zM920 971q-90 0 -162 -92q-73 -92 -107 -248h441
q16 149 -31 245q-47 95 -141 95zM117 258q0 -77 39 -121q39 -43 110 -43q88 0 153 75t81 198l22 157h-41q-181 0 -273 -66q-91 -66 -91 -200zM739 1188h-110l149 282h180z" />
    <glyph glyph-name="Oslashacute" unicode="&#x1fe;" 
d="M92 -43l-84 63l168 213q-31 73 -50 166q-17 85 -17 193q0 376 176 638q175 261 438 261q104 0 185 -40q84 -41 143 -118l141 180l84 -63l-168 -213q31 -73 50 -166q18 -90 18 -192q0 -375 -177 -638q-175 -261 -438 -261q-106 0 -185 39q-84 41 -143 118zM719 1368
q-199 0 -338 -228q-139 -227 -139 -546q0 -65 8 -129q8 -60 24 -111l689 871q-43 68 -105 106q-61 37 -139 37zM565 102q201 0 339 228t138 547q0 65 -8 129q-7 58 -24 110l-688 -870q45 -71 104 -107q61 -37 139 -37zM825 1577h-118l266 293h196z" />
    <glyph glyph-name="oslashacute" unicode="&#x1ff;" 
d="M1096 610q0 -265 -153 -448q-152 -182 -384 -182q-91 0 -162 26q-73 27 -129 78l-125 -133l-75 69l135 146q-35 58 -53 131q-19 78 -19 160q0 266 153 449q154 184 384 184q87 0 166 -28q74 -26 131 -83l112 119l78 -70l-127 -133q31 -54 50 -129q18 -72 18 -156z
M659 975q-167 0 -281 -150t-114 -364q0 -53 8 -104q7 -44 27 -89l578 615q-38 43 -97 68q-56 24 -121 24zM567 92q169 0 284 151q114 150 114 365q0 44 -9 100q-7 45 -24 83l-576 -613q39 -41 95 -64q55 -22 116 -22zM756 1188h-111l150 282h180z" />
    <glyph glyph-name="uni0218" unicode="&#x218;" 
d="M582 -20q-207 0 -361 98q-157 100 -209 262l123 70q47 -144 168 -225t283 -81q169 0 279 89t110 227q0 104 -77 166q-75 60 -255 104q-229 57 -336 149q-106 91 -106 236q0 183 140 299q141 117 361 117q183 0 319 -84t181 -225l-115 -70q-40 116 -145 185t-246 69
q-158 0 -257 -78t-99 -198q0 -99 85 -162q89 -65 271 -111q223 -55 322 -144q98 -88 98 -237q0 -203 -149 -330q-148 -126 -385 -126zM508 -209h-66l19 135h160l-19 -129q-12 -83 -72 -130q-60 -46 -153 -42l10 66q57 0 84 23q30 25 37 77z" />
    <glyph glyph-name="uni0219" unicode="&#x219;" 
d="M571 -20q-183 0 -312 75q-133 77 -173 207l111 68q34 -111 137 -174q104 -64 244 -64q134 0 219 57q86 57 86 146q0 67 -59 109q-58 42 -216 81q-215 50 -298 116t-83 171q0 139 119 228q121 90 303 90q161 0 279 -71q117 -70 145 -181l-108 -62q-29 93 -115 146t-209 53
q-122 0 -202 -53q-79 -52 -79 -134q0 -60 57 -101q56 -40 245 -85q192 -46 275 -115q81 -67 81 -176q0 -145 -126 -238t-321 -93zM496 -209h-66l19 135h159l-18 -129q-12 -83 -72 -130q-60 -46 -153 -42l10 66q57 0 84 23q30 25 37 77z" />
    <glyph glyph-name="uni021A" unicode="&#x21a;" 
d="M1321 1470l-18 -124h-504l-189 -1346h-143l188 1346h-503l18 124h1151zM498 -209h-66l19 135h159l-18 -129q-12 -83 -72 -130q-60 -46 -153 -42l10 66q57 0 84 23q30 25 37 77z" />
    <glyph glyph-name="uni021B" unicode="&#x21b;" 
d="M762 -10q-187 0 -290 89q-102 88 -79 245l88 628h-334l17 117h334l43 309h133l-43 -309h491l-16 -117h-492l-86 -620q-17 -109 46 -164q62 -55 200 -55q60 0 117 9q51 8 119 28l-19 -125q-70 -20 -126 -28q-49 -7 -103 -7zM600 -209h-65l18 135h160l-19 -129
q-12 -84 -71 -130q-60 -46 -154 -42l10 66q57 0 84 23q30 25 37 77z" />
    <glyph glyph-name="uni0237" unicode="&#x237;" 
d="M332 -266q161 0 247 70t107 216l131 932h-557l16 117h693l-152 -1069q-27 -192 -150 -290q-125 -99 -337 -99q-70 0 -140 10q-73 10 -124 27l18 121q54 -17 120 -26t128 -9z" />
    <glyph glyph-name="circumflex" unicode="&#x2c6;" 
d="M668 1470h155l160 -282h-102l-144 188l-194 -188h-115z" />
    <glyph glyph-name="caron" unicode="&#x2c7;" 
d="M1022 1470l-238 -282h-155l-160 282h102l142 -188l194 188h115z" />
    <glyph glyph-name="breve" unicode="&#x2d8;" 
d="M729 1280q74 0 119 49q44 48 59 141h97q-16 -137 -90 -215q-71 -75 -189 -75q-123 0 -185 75q-63 77 -53 215h97q-4 -92 33 -141t112 -49z" />
    <glyph glyph-name="dotaccent" unicode="&#x2d9;" 
d="M799 1288h-158l27 182h155z" />
    <glyph glyph-name="ring" unicode="&#x2da;" 
d="M539 1341q0 81 58 138q59 57 140 57q80 0 130 -50q51 -51 51 -126q0 -81 -58 -139t-141 -58q-78 0 -129 51t-51 127zM625 1341q0 -43 27 -71q27 -29 69 -29q47 0 80 35q33 34 33 82q0 42 -28 72q-27 28 -71 28q-47 0 -79 -35q-31 -34 -31 -82z" />
    <glyph glyph-name="ogonek" unicode="&#x2db;" 
d="M514 -383q-71 0 -117 41q-45 40 -45 106q0 72 63 146q65 76 189 156l41 -58q-91 -66 -140 -125q-46 -55 -46 -102q0 -35 21 -53q22 -19 63 -19q18 0 37 4q10 2 41 11l-11 -91q-23 -7 -50 -12q-23 -4 -46 -4z" />
    <glyph glyph-name="tilde" unicode="&#x2dc;" 
d="M606 1352q-38 0 -68 -36t-51 -108h-94q22 121 77 188q54 66 130 66q36 0 66 -15q27 -14 79 -67q37 -37 60 -50q19 -11 41 -11q39 0 69 37q33 42 50 108h94q-22 -119 -77 -188q-54 -68 -130 -68q-35 0 -67 17q-33 17 -78 65q-37 37 -60 50q-21 12 -41 12z" />
    <glyph glyph-name="hungarumlaut" unicode="&#x2dd;" 
d="M811 1188h-104l161 282h166zM516 1188h-104l161 282h166z" />
    <glyph glyph-name="gravecmb" unicode="&#x300;" horiz-adv-x="0" 
d="M37 1470l88 -282h-98l-152 282h162z" />
    <glyph glyph-name="acutecmb" unicode="&#x301;" horiz-adv-x="0" 
d="M-53 1188h-111l150 282h180z" />
    <glyph glyph-name="uni0302" unicode="&#x302;" horiz-adv-x="0" 
d="M-37 1470h156l160 -282h-103l-143 188l-195 -188h-114z" />
    <glyph glyph-name="tildecmb" unicode="&#x303;" horiz-adv-x="0" 
d="M-119 1352q-38 0 -68 -36t-51 -108h-94q22 121 77 188q54 66 130 66q36 0 66 -15q27 -14 79 -67q37 -37 60 -50q19 -11 41 -11q39 0 69 37q33 42 50 108h94q-22 -119 -77 -188q-54 -68 -130 -68q-35 0 -67 17q-33 17 -78 65q-37 37 -60 50q-21 12 -41 12z" />
    <glyph glyph-name="uni0304" unicode="&#x304;" horiz-adv-x="0" 
d="M272 1366l-14 -109h-530l14 109h530z" />
    <glyph glyph-name="uni0306" unicode="&#x306;" horiz-adv-x="0" 
d="M-16 1280q73 0 118 49t60 141h96q-16 -138 -89 -215q-71 -75 -189 -75q-124 0 -186 75q-62 76 -52 215h96q-4 -90 34 -141q37 -49 112 -49z" />
    <glyph glyph-name="uni0307" unicode="&#x307;" horiz-adv-x="0" 
d="M68 1288h-158l27 182h155z" />
    <glyph glyph-name="uni0308" unicode="&#x308;" horiz-adv-x="0" 
d="M-100 1274h-158l27 184h157zM231 1274h-155l24 184h158z" />
    <glyph glyph-name="uni030A" unicode="&#x30a;" horiz-adv-x="0" 
d="M-188 1341q0 81 58 138t140 57q80 0 130 -50t50 -126q0 -82 -57 -139q-58 -58 -141 -58q-78 0 -129 51t-51 127zM-102 1341q0 -43 27 -71q27 -29 69 -29q47 0 80 35q32 33 32 82q0 44 -27 72t-71 28q-47 0 -79 -35q-31 -34 -31 -82z" />
    <glyph glyph-name="uni030B" unicode="&#x30b;" horiz-adv-x="0" 
d="M88 1188h-104l161 282h166zM-207 1188h-104l161 282h166z" />
    <glyph glyph-name="uni030C" unicode="&#x30c;" horiz-adv-x="0" 
d="M276 1470l-237 -282h-156l-159 282h102l141 -188l195 188h114z" />
    <glyph glyph-name="uni0312" unicode="&#x312;" horiz-adv-x="0" 
d="M-6 1323h63l-18 -135h-160l21 129q12 84 71 130q60 47 152 42l-8 -66q-59 0 -85 -23q-29 -25 -36 -77z" />
    <glyph glyph-name="uni0315" unicode="&#x315;" horiz-adv-x="0" 
d="M-29 1063h-92l90 407h154z" />
    <glyph glyph-name="uni0326" unicode="&#x326;" horiz-adv-x="0" 
d="M10 -209h-65l18 135h160l-19 -129q-12 -84 -71 -130q-60 -46 -154 -42l10 66q57 0 84 23q30 25 37 77z" />
    <glyph glyph-name="uni0327" unicode="&#x327;" horiz-adv-x="0" 
d="M207 -221q0 -75 -59 -122q-58 -46 -152 -46q-64 0 -115 22q-53 23 -88 64l68 72q30 -35 64 -52q36 -18 75 -18q48 0 76 22t28 60q0 41 -42 63q-44 24 -117 25l65 149h82l-39 -88q73 -12 114 -51q40 -39 40 -100z" />
    <glyph glyph-name="uni0328" unicode="&#x328;" horiz-adv-x="0" 
d="M16 -383q-70 0 -116 41q-45 40 -45 106q0 74 62 146q65 76 189 156l41 -58q-91 -66 -140 -125q-46 -55 -46 -102q0 -34 22 -53t62 -19q18 0 37 4q10 2 41 11l-10 -91q-22 -7 -51 -12q-23 -4 -46 -4z" />
    <glyph glyph-name="Wgrave" unicode="&#x1e80;" 
d="M291 270l395 1200h115l33 -1200l374 1200h131l-469 -1470h-125l-34 1225l-408 -1225h-127l-24 1470h124zM629 1870l196 -293h-108l-273 293h185z" />
    <glyph glyph-name="wgrave" unicode="&#x1e81;" 
d="M295 201l338 868h115l59 -868l326 868h131l-414 -1069h-121l-65 879l-345 -879h-126l-76 1069h123zM651 1470l88 -282h-98l-152 282h162z" />
    <glyph glyph-name="Wacute" unicode="&#x1e82;" 
d="M291 270l395 1200h115l33 -1200l374 1200h131l-469 -1470h-125l-34 1225l-408 -1225h-127l-24 1470h124zM801 1577h-119l266 293h197z" />
    <glyph glyph-name="wacute" unicode="&#x1e83;" 
d="M295 201l338 868h115l59 -868l326 868h131l-414 -1069h-121l-65 879l-345 -879h-126l-76 1069h123zM782 1188h-110l149 282h180z" />
    <glyph glyph-name="Wdieresis" unicode="&#x1e84;" 
d="M291 270l395 1200h115l33 -1200l374 1200h131l-469 -1470h-125l-34 1225l-408 -1225h-127l-24 1470h124zM670 1589h-156l25 183h157zM1010 1589h-158l27 183h157z" />
    <glyph glyph-name="wdieresis" unicode="&#x1e85;" 
d="M295 201l338 868h115l59 -868l326 868h131l-414 -1069h-121l-65 879l-345 -879h-126l-76 1069h123zM631 1274h-158l27 184h157zM963 1274h-156l24 184h158z" />
    <glyph glyph-name="Ygrave" unicode="&#x1ef2;" 
d="M295 1470l346 -712l547 712h158l-648 -839l-88 -631h-143l88 631l-412 839h152zM678 1870l196 -293h-108l-272 293h184z" />
    <glyph glyph-name="ygrave" unicode="&#x1ef3;" 
d="M1200 1069l-698 -1208q-84 -148 -153 -197q-68 -49 -171 -49q-33 0 -60 4q-37 6 -55 10l17 119q17 -5 48 -10q23 -4 50 -4q64 0 106 33q43 34 93 122l82 140l-283 1042l135 -2l236 -885l508 885h145zM653 1470l88 -282h-98l-151 282h161z" />
    <glyph glyph-name="endash" unicode="&#x2013;" 
d="M1040 543h-852l17 112h852z" />
    <glyph glyph-name="emdash" unicode="&#x2014;" 
d="M1229 543h-1229l16 112h1229z" />
    <glyph glyph-name="quoteleft" unicode="&#x2018;" 
d="M707 1137h104l-33 -242h-225l35 262q23 150 107 229q86 80 229 84l-13 -96q-92 -12 -141 -64t-61 -153z" />
    <glyph glyph-name="quoteright" unicode="&#x2019;" 
d="M705 1229h-105l33 241h225l-35 -262q-23 -150 -107 -229q-86 -80 -229 -84l13 96q91 12 141 65q49 52 61 152z" />
    <glyph glyph-name="quotesinglbase" unicode="&#x201a;" 
d="M530 0h-104l33 242h225l-35 -262q-23 -152 -107 -230q-86 -80 -229 -84l13 96q91 12 141 65q49 52 61 153z" />
    <glyph glyph-name="quotedblleft" unicode="&#x201c;" 
d="M485 1137h105l-33 -242h-225l35 262q23 150 107 229q86 80 228 84l-12 -96q-92 -12 -141 -64q-50 -53 -62 -153zM926 1137h104l-33 -242h-225l35 262q23 150 107 229q86 80 229 84l-13 -96q-92 -12 -141 -64t-61 -153z" />
    <glyph glyph-name="quotedblright" unicode="&#x201d;" 
d="M928 1229h-105l33 241h225l-34 -262q-22 -149 -108 -229t-228 -84l12 96q91 12 141 65t62 152zM487 1229h-104l33 241h225l-35 -262q-23 -150 -107 -229q-86 -80 -229 -84l13 96q91 12 141 65q49 52 61 152z" />
    <glyph glyph-name="quotedblbase" unicode="&#x201e;" 
d="M752 0h-105l33 242h225l-35 -262q-23 -152 -107 -230q-86 -80 -228 -84l12 96q91 12 141 65t62 153zM311 0h-104l33 242h225l-35 -262q-23 -152 -107 -230q-86 -80 -229 -84l12 96q92 12 142 65q49 52 61 153z" />
    <glyph glyph-name="dagger" unicode="&#x2020;" 
d="M680 623h-111l74 520h-264l16 112h262l37 256h113l-37 -256h264l-14 -112h-266z" />
    <glyph glyph-name="daggerdbl" unicode="&#x2021;" 
d="M680 623h-111l33 233h-264l16 109h262l31 204h-264l16 109h263l32 233h113l-33 -233h264l-14 -109h-266l-29 -204h264l-14 -109h-266z" />
    <glyph glyph-name="bullet" unicode="&#x2022;" 
d="M897 625q0 -125 -85 -213t-208 -88q-114 0 -185 71q-73 73 -73 180q0 124 86 213t209 89q111 0 183 -72q73 -73 73 -180z" />
    <glyph glyph-name="ellipsis" unicode="&#x2026;" 
d="M289 0h-211l33 229h211zM645 0h-211l33 229h211zM999 0h-211l33 229h211z" />
    <glyph glyph-name="guilsinglleft" unicode="&#x2039;" 
d="M758 197l-342 290l18 136l422 288l-18 -151l-310 -209l250 -211z" />
    <glyph glyph-name="guilsinglright" unicode="&#x203a;" 
d="M477 913l342 -290l-18 -136l-422 -288l18 151l310 209l-250 211z" />
    <glyph glyph-name="fraction" unicode="&#x2044;" horiz-adv-x="0" 
d="M-670 0l1262 1470h131l-1260 -1470h-133z" />
    <glyph glyph-name="uni2070" unicode="&#x2070;" 
d="M379 987q0 214 99 358t253 144q125 0 196 -92q70 -91 70 -252q0 -212 -100 -357t-254 -145q-123 0 -193 91q-71 92 -71 253zM492 985q0 -113 42 -177q42 -65 115 -65q98 0 166 119t68 285q0 112 -41 176q-40 63 -115 63q-99 0 -167 -117t-68 -284z" />
    <glyph glyph-name="uni2074" unicode="&#x2074;" 
d="M838 868l-29 -213h-109l31 213h-391l14 88l418 521h154l-74 -514h145l-14 -95h-145zM801 1374l-332 -411h274z" />
    <glyph glyph-name="uni2075" unicode="&#x2075;" 
d="M694 1102q-41 0 -80 -18t-65 -50l-105 21l95 422h454l-14 -103h-365l-53 -235q40 30 77 44q41 15 83 15q104 0 170 -69q65 -68 65 -177q0 -127 -88 -218t-219 -91q-116 0 -193 68q-76 67 -87 182l112 16q7 -76 56 -123q47 -45 116 -45q79 0 135 59t56 142q0 72 -41 116
t-109 44z" />
    <glyph glyph-name="uni2076" unicode="&#x2076;" 
d="M770 1489q95 0 162 -53q65 -52 82 -144l-101 -35q-7 61 -50 99q-41 37 -103 37q-97 0 -169 -90q-73 -91 -89 -230q33 57 92 91t129 34q107 0 174 -69q68 -70 68 -175q0 -128 -87 -220q-87 -91 -219 -91q-127 0 -199 87q-73 88 -73 245q0 216 110 365t273 149zM502 903
q0 -71 45 -118q45 -46 115 -46q80 0 138 61q56 59 56 144q0 72 -45 117t-117 45q-82 0 -137 -59t-55 -144z" />
    <glyph glyph-name="uni2077" unicode="&#x2077;" 
d="M915 1374h-374l-19 -139h-102l35 242h606l-14 -101q-162 -158 -243 -322q-81 -165 -114 -399h-121q33 232 117 406t229 313z" />
    <glyph glyph-name="uni2078" unicode="&#x2078;" 
d="M455 1260q0 98 77 163q78 66 197 66q113 0 182 -57q70 -58 70 -150q0 -69 -40 -121q-42 -55 -112 -78q68 -28 102 -75q36 -50 36 -113q0 -108 -89 -179t-231 -71q-131 0 -211 62t-80 159q0 82 56 146t145 86q-49 24 -76 66q-26 40 -26 96zM559 1260q0 -56 42 -90
q40 -33 108 -33q72 0 118 40q47 41 47 99q0 53 -41 87t-108 34q-73 0 -119 -39q-47 -39 -47 -98zM471 879q0 -64 50 -103q49 -39 128 -39q86 0 146 48q59 47 59 116q0 64 -50 103q-48 38 -128 38q-88 0 -147 -47q-58 -46 -58 -116z" />
    <glyph glyph-name="uni2079" unicode="&#x2079;" 
d="M606 643q-95 0 -162 53q-65 52 -82 144l99 34q10 -61 52 -98q41 -37 103 -37q97 0 169 90q73 91 89 230q-33 -58 -94 -93q-59 -34 -127 -34q-107 0 -175 68t-68 176q0 130 88 221q89 92 219 92q127 0 199 -88q73 -90 73 -244q0 -217 -108 -365q-108 -149 -275 -149z
M874 1229q0 71 -46 117q-47 47 -113 47q-81 0 -138 -62q-57 -61 -57 -145q0 -72 45 -117t117 -45q82 0 137 59t55 146z" />
    <glyph glyph-name="uni2080" unicode="&#x2080;" 
d="M252 86q0 213 99 357q100 145 253 145q125 0 196 -92q70 -91 70 -252q0 -212 -100 -357t-254 -145q-123 0 -193 91q-71 92 -71 253zM365 84q0 -112 42 -177t115 -65q98 0 166 119t68 285q0 112 -41 176q-41 63 -115 63q-99 0 -167 -117t-68 -284z" />
    <glyph glyph-name="uni2081" unicode="&#x2081;" 
d="M625 578h86l-101 -723h193l-15 -101h-528l14 101h220l73 503h-211l13 86l108 5q69 5 101 32q31 27 47 97z" />
    <glyph glyph-name="uni2082" unicode="&#x2082;" 
d="M219 -246l12 90l316 236q98 71 146 137q46 62 46 127q0 63 -40 102q-41 39 -105 39q-78 0 -127 -55t-49 -141q0 -29 1 -37q2 -16 5 -23h-111q-5 15 -6 31q-2 22 -2 35q0 127 84 210q85 83 213 83q112 0 184 -66t72 -170q0 -84 -52 -163q-52 -78 -163 -158l-235 -174h399
l-16 -103h-572z" />
    <glyph glyph-name="uni2083" unicode="&#x2083;" 
d="M829 0q0 -110 -84 -184q-85 -74 -215 -74q-123 0 -206 71t-84 187l112 18q4 -79 55 -128q49 -48 130 -48q79 0 129 46q51 46 51 114q0 62 -42 96q-43 35 -112 35h-92l14 94h97q72 0 118 40q48 42 48 102q0 51 -39 84q-38 32 -103 32q-70 0 -120 -41t-68 -114l-109 18
q30 112 111 176t192 64t181 -59q69 -59 69 -150q0 -70 -43 -125q-45 -57 -114 -80q56 -16 91 -63q33 -44 33 -111z" />
    <glyph glyph-name="uni2084" unicode="&#x2084;" 
d="M711 -33l-29 -213h-109l31 213h-391l14 88l418 520h154l-74 -514h145l-14 -94h-145zM674 473l-332 -412h274z" />
    <glyph glyph-name="uni2085" unicode="&#x2085;" 
d="M567 201q-41 0 -80 -18t-65 -50l-105 21l95 421h454l-14 -102h-365l-53 -235q40 30 77 44q41 15 83 15q104 0 170 -69q65 -68 65 -177q0 -127 -88 -218t-219 -91q-116 0 -193 68q-76 67 -87 182l112 16q7 -76 56 -123q46 -45 116 -45q80 0 136 59q55 58 55 142
q0 72 -41 116t-109 44z" />
    <glyph glyph-name="uni2086" unicode="&#x2086;" 
d="M643 588q95 0 162 -53q65 -52 82 -144l-101 -35q-7 61 -50 99q-41 37 -103 37q-96 0 -169 -91t-89 -229q33 57 92 91t129 34q106 0 174 -69q68 -70 68 -175q0 -129 -87 -220t-219 -91q-127 0 -199 87q-73 88 -73 245q0 216 110 365t273 149zM375 2q0 -72 45 -118t115 -46
q80 0 138 61q56 59 56 144q0 72 -45 117t-117 45q-81 0 -137 -60q-55 -59 -55 -143z" />
    <glyph glyph-name="uni2087" unicode="&#x2087;" 
d="M788 473h-374l-19 -139h-102l35 241h606l-14 -100q-162 -158 -243 -322q-81 -165 -114 -399h-121q33 232 117 406t229 313z" />
    <glyph glyph-name="uni2088" unicode="&#x2088;" 
d="M328 358q0 98 78 164t196 66q112 0 182 -58t70 -149q0 -69 -40 -121q-42 -55 -112 -78q67 -27 102 -76q36 -49 36 -112q0 -108 -89 -179t-231 -71q-132 0 -211 61q-80 62 -80 160q0 82 56 146t145 86q-49 24 -76 66q-26 40 -26 95zM432 358q0 -54 42 -89q40 -33 108 -33
q73 0 118 39q48 42 48 100q0 53 -42 87q-41 34 -108 34q-72 0 -119 -39t-47 -99zM344 -23q0 -63 50 -102t128 -39q86 0 146 48q59 47 59 116q0 63 -50 102q-49 39 -128 39q-88 0 -147 -47q-58 -46 -58 -117z" />
    <glyph glyph-name="uni2089" unicode="&#x2089;" 
d="M479 -258q-95 0 -162 53q-64 51 -81 144l98 34q10 -61 52 -98q41 -37 103 -37q97 0 169 90q74 92 90 230q-33 -57 -95 -93q-59 -34 -127 -34q-107 0 -175 68t-68 175q0 131 88 222q89 92 219 92q128 0 200 -88q72 -89 72 -244q0 -218 -108 -366t-275 -148zM748 328
q0 69 -47 116q-48 48 -113 48q-81 0 -138 -62t-57 -145q0 -72 45 -117t117 -45q82 0 137 59q56 61 56 146z" />
    <glyph glyph-name="Euro" unicode="&#x20ac;" 
d="M217 532h-172l16 107h154q5 68 10 106q1 9 15 101h-150l14 106h162q77 251 234 395q158 144 358 144q169 0 282 -98q114 -99 144 -273l-129 -43q-24 139 -103 215t-198 76q-150 0 -268 -111q-121 -113 -183 -305h486l-39 -106h-473q-12 -50 -17 -97q-4 -37 -10 -110h430
l-37 -107h-391q10 -208 102 -319t248 -111q123 0 210 69q88 70 145 210l121 -55q-77 -176 -197 -260q-122 -86 -285 -86q-215 0 -341 145q-126 146 -138 407z" />
    <glyph glyph-name="trademark" unicode="&#x2122;" 
d="M455 1374l-72 -522h-111l74 522h-186l14 96h477l-14 -96h-182zM1208 1348l-227 -498h-70l-88 498l-69 -496h-99l86 618h144l80 -471l213 471h147l-86 -618h-100z" />
    <glyph glyph-name="uni2153" unicode="&#x2153;" horiz-adv-x="2457" 
d="M752 1479h86l-101 -723h193l-15 -101h-528l14 101h220l73 504h-211l13 86l108 4q69 5 101 32q31 27 47 97zM559 0l1262 1470h131l-1260 -1470h-133zM2093 246q0 -111 -84 -185q-83 -73 -215 -73q-125 0 -207 70t-84 188l113 18q5 -80 54 -128q50 -48 130 -48q79 0 129 46
q51 46 51 114q0 62 -42 96q-43 35 -111 35h-92l14 94h96q73 0 119 40q47 41 47 101q0 51 -39 84t-102 33q-70 0 -120 -41q-51 -42 -69 -115l-108 19q30 113 110 176q81 64 193 64q110 0 180 -59t70 -150q0 -70 -43 -125q-44 -56 -115 -80q55 -16 91 -64q34 -46 34 -110z" />
    <glyph glyph-name="uni2154" unicode="&#x2154;" horiz-adv-x="2457" 
d="M346 655l12 90l316 236q98 71 146 137q46 62 46 127q0 64 -40 103q-39 38 -105 38q-78 0 -127 -55t-49 -141q0 -29 1 -37q2 -16 5 -23h-111q-5 15 -6 31q-2 22 -2 35q0 128 84 210q85 83 213 83q112 0 184 -66t72 -170q0 -83 -52 -162q-53 -80 -163 -159l-235 -174h399
l-16 -103h-572zM559 0l1262 1470h131l-1260 -1470h-133zM2093 246q0 -111 -84 -185q-83 -73 -215 -73q-125 0 -207 70t-84 188l113 18q5 -80 54 -128q50 -48 130 -48q79 0 129 46q51 46 51 114q0 62 -42 96q-43 35 -111 35h-92l14 94h96q73 0 119 40q47 41 47 101
q0 51 -39 84t-102 33q-70 0 -120 -41q-51 -42 -69 -115l-108 19q30 113 110 176q81 64 193 64q110 0 180 -59t70 -150q0 -70 -43 -125q-44 -56 -115 -80q55 -16 91 -64q34 -46 34 -110z" />
    <glyph glyph-name="uni215B" unicode="&#x215b;" horiz-adv-x="2457" 
d="M752 1479h86l-101 -723h193l-15 -101h-528l14 101h220l73 504h-211l13 86l108 4q69 5 101 32q31 27 47 97zM559 0l1262 1470h131l-1260 -1470h-133zM1591 604q0 98 78 164t197 66q112 0 182 -58t70 -149q0 -69 -40 -121q-42 -55 -112 -78q65 -27 101 -76q36 -50 36 -112
q0 -109 -89 -180q-88 -70 -230 -70q-132 0 -211 61q-80 62 -80 160q0 83 55 145q56 63 146 86q-48 23 -76 67q-27 42 -27 95zM1696 604q0 -54 42 -89q41 -34 107 -34q73 0 119 40q47 41 47 100q0 53 -42 87q-40 33 -107 33q-72 0 -119 -39t-47 -98zM1608 223q0 -63 50 -102
t128 -39q85 0 145 48t60 116q0 62 -51 102q-50 39 -128 39q-87 0 -146 -47q-58 -46 -58 -117z" />
    <glyph glyph-name="uni215C" unicode="&#x215c;" horiz-adv-x="2457" 
d="M956 901q0 -111 -84 -184q-85 -74 -215 -74q-123 0 -206 71t-84 187l112 19q4 -79 55 -128t130 -49t129 46q51 47 51 114q0 61 -42 96q-43 35 -112 35h-92l14 94h97q72 0 118 40q47 41 47 102q0 52 -38 84t-103 32q-71 0 -120 -40q-50 -41 -68 -115l-109 18
q30 112 111 176t192 64q113 0 181 -58q69 -59 69 -151q0 -70 -43 -125q-44 -56 -115 -80q58 -17 92 -63q33 -44 33 -111zM559 0l1262 1470h131l-1260 -1470h-133zM1591 604q0 98 78 164t197 66q112 0 182 -58t70 -149q0 -69 -40 -121q-42 -55 -112 -78q65 -27 101 -76
q36 -50 36 -112q0 -109 -89 -180q-88 -70 -230 -70q-132 0 -211 61q-80 62 -80 160q0 83 55 145q56 63 146 86q-48 23 -76 67q-27 42 -27 95zM1696 604q0 -54 42 -89q41 -34 107 -34q73 0 119 40q47 41 47 100q0 53 -42 87q-40 33 -107 33q-72 0 -119 -39t-47 -98zM1608 223
q0 -63 50 -102t128 -39q85 0 145 48t60 116q0 62 -51 102q-50 39 -128 39q-87 0 -146 -47q-58 -46 -58 -117z" />
    <glyph glyph-name="uni215D" unicode="&#x215d;" horiz-adv-x="2457" 
d="M694 1102q-41 0 -80 -18t-65 -50l-105 21l95 422h454l-14 -103h-365l-53 -235q40 30 77 44q41 15 83 15q104 0 170 -69q65 -68 65 -177q0 -127 -88 -218t-219 -91q-116 0 -193 68q-76 67 -87 182l112 16q7 -76 56 -123q47 -45 116 -45q79 0 135 59t56 142q0 72 -41 116
t-109 44zM559 0l1262 1470h131l-1260 -1470h-133zM1591 604q0 98 78 164t197 66q112 0 182 -58t70 -149q0 -69 -40 -121q-42 -55 -112 -78q65 -27 101 -76q36 -50 36 -112q0 -109 -89 -180q-88 -70 -230 -70q-132 0 -211 61q-80 62 -80 160q0 83 55 145q56 63 146 86
q-48 23 -76 67q-27 42 -27 95zM1696 604q0 -54 42 -89q41 -34 107 -34q73 0 119 40q47 41 47 100q0 53 -42 87q-40 33 -107 33q-72 0 -119 -39t-47 -98zM1608 223q0 -63 50 -102t128 -39q85 0 145 48t60 116q0 62 -51 102q-50 39 -128 39q-87 0 -146 -47q-58 -46 -58 -117z
" />
    <glyph glyph-name="uni215E" unicode="&#x215e;" horiz-adv-x="2457" 
d="M983 1374h-375l-18 -139h-103l35 242h606l-14 -101q-162 -158 -243 -322q-80 -162 -113 -399h-121q33 232 117 406t229 313zM559 0l1262 1470h131l-1260 -1470h-133zM1591 604q0 98 78 164t197 66q112 0 182 -58t70 -149q0 -69 -40 -121q-42 -55 -112 -78q65 -27 101 -76
q36 -50 36 -112q0 -109 -89 -180q-88 -70 -230 -70q-132 0 -211 61q-80 62 -80 160q0 83 55 145q56 63 146 86q-48 23 -76 67q-27 42 -27 95zM1696 604q0 -54 42 -89q41 -34 107 -34q73 0 119 40q47 41 47 100q0 53 -42 87q-40 33 -107 33q-72 0 -119 -39t-47 -98zM1608 223
q0 -63 50 -102t128 -39q85 0 145 48t60 116q0 62 -51 102q-50 39 -128 39q-87 0 -146 -47q-58 -46 -58 -117z" />
    <glyph glyph-name="minus" unicode="&#x2212;" 
d="M1145 639h-1030l16 123h1030z" />
    <glyph glyph-name="uniF6C3" unicode="&#xf6c3;" 
d="M512 -209h-66l19 135h160l-19 -129q-12 -84 -71 -130q-60 -46 -154 -42l10 66q57 0 84 23q30 25 37 77z" />
    <glyph glyph-name="NULL" horiz-adv-x="0" 
 />
    <glyph glyph-name="a.1" 
d="M928 0h-135q0 14 2 56q1 28 8 73q-51 -69 -141 -109t-197 -40q-144 0 -235 78q-93 80 -93 204q0 153 116 248q115 94 349 133l275 45l10 78q12 92 -51 147q-64 56 -183 56q-111 0 -184 -53q-72 -52 -94 -148h-135q33 152 143 237t279 85q179 0 279 -88q99 -87 81 -228
l-80 -561q-8 -55 -12 -114q-4 -50 -2 -99zM492 92q130 0 224 75t111 183l33 228l-239 -41q-180 -30 -266 -95q-83 -63 -83 -174q0 -77 62 -127q61 -49 158 -49z" />
    <glyph glyph-name="aogonek.1" 
d="M774 -383q-72 0 -116 41t-44 106t46 127q48 65 133 117q0 12 2 52q1 25 8 69q-51 -69 -141 -109t-197 -40q-144 0 -235 78q-93 80 -93 204q0 153 116 248q115 94 349 133l275 45l10 78q12 92 -51 147q-64 56 -183 56q-111 0 -184 -53q-72 -52 -94 -148h-135
q33 152 143 237t279 85q179 0 279 -88q99 -87 81 -228l-80 -561q-8 -55 -12 -114q-4 -50 -2 -99q-99 -50 -153 -108t-54 -111q0 -35 21 -53q22 -19 61 -19q20 0 39 4q10 2 41 11l-13 -91q-29 -8 -50 -12t-46 -4zM492 92q130 0 224 75t111 183l33 228l-239 -41
q-180 -30 -266 -95q-83 -63 -83 -174q0 -77 62 -127q61 -49 158 -49z" />
    <glyph glyph-name="aacute.1" 
d="M928 0h-135q0 14 2 56q1 28 8 73q-51 -69 -141 -109t-197 -40q-144 0 -235 78q-93 80 -93 204q0 153 116 248q115 94 349 133l275 45l10 78q12 92 -51 147q-64 56 -183 56q-111 0 -184 -53q-72 -52 -94 -148h-135q33 152 143 237t279 85q179 0 279 -88q99 -87 81 -228
l-80 -561q-8 -55 -12 -114q-4 -50 -2 -99zM492 92q130 0 224 75t111 183l33 228l-239 -41q-180 -30 -266 -95q-83 -63 -83 -174q0 -77 62 -127q61 -49 158 -49zM766 1188h-111l150 282h180z" />
    <glyph glyph-name="adieresis.1" 
d="M928 0h-135q0 14 2 56q1 28 8 73q-51 -69 -141 -109t-197 -40q-144 0 -235 78q-93 80 -93 204q0 153 116 248q115 94 349 133l275 45l10 78q12 92 -51 147q-64 56 -183 56q-111 0 -184 -53q-72 -52 -94 -148h-135q33 152 143 237t279 85q179 0 279 -88q99 -87 81 -228
l-80 -561q-8 -55 -12 -114q-4 -50 -2 -99zM492 92q130 0 224 75t111 183l33 228l-239 -41q-180 -30 -266 -95q-83 -63 -83 -174q0 -77 62 -127q61 -49 158 -49zM627 1274h-158l27 184h157zM958 1274h-155l24 184h158z" />
    <glyph glyph-name="acircumflex.1" 
d="M928 0h-135q0 14 2 56q1 28 8 73q-51 -69 -141 -109t-197 -40q-144 0 -235 78q-93 80 -93 204q0 153 116 248q115 94 349 133l275 45l10 78q12 92 -51 147q-64 56 -183 56q-111 0 -184 -53q-72 -52 -94 -148h-135q33 152 143 237t279 85q179 0 279 -88q99 -87 81 -228
l-80 -561q-8 -55 -12 -114q-4 -50 -2 -99zM492 92q130 0 224 75t111 183l33 228l-239 -41q-180 -30 -266 -95q-83 -63 -83 -174q0 -77 62 -127q61 -49 158 -49zM662 1470h155l160 -282h-103l-143 188l-194 -188h-115z" />
    <glyph glyph-name="aring.1" 
d="M928 0h-135q0 14 2 56q1 28 8 73q-51 -69 -141 -109t-197 -40q-144 0 -235 78q-93 80 -93 204q0 153 116 248q115 94 349 133l275 45l10 78q12 92 -51 147q-64 56 -183 56q-111 0 -184 -53q-72 -52 -94 -148h-135q33 152 143 237t279 85q179 0 279 -88q99 -87 81 -228
l-80 -561q-8 -55 -12 -114q-4 -50 -2 -99zM492 92q130 0 224 75t111 183l33 228l-239 -41q-180 -30 -266 -95q-83 -63 -83 -174q0 -77 62 -127q61 -49 158 -49zM535 1341q0 81 58 138q59 57 140 57q80 0 130 -50t50 -126q0 -82 -57 -139q-58 -58 -141 -58q-78 0 -129 51
t-51 127zM621 1341q0 -43 27 -71q27 -29 69 -29q47 0 80 35q32 33 32 82q0 44 -27 72t-71 28q-47 0 -79 -35q-31 -34 -31 -82z" />
    <glyph glyph-name="abreve.1" 
d="M928 0h-135q0 14 2 56q1 28 8 73q-51 -69 -141 -109t-197 -40q-144 0 -235 78q-93 80 -93 204q0 153 116 248q115 94 349 133l275 45l10 78q12 92 -51 147q-64 56 -183 56q-111 0 -184 -53q-72 -52 -94 -148h-135q33 152 143 237t279 85q179 0 279 -88q99 -87 81 -228
l-80 -561q-8 -55 -12 -114q-4 -50 -2 -99zM492 92q130 0 224 75t111 183l33 228l-239 -41q-180 -30 -266 -95q-83 -63 -83 -174q0 -77 62 -127q61 -49 158 -49zM723 1280q74 0 119 49q44 48 59 141h96q-16 -138 -89 -215q-71 -75 -189 -75q-123 0 -185 75q-63 77 -53 215h97
q-4 -92 33 -141t112 -49z" />
    <glyph glyph-name="agrave.1" 
d="M928 0h-135q0 14 2 56q1 28 8 73q-51 -69 -141 -109t-197 -40q-144 0 -235 78q-93 80 -93 204q0 153 116 248q115 94 349 133l275 45l10 78q12 92 -51 147q-64 56 -183 56q-111 0 -184 -53q-72 -52 -94 -148h-135q33 152 143 237t279 85q179 0 279 -88q99 -87 81 -228
l-80 -561q-8 -55 -12 -114q-4 -50 -2 -99zM492 92q130 0 224 75t111 183l33 228l-239 -41q-180 -30 -266 -95q-83 -63 -83 -174q0 -77 62 -127q61 -49 158 -49zM674 1470l88 -282h-98l-152 282h162z" />
    <glyph glyph-name="atilde.1" 
d="M928 0h-135q0 14 2 56q1 28 8 73q-51 -69 -141 -109t-197 -40q-144 0 -235 78q-93 80 -93 204q0 153 116 248q115 94 349 133l275 45l10 78q12 92 -51 147q-64 56 -183 56q-111 0 -184 -53q-72 -52 -94 -148h-135q33 152 143 237t279 85q179 0 279 -88q99 -87 81 -228
l-80 -561q-8 -55 -12 -114q-4 -50 -2 -99zM492 92q130 0 224 75t111 183l33 228l-239 -41q-180 -30 -266 -95q-83 -63 -83 -174q0 -77 62 -127q61 -49 158 -49zM606 1352q-38 0 -68 -36t-51 -108h-94q22 121 77 188q54 66 130 66q36 0 66 -15q27 -14 79 -67q37 -37 60 -50
q19 -11 41 -11q39 0 69 37q33 42 50 108h94q-22 -119 -77 -188q-54 -68 -130 -68q-35 0 -67 17q-33 17 -78 65q-37 37 -60 50q-21 12 -41 12z" />
    <glyph glyph-name="amacron.1" 
d="M928 0h-135q0 14 2 56q1 28 8 73q-51 -69 -141 -109t-197 -40q-144 0 -235 78q-93 80 -93 204q0 153 116 248q115 94 349 133l275 45l10 78q12 92 -51 147q-64 56 -183 56q-111 0 -184 -53q-72 -52 -94 -148h-135q33 152 143 237t279 85q179 0 279 -88q99 -87 81 -228
l-80 -561q-8 -55 -12 -114q-4 -50 -2 -99zM492 92q130 0 224 75t111 183l33 228l-239 -41q-180 -30 -266 -95q-83 -63 -83 -174q0 -77 62 -127q61 -49 158 -49zM999 1366l-14 -109h-530l14 109h530z" />
    <glyph glyph-name="i.loclTRK" 
d="M840 1288h-158l27 182h157zM1067 0h-975l17 117h419l117 835h-418l17 117h555l-135 -952h419z" />
    <glyph glyph-name="ordfeminine.1" 
d="M932 702h-127v28q0 16 6 63q-40 -49 -102 -76q-67 -29 -138 -29q-103 0 -170 57t-67 148q0 110 86 179q84 68 256 95l184 29l6 49q8 61 -31 95q-41 36 -118 36q-74 0 -120 -34q-45 -33 -60 -97h-129q21 114 104 176q85 64 213 64q136 0 212 -64q75 -63 60 -172l-53 -385
q-8 -58 -11 -93q-3 -38 -1 -69zM608 791q84 0 146 48q61 48 73 119l21 142l-162 -25q-117 -22 -168 -61q-53 -41 -53 -111q0 -52 40 -82q41 -30 103 -30zM893 440h-627l15 101h626z" />
    <glyph glyph-name="a.ord" 
d="M1030 807l-14 -105q-90 -16 -151 9q-57 24 -62 82q-38 -48 -104 -76q-67 -29 -142 -29q-112 0 -177 56q-67 58 -67 151q0 107 87 174q88 68 255 92l195 31l6 43q7 66 -29 102q-37 37 -112 37q-76 2 -127 -32q-55 -36 -78 -97l-119 35q39 100 126 152q88 53 208 53
q135 0 207 -66q71 -66 55 -178l-53 -383q-4 -37 18 -49q23 -12 78 -2zM588 791q90 0 154 48q65 48 75 119l19 140l-162 -27q-118 -21 -174 -61q-58 -41 -58 -107q0 -53 39 -83q38 -29 107 -29z" />
    <glyph glyph-name="a.1.ord" 
d="M932 702h-127v28q0 16 6 63q-40 -49 -102 -76q-67 -29 -138 -29q-103 0 -170 57t-67 148q0 110 86 179q84 68 256 95l184 29l6 49q8 61 -31 95q-41 36 -118 36q-74 0 -120 -34q-45 -33 -60 -97h-129q21 114 104 176q85 64 213 64q136 0 212 -64q75 -63 60 -172l-53 -385
q-8 -58 -11 -93q-3 -38 -1 -69zM608 791q84 0 146 48q61 48 73 119l21 142l-162 -25q-117 -22 -168 -61q-53 -41 -53 -111q0 -52 40 -82q41 -30 103 -30z" />
    <glyph glyph-name="b.ord" 
d="M782 1485q127 0 202 -91q75 -92 75 -249q0 -189 -103 -324q-102 -133 -254 -133q-80 0 -144 41q-63 40 -87 113l-20 -140h-132l148 1055h133l-57 -407q34 60 100 98q65 37 139 37zM743 1372q-89 0 -154 -69q-64 -68 -79 -187l-8 -53q-17 -115 35 -189q51 -73 145 -73
q105 0 174 96q70 97 70 240q0 110 -48 173q-47 62 -135 62z" />
    <glyph glyph-name="c.ord" 
d="M745 1374q-119 0 -195 -97q-77 -98 -77 -241q0 -111 57 -174t158 -63q78 0 135 42t84 120l113 -43q-38 -110 -127 -169q-92 -61 -215 -61q-154 0 -246 92t-92 250q0 194 117 324q117 131 295 131q128 0 213 -66t100 -168l-121 -41q-11 77 -64 120q-55 44 -135 44z" />
    <glyph glyph-name="d.ord" 
d="M598 688q-128 0 -201 91t-73 247q0 194 101 326q102 133 255 133q81 0 143 -41t86 -113l60 426h133l-148 -1055h-133l17 121q-36 -59 -101 -98q-62 -37 -139 -37zM639 801q91 0 155 69q62 67 78 185l7 53q17 114 -36 189t-145 75q-104 0 -173 -96q-68 -95 -68 -240
q0 -110 48 -173q47 -62 134 -62z" />
    <glyph glyph-name="e.ord" 
d="M674 688q-153 0 -242 92q-88 91 -88 250q0 194 114 324q114 131 285 131q158 0 239 -107q80 -105 56 -274l-6 -35h-561v-31q0 -114 56 -177q57 -64 155 -64q73 0 130 39t85 110l107 -41q-40 -103 -127 -161q-84 -56 -203 -56zM737 1378q-89 0 -155 -59q-68 -61 -95 -160
h426q11 100 -37 159q-48 60 -139 60z" />
    <glyph glyph-name="f.ord" 
d="M948 702h-669l16 111h240l75 543h-237l14 112h240q21 149 113 226q93 78 245 78q26 0 86 -6q45 -4 78 -15l-14 -106q-52 10 -74 13q-42 5 -70 5q-105 0 -162 -48q-56 -47 -71 -147h348l-16 -112h-347l-77 -543h297z" />
    <glyph glyph-name="g.ord" 
d="M1063 1470l-98 -700q-23 -169 -121 -257q-100 -89 -258 -89q-132 0 -218 59q-87 60 -108 162l121 35q21 -75 75 -112q55 -38 138 -38q100 0 160 60q58 58 75 176l13 88q-38 -64 -99 -99q-59 -34 -135 -34q-134 0 -210 88t-76 240q0 181 102 309q102 127 256 127
q82 0 143 -39q60 -38 88 -109l19 133h133zM874 1081l7 39q15 110 -38 183q-52 71 -145 71q-105 0 -174 -93t-69 -226q0 -103 49 -162t135 -59q95 0 159 66q64 65 76 181z" />
    <glyph glyph-name="h.ord" 
d="M461 702h-133l149 1055h133l-57 -393q41 58 105 89q66 32 139 32q120 0 182 -77q61 -76 43 -208l-70 -498h-133l68 476q12 87 -26 137q-37 49 -116 49q-83 0 -145 -57q-61 -56 -76 -150z" />
    <glyph glyph-name="i.ord" 
d="M866 1610h-145l20 147h146zM1020 702h-715l14 111h295l78 547h-293l17 110h424l-92 -657h286z" />
    <glyph glyph-name="j.ord" 
d="M985 1610h-145l20 147h146zM487 543q110 0 166 46q57 47 72 144l88 627h-383l16 110h515l-107 -755q-21 -141 -113 -215t-249 -74q-56 0 -106 7t-91 20l16 114q30 -8 85 -17q45 -7 91 -7z" />
    <glyph glyph-name="k.ord" 
d="M494 1757h135l-92 -653l401 366h164l-340 -303l254 -465h-146l-208 375l-148 -133l-35 -242h-133z" />
    <glyph glyph-name="l.ord" 
d="M1020 702h-715l14 111h297l115 834h-291l17 110h424l-133 -944h286z" />
    <glyph glyph-name="m.ord" 
d="M582 1374q-47 0 -80 -40q-32 -40 -43 -109l-74 -523h-113l111 771h111l-13 -80q22 40 64 66q41 26 88 26q52 0 86 -27q34 -26 49 -78q22 44 70 75q46 30 98 30q80 0 122 -62q42 -61 27 -159l-79 -562h-113l76 535q10 62 -11 100q-21 37 -65 37q-50 0 -81 -40
q-32 -41 -42 -109l-74 -523h-112l75 535q8 67 -11 101q-20 36 -66 36z" />
    <glyph glyph-name="n.ord" 
d="M461 702h-133l108 768h133l-16 -106q41 58 105 89q66 32 139 32q120 0 182 -77q61 -76 43 -208l-70 -498h-133l68 476q12 87 -26 137q-37 49 -116 49q-83 0 -145 -57q-61 -56 -76 -150z" />
    <glyph glyph-name="o.ord" 
d="M334 1034q0 190 111 321q111 130 282 130q148 0 234 -93q86 -94 86 -253q0 -189 -112 -321q-111 -130 -282 -130q-147 0 -233 93q-86 94 -86 253zM465 1036q0 -111 52 -175t142 -64q112 0 185 98q74 100 74 240q0 111 -54 177q-52 64 -143 64q-109 0 -182 -98
q-74 -100 -74 -242z" />
    <glyph glyph-name="p.ord" 
d="M782 1485q127 0 202 -91q75 -92 75 -249q0 -189 -103 -324q-102 -133 -254 -133q-80 0 -144 41q-63 40 -87 113l-55 -402h-133l145 1030h131l-16 -120q34 60 100 98q65 37 139 37zM743 1372q-89 0 -154 -69q-64 -68 -79 -187l-8 -53q-17 -115 35 -189q51 -73 145 -73
q105 0 174 96q70 97 70 240q0 110 -48 173q-47 62 -135 62z" />
    <glyph glyph-name="q.ord" 
d="M598 688q-128 0 -201 91t-73 247q0 194 101 326q102 133 255 133q81 0 143 -41t86 -113l19 139h135l-145 -1030h-134l54 383q-36 -59 -101 -98q-62 -37 -139 -37zM639 801q91 0 155 69q62 67 78 185l7 53q17 114 -36 189t-145 75q-104 0 -173 -96q-68 -95 -68 -240
q0 -110 48 -173q47 -62 134 -62z" />
    <glyph glyph-name="r.ord" 
d="M918 702h-637l14 111h219l78 547h-219l16 110h346l-20 -143q47 75 126 115q80 41 175 41q40 0 67 -4q31 -5 50 -11l-17 -129q-58 13 -64 14q-35 5 -59 5q-119 0 -206 -69q-86 -68 -101 -173l-43 -303h291z" />
    <glyph glyph-name="s.ord" 
d="M657 688q-126 0 -225 51q-98 50 -131 135l86 74q30 -73 107 -115q76 -42 172 -42q87 0 140 35q54 36 54 92q0 42 -37 69q-36 26 -143 53q-151 30 -215 80t-64 127q0 105 89 171q90 67 229 67q116 0 201 -46q86 -47 114 -122l-90 -68q-24 62 -86 98q-60 35 -147 35
q-82 0 -130 -32q-51 -34 -51 -84q0 -42 40 -67q39 -25 159 -52q141 -33 203 -83q61 -49 61 -130q0 -108 -94 -177t-242 -69z" />
    <glyph glyph-name="t.ord" 
d="M795 694q-143 0 -218 66t-59 180l57 420h-229l14 110h232l31 224h131l-31 -224h348l-14 -110h-350l-56 -402q-10 -72 32 -110q41 -37 138 -37q47 0 88 7q39 7 82 20l-14 -117q-53 -15 -96 -21t-86 -6z" />
    <glyph glyph-name="u.ord" 
d="M922 1470h131l-107 -768h-133l14 107q-40 -58 -102 -89q-64 -32 -139 -32q-121 0 -183 77q-61 76 -43 208l70 497h133l-67 -475q-12 -90 24 -138q38 -50 117 -50q84 0 145 57q61 56 76 150z" />
    <glyph glyph-name="v.ord" 
d="M1124 1470l-438 -768h-129l-192 768h131l147 -604l342 604h139z" />
    <glyph glyph-name="w.ord" 
d="M475 895l221 575h99l36 -575l211 575h119l-289 -768h-110l-41 594l-229 -594h-115l-49 768h114z" />
    <glyph glyph-name="x.ord" 
d="M1001 702h-143l-176 312l-260 -312h-150l340 406l-206 362h143l156 -276l229 276h149l-309 -368z" />
    <glyph glyph-name="y.ord" 
d="M1124 1470l-481 -841q-73 -126 -125 -163q-53 -38 -137 -38q-19 0 -41 3q-30 4 -45 7l14 111q17 -6 34 -9q18 -3 34 -3q44 0 72 22q27 21 61 80l51 86l-196 748l131 -3l153 -593l336 593h139z" />
    <glyph glyph-name="z.ord" 
d="M487 813h494l-16 -111h-674l14 99l578 559h-494l17 110h663l-12 -98z" />
    <glyph glyph-name="caron.Slovak" 
d="M686 1063h-92l90 407h154z" />
    <glyph glyph-name="commaturn" 
d="M723 1323h63l-18 -135h-160l21 129q12 84 71 130q60 47 152 42l-8 -66q-59 0 -85 -23q-29 -25 -36 -77z" />
    <glyph glyph-name="grave.cap" 
d="M774 1870l197 -293h-109l-272 293h184z" />
    <glyph glyph-name="acute.cap" 
d="M623 1577h-119l266 293h197z" />
    <glyph glyph-name="circumflex.cap" 
d="M719 1870h166l200 -293h-106l-184 203l-240 -203h-119z" />
    <glyph glyph-name="caron.cap" 
d="M1126 1870l-282 -293h-166l-201 293h105l184 -203l242 203h118z" />
    <glyph glyph-name="tilde.cap" 
d="M1051 1837h100q-24 -120 -87 -189t-146 -69q-40 0 -74 15q-35 15 -88 65q-43 40 -67 52q-22 11 -48 11q-46 0 -79 -36q-33 -35 -54 -109h-102q24 121 87 190q64 70 146 70q39 0 74 -15q34 -15 88 -67q46 -40 68 -51q24 -12 49 -12q44 0 78 37t55 108z" />
    <glyph glyph-name="macron.cap" 
d="M1090 1726l-17 -110h-616l16 110h617z" />
    <glyph glyph-name="breve.cap" 
d="M780 1575q-133 0 -208 80q-74 79 -68 215h106q-2 -94 45 -147q46 -52 129 -52q84 0 143 53q57 51 74 146h101q-21 -137 -106 -216t-216 -79z" />
    <glyph glyph-name="dotaccent.cap" 
d="M842 1589h-160l25 183h161z" />
    <glyph glyph-name="dieresis.cap" 
d="M670 1589h-156l25 183h157zM1010 1589h-158l27 183h157z" />
    <glyph glyph-name="ring.cap" 
d="M573 1747q0 91 64 157q63 64 158 64q89 0 145 -56q57 -57 57 -143q0 -89 -63 -154t-158 -65q-88 0 -146 56q-57 56 -57 141zM668 1747q0 -49 30 -79t80 -30q53 0 89 39t36 92q0 50 -32 80q-33 31 -78 31q-54 0 -90 -39q-35 -38 -35 -94z" />
    <glyph glyph-name="hungarumlaut.cap" 
d="M877 1577h-117l237 293h177zM522 1577h-116l239 293h174z" />
    <glyph glyph-name="guilsinglleft.cap" 
d="M786 401l-342 291l19 135l422 289l-19 -151l-309 -209l250 -211z" />
    <glyph glyph-name="guilsinglright.cap" 
d="M506 1118l342 -291l-19 -135l-421 -289l18 152l309 209l-250 211z" />
    <glyph glyph-name="guillemotleft.cap" 
d="M578 401l-342 291l18 135l422 289l-19 -151l-309 -209l250 -211zM995 401l-342 291l19 135l422 289l-19 -151l-309 -209l250 -211z" />
    <glyph glyph-name="guillemotright.cap" 
d="M715 1118l342 -291l-19 -135l-422 -289l19 152l309 209l-250 211zM297 1118l342 -291l-18 -135l-422 -289l18 152l309 209l-250 211z" />
    <glyph glyph-name="slash.cap" 
d="M225 -119h-147l981 1712h147z" />
    <glyph glyph-name="backslash.cap" 
d="M647 1593l119 -1712h-131l-119 1712h131z" />
    <glyph glyph-name="bar.cap" 
d="M588 -119h-133l239 1712h133z" />
    <glyph glyph-name="periodcentered.cap" 
d="M733 590h-221l35 237h219z" />
    <glyph glyph-name="bullet.cap" 
d="M915 748q0 -126 -85 -212q-86 -87 -207 -87q-115 0 -186 71q-72 72 -72 180q0 122 86 211q85 88 208 88q114 0 185 -71t71 -180z" />
    <glyph glyph-name="hyphen.cap" 
d="M901 629h-549l19 123h549z" />
    <glyph glyph-name="endash.cap" 
d="M1053 635h-852l18 113h850z" />
    <glyph glyph-name="emdash.cap" 
d="M1241 635h-1229l17 113h1228z" />
    <glyph glyph-name="parenleft.cap" 
d="M401 592q0 275 123 545q123 271 334 456h152q-217 -202 -340 -468t-123 -533q0 -202 58 -386q59 -186 163 -325h-137q-112 151 -171 331t-59 380z" />
    <glyph glyph-name="parenright.cap" 
d="M887 883q0 -275 -123 -545q-124 -272 -334 -457h-151q215 200 339 468q123 265 123 534q0 202 -58 386q-58 185 -163 324h137q113 -151 171 -330q59 -180 59 -380z" />
    <glyph glyph-name="bracketleft.cap" 
d="M1059 1479h-449l-209 -1485h449l-14 -113h-586l242 1712h583z" />
    <glyph glyph-name="bracketright.cap" 
d="M227 -4h449l209 1485h-449l17 112h583l-241 -1712h-584z" />
    <glyph glyph-name="braceleft.cap" 
d="M332 680h-94l14 115h94q64 0 103 39q39 38 49 112l45 314q22 162 120 248q97 85 261 85h243l-16 -114h-207q-128 0 -194 -60t-84 -194l-39 -279q-12 -85 -50 -137t-108 -76q65 -27 88 -75q22 -47 10 -130l-39 -278q-18 -124 37 -189t176 -65h201l-16 -115h-209
q-161 0 -250 92t-72 244l43 311q11 77 -16 114q-27 38 -90 38z" />
    <glyph glyph-name="braceright.cap" 
d="M954 795h95l-15 -115h-94q-63 0 -102 -39q-40 -40 -50 -113l-45 -313q-23 -164 -119 -249q-97 -85 -262 -85h-243l16 115h207q130 0 195 59q66 60 84 195l38 278q12 85 51 138q37 51 107 75q-65 27 -88 75q-22 47 -10 130l39 279q18 123 -37 188q-55 66 -176 66h-201
l16 114h209q161 0 250 -92t72 -244l-43 -311q-10 -76 16 -113q27 -38 90 -38z" />
    <glyph glyph-name="at.cap" 
d="M893 403q88 0 162 174q73 171 73 384q0 221 -94 348t-262 127q-130 0 -252 -86q-119 -84 -209 -242q-70 -125 -107 -270q-38 -149 -38 -297q0 -259 111 -404t311 -145q95 0 176 34q84 35 151 99l60 -80q-84 -79 -180 -117q-99 -39 -211 -39q-245 0 -389 173t-144 475
q0 173 46 341q46 169 130 308q106 169 246 260q142 92 301 92q215 0 341 -155t126 -416q0 -276 -106 -470q-107 -196 -254 -196q-66 0 -105 40t-37 108q-39 -77 -93 -115q-58 -41 -122 -41q-89 0 -142 75q-52 74 -52 207q0 218 106 399t252 181q72 0 118 -42q46 -41 52 -112
l41 140h105l-156 -576q-22 -77 -10 -120q12 -42 55 -42zM555 397q62 0 116 71t87 191l41 160q27 102 0 168t-97 66q-100 0 -178 -153t-78 -318q0 -90 28 -138q27 -47 81 -47z" />
    <glyph glyph-name="zero.dnom" 
d="M287 332q0 213 99 357q100 145 253 145q124 0 196 -93q70 -91 70 -252q0 -211 -100 -356t-254 -145q-124 0 -194 91t-70 253zM399 330q0 -112 42 -177t116 -65q98 0 166 119t68 285q0 112 -41 176q-40 63 -115 63q-98 0 -167 -118q-69 -119 -69 -283z" />
    <glyph glyph-name="one.dnom" 
d="M659 823h86l-100 -723h193l-15 -100h-528l14 100h219l74 504h-211l12 86l109 4q67 4 100 33q32 27 47 96z" />
    <glyph glyph-name="two.dnom" 
d="M254 0l12 90l316 236q98 71 146 137q46 62 46 127q0 63 -40 102t-105 39q-78 0 -127 -55t-49 -141q0 -29 1 -37q2 -16 5 -23h-111q-5 15 -6 31q-2 22 -2 35q0 127 84 210q85 83 213 83q112 0 184 -66t72 -170q0 -84 -52 -163q-53 -80 -163 -159l-236 -174h400l-17 -102
h-571z" />
    <glyph glyph-name="three.dnom" 
d="M864 246q0 -111 -84 -185q-83 -73 -215 -73q-125 0 -207 70t-84 188l113 18q5 -80 54 -128t130 -48q79 0 129 46q52 47 52 114q0 62 -42 96q-43 35 -112 35h-92l14 94h96q73 0 119 40q47 41 47 101q0 51 -39 84t-102 33q-70 0 -120 -41t-68 -115l-109 19q30 112 111 176
t192 64q110 0 180 -59t70 -150q0 -70 -43 -125q-44 -56 -115 -80q55 -16 91 -64q34 -46 34 -110z" />
    <glyph glyph-name="four.dnom" 
d="M745 213l-28 -213h-109l31 213h-391l14 88l418 520h154l-74 -514h145l-14 -94h-146zM709 719l-332 -412h274z" />
    <glyph glyph-name="five.dnom" 
d="M602 446q-43 0 -80 -17q-39 -18 -65 -50l-105 20l94 422h455l-14 -102h-365l-53 -236q40 30 77 44q43 16 83 16q104 0 170 -69q65 -68 65 -177q0 -127 -88 -218t-219 -91q-117 0 -193 67q-77 68 -88 183l113 16q7 -77 55 -123q47 -45 117 -45q80 0 135 58q56 59 56 143
q0 71 -41 115t-109 44z" />
    <glyph glyph-name="six.dnom" 
d="M678 834q94 0 162 -54q65 -52 82 -143l-101 -35q-7 60 -50 98q-41 37 -103 37q-97 0 -169 -90q-73 -91 -89 -229q33 57 92 91t129 34q107 0 174 -69q67 -68 67 -175q0 -128 -87 -220q-87 -91 -218 -91q-127 0 -199 87q-73 88 -73 244q0 218 109 366q110 149 274 149z
M410 248q0 -72 45 -118t114 -46q82 0 139 60q56 59 56 145q0 72 -45 117t-117 45q-82 0 -137 -60q-55 -59 -55 -143z" />
    <glyph glyph-name="seven.dnom" 
d="M823 719h-374l-19 -139h-102l34 241h607l-15 -100q-160 -155 -242 -323q-81 -165 -114 -398h-121q33 232 117 406t229 313z" />
    <glyph glyph-name="eight.dnom" 
d="M362 604q0 98 78 164t197 66q112 0 182 -58t70 -149q0 -69 -40 -121q-42 -55 -112 -78q67 -27 102 -76q35 -48 35 -112q0 -109 -89 -180q-88 -70 -230 -70q-132 0 -211 61q-80 62 -80 160q0 83 55 145q56 63 146 86q-48 23 -76 67q-27 42 -27 95zM467 604q0 -54 42 -89
q41 -34 107 -34q73 0 119 40q47 41 47 100q0 53 -42 87q-40 33 -107 33q-73 0 -119 -39q-47 -39 -47 -98zM379 223q0 -63 50 -102q49 -39 128 -39q85 0 145 48t60 116q0 63 -50 102q-49 39 -128 39q-88 0 -147 -47q-58 -46 -58 -117z" />
    <glyph glyph-name="nine.dnom" 
d="M514 -12q-95 0 -162 53q-65 52 -82 143l99 35q10 -61 52 -98q41 -37 103 -37q97 0 169 90q73 91 89 229q-33 -58 -94 -93q-59 -34 -127 -34q-106 0 -175 69t-69 175q0 129 89 221q90 93 219 93q127 0 199 -89q73 -90 73 -243q0 -216 -109 -366q-108 -148 -274 -148z
M782 573q0 71 -46 117q-47 47 -113 47q-82 0 -139 -61q-56 -60 -56 -146q0 -71 45 -116t117 -45q82 0 137 59t55 145z" />
    <glyph glyph-name="colon.mid" 
d="M680 227h-221l35 238h219zM788 995h-221l35 238h219z" />
    <glyph glyph-name="_222" horiz-adv-x="0" 
 />
    <glyph glyph-name="g.1.ord" 
d="M389 1208q0 121 88 199q89 78 228 78q79 0 141 -27t96 -76q25 48 70 75q47 28 96 28q9 0 25 -2q11 -1 22 -6l-16 -119q-13 7 -24 8q-16 2 -21 2q-37 0 -68 -25q-30 -24 -45 -65q2 -8 2 -12v-21q0 -119 -87 -199q-86 -79 -222 -79q-44 0 -79 7q-45 9 -69 21
q-31 -6 -51 -26t-20 -47q0 -25 19 -40q21 -16 52 -16h244q114 0 176 -47t62 -131q0 -118 -108 -192q-109 -74 -292 -74q-174 0 -270 54t-96 153q0 60 40 106q42 48 107 70q-24 12 -38 38q-13 25 -13 56q0 46 31 85q29 37 86 58q-32 32 -49 75t-17 91zM860 1241q0 66 -44 105
q-42 38 -118 38q-81 0 -131 -49q-51 -49 -51 -125q0 -65 44 -103t116 -38q82 0 133 48t51 124zM369 645q0 -59 63 -92t178 -33q127 0 198 41t71 111q0 41 -34 62q-36 22 -95 22h-236q-66 0 -106 -31q-39 -30 -39 -80z" />
    <glyph glyph-name="ae.1" 
d="M1055 332l104 -45q-44 -147 -133 -227t-207 -80q-97 0 -169 57q-73 58 -103 158q-46 -101 -125 -159q-77 -56 -176 -56q-114 0 -184 74t-70 198q0 175 128 277t359 102h58l16 123q15 97 -26 156t-119 59q-80 0 -132 -51q-52 -50 -79 -150h-119q29 141 122 230
q95 91 214 92q88 0 152 -47q63 -47 81 -128q58 89 126 131q71 44 153 44q156 0 236 -148q79 -146 44 -373l-4 -45h-567q0 -8 -1.5 -24.5t-2.5 -25.5q-2 -34 -2 -50q0 -151 53 -239q52 -87 147 -87q78 0 136 61q57 60 90 173zM920 971q-90 0 -162 -92q-73 -92 -107 -248h441
q16 149 -31 245q-47 95 -141 95zM117 258q0 -77 39 -121q39 -43 110 -43q88 0 153 75t81 198l22 157h-41q-181 0 -273 -66q-91 -66 -91 -200z" />
    <glyph glyph-name="dcaron.1" 
d="M502 -20q-179 0 -283 126t-104 347q0 266 143 451q144 186 356 186q122 0 210 -63q89 -64 122 -169l86 612h137l-208 -1470h-136l25 182q-51 -92 -144 -147q-92 -55 -204 -55zM535 98q139 0 238 107q100 108 124 284l10 80q24 177 -55 288q-80 112 -223 112
q-163 0 -269 -147q-106 -146 -106 -363q0 -171 75 -265q76 -96 206 -96zM1343 1063h-92l90 407h154z" />
    <glyph glyph-name="g.1" 
d="M211 705q0 163 121 274t305 111q110 0 197 -41q86 -41 133 -115q34 68 95 109q59 40 132 40q14 0 34 -2q12 -1 29 -8l-18 -129q-18 8 -32 11q-15 3 -29 3q-57 0 -102 -39q-44 -39 -66 -108q2 -27 3 -36q1 -6 1 -17q0 -166 -119 -276q-118 -109 -305 -109q-64 0 -111 11
q-54 13 -94 32q-49 -8 -84 -42q-35 -35 -35 -75q0 -37 31 -62q30 -24 82 -24h340q156 0 240 -62q85 -63 85 -178q0 -164 -147 -263t-397 -99q-237 0 -367 76q-131 77 -131 213q0 86 57 153q58 69 156 97q-33 21 -52 55q-20 35 -20 76q0 61 42 113t114 81q-43 45 -66 104
q-22 57 -22 126zM883 756q0 103 -69 163t-183 60q-127 0 -207 -77t-80 -195q0 -103 69 -163q70 -61 183 -61q127 0 207 77t80 196zM137 -80q0 -94 95 -145t270 -51q193 0 302 64t109 171q0 65 -53 101q-52 36 -153 36h-340q-105 0 -167 -49q-63 -50 -63 -127z" />
    <glyph glyph-name="gdotaccent.1" 
d="M211 705q0 163 121 274t305 111q110 0 197 -41q86 -41 133 -115q34 68 95 109q59 40 132 40q14 0 34 -2q12 -1 29 -8l-18 -129q-18 8 -32 11q-15 3 -29 3q-57 0 -102 -39q-44 -39 -66 -108q2 -27 3 -36q1 -6 1 -17q0 -166 -119 -276q-118 -109 -305 -109q-64 0 -111 11
q-54 13 -94 32q-49 -8 -84 -42q-35 -35 -35 -75q0 -37 31 -62q30 -24 82 -24h340q156 0 240 -62q85 -63 85 -178q0 -164 -147 -263t-397 -99q-237 0 -367 76q-131 77 -131 213q0 86 57 153q58 69 156 97q-33 21 -52 55q-20 35 -20 76q0 61 42 113t114 81q-43 45 -66 104
q-22 57 -22 126zM883 756q0 103 -69 163t-183 60q-127 0 -207 -77t-80 -195q0 -103 69 -163q70 -61 183 -61q127 0 207 77t80 196zM137 -80q0 -94 95 -145t270 -51q193 0 302 64t109 171q0 65 -53 101q-52 36 -153 36h-340q-105 0 -167 -49q-63 -50 -63 -127zM791 1288h-158
l26 182h156z" />
    <glyph glyph-name="uni0123.1" 
d="M211 705q0 163 121 274t305 111q110 0 197 -41q86 -41 133 -115q34 68 95 109q59 40 132 40q14 0 34 -2q12 -1 29 -8l-18 -129q-18 8 -32 11q-15 3 -29 3q-57 0 -102 -39q-44 -39 -66 -108q2 -27 3 -36q1 -6 1 -17q0 -166 -119 -276q-118 -109 -305 -109q-64 0 -111 11
q-54 13 -94 32q-49 -8 -84 -42q-35 -35 -35 -75q0 -37 31 -62q30 -24 82 -24h340q156 0 240 -62q85 -63 85 -178q0 -164 -147 -263t-397 -99q-237 0 -367 76q-131 77 -131 213q0 86 57 153q58 69 156 97q-33 21 -52 55q-20 35 -20 76q0 61 42 113t114 81q-43 45 -66 104
q-22 57 -22 126zM883 756q0 103 -69 163t-183 60q-127 0 -207 -77t-80 -195q0 -103 69 -163q70 -61 183 -61q127 0 207 77t80 196zM137 -80q0 -94 95 -145t270 -51q193 0 302 64t109 171q0 65 -53 101q-52 36 -153 36h-340q-105 0 -167 -49q-63 -50 -63 -127zM739 1323h64
l-19 -135h-159l20 129q12 83 72 130q60 46 151 42l-8 -66q-59 0 -85 -23q-29 -25 -36 -77z" />
    <glyph glyph-name="aeacute.1" 
d="M739 1188h-110l149 282h180zM1055 332l104 -45q-44 -147 -133 -227t-207 -80q-97 0 -169 57q-73 58 -103 158q-46 -101 -125 -159q-77 -56 -176 -56q-114 0 -184 74t-70 198q0 175 128 277t359 102h58l16 123q15 97 -26 156t-119 59q-80 0 -132 -51q-52 -50 -79 -150
h-119q29 141 122 230q95 91 214 92q88 0 152 -47q63 -47 81 -128q58 89 126 131q71 44 153 44q156 0 236 -148q79 -146 44 -373l-4 -45h-567q0 -8 -1.5 -24.5t-2.5 -25.5q-2 -34 -2 -50q0 -151 53 -239q52 -87 147 -87q78 0 136 61q57 60 90 173zM920 971q-90 0 -162 -92
q-73 -92 -107 -248h441q16 149 -31 245q-47 95 -141 95zM117 258q0 -77 39 -121q39 -43 110 -43q88 0 153 75t81 198l22 157h-41q-181 0 -273 -66q-91 -66 -91 -200z" />
    <glyph glyph-name="gbreve.1" 
d="M211 705q0 163 121 274t305 111q110 0 197 -41q86 -41 133 -115q34 68 95 109q59 40 132 40q14 0 34 -2q12 -1 29 -8l-18 -129q-18 8 -32 11q-15 3 -29 3q-57 0 -102 -39q-44 -39 -66 -108q2 -27 3 -36q1 -6 1 -17q0 -166 -119 -276q-118 -109 -305 -109q-64 0 -111 11
q-54 13 -94 32q-49 -8 -84 -42q-35 -35 -35 -75q0 -37 31 -62q30 -24 82 -24h340q156 0 240 -62q85 -63 85 -178q0 -164 -147 -263t-397 -99q-237 0 -367 76q-131 77 -131 213q0 86 57 153q58 69 156 97q-33 21 -52 55q-20 35 -20 76q0 61 42 113t114 81q-43 45 -66 104
q-22 57 -22 126zM883 756q0 103 -69 163t-183 60q-127 0 -207 -77t-80 -195q0 -103 69 -163q70 -61 183 -61q127 0 207 77t80 196zM137 -80q0 -94 95 -145t270 -51q193 0 302 64t109 171q0 65 -53 101q-52 36 -153 36h-340q-105 0 -167 -49q-63 -50 -63 -127zM729 1280
q74 0 119 49q44 48 59 141h97q-16 -137 -90 -215q-71 -75 -189 -75q-123 0 -185 75q-63 77 -53 215h97q-4 -92 33 -141t112 -49z" />
    <glyph glyph-name="gcircumflex.1" 
d="M211 705q0 163 121 274t305 111q110 0 197 -41q86 -41 133 -115q34 68 95 109q59 40 132 40q14 0 34 -2q12 -1 29 -8l-18 -129q-18 8 -32 11q-15 3 -29 3q-57 0 -102 -39q-44 -39 -66 -108q2 -27 3 -36q1 -6 1 -17q0 -166 -119 -276q-118 -109 -305 -109q-64 0 -111 11
q-54 13 -94 32q-49 -8 -84 -42q-35 -35 -35 -75q0 -37 31 -62q30 -24 82 -24h340q156 0 240 -62q85 -63 85 -178q0 -164 -147 -263t-397 -99q-237 0 -367 76q-131 77 -131 213q0 86 57 153q58 69 156 97q-33 21 -52 55q-20 35 -20 76q0 61 42 113t114 81q-43 45 -66 104
q-22 57 -22 126zM883 756q0 103 -69 163t-183 60q-127 0 -207 -77t-80 -195q0 -103 69 -163q70 -61 183 -61q127 0 207 77t80 196zM137 -80q0 -94 95 -145t270 -51q193 0 302 64t109 171q0 65 -53 101q-52 36 -153 36h-340q-105 0 -167 -49q-63 -50 -63 -127zM674 1470h155
l160 -282h-102l-144 188l-194 -188h-115z" />
  </font>
</defs>
</svg>
