<?xml version="1.0" standalone="no"?>
<!DOCTYPE svg PUBLIC "-//W3C//DTD SVG 1.1//EN" "http://www.w3.org/Graphics/SVG/1.1/DTD/svg11.dtd" >
<svg xmlns="http://www.w3.org/2000/svg" xmlns:xlink="http://www.w3.org/1999/xlink" version="1.1">
<metadata>
Created by FontForge 20170731 at Mon Apr 17 23:11:15 2023
 By Aleksey,,,
(c) 2019 Klim Type Foundry. All Rights Reserved.
</metadata>
<defs>
<font id="SohneMono-HalbfettKursiv" horiz-adv-x="1228" >
  <font-face 
    font-family="Copyright Klim Type Foundry"
    font-weight="578"
    font-style="italic"
    font-stretch="normal"
    units-per-em="2048"
    panose-1="2 11 10 3 3 2 2 13 2 3"
    ascent="1638"
    descent="-410"
    x-height="1077"
    cap-height="1470"
    bbox="-694 -425 2154 2054"
    underline-thickness="221"
    underline-position="-609"
    slope="-8"
    unicode-range="U+000D-F6C3"
  />
<missing-glyph 
d="M102 0v1470h1229v-1470h-1229zM373 496l104 -105l240 240l241 -240l103 105l-238 241l238 240l-103 104l-241 -239l-240 239l-104 -104l239 -240z" />
    <glyph glyph-name=".notdef" 
d="M102 0v1470h1229v-1470h-1229zM373 496l104 -105l240 240l241 -240l103 105l-238 241l238 240l-103 104l-241 -239l-240 239l-104 -104l239 -240z" />
    <glyph glyph-name=".null" horiz-adv-x="0" 
 />
    <glyph glyph-name="uni000D" unicode="&#xd;" 
 />
    <glyph glyph-name="space" unicode=" " 
 />
    <glyph glyph-name="exclam" unicode="!" 
d="M713 459h-219l71 1011h361zM709 0h-338l45 328h338z" />
    <glyph glyph-name="quotedbl" unicode="&#x22;" 
d="M506 733h-199l47 737h326zM965 733h-199l47 737h326z" />
    <glyph glyph-name="numbersign" unicode="#" 
d="M258 0h-250l142 381h-134l31 217h182l101 274h-185l31 218h234l141 380h252l-141 -380h223l141 380h250l-139 -380h131l-31 -218h-180l-103 -274h187l-31 -217h-236l-139 -381h-254l142 381h-224zM582 872l-103 -274h223l103 274h-223z" />
    <glyph glyph-name="dollar" unicode="$" 
d="M-14 291l211 182q52 -93 128 -154q74 -59 173 -83l57 411q-221 56 -308 143q-85 85 -85 224q0 192 139 324q140 133 373 149l26 192h205l-28 -202q137 -23 253 -95q110 -69 160 -168l-209 -174q-37 72 -97 121q-61 50 -142 74l-54 -379q229 -60 317 -148q89 -89 89 -233
q0 -197 -147 -335t-379 -156l-29 -197h-205l29 207q-163 27 -291 106q-129 79 -186 191zM434 1061q0 -49 37 -85q39 -38 121 -67l47 340q-92 -15 -148 -65q-57 -51 -57 -123zM924 426q0 57 -40 97q-41 41 -132 71l-52 -369q103 15 163 69q61 55 61 132z" />
    <glyph glyph-name="percent" unicode="%" 
d="M100 1065q0 191 82 309q83 119 213 119q105 0 165 -77q61 -78 61 -216q0 -191 -82 -309q-83 -119 -213 -119q-105 0 -165 77q-61 78 -61 216zM1106 1470h246l-1172 -1470h-243zM274 1073q0 -63 17 -95t49 -32q46 0 76 70q30 69 30 176q0 64 -16 95q-17 32 -49 32
q-46 0 -76 -70q-31 -71 -31 -176zM668 270q0 192 82 310t213 118q104 0 164 -76q61 -78 61 -216q0 -192 -82 -310q-83 -119 -213 -119q-105 0 -165 77q-60 76 -60 216zM842 279q0 -65 16 -96t49 -31q46 0 76 69q31 71 31 176q0 64 -17 96q-16 31 -49 31q-46 0 -76 -69
t-30 -176z" />
    <glyph glyph-name="ampersand" unicode="&#x26;" horiz-adv-x="1226" 
d="M967 795l229 -43q-24 -131 -81 -257q-60 -132 -138 -229l184 -266h-301l-67 94q-83 -56 -177 -87q-92 -30 -190 -30q-191 0 -305 100q-113 99 -113 271q0 134 75 248q77 117 222 207q-41 77 -60 145q-20 71 -20 133q0 172 117 292t293 120q155 0 249 -88q95 -89 95 -229
q0 -122 -82 -223q-80 -99 -260 -199l205 -295q45 73 78 159q31 80 47 177zM618 1280q-66 0 -106 -52q-41 -53 -41 -132q0 -45 13 -87q15 -47 40 -91q113 57 162 111q51 57 51 122q0 56 -32 92q-33 37 -87 37zM270 385q0 -84 53 -131t144 -47q53 0 101 16q53 18 100 49
l-250 359q-74 -55 -111 -117q-37 -61 -37 -129z" />
    <glyph glyph-name="quotesingle" unicode="'" 
d="M735 733h-198l47 737h325z" />
    <glyph glyph-name="parenleft" unicode="(" 
d="M324 512q0 276 128 547q126 268 341 452h297q-217 -219 -336 -482q-119 -264 -119 -523q0 -196 56 -379q58 -189 157 -328h-270q-123 151 -189 336q-65 182 -65 377z" />
    <glyph glyph-name="parenright" unicode=")" 
d="M940 799q0 -276 -128 -547q-127 -269 -341 -453h-297q216 218 336 483q119 264 119 523q0 193 -57 379q-58 190 -156 327h270q122 -150 188 -335q66 -184 66 -377z" />
    <glyph glyph-name="asterisk" unicode="*" 
d="M983 780l-168 -112l-139 239l-209 -239l-152 123l209 239l-270 90l86 185l270 -91l41 297h201l-43 -297l295 91l33 -193l-297 -92z" />
    <glyph glyph-name="plus" unicode="+" 
d="M1192 823l-35 -237h-418l-59 -418h-236l60 418h-420l35 237h418l57 418h235l-57 -418h420z" />
    <glyph glyph-name="comma" unicode="," 
d="M510 0h-168l53 389h396l-56 -399q-24 -171 -136 -259q-111 -87 -308 -87l26 178q90 5 137 44q49 41 56 116v18z" />
    <glyph glyph-name="hyphen" unicode="-" 
d="M899 475h-590l37 256h590z" />
    <glyph glyph-name="period" unicode="." 
d="M735 0h-393l53 389h396z" />
    <glyph glyph-name="slash" unicode="/" 
d="M369 -201h-301l825 1712h301z" />
    <glyph glyph-name="zero" unicode="0" 
d="M74 586q0 393 179 650t466 257q229 0 358 -161q129 -160 129 -447q0 -394 -179 -651t-466 -257q-229 0 -358 161q-129 160 -129 448zM365 586q0 -172 54 -262q55 -91 156 -91q148 0 244 186t96 466q0 172 -54 262t-156 90q-149 0 -244 -185q-96 -186 -96 -466z" />
    <glyph glyph-name="one" unicode="1" 
d="M727 1479h227l-172 -1227h326l-35 -252h-993l35 252h377l104 745h-365l31 220l148 12q145 11 214 66q70 57 103 184z" />
    <glyph glyph-name="two" unicode="2" 
d="M25 0l32 231l521 385q167 123 246 225q77 100 77 195q0 89 -56 145t-149 56q-114 0 -185 -84q-71 -85 -71 -217q0 -13 2 -41q1 -8 2.5 -21t1.5 -18h-280q-4 28 -6 51q-2 30 -2 43q0 231 157 387t400 156q215 0 350 -120t135 -314q0 -149 -89 -286q-87 -135 -273 -269
l-338 -244h606l-37 -260h-1044z" />
    <glyph glyph-name="three" unicode="3" 
d="M1145 444q0 -199 -155 -333t-396 -134q-235 0 -387 128q-151 127 -156 337l289 43q12 -120 84 -189t184 -69q107 0 180 64q72 63 72 160q0 86 -61 135t-170 49h-146l33 239h170q104 0 168 55t64 142q0 76 -56 123t-145 47q-101 0 -174 -61q-75 -62 -103 -170l-272 49
q52 202 205 318q152 116 366 116q207 0 338 -111t131 -280q0 -128 -70 -223q-71 -96 -194 -140q98 -38 149 -113q52 -76 52 -182z" />
    <glyph glyph-name="four" unicode="4" 
d="M948 350l-51 -350h-268l49 350h-668l33 225l672 895h391l-123 -880h229l-32 -240h-232zM793 1206l-459 -616h373z" />
    <glyph glyph-name="five" unicode="5" 
d="M651 743q-62 0 -115 -25q-55 -26 -96 -73l-264 45l174 780h850l-37 -260h-620l-70 -307q53 41 118 62q61 20 138 20q186 0 303 -123t117 -317q0 -241 -162 -404q-162 -164 -407 -164q-222 0 -370 128q-146 127 -157 339l285 35q16 -116 85 -185t169 -69q114 0 193 84
q79 83 79 207q0 103 -58 165t-155 62z" />
    <glyph glyph-name="six" unicode="6" 
d="M788 1493q180 0 305 -96q123 -95 156 -258l-250 -95q-15 94 -80 148q-65 55 -163 55q-136 0 -241 -118q-107 -120 -136 -300q69 73 153 108q90 38 187 38q192 0 314 -125t122 -318q0 -228 -161 -392q-160 -163 -400 -163q-238 0 -376 159t-138 433q0 395 200 660
q200 264 508 264zM360 455q0 -105 68 -171q69 -67 172 -67q122 0 201 84q80 85 80 203q0 102 -68 170q-67 67 -172 67q-121 0 -201 -83t-80 -203z" />
    <glyph glyph-name="seven" unicode="7" 
d="M952 1214h-536l-33 -227h-258l68 483h1130l-37 -260q-279 -271 -415 -542q-139 -276 -191 -668h-305q56 392 194 683q139 293 383 531z" />
    <glyph glyph-name="eight" unicode="8" 
d="M203 1065q0 185 143 306q145 122 369 122q209 0 338 -108t129 -277q0 -118 -66 -213q-65 -93 -184 -143q109 -47 166 -131t57 -195q0 -197 -162 -323t-420 -126q-242 0 -390 110q-146 109 -146 290q0 144 90 255t240 150q-82 51 -123 122t-41 161zM469 1063
q0 -79 57 -129q56 -49 152 -49q105 0 171 57t66 143q0 79 -57 129q-58 50 -151 50q-102 0 -170 -59t-68 -142zM328 416q0 -91 68 -147t182 -56q122 0 205 68t83 165q0 90 -70 147q-69 56 -182 56q-122 0 -204 -67t-82 -166z" />
    <glyph glyph-name="nine" unicode="9" 
d="M498 -23q-178 0 -304 97q-124 96 -157 258l250 94q15 -92 81 -147q67 -56 162 -56q136 0 241 118q107 120 136 300q-68 -71 -153 -107q-90 -38 -187 -38q-192 0 -314 125t-122 317q0 228 161 392q160 163 400 163q238 0 376 -159t138 -433q0 -396 -199 -659
q-200 -265 -509 -265zM926 1016q0 105 -68 171q-67 66 -172 66q-122 0 -201 -84q-79 -83 -79 -202q0 -103 67 -170q68 -68 172 -68q121 0 201 83t80 204z" />
    <glyph glyph-name="colon" unicode=":" 
d="M735 0h-393l53 389h396zM834 694h-394l54 389h395z" />
    <glyph glyph-name="semicolon" unicode=";" 
d="M510 0h-168l53 389h396l-56 -399q-24 -171 -136 -259q-111 -87 -308 -87l26 178q90 5 137 44q49 41 56 116v18zM834 694h-394l54 389h395z" />
    <glyph glyph-name="less" unicode="&#x3c;" 
d="M1006 113l-842 432l43 325l967 433l-39 -287l-736 -324l643 -325z" />
    <glyph glyph-name="equal" unicode="=" 
d="M1190 821h-1073l33 230h1073zM1124 354h-1071l31 230h1073z" />
    <glyph glyph-name="greater" unicode="&#x3e;" 
d="M272 1300l842 -432l-43 -325l-967 -432l39 286l736 324l-643 326z" />
    <glyph glyph-name="question" unicode="?" 
d="M911 1051q0 84 -54 132t-146 48q-100 0 -172 -66q-73 -67 -101 -184l-286 61q51 209 206 329q157 122 371 122q221 0 356 -112q134 -111 134 -298q0 -179 -118 -307q-119 -129 -304 -153l-23 -164h-282l51 346q177 0 272 65q96 66 96 181zM737 0h-336l45 328h336z" />
    <glyph glyph-name="at" unicode="@" 
d="M860 274q53 0 109 178q55 175 55 347q0 188 -73 291q-72 102 -208 102q-124 0 -230 -89q-104 -88 -181 -255q-55 -120 -85 -265q-30 -144 -30 -286q0 -225 84 -345t240 -120q82 0 157 35q76 36 142 106l100 -129q-83 -92 -184 -138t-224 -46q-238 0 -372 167
q-133 166 -133 466q0 176 44 358q43 178 124 326q102 189 242 286q143 99 311 99q214 0 339 -152t125 -411q0 -288 -114 -500q-114 -211 -279 -211q-62 0 -107 31q-44 30 -59 86q-34 -56 -82 -87q-47 -30 -100 -30q-83 0 -133 74q-49 73 -49 203q0 218 98 401
q99 184 234 184q53 0 93 -30q39 -29 52 -78l27 90h194l-143 -557q-14 -42 -9 -73q5 -28 25 -28zM547 276q31 0 55 42q25 45 43 122l43 170q18 70 8 112t-43 42q-57 0 -105 -131t-48 -256q0 -54 11 -76q13 -25 36 -25z" />
    <glyph glyph-name="A" unicode="A" 
d="M-49 0l643 1470h344l190 -1470h-288l-33 307h-424l-125 -307h-307zM780 563l-59 574l-234 -574h293z" />
    <glyph glyph-name="B" unicode="B" 
d="M629 0h-594l207 1470h497q226 0 345 -91q120 -91 120 -259q0 -133 -72 -235t-186 -131q101 -39 155 -120t54 -194q0 -195 -146 -317q-147 -123 -380 -123zM498 1221l-52 -349h234q108 0 172 53q63 53 63 138q0 78 -52 118t-152 40h-213zM655 629h-241l-54 -377h267
q111 0 178 57t67 148q0 79 -57 126q-56 46 -160 46z" />
    <glyph glyph-name="C" unicode="C" 
d="M764 1493q204 -2 340 -123q137 -122 164 -326l-287 -86q-15 129 -77 200q-64 73 -159 73q-155 0 -265 -179q-109 -178 -109 -425q0 -176 66 -281q65 -104 179 -104q96 0 176 73q79 71 123 197l271 -113q-83 -200 -238 -310q-157 -112 -350 -112q-234 0 -378 177
q-142 175 -142 467q0 364 196 617t490 255z" />
    <glyph glyph-name="D" unicode="D" 
d="M436 0h-401l207 1470h362q292 0 445 -163t153 -469q0 -378 -208 -608t-558 -230zM500 1212l-135 -954h79q213 0 338 158t125 411q0 188 -82 286q-83 99 -241 99h-84z" />
    <glyph glyph-name="E" unicode="E" 
d="M35 0l207 1470h1038l-37 -260h-741l-45 -327h622l-35 -258h-624l-51 -365h741l-37 -260h-1038z" />
    <glyph glyph-name="F" unicode="F" 
d="M451 584l-82 -584h-297l207 1470h1005l-37 -260h-708l-52 -366h592l-37 -260h-591z" />
    <glyph glyph-name="G" unicode="G" 
d="M1075 0h-239l18 131q-47 -72 -130 -113q-84 -41 -183 -41q-213 0 -338 175t-125 460q0 161 43 309q44 152 125 271q94 141 227 222q130 79 277 79q201 0 322 -115q119 -113 140 -327l-278 -82q-6 127 -57 193q-52 67 -142 67q-143 0 -255 -187q-111 -186 -111 -419
q0 -178 61 -279q62 -102 168 -102q103 0 182 88q81 91 99 217h-267l35 256h541z" />
    <glyph glyph-name="H" unicode="H" 
d="M864 885l82 585h303l-207 -1470h-303l88 625h-403l-86 -625h-303l207 1470h303l-84 -585h403z" />
    <glyph glyph-name="I" unicode="I" 
d="M727 260h375l-37 -260h-1053l37 260h375l133 950h-375l37 260h1053l-37 -260h-377z" />
    <glyph glyph-name="J" unicode="J" 
d="M389 -18q-74 0 -155 6t-144 18l41 283q81 -14 127 -19q60 -6 121 -6q195 0 285 69t112 236l90 641h-528l37 260h831l-131 -940q-40 -281 -208 -415q-166 -133 -478 -133z" />
    <glyph glyph-name="K" unicode="K" 
d="M244 1470h297l-78 -552l532 552h353l-594 -612l399 -858h-322l-299 631l-129 -131l-69 -500h-297z" />
    <glyph glyph-name="L" unicode="L" 
d="M1063 0h-977l207 1470h301l-170 -1210h676z" />
    <glyph glyph-name="M" unicode="M" 
d="M967 1051l-346 -1051h-166l-47 1051l-148 -1051h-246l207 1470h363l37 -870l274 870h375l-207 -1470h-246z" />
    <glyph glyph-name="N" unicode="N" 
d="M969 1470h280l-207 -1470h-270l-321 965l-136 -965h-280l207 1470h297l301 -915z" />
    <glyph glyph-name="O" unicode="O" 
d="M1206 883q0 -387 -181 -646q-182 -260 -462 -260q-229 0 -357 162q-128 163 -128 449q0 387 181 646t462 259q229 0 357 -162q128 -163 128 -448zM913 874q0 176 -52 265q-53 90 -154 90q-146 0 -241 -180q-95 -181 -95 -453q0 -175 52 -264q53 -90 155 -90
q146 0 240 180q95 181 95 452z" />
    <glyph glyph-name="P" unicode="P" 
d="M717 541h-303l-76 -541h-303l207 1470h510q245 0 377 -110q135 -112 135 -313q0 -224 -153 -365t-394 -141zM506 1214l-55 -417h251q123 0 194 64q73 65 73 165q0 89 -65 139q-64 49 -181 49h-217z" />
    <glyph glyph-name="Q" unicode="Q" 
d="M688 -8q-22 -5 -58 -10q-35 -5 -67 -5q-229 0 -357 162q-128 163 -128 449q0 387 181 646t462 259q229 0 357 -162q128 -163 128 -448q0 -244 -76 -445q-77 -204 -210 -321q39 -58 101 -97q64 -40 146 -61l-190 -207q-94 29 -172 94q-79 66 -117 146zM913 874
q0 176 -52 265q-53 90 -154 90q-146 0 -241 -180q-95 -181 -95 -453q0 -175 52 -264q53 -90 155 -90q146 0 240 180q95 181 95 452z" />
    <glyph glyph-name="R" unicode="R" 
d="M590 547h-176l-76 -547h-303l207 1470h485q241 0 375 -112q135 -112 135 -311q0 -166 -93 -292t-255 -177l264 -578h-326zM506 1214l-55 -415h225q119 0 192 64q74 65 74 163q0 89 -64 138q-65 50 -182 50h-190z" />
    <glyph glyph-name="S" unicode="S" 
d="M588 -23q-200 0 -369 89t-250 231l217 184q69 -118 180 -185t238 -67q119 0 194 57q74 56 74 146q0 70 -56 110t-193 70q-250 56 -360 153q-111 97 -111 255q0 207 157 340t406 133q180 0 328 -74q149 -74 221 -200l-207 -177q-56 93 -153 147q-94 52 -208 52
q-111 0 -179 -49t-68 -129q0 -69 67 -109q69 -41 234 -80q221 -51 322 -145q102 -95 102 -250q0 -223 -163 -362q-164 -140 -423 -140z" />
    <glyph glyph-name="T" unicode="T" 
d="M1313 1470l-37 -260h-418l-168 -1210h-303l170 1210h-416l37 260h1135z" />
    <glyph glyph-name="U" unicode="U" 
d="M571 -23q-255 0 -382 154q-126 153 -87 428l129 911h297l-127 -899q-22 -158 25 -240q46 -81 162 -81q108 0 168 77t84 244l127 899h297l-127 -911q-40 -292 -182 -437t-384 -145z" />
    <glyph glyph-name="V" unicode="V" 
d="M1333 1470l-643 -1470h-334l-198 1470h307l115 -1075l440 1075h313z" />
    <glyph glyph-name="W" unicode="W" 
d="M373 553l266 917h209l-10 -917l243 917h262l-430 -1470h-235l-4 956l-295 -956h-246l14 1470h254z" />
    <glyph glyph-name="X" unicode="X" 
d="M180 1470h303l191 -442l311 442h320l-496 -700l334 -770h-303l-222 514l-364 -514h-320l549 772z" />
    <glyph glyph-name="Y" unicode="Y" 
d="M449 1470l210 -587l375 587h324l-586 -888l-82 -582h-303l82 582l-338 888h318z" />
    <glyph glyph-name="Z" unicode="Z" 
d="M410 260h727l-37 -260h-1114l30 229l861 981h-715l37 260h1099l-32 -229z" />
    <glyph glyph-name="bracketleft" unicode="[" 
d="M1069 1286h-373l-178 -1263h373l-31 -224h-657l241 1712h658z" />
    <glyph glyph-name="backslash" unicode="\" 
d="M653 1511l172 -1712h-274l-172 1712h274z" />
    <glyph glyph-name="bracketright" unicode="]" 
d="M195 25h372l178 1263h-372l30 223h658l-242 -1712h-657z" />
    <glyph glyph-name="asciicircum" unicode="^" 
d="M188 836l420 634h279l241 -634h-274l-133 370l-238 -370h-295z" />
    <glyph glyph-name="underscore" unicode="_" 
d="M862 -340h-743l33 234h743z" />
    <glyph glyph-name="grave" unicode="`" 
d="M862 1470l88 -296h-215l-205 296h332z" />
    <glyph glyph-name="a" unicode="a" 
d="M1092 217l-31 -217q-115 -21 -207 7q-91 27 -121 93q-51 -55 -137 -87q-84 -31 -188 -31q-165 0 -262 81q-99 83 -99 222q0 147 114 241q115 95 318 119l305 41l2 25q11 70 -29 108q-41 40 -122 41q-82 1 -139 -33q-58 -35 -82 -104l-262 65q56 145 191 227
q137 83 321 83q206 0 318 -103q111 -102 87 -274l-61 -438q-6 -38 13 -53t71 -13zM483 199q105 0 175 48t81 128l17 112l-246 -36q-90 -15 -136 -52t-46 -94q0 -52 41 -79t114 -27z" />
    <glyph glyph-name="b" unicode="b" 
d="M766 1098q177 0 280 -130t103 -352q0 -268 -142 -453q-143 -186 -358 -186q-95 0 -173 38q-77 38 -118 108l-16 -123h-287l207 1470h287l-72 -501q45 60 123 95q75 34 166 34zM668 852q-101 0 -167 -75q-67 -76 -83 -206l-8 -59q-16 -127 39 -208t153 -81q112 0 185 106
t73 263q0 128 -49 193q-50 67 -143 67z" />
    <glyph glyph-name="c" unicode="c" 
d="M692 858q-131 0 -219 -106t-88 -263q0 -126 66 -198t180 -72q94 0 163 48q67 47 101 139l229 -101q-52 -150 -191 -239t-325 -89q-227 0 -369 137q-141 136 -141 355q0 262 174 445q175 184 435 184q188 0 318 -90q131 -90 161 -236l-254 -100q-18 86 -83 136t-157 50z
" />
    <glyph glyph-name="d" unicode="d" 
d="M463 -23q-175 0 -280 132q-103 130 -103 350q0 268 142 453q142 186 358 186q95 0 173 -38q75 -37 117 -108l72 518h289l-209 -1470h-287l17 109q-48 -63 -123 -97q-78 -35 -166 -35zM561 223q101 0 168 75t84 206l6 59q16 126 -38 208q-54 81 -154 81q-114 0 -185 -104
t-71 -263q0 -127 49 -194q50 -68 141 -68z" />
    <glyph glyph-name="e" unicode="e" 
d="M592 -23q-228 0 -369 136q-139 135 -139 356q0 263 171 446t429 183q237 0 364 -154q126 -153 93 -397l-11 -72h-772q4 -124 72 -193t182 -69q88 0 156 43q70 44 104 119l222 -101q-66 -141 -198 -219t-304 -78zM666 870q-94 0 -167 -53t-110 -147h485q4 89 -53 145
q-56 55 -155 55z" />
    <glyph glyph-name="f" unicode="f" 
d="M1024 240l-33 -240h-977l33 240h307l84 594h-307l35 237h307q27 205 166 313q141 109 375 109q72 0 138 -7q68 -7 124 -20l-33 -229q-52 8 -121 14q-47 4 -96 4q-128 0 -190 -43q-64 -44 -76 -141h461l-35 -237h-461l-84 -594h383z" />
    <glyph glyph-name="g" unicode="g" 
d="M1176 1077l-136 -964q-33 -242 -180 -371t-391 -129q-200 0 -330 83q-128 82 -166 236l260 74q23 -80 92 -125t164 -45q111 0 178 64t83 186l10 68q-53 -63 -122 -93q-70 -30 -157 -30q-185 0 -297 127t-112 334q0 255 145 430q146 176 367 176q99 0 174 -37t116 -105
l17 121h285zM817 547l2 28q12 129 -40 205t-154 76q-116 0 -190 -98q-75 -99 -75 -248q0 -113 52 -176q51 -62 149 -62q106 0 175 74t81 201z" />
    <glyph glyph-name="h" unicode="h" 
d="M358 0h-286l207 1470h286l-69 -497q56 62 131 93q78 32 166 32q169 0 258 -112q88 -110 61 -300l-96 -686h-287l88 633q15 98 -24 150q-39 53 -125 53q-89 0 -150 -59q-59 -57 -74 -161z" />
    <glyph glyph-name="i" unicode="i" 
d="M891 1204h-293l37 266h293zM1069 0h-1006l35 240h365l86 598h-361l35 239h645l-118 -837h352z" />
    <glyph glyph-name="j" unicode="j" 
d="M1073 1204h-295l37 266h293zM362 -131q120 0 184 47q62 45 77 150l108 772h-489l34 239h775l-148 -1044q-28 -201 -170 -309q-142 -109 -368 -109q-77 0 -165 12q-86 12 -147 31l35 248q89 -20 149 -28q69 -9 125 -9z" />
    <glyph glyph-name="k" unicode="k" 
d="M279 1470h286l-116 -823l446 430h348l-450 -413l325 -664h-317l-228 463l-172 -158l-43 -305h-286z" />
    <glyph glyph-name="l" unicode="l" 
d="M1069 0h-1006l35 240h365l141 991h-358l33 239h645l-174 -1230h352z" />
    <glyph glyph-name="m" unicode="m" 
d="M455 850q-46 0 -70 -35q-25 -36 -37 -115l-98 -700h-242l152 1077h241l-10 -80q30 46 81 74q50 27 110 27q62 0 108 -29t68 -84q34 49 93 81t126 32q114 0 171 -89t36 -235l-109 -774h-241l98 705q10 76 -6 110q-17 35 -62 35q-43 0 -67 -36q-25 -37 -35 -114l-98 -700
h-244l98 705q12 73 -3 109t-60 36z" />
    <glyph glyph-name="n" unicode="n" 
d="M358 0h-286l151 1077h287l-14 -104q56 62 131 93q78 32 166 32q169 0 258 -112q88 -110 61 -300l-96 -686h-287l88 633q15 98 -24 150q-39 53 -125 53q-89 0 -150 -59q-59 -57 -74 -161z" />
    <glyph glyph-name="o" unicode="o" 
d="M82 475q0 268 164 446q164 177 418 177q223 0 353 -133t130 -365q0 -269 -163 -445q-164 -178 -419 -178q-220 0 -352 135q-131 134 -131 363zM367 483q0 -130 56 -198q58 -70 157 -70q122 0 202 108q80 109 80 269q0 131 -55 199q-55 69 -156 69q-126 0 -205 -107
t-79 -270z" />
    <glyph glyph-name="p" unicode="p" 
d="M766 1098q177 0 280 -130t103 -352q0 -268 -142 -453q-143 -186 -358 -186q-95 0 -173 38q-77 38 -118 108l-67 -488h-287l203 1442h287l-17 -108q45 60 123 95q75 34 166 34zM668 852q-101 0 -167 -75q-67 -76 -83 -206l-8 -59q-16 -127 39 -208t153 -81q112 0 185 106
t73 263q0 128 -49 193q-50 67 -143 67z" />
    <glyph glyph-name="q" unicode="q" 
d="M463 -23q-175 0 -280 132q-103 130 -103 350q0 268 142 453q142 186 358 186q95 0 173 -38q75 -37 117 -108l15 125h289l-203 -1442h-287l68 474q-48 -63 -123 -97q-78 -35 -166 -35zM561 223q101 0 168 75t84 206l6 59q16 126 -38 208q-54 81 -154 81q-114 0 -185 -104
t-71 -263q0 -127 49 -194q50 -68 141 -68z" />
    <glyph glyph-name="r" unicode="r" 
d="M950 0h-925l32 240h279l86 598h-281l35 239h553l-22 -162q61 84 159 132q99 49 217 49q39 0 82 -6q36 -5 80 -19l-37 -274q-58 12 -95 18q-40 6 -77 6q-155 0 -259 -76q-106 -77 -122 -200l-43 -305h371z" />
    <glyph glyph-name="s" unicode="s" 
d="M580 -23q-167 0 -319 64q-149 63 -228 164l184 174q70 -85 171 -131q103 -47 214 -47q94 0 147 31q54 32 54 83q0 44 -49 69q-50 26 -174 48q-214 39 -308 111t-94 194q0 159 134 260t354 101q158 0 292 -57t195 -148l-186 -164q-46 69 -134 109q-90 41 -190 41
q-82 0 -132 -28q-48 -27 -48 -75q0 -38 46 -62q50 -26 193 -55q205 -40 297 -113q93 -73 93 -196q0 -162 -142 -268q-141 -105 -370 -105z" />
    <glyph glyph-name="t" unicode="t" 
d="M762 -16q-228 0 -347 101q-120 102 -96 286l66 467h-283l33 239h285l43 318h285l-46 -318h488l-35 -239h-487l-60 -428q-12 -90 38 -131t175 -41q55 0 122 8q59 7 132 26l-37 -247q-70 -20 -142 -31q-66 -10 -134 -10z" />
    <glyph glyph-name="u" unicode="u" 
d="M872 1077h287l-151 -1077h-287l14 104q-56 -62 -131 -93t-166 -31q-170 0 -258 111q-88 110 -61 300l96 686h287l-88 -633q-15 -98 24 -152t125 -54q91 0 150 59q58 58 73 164z" />
    <glyph glyph-name="v" unicode="v" 
d="M1260 1077l-598 -1077h-291l-252 1077h284l158 -735l400 735h299z" />
    <glyph glyph-name="w" unicode="w" 
d="M352 414l234 663h209l22 -663l211 663h266l-387 -1077h-237l-29 715l-256 -715h-254l-41 1077h252z" />
    <glyph glyph-name="x" unicode="x" 
d="M1096 0h-308l-198 365l-289 -365h-315l456 563l-282 514h307l174 -329l266 329h314l-430 -528z" />
    <glyph glyph-name="y" unicode="y" 
d="M1260 1077l-633 -1136q-112 -199 -199 -257q-89 -59 -235 -59q-21 0 -63 2q-32 2 -62 6l30 232q8 -1 22.5 -2.5t21.5 -1.5q28 -2 40 -2q59 0 94 21q36 22 66 77l43 80l-266 1040h287l165 -719l390 719h299z" />
    <glyph glyph-name="z" unicode="z" 
d="M463 240h600l-33 -240h-985l29 211l700 627h-606l35 239h973l-31 -213z" />
    <glyph glyph-name="braceleft" unicode="{" 
d="M293 541h-96l32 229h97q59 0 92 37q32 37 43 117l33 239q24 171 132 259q109 89 289 89h263l-33 -225h-191q-96 0 -145 -45t-64 -145l-24 -183q-15 -105 -59 -167q-45 -63 -130 -93q79 -33 104 -92q26 -61 11 -164l-24 -182q-15 -96 24 -143t133 -47h189l-33 -226h-215
q-187 0 -287 95q-99 94 -84 260l33 233q12 79 -9 117q-21 37 -81 37z" />
    <glyph glyph-name="bar" unicode="|" 
d="M649 -201h-278l241 1712h279z" />
    <glyph glyph-name="braceright" unicode="}" 
d="M971 770h96l-33 -229h-96q-59 0 -92 -37q-32 -37 -43 -117l-33 -240q-24 -171 -132 -259q-109 -89 -290 -89h-262l33 226h190q97 0 146 45q48 44 63 145l25 182q15 106 59 167q45 63 129 93q-77 33 -103 93q-26 62 -12 163l25 183q15 95 -25 143q-39 47 -133 47h-188
l33 225h215q188 0 286 -94q99 -94 84 -260l-32 -233q-12 -80 9 -117t81 -37z" />
    <glyph glyph-name="asciitilde" unicode="~" 
d="M487 854q41 0 75 -14q38 -16 89 -58q39 -32 63 -42q21 -9 42 -9q38 0 70 32q34 34 51 91h215q-30 -184 -118 -293q-87 -108 -202 -108q-41 0 -75 14q-41 17 -89 57q-41 33 -61 42q-21 9 -41 9q-40 0 -72 -32q-33 -33 -51 -90h-215q28 180 116 291q87 110 203 110z" />
    <glyph glyph-name="uni00A0" unicode="&#xa0;" 
 />
    <glyph glyph-name="exclamdown" unicode="&#xa1;" 
d="M573 1012h220l-72 -1012h-361zM578 1470h337l-45 -327h-338z" />
    <glyph glyph-name="cent" unicode="&#xa2;" 
d="M651 -211h-202l28 205q-173 44 -271 176q-100 135 -100 324q0 241 149 420q150 180 380 210l31 217h204l-30 -221q138 -29 231 -113q94 -85 127 -208l-227 -113q-12 73 -56 126t-108 75l-96 -674q77 15 130 62q54 48 95 139l192 -119q-63 -139 -179 -220
q-119 -83 -271 -95zM367 504q0 -99 36 -165q37 -68 107 -103l92 649q-109 -38 -172 -141q-63 -104 -63 -240z" />
    <glyph glyph-name="sterling" unicode="&#xa3;" 
d="M492 111q-55 -64 -127 -100q-68 -34 -144 -34q-107 0 -180 68q-72 67 -72 168q0 115 85 196q84 80 212 80q35 0 73 -8q33 -7 73 -26v20q0 29 -3 54q-2 21 -10 51h-256l27 204h145q-22 50 -35 105q-12 49 -12 100q0 209 154 357q153 147 381 147q199 0 326 -112
q126 -111 126 -291q0 -57 -13 -112q-13 -54 -38 -114h-264q21 43 34 90q11 41 11 84q0 93 -56 149t-145 56q-102 0 -173 -77q-70 -76 -70 -187q0 -31 8 -69q7 -36 45 -126h270l-26 -204h-191q2 -10 2 -18v-30q0 -57 -10 -110q-10 -52 -29 -111q56 -41 99 -57q42 -16 90 -16
q77 0 123 51q47 52 65 153h242q-23 -216 -139 -340q-117 -125 -293 -125q-83 0 -158 32q-71 30 -147 102zM250 311q-32 0 -56 -21t-24 -50q0 -30 19 -49t51 -19q30 0 61 22t55 62q-29 28 -56 42q-25 13 -50 13z" />
    <glyph glyph-name="yen" unicode="&#xa5;" 
d="M455 360h-342l26 199h342l19 121h-344l28 199h242l-279 591h320l211 -507l354 507h328l-445 -591h242l-29 -199h-340l-18 -121h342l-27 -199h-342l-51 -360h-289z" />
    <glyph glyph-name="section" unicode="&#xa7;" 
d="M989 500q20 -27 31 -64q10 -33 10 -76q0 -163 -134 -273t-345 -110q-166 0 -304 66q-140 67 -202 172l184 160q45 -76 142 -126t198 -50q82 0 131 31q50 32 50 83q0 38 -45 62q-43 23 -189 61q-182 43 -259 110q-77 66 -77 177q0 78 36 144t106 116q-28 29 -42 69
q-14 39 -14 83q0 155 124 257q123 101 321 101q155 0 280 -59q127 -60 183 -156l-187 -160q-40 71 -121 114q-79 42 -172 42q-65 0 -107 -25q-40 -24 -40 -67q0 -39 43 -66q41 -25 174 -59q181 -44 264 -117q82 -72 82 -184q0 -76 -32 -143q-32 -66 -89 -113zM449 782
q0 -40 52 -70q53 -30 171 -57q10 -2 30 -7.5t30 -8.5q32 -8 59 -18q24 16 37 37q14 22 14 49q0 45 -48 72q-55 31 -169 59q-38 10 -56 15q-24 7 -49 15q-33 -12 -52 -35t-19 -51z" />
    <glyph glyph-name="dieresis" unicode="&#xa8;" 
d="M655 1204h-290l36 266h291zM1053 1204h-291l37 266h291z" />
    <glyph glyph-name="copyright" unicode="&#xa9;" 
d="M1206 881q0 -385 -181 -644q-182 -260 -458 -260q-228 0 -359 164q-130 163 -130 449q0 385 181 644t458 259q227 0 358 -164t131 -448zM1055 879q0 218 -91 342q-92 125 -251 125q-213 0 -348 -214q-136 -216 -136 -540q0 -217 92 -342t250 -125q214 0 349 214
q135 215 135 540zM602 305q-118 0 -186 93q-68 94 -68 257q0 219 98 366q99 148 250 148q111 0 174 -72q64 -73 70 -206l-217 -53q2 63 -8 90q-11 30 -33 30q-43 0 -75 -95q-32 -96 -32 -214q0 -67 12 -100t34 -33q23 0 42 33q17 28 33 90l205 -64q-34 -124 -115 -197
t-184 -73z" />
    <glyph glyph-name="ordfeminine" unicode="&#xaa;" 
d="M1051 889l-27 -187q-92 -18 -167 0t-105 68q-39 -39 -98 -60q-61 -22 -128 -22q-114 0 -186 60t-72 157q0 109 85 176q86 68 241 84l188 21l4 14q5 42 -19 63t-71 21q-48 2 -76 -18q-30 -21 -45 -62l-239 45q39 112 140 174q104 64 245 64q162 0 249 -75q86 -74 68 -202
l-41 -278q-2 -23 10 -33q11 -10 44 -10zM608 870q59 0 99 29q39 29 47 76l6 55l-133 -18q-54 -8 -81 -29q-28 -22 -28 -53q0 -29 24 -44q26 -16 66 -16zM985 412h-768l27 180h766z" />
    <glyph glyph-name="guillemotleft" unicode="&#xab;" 
d="M514 121l-399 278l39 267l475 278l-39 -282l-240 -136l203 -135zM1034 121l-399 278l39 267l475 278l-39 -282l-240 -136l203 -135z" />
    <glyph glyph-name="registered" unicode="&#xae;" 
d="M229 997q0 202 144 349t344 147q185 0 304 -118q120 -119 120 -300q0 -200 -145 -348q-144 -147 -345 -147q-186 0 -303 117q-119 119 -119 300zM305 997q0 -151 98 -249q99 -99 250 -99q168 0 289 127t121 299q0 152 -98 250t-248 98q-170 0 -291 -127t-121 -299z
M799 995l86 -182h-148l-67 150h-62l-22 -150h-137l65 461h221q77 0 124 -38q46 -37 46 -99q0 -47 -27 -83t-79 -59zM762 1118q0 21 -17 33q-16 12 -43 12h-67l-14 -102h77q28 0 45 17q19 19 19 40z" />
    <glyph glyph-name="macron" unicode="&#xaf;" 
d="M1053 1425l-31 -217h-627l31 217h627z" />
    <glyph glyph-name="degree" unicode="&#xb0;" horiz-adv-x="1230" 
d="M387 1155q0 137 99 238q99 100 237 100q127 0 211 -85q84 -86 84 -210q0 -138 -98 -237q-99 -101 -238 -101q-127 0 -211 85t-84 210zM567 1165q0 -54 35 -92q34 -37 90 -37q62 0 104 44t42 108q0 56 -35 93q-35 36 -90 36q-62 0 -104 -44q-42 -43 -42 -108z" />
    <glyph glyph-name="uni00B2" unicode="&#xb2;" 
d="M332 655l22 154l277 207q89 63 126 108q38 46 38 88q0 37 -23 60q-22 22 -59 22q-50 0 -77 -37q-28 -39 -28 -98v-26q0 -7 2 -17h-207l-3 31q-1 7 -1 20q0 138 93 228q91 88 243 88q129 0 206 -66t77 -176q0 -82 -43 -152q-45 -72 -129 -133l-154 -112h273l-27 -189h-606
z" />
    <glyph glyph-name="uni00B3" unicode="&#xb3;" 
d="M977 903q0 -115 -86 -187q-87 -73 -227 -73q-138 0 -225 72t-93 188l219 29q5 -53 34 -79q31 -28 77 -28q38 0 66 26t28 60q0 35 -25 55q-23 19 -69 19h-76l23 168h88q39 0 66 22q26 21 26 56q0 31 -23 49q-22 18 -57 18q-44 0 -73 -25q-31 -26 -38 -69l-202 23
q27 119 114 187q88 69 217 69q123 0 200 -62t77 -159q0 -67 -38 -122t-99 -79q47 -23 71 -63q25 -42 25 -95z" />
    <glyph glyph-name="acute" unicode="&#xb4;" 
d="M692 1174h-235l149 296h355z" />
    <glyph glyph-name="paragraph" unicode="&#xb6;" 
d="M958 0h-268l174 1229h-149l-82 -578h-121q-181 0 -287 98q-104 97 -104 263q0 194 138 326t351 132h701l-35 -241h-146z" />
    <glyph glyph-name="periodcentered" unicode="&#xb7;" 
d="M795 434h-394l54 389h395z" />
    <glyph glyph-name="cedilla" unicode="&#xb8;" 
d="M737 -197q0 -83 -72 -136q-71 -52 -188 -52q-67 0 -123 19t-100 57l102 123q23 -22 58 -36q36 -15 65 -16q31 0 50 15q20 15 20 35q0 27 -34 42q-36 16 -99 17l67 154h138l-33 -70q71 -12 110 -51t39 -101z" />
    <glyph glyph-name="uni00B9" unicode="&#xb9;" 
d="M723 1470h164l-88 -630h162l-27 -187h-572l27 187h195l47 336h-187l23 161l78 6q72 5 112 34q43 32 66 93z" />
    <glyph glyph-name="ordmasculine" unicode="&#xba;" 
d="M297 1044q0 190 119 317q118 126 303 126q168 0 266 -97t98 -264q0 -189 -118 -314q-119 -126 -306 -126q-166 0 -264 97t-98 261zM549 1051q0 -73 32 -116q31 -42 89 -42q70 0 116 65q48 68 48 164q0 76 -33 117t-90 41q-69 0 -116 -66q-46 -65 -46 -163zM961 412h-730
l27 180h729z" />
    <glyph glyph-name="guillemotright" unicode="&#xbb;" 
d="M715 944l399 -278l-39 -267l-475 -278l39 282l240 136l-203 135zM195 944l399 -278l-39 -267l-475 -278l39 282l239 136l-202 135z" />
    <glyph glyph-name="onequarter" unicode="&#xbc;" horiz-adv-x="2457" 
d="M723 1470h164l-88 -630h162l-27 -187h-572l27 187h195l47 336h-187l23 161l78 6q72 5 112 34q43 32 66 93zM535 0l1208 1470h233l-1206 -1470h-235zM1989 178l-25 -178h-199l27 178h-358l20 158l348 479h279l-68 -467h103l-25 -170h-102zM1851 641l-202 -293h161z" />
    <glyph glyph-name="onehalf" unicode="&#xbd;" horiz-adv-x="2457" 
d="M723 1470h164l-88 -630h162l-27 -187h-572l27 187h195l47 336h-187l23 161l78 6q72 5 112 34q43 32 66 93zM535 0l1208 1470h233l-1206 -1470h-235zM1468 0l23 154l276 206q86 62 126 109q38 46 38 88q0 37 -22 59q-23 23 -60 23q-49 0 -76 -37q-28 -39 -28 -98v-27
q0 -6 2 -16h-207l-3 31q-1 7 -1 20q0 138 92 227q91 88 244 88q131 0 206 -65q76 -66 76 -176q0 -83 -43 -153q-43 -71 -129 -132l-153 -113h272l-26 -188h-607z" />
    <glyph glyph-name="threequarters" unicode="&#xbe;" horiz-adv-x="2457" 
d="M977 903q0 -115 -86 -187q-87 -73 -227 -73q-138 0 -225 72t-93 188l219 29q5 -53 34 -79q31 -28 77 -28q38 0 66 26t28 60q0 35 -25 55q-23 19 -69 19h-76l23 168h88q39 0 66 22q26 21 26 56q0 31 -23 49q-22 18 -57 18q-44 0 -73 -25q-31 -26 -38 -69l-202 23
q27 119 114 187q88 69 217 69q123 0 200 -62t77 -159q0 -67 -38 -122t-99 -79q47 -23 71 -63q25 -42 25 -95zM535 0l1208 1470h233l-1206 -1470h-235zM1989 178l-25 -178h-199l27 178h-358l20 158l348 479h279l-68 -467h103l-25 -170h-102zM1851 641l-202 -293h161z" />
    <glyph glyph-name="questiondown" unicode="&#xbf;" 
d="M377 440q0 -84 54 -132t147 -48q100 0 172 66t100 184l287 -61q-51 -208 -207 -329q-157 -122 -371 -122q-221 0 -356 112q-133 111 -133 298q0 180 117 307q118 129 305 153l22 164h283l-52 -346q-177 0 -272 -65q-96 -66 -96 -181zM551 1491h336l-45 -328h-336z" />
    <glyph glyph-name="Agrave" unicode="&#xc0;" 
d="M-49 0l643 1470h344l190 -1470h-288l-33 307h-424l-125 -307h-307zM780 563l-59 574l-234 -574h293zM743 1866l146 -314h-225l-293 314h372z" />
    <glyph glyph-name="Aacute" unicode="&#xc1;" 
d="M-49 0l643 1470h344l190 -1470h-288l-33 307h-424l-125 -307h-307zM780 563l-59 574l-234 -574h293zM877 1552h-240l205 314h395z" />
    <glyph glyph-name="Acircumflex" unicode="&#xc2;" 
d="M-49 0l643 1470h344l190 -1470h-288l-33 307h-424l-125 -307h-307zM780 563l-59 574l-234 -574h293zM643 1866h313l195 -314h-211l-156 140l-192 -140h-227z" />
    <glyph glyph-name="Atilde" unicode="&#xc3;" 
d="M-49 0l643 1470h344l190 -1470h-288l-33 307h-424l-125 -307h-307zM780 563l-59 574l-234 -574h293zM1010 1890h194q-23 -154 -98 -244q-77 -92 -182 -92q-36 0 -73 14q-38 14 -93 52q-43 30 -62 37q-22 8 -39 8q-36 0 -62 -28t-38 -83h-195q22 153 98 245q75 91 181 91
q40 0 75 -13q38 -14 93 -52q44 -31 60 -37q21 -8 38 -8q37 0 63 27q25 26 40 83z" />
    <glyph glyph-name="Adieresis" unicode="&#xc4;" 
d="M-49 0l643 1470h344l190 -1470h-288l-33 307h-424l-125 -307h-307zM780 563l-59 574l-234 -574h293zM696 1552h-290l36 273h291zM1110 1552h-293l39 273h291z" />
    <glyph glyph-name="Aring" unicode="&#xc5;" 
d="M502 1595q0 114 79 190q80 77 197 77q113 0 183 -68q69 -67 69 -172q0 -59 -22 -109q-21 -49 -64 -88l184 -1425h-288l-33 307h-424l-125 -307h-307l622 1421q-35 34 -53 78q-18 45 -18 96zM666 1597q0 -39 26 -62q27 -24 70 -24q44 0 75 31q29 29 29 76q0 41 -26 66
q-28 26 -70 26q-45 0 -75 -33q-29 -32 -29 -80zM780 563l-59 574l-234 -574h293z" />
    <glyph glyph-name="AE" unicode="&#xc6;" 
d="M-76 0l582 1470h821l-37 -253h-309l-47 -336h242l-35 -252h-242l-53 -375h309l-35 -254h-594l47 336h-235l-131 -336h-283zM705 1268l-269 -686h172z" />
    <glyph glyph-name="Ccedilla" unicode="&#xc7;" 
d="M756 -197q0 -83 -73 -136q-71 -52 -187 -52q-67 0 -123 19q-58 20 -101 57l103 123q24 -22 57 -36q36 -15 66 -16q30 0 50 15q19 15 19 35q0 28 -33 42q-36 16 -100 17l51 119q-188 39 -298 209q-109 169 -109 422q0 364 196 617t490 255q204 -2 340 -123
q137 -122 164 -326l-287 -86q-15 129 -77 200q-64 73 -159 73q-155 0 -265 -179q-109 -178 -109 -425q0 -176 66 -281q65 -104 179 -104q96 0 176 73q79 71 123 197l271 -113q-82 -194 -232 -305t-338 -117l-10 -22q72 -12 111 -51t39 -101z" />
    <glyph glyph-name="Egrave" unicode="&#xc8;" 
d="M35 0l207 1470h1038l-37 -260h-741l-45 -327h622l-35 -258h-624l-51 -365h741l-37 -260h-1038zM827 1866l146 -314h-225l-293 314h372z" />
    <glyph glyph-name="Eacute" unicode="&#xc9;" 
d="M35 0l207 1470h1038l-37 -260h-741l-45 -327h622l-35 -258h-624l-51 -365h741l-37 -260h-1038zM846 1552h-240l205 314h395z" />
    <glyph glyph-name="Ecircumflex" unicode="&#xca;" 
d="M35 0l207 1470h1038l-37 -260h-741l-45 -327h622l-35 -258h-624l-51 -365h741l-37 -260h-1038zM670 1866h313l195 -314h-211l-156 140l-193 -140h-227z" />
    <glyph glyph-name="Edieresis" unicode="&#xcb;" 
d="M35 0l207 1470h1038l-37 -260h-741l-45 -327h622l-35 -258h-624l-51 -365h741l-37 -260h-1038zM715 1552h-291l37 273h291zM1128 1552h-292l38 273h291z" />
    <glyph glyph-name="Igrave" unicode="&#xcc;" 
d="M727 260h375l-37 -260h-1053l37 260h375l133 950h-375l37 260h1053l-37 -260h-377zM766 1866l145 -314h-225l-293 314h373z" />
    <glyph glyph-name="Iacute" unicode="&#xcd;" 
d="M727 260h375l-37 -260h-1053l37 260h375l133 950h-375l37 260h1053l-37 -260h-377zM862 1552h-239l204 314h396z" />
    <glyph glyph-name="Icircumflex" unicode="&#xce;" 
d="M727 260h375l-37 -260h-1053l37 260h375l133 950h-375l37 260h1053l-37 -260h-377zM643 1866h313l195 -314h-211l-156 140l-192 -140h-227z" />
    <glyph glyph-name="Idieresis" unicode="&#xcf;" 
d="M727 260h375l-37 -260h-1053l37 260h375l133 950h-375l37 260h1053l-37 -260h-377zM696 1552h-290l36 273h291zM1110 1552h-293l39 273h291z" />
    <glyph glyph-name="Eth" unicode="&#xd0;" 
d="M436 0h-397l88 623h-98l37 260h98l82 587h358q292 0 445 -163t153 -469q0 -378 -208 -608t-558 -230zM420 623l-51 -365h75q213 0 338 158t125 411q0 188 -82 286q-83 99 -241 99h-80l-47 -329h245l-36 -260h-246z" />
    <glyph glyph-name="Ntilde" unicode="&#xd1;" 
d="M969 1470h280l-207 -1470h-270l-321 965l-136 -965h-280l207 1470h297l301 -915zM1010 1890h194q-23 -154 -98 -244q-77 -92 -182 -92q-36 0 -73 14q-38 14 -93 52q-43 30 -62 37q-22 8 -39 8q-36 0 -62 -28t-38 -83h-195q22 153 98 245q75 91 181 91q40 0 75 -13
q38 -14 93 -52q44 -31 60 -37q21 -8 38 -8q37 0 63 27q25 26 40 83z" />
    <glyph glyph-name="Ograve" unicode="&#xd2;" 
d="M1206 883q0 -387 -181 -646q-182 -260 -462 -260q-229 0 -357 162q-128 163 -128 449q0 387 181 646t462 259q229 0 357 -162q128 -163 128 -448zM913 874q0 176 -52 265q-53 90 -154 90q-146 0 -241 -180q-95 -181 -95 -453q0 -175 52 -264q53 -90 155 -90
q146 0 240 180q95 181 95 452zM752 1866l145 -314h-225l-293 314h373z" />
    <glyph glyph-name="Oacute" unicode="&#xd3;" 
d="M1206 883q0 -387 -181 -646q-182 -260 -462 -260q-229 0 -357 162q-128 163 -128 449q0 387 181 646t462 259q229 0 357 -162q128 -163 128 -448zM913 874q0 176 -52 265q-53 90 -154 90q-146 0 -241 -180q-95 -181 -95 -453q0 -175 52 -264q53 -90 155 -90
q146 0 240 180q95 181 95 452zM868 1552h-239l205 314h395z" />
    <glyph glyph-name="Ocircumflex" unicode="&#xd4;" 
d="M1206 883q0 -387 -181 -646q-182 -260 -462 -260q-229 0 -357 162q-128 163 -128 449q0 387 181 646t462 259q229 0 357 -162q128 -163 128 -448zM913 874q0 176 -52 265q-53 90 -154 90q-146 0 -241 -180q-95 -181 -95 -453q0 -175 52 -264q53 -90 155 -90
q146 0 240 180q95 181 95 452zM643 1866h313l195 -314h-211l-156 140l-192 -140h-227z" />
    <glyph glyph-name="Otilde" unicode="&#xd5;" 
d="M1206 883q0 -387 -181 -646q-182 -260 -462 -260q-229 0 -357 162q-128 163 -128 449q0 387 181 646t462 259q229 0 357 -162q128 -163 128 -448zM913 874q0 176 -52 265q-53 90 -154 90q-146 0 -241 -180q-95 -181 -95 -453q0 -175 52 -264q53 -90 155 -90
q146 0 240 180q95 181 95 452zM1008 1890h194q-23 -154 -98 -244q-77 -92 -182 -92q-36 0 -73 14q-38 14 -93 52q-43 30 -62 37q-22 8 -39 8q-36 0 -62 -28t-38 -83h-195q22 153 98 245q75 91 181 91q40 0 75 -13q38 -14 93 -52q44 -31 60 -37q21 -8 38 -8q37 0 63 27
q25 26 40 83z" />
    <glyph glyph-name="Odieresis" unicode="&#xd6;" 
d="M1206 883q0 -387 -181 -646q-182 -260 -462 -260q-229 0 -357 162q-128 163 -128 449q0 387 181 646t462 259q229 0 357 -162q128 -163 128 -448zM913 874q0 176 -52 265q-53 90 -154 90q-146 0 -241 -180q-95 -181 -95 -453q0 -175 52 -264q53 -90 155 -90
q146 0 240 180q95 181 95 452zM696 1552h-290l36 273h291zM1110 1552h-293l39 273h291z" />
    <glyph glyph-name="multiply" unicode="&#xd7;" 
d="M90 375l383 338l-287 338l181 159l290 -338l379 336l152 -174l-381 -336l287 -338l-183 -157l-288 336l-381 -338z" />
    <glyph glyph-name="Oslash" unicode="&#xd8;" 
d="M139 -47l-147 113l147 186q-31 72 -46 154q-15 84 -15 182q0 387 181 646t462 259q92 0 173 -29q77 -28 140 -86l111 140l149 -113l-149 -188q32 -71 46 -152q15 -84 15 -182q0 -387 -181 -646q-182 -260 -462 -260q-92 0 -173 29q-77 28 -140 86zM707 1241
q-152 0 -251 -184q-100 -186 -100 -461v-43q0 -11 2 -25l504 633q-28 40 -66 60q-39 20 -89 20zM578 229q151 0 250 185q100 186 100 460v42q0 10 -2 26l-504 -633q27 -39 66 -59q40 -21 90 -21z" />
    <glyph glyph-name="Ugrave" unicode="&#xd9;" 
d="M569 -23q-255 0 -382 154q-126 153 -87 428l129 911h297l-127 -899q-22 -158 25 -240q46 -81 162 -81q108 0 168 77t84 244l127 899h297l-127 -911q-40 -292 -182 -437t-384 -145zM778 1866l146 -314h-226l-292 314h372z" />
    <glyph glyph-name="Uacute" unicode="&#xda;" 
d="M569 -23q-255 0 -382 154q-126 153 -87 428l129 911h297l-127 -899q-22 -158 25 -240q46 -81 162 -81q108 0 168 77t84 244l127 899h297l-127 -911q-40 -292 -182 -437t-384 -145zM844 1552h-240l205 314h395z" />
    <glyph glyph-name="Ucircumflex" unicode="&#xdb;" 
d="M569 -23q-255 0 -382 154q-126 153 -87 428l129 911h297l-127 -899q-22 -158 25 -240q46 -81 162 -81q108 0 168 77t84 244l127 899h297l-127 -911q-40 -292 -182 -437t-384 -145zM643 1866h313l195 -314h-211l-156 140l-192 -140h-227z" />
    <glyph glyph-name="Udieresis" unicode="&#xdc;" 
d="M569 -23q-255 0 -382 154q-126 153 -87 428l129 911h297l-127 -899q-22 -158 25 -240q46 -81 162 -81q108 0 168 77t84 244l127 899h297l-127 -911q-40 -292 -182 -437t-384 -145zM696 1552h-290l36 273h291zM1110 1552h-293l39 273h291z" />
    <glyph glyph-name="Yacute" unicode="&#xdd;" 
d="M449 1470l210 -587l375 587h324l-586 -888l-82 -582h-303l82 582l-338 888h318zM852 1552h-240l205 314h395z" />
    <glyph glyph-name="Thorn" unicode="&#xde;" 
d="M1233 799q0 -223 -149 -366q-148 -142 -388 -142h-317l-41 -291h-303l207 1470h303l-35 -249h209q244 0 379 -111t135 -311zM690 969h-217l-59 -426h258q122 0 193 64q73 65 73 169q0 93 -65 143t-183 50z" />
    <glyph glyph-name="germandbls" unicode="&#xdf;" 
d="M344 0h-285l138 979q35 247 175 381q141 135 363 135q203 0 316 -98q114 -99 114 -260q0 -116 -61 -204q-62 -89 -172 -128q111 -50 166 -134q55 -85 55 -204q0 -211 -142 -346q-143 -135 -372 -135q-42 0 -100 5q-55 5 -99 15l31 230q46 -12 78 -16q43 -5 80 -5
q114 0 182 68t68 178q0 105 -65 162q-64 57 -181 57h-94l34 242h105q99 0 156 51t57 133q0 70 -47 112q-46 42 -125 42q-100 0 -160 -71t-78 -210z" />
    <glyph glyph-name="agrave" unicode="&#xe0;" 
d="M1092 217l-31 -217q-115 -21 -207 7q-91 27 -121 93q-51 -55 -137 -87q-84 -31 -188 -31q-165 0 -262 81q-99 83 -99 222q0 147 114 241q115 95 318 119l305 41l2 25q11 70 -29 108q-41 40 -122 41q-82 1 -139 -33q-58 -35 -82 -104l-262 65q56 145 191 227
q137 83 321 83q206 0 318 -103q111 -102 87 -274l-61 -438q-6 -38 13 -53t71 -13zM483 199q105 0 175 48t81 128l17 112l-246 -36q-90 -15 -136 -52t-46 -94q0 -52 41 -79t114 -27zM733 1470l88 -297h-215l-205 297h332z" />
    <glyph glyph-name="aacute" unicode="&#xe1;" 
d="M1092 217l-31 -217q-115 -21 -207 7q-91 27 -121 93q-51 -55 -137 -87q-84 -31 -188 -31q-165 0 -262 81q-99 83 -99 222q0 147 114 241q115 95 318 119l305 41l2 25q11 70 -29 108q-41 40 -122 41q-82 1 -139 -33q-58 -35 -82 -104l-262 65q56 145 191 227
q137 83 321 83q206 0 318 -103q111 -102 87 -274l-61 -438q-6 -38 13 -53t71 -13zM483 199q105 0 175 48t81 128l17 112l-246 -36q-90 -15 -136 -52t-46 -94q0 -52 41 -79t114 -27zM817 1173h-235l149 297h354z" />
    <glyph glyph-name="acircumflex" unicode="&#xe2;" 
d="M1092 217l-31 -217q-115 -21 -207 7q-91 27 -121 93q-51 -55 -137 -87q-84 -31 -188 -31q-165 0 -262 81q-99 83 -99 222q0 147 114 241q115 95 318 119l305 41l2 25q11 70 -29 108q-41 40 -122 41q-82 1 -139 -33q-58 -35 -82 -104l-262 65q56 145 191 227
q137 83 321 83q206 0 318 -103q111 -102 87 -274l-61 -438q-6 -38 13 -53t71 -13zM483 199q105 0 175 48t81 128l17 112l-246 -36q-90 -15 -136 -52t-46 -94q0 -52 41 -79t114 -27zM590 1470h291l161 -297h-204l-119 117l-152 -117h-223z" />
    <glyph glyph-name="atilde" unicode="&#xe3;" 
d="M1092 217l-31 -217q-115 -21 -207 7q-91 27 -121 93q-51 -55 -137 -87q-84 -31 -188 -31q-165 0 -262 81q-99 83 -99 222q0 147 114 241q115 95 318 119l305 41l2 25q11 70 -29 108q-41 40 -122 41q-82 1 -139 -33q-58 -35 -82 -104l-262 65q56 145 191 227
q137 83 321 83q206 0 318 -103q111 -102 87 -274l-61 -438q-6 -38 13 -53t71 -13zM483 199q105 0 175 48t81 128l17 112l-246 -36q-90 -15 -136 -52t-46 -94q0 -52 41 -79t114 -27zM610 1278q-31 0 -52 -24q-23 -26 -40 -81h-182q22 149 86 232q63 82 158 82q32 0 64 -12
q30 -11 83 -52q34 -24 53 -33q18 -8 31 -8q30 0 52 25t38 80h182q-23 -150 -85 -232q-63 -82 -156 -82q-30 0 -66 13q-33 12 -84 51q-33 26 -51 34q-15 7 -31 7z" />
    <glyph glyph-name="adieresis" unicode="&#xe4;" 
d="M1092 217l-31 -217q-115 -21 -207 7q-91 27 -121 93q-51 -55 -137 -87q-84 -31 -188 -31q-165 0 -262 81q-99 83 -99 222q0 147 114 241q115 95 318 119l305 41l2 25q11 70 -29 108q-41 40 -122 41q-82 1 -139 -33q-58 -35 -82 -104l-262 65q56 145 191 227
q137 83 321 83q206 0 318 -103q111 -102 87 -274l-61 -438q-6 -38 13 -53t71 -13zM483 199q105 0 175 48t81 128l17 112l-246 -36q-90 -15 -136 -52t-46 -94q0 -52 41 -79t114 -27zM647 1204h-291l37 266h291zM1044 1204h-290l37 266h290z" />
    <glyph glyph-name="aring" unicode="&#xe5;" 
d="M1092 217l-31 -217q-115 -21 -207 7q-91 27 -121 93q-51 -55 -137 -87q-84 -31 -188 -31q-165 0 -262 81q-99 83 -99 222q0 147 114 241q115 95 318 119l305 41l2 25q11 70 -29 108q-41 40 -122 41q-82 1 -139 -33q-58 -35 -82 -104l-262 65q56 145 191 227
q137 83 321 83q206 0 318 -103q111 -102 87 -274l-61 -438q-6 -38 13 -53t71 -13zM483 199q105 0 175 48t81 128l17 112l-246 -36q-90 -15 -136 -52t-46 -94q0 -52 41 -79t114 -27zM483 1360q0 95 70 165q68 68 172 68q97 0 157 -60t60 -153q0 -95 -70 -163t-174 -68
q-94 0 -154 60q-61 61 -61 151zM623 1364q0 -38 23 -61q25 -25 61 -25q40 0 67 29t27 71q0 38 -24 62t-60 24q-41 0 -67 -29q-27 -30 -27 -71z" />
    <glyph glyph-name="ae" unicode="&#xe6;" 
d="M979 373l207 -74q-50 -151 -154 -236q-106 -86 -235 -86q-86 0 -158 39q-71 38 -109 107q-52 -69 -126 -107q-69 -36 -154 -36q-122 0 -199 81q-78 83 -78 213q0 176 128 284q127 108 345 108h46l6 53q10 66 -14 106q-24 39 -74 39q-52 0 -86 -36q-37 -38 -54 -105
l-213 45q30 148 132 239q101 91 237 91q81 2 137 -28q57 -30 90 -87q57 57 124 86t136 29q172 0 261 -154q88 -152 53 -385l-13 -82h-524q-2 -14 -2 -20v-33q0 -103 35 -164q34 -59 96 -59q53 0 94 45q43 48 66 127zM895 870q-55 0 -101 -54q-46 -53 -73 -150h280
q12 94 -16 149t-90 55zM211 303q0 -51 25 -79q24 -27 69 -27q58 0 95 43q39 46 51 125l14 112h-19q-115 0 -176 -44q-59 -43 -59 -130z" />
    <glyph glyph-name="ccedilla" unicode="&#xe7;" 
d="M743 -197q0 -83 -72 -136q-71 -52 -188 -52q-67 0 -123 19t-100 57l102 123q23 -22 58 -36q36 -15 65 -16q31 0 51 15q19 15 19 35q0 27 -34 42q-36 16 -99 17l53 121q-173 37 -275 165q-102 127 -102 312q0 262 174 445q175 184 435 184q188 0 318 -90q131 -90 161 -236
l-254 -100q-18 86 -83 136t-157 50q-131 0 -219 -106t-88 -263q0 -126 66 -198t180 -72q94 0 163 48q67 47 101 139l229 -101q-52 -150 -191 -239t-325 -89h-4l-10 -22q72 -12 111 -51q38 -38 38 -101z" />
    <glyph glyph-name="egrave" unicode="&#xe8;" 
d="M592 -23q-228 0 -369 136q-139 135 -139 356q0 263 171 446t429 183q237 0 364 -154q126 -153 93 -397l-11 -72h-772q4 -124 72 -193t182 -69q88 0 156 43q70 44 104 119l222 -101q-66 -141 -198 -219t-304 -78zM666 870q-94 0 -167 -53t-110 -147h485q4 89 -53 145
q-56 55 -155 55zM754 1470l88 -296h-215l-205 296h332z" />
    <glyph glyph-name="eacute" unicode="&#xe9;" 
d="M592 -23q-228 0 -369 136q-139 135 -139 356q0 263 171 446t429 183q237 0 364 -154q126 -153 93 -397l-11 -72h-772q4 -124 72 -193t182 -69q88 0 156 43q70 44 104 119l222 -101q-66 -141 -198 -219t-304 -78zM666 870q-94 0 -167 -53t-110 -147h485q4 89 -53 145
q-56 55 -155 55zM836 1174h-236l150 296h354z" />
    <glyph glyph-name="ecircumflex" unicode="&#xea;" 
d="M592 -23q-228 0 -369 136q-139 135 -139 356q0 263 171 446t429 183q237 0 364 -154q126 -153 93 -397l-11 -72h-772q4 -124 72 -193t182 -69q88 0 156 43q70 44 104 119l222 -101q-66 -141 -198 -219t-304 -78zM666 870q-94 0 -167 -53t-110 -147h485q4 89 -53 145
q-56 55 -155 55zM616 1470h291l162 -296h-205l-119 116l-151 -116h-223z" />
    <glyph glyph-name="edieresis" unicode="&#xeb;" 
d="M592 -23q-228 0 -369 136q-139 135 -139 356q0 263 171 446t429 183q237 0 364 -154q126 -153 93 -397l-11 -72h-772q4 -124 72 -193t182 -69q88 0 156 43q70 44 104 119l222 -101q-66 -141 -198 -219t-304 -78zM666 870q-94 0 -167 -53t-110 -147h485q4 89 -53 145
q-56 55 -155 55zM672 1204h-291l37 266h291zM1069 1204h-291l37 266h291z" />
    <glyph glyph-name="igrave" unicode="&#xec;" 
d="M1069 0h-1006l35 240h365l86 598h-361l35 239h645l-118 -837h352zM766 1470l88 -296h-215l-205 296h332z" />
    <glyph glyph-name="iacute" unicode="&#xed;" 
d="M1069 0h-1006l35 240h365l86 598h-361l35 239h645l-118 -837h352zM864 1174h-235l149 296h355z" />
    <glyph glyph-name="icircumflex" unicode="&#xee;" 
d="M1069 0h-1006l35 240h365l86 598h-361l35 239h645l-118 -837h352zM635 1470h291l161 -296h-204l-119 116l-152 -116h-223z" />
    <glyph glyph-name="idieresis" unicode="&#xef;" 
d="M1069 0h-1006l35 240h365l86 598h-361l35 239h645l-118 -837h352zM690 1204h-291l37 266h291zM1087 1204h-290l37 266h290z" />
    <glyph glyph-name="eth" unicode="&#xf0;" 
d="M643 1081q63 0 103 -11q44 -12 77 -36q-11 30 -37 69q-22 34 -59 75l-397 -99l28 211l187 45q-33 26 -74 51q-59 37 -80 48l299 59q4 -3 27 -18.5t35 -24.5q36 -27 61 -47l315 78l-28 -211l-127 -31q89 -118 135 -256q45 -137 45 -297q0 -318 -159 -513
q-160 -196 -427 -196q-219 0 -351 135q-130 133 -130 363q0 263 157 435q156 171 400 171zM371 483q0 -130 55 -198q56 -70 154 -70q120 0 200 108q80 109 80 269q0 131 -55 199q-55 69 -154 69q-122 0 -201 -106t-79 -271z" />
    <glyph glyph-name="ntilde" unicode="&#xf1;" 
d="M358 0h-286l151 1077h287l-14 -104q56 62 131 93q78 32 166 32q169 0 258 -112q88 -110 61 -300l-96 -686h-287l88 633q15 98 -24 150q-39 53 -125 53q-89 0 -150 -59q-59 -57 -74 -161zM647 1278q-31 0 -52 -24q-23 -26 -40 -80h-182q22 147 86 231q63 82 157 82
q33 0 65 -12q30 -11 83 -52q34 -24 53 -33q18 -8 31 -8q30 0 52 25t38 80h182q-23 -150 -85 -232q-62 -81 -156 -81q-33 0 -66 12t-84 51q-33 26 -51 34q-15 7 -31 7z" />
    <glyph glyph-name="ograve" unicode="&#xf2;" 
d="M82 475q0 268 164 446q164 177 418 177q223 0 353 -133t130 -365q0 -269 -163 -445q-164 -178 -419 -178q-220 0 -352 135q-131 134 -131 363zM367 483q0 -130 56 -198q58 -70 157 -70q122 0 202 108q80 109 80 269q0 131 -55 199q-55 69 -156 69q-126 0 -205 -107
t-79 -270zM750 1470l88 -296h-215l-205 296h332z" />
    <glyph glyph-name="oacute" unicode="&#xf3;" 
d="M82 475q0 268 164 446q164 177 418 177q223 0 353 -133t130 -365q0 -269 -163 -445q-164 -178 -419 -178q-220 0 -352 135q-131 134 -131 363zM367 483q0 -130 56 -198q58 -70 157 -70q122 0 202 108q80 109 80 269q0 131 -55 199q-55 69 -156 69q-126 0 -205 -107
t-79 -270zM815 1174h-235l149 296h354z" />
    <glyph glyph-name="ocircumflex" unicode="&#xf4;" 
d="M82 475q0 268 164 446q164 177 418 177q223 0 353 -133t130 -365q0 -269 -163 -445q-164 -178 -419 -178q-220 0 -352 135q-131 134 -131 363zM367 483q0 -130 56 -198q58 -70 157 -70q122 0 202 108q80 109 80 269q0 131 -55 199q-55 69 -156 69q-126 0 -205 -107
t-79 -270zM600 1470h291l162 -296h-205l-119 116l-151 -116h-224z" />
    <glyph glyph-name="otilde" unicode="&#xf5;" 
d="M82 475q0 268 164 446q164 177 418 177q223 0 353 -133t130 -365q0 -269 -163 -445q-164 -178 -419 -178q-220 0 -352 135q-131 134 -131 363zM367 483q0 -130 56 -198q58 -70 157 -70q122 0 202 108q80 109 80 269q0 131 -55 199q-55 69 -156 69q-126 0 -205 -107
t-79 -270zM596 1278q-31 0 -52 -24q-23 -26 -40 -80h-182q22 147 86 231q63 82 157 82q33 0 65 -12q30 -11 83 -52q34 -24 53 -33q18 -8 31 -8q30 0 52 25t38 80h182q-23 -150 -85 -232q-62 -81 -157 -81q-32 0 -65 12t-84 51q-33 26 -51 34q-15 7 -31 7z" />
    <glyph glyph-name="odieresis" unicode="&#xf6;" 
d="M82 475q0 268 164 446q164 177 418 177q223 0 353 -133t130 -365q0 -269 -163 -445q-164 -178 -419 -178q-220 0 -352 135q-131 134 -131 363zM367 483q0 -130 56 -198q58 -70 157 -70q122 0 202 108q80 109 80 269q0 131 -55 199q-55 69 -156 69q-126 0 -205 -107
t-79 -270zM655 1204h-290l36 266h291zM1053 1204h-291l37 266h291z" />
    <glyph glyph-name="divide" unicode="&#xf7;" 
d="M831 997h-307l41 297h307zM1157 586h-1073l35 237h1073zM707 115h-308l41 297h308z" />
    <glyph glyph-name="oslash" unicode="&#xf8;" 
d="M1147 600q0 -269 -163 -445q-164 -178 -419 -178q-81 0 -155 20q-73 20 -129 58l-111 -112l-137 127l119 123q-35 58 -53 129q-17 68 -17 153q0 268 164 446q164 177 418 177q82 0 156 -20q75 -20 130 -58l109 113l139 -127l-119 -123q32 -57 50 -131q18 -72 18 -152z
M653 877q-130 0 -216 -113q-85 -112 -85 -285q0 -15 2 -39q1 -6 2.5 -17.5t1.5 -16.5l420 436q-26 16 -58 25q-35 10 -67 10zM575 201q132 0 217 112t85 283q0 19 -1 29l-4 43l-419 -432q29 -17 57 -26q30 -9 65 -9z" />
    <glyph glyph-name="ugrave" unicode="&#xf9;" 
d="M870 1077h287l-151 -1077h-287l14 104q-56 -62 -131 -93t-166 -31q-170 0 -258 111q-88 110 -61 300l96 686h287l-88 -633q-15 -98 24 -152t125 -54q91 0 150 59q58 58 73 164zM737 1470l88 -296h-215l-204 296h331z" />
    <glyph glyph-name="uacute" unicode="&#xfa;" 
d="M870 1077h287l-151 -1077h-287l14 104q-56 -62 -131 -93t-166 -31q-170 0 -258 111q-88 110 -61 300l96 686h287l-88 -633q-15 -98 24 -152t125 -54q91 0 150 59q58 58 73 164zM821 1174h-235l149 296h355z" />
    <glyph glyph-name="ucircumflex" unicode="&#xfb;" 
d="M870 1077h287l-151 -1077h-287l14 104q-56 -62 -131 -93t-166 -31q-170 0 -258 111q-88 110 -61 300l96 686h287l-88 -633q-15 -98 24 -152t125 -54q91 0 150 59q58 58 73 164zM594 1470h291l162 -296h-205l-119 116l-152 -116h-223z" />
    <glyph glyph-name="udieresis" unicode="&#xfc;" 
d="M870 1077h287l-151 -1077h-287l14 104q-56 -62 -131 -93t-166 -31q-170 0 -258 111q-88 110 -61 300l96 686h287l-88 -633q-15 -98 24 -152t125 -54q91 0 150 59q58 58 73 164zM649 1204h-291l37 266h291zM1047 1204h-291l37 266h290z" />
    <glyph glyph-name="yacute" unicode="&#xfd;" 
d="M1260 1077l-633 -1136q-112 -199 -199 -257q-89 -59 -235 -59q-21 0 -63 2q-32 2 -62 6l30 232q8 -1 22.5 -2.5t21.5 -1.5q28 -2 40 -2q59 0 94 21q36 22 66 77l43 80l-266 1040h287l165 -719l390 719h299zM823 1174h-235l149 296h355z" />
    <glyph glyph-name="thorn" unicode="&#xfe;" 
d="M766 1098q177 0 280 -130t103 -352q0 -268 -142 -453q-143 -186 -358 -186q-95 0 -173 38q-77 38 -118 108l-67 -488h-287l258 1835h287l-72 -501q45 60 123 95q75 34 166 34zM668 852q-101 0 -167 -75q-67 -76 -83 -206l-8 -59q-16 -127 39 -208t153 -81q112 0 185 106
t73 263q0 128 -49 193q-50 67 -143 67z" />
    <glyph glyph-name="ydieresis" unicode="&#xff;" 
d="M1260 1077l-633 -1136q-112 -199 -199 -257q-89 -59 -235 -59q-21 0 -63 2q-32 2 -62 6l30 232q8 -1 22.5 -2.5t21.5 -1.5q28 -2 40 -2q59 0 94 21q36 22 66 77l43 80l-266 1040h287l165 -719l390 719h299zM655 1204h-290l36 266h291zM1053 1204h-291l37 266h291z" />
    <glyph glyph-name="Amacron" unicode="&#x100;" 
d="M-49 0l643 1470h344l190 -1470h-288l-33 307h-424l-125 -307h-307zM780 563l-59 574l-234 -574h293zM1139 1794l-33 -225h-696l32 225h697z" />
    <glyph glyph-name="amacron" unicode="&#x101;" 
d="M1092 217l-31 -217q-115 -21 -207 7q-91 27 -121 93q-51 -55 -137 -87q-84 -31 -188 -31q-165 0 -262 81q-99 83 -99 222q0 147 114 241q115 95 318 119l305 41l2 25q11 70 -29 108q-41 40 -122 41q-82 1 -139 -33q-58 -35 -82 -104l-262 65q56 145 191 227
q137 83 321 83q206 0 318 -103q111 -102 87 -274l-61 -438q-6 -38 13 -53t71 -13zM483 199q105 0 175 48t81 128l17 112l-246 -36q-90 -15 -136 -52t-46 -94q0 -52 41 -79t114 -27zM1049 1425l-31 -217h-627l31 217h627z" />
    <glyph glyph-name="Abreve" unicode="&#x102;" 
d="M-49 0l643 1470h344l190 -1470h-288l-33 307h-424l-125 -307h-307zM780 563l-59 574l-234 -574h293zM782 1548q-159 0 -251 89q-90 87 -82 233h213q0 -64 35 -100q36 -37 96 -37q61 0 104 37q42 36 53 100h203q-21 -154 -117 -238t-254 -84z" />
    <glyph glyph-name="abreve" unicode="&#x103;" 
d="M1092 217l-31 -217q-115 -21 -207 7q-91 27 -121 93q-51 -55 -137 -87q-84 -31 -188 -31q-165 0 -262 81q-99 83 -99 222q0 147 114 241q115 95 318 119l305 41l2 25q11 70 -29 108q-41 40 -122 41q-82 1 -139 -33q-58 -35 -82 -104l-262 65q56 145 191 227
q137 83 321 83q206 0 318 -103q111 -102 87 -274l-61 -438q-6 -38 13 -53t71 -13zM483 199q105 0 175 48t81 128l17 112l-246 -36q-90 -15 -136 -52t-46 -94q0 -52 41 -79t114 -27zM729 1356q49 0 83 30t42 84h197q-17 -147 -102 -225t-226 -78q-147 0 -226 79t-73 224h194
q2 -54 32 -84t79 -30z" />
    <glyph glyph-name="Aogonek" unicode="&#x104;" 
d="M825 -377q-91 0 -149 47t-58 125q0 73 56 143q54 68 160 125l-27 244h-424l-125 -307h-307l643 1470h344l190 -1470h-155q-74 -39 -114 -79q-38 -38 -38 -73q0 -23 20 -38q19 -15 52 -15q8 0 32 2q15 1 42 8l-25 -165q-53 -11 -62 -13q-24 -4 -55 -4zM780 563l-59 574
l-234 -574h293z" />
    <glyph glyph-name="aogonek" unicode="&#x105;" 
d="M1032 -195l-24 -165q-49 -11 -63 -13q-24 -4 -52 -4q-92 0 -150 47q-57 46 -57 125q0 59 38 118q37 58 105 103q-32 12 -57 35t-39 49q-50 -56 -136 -87t-189 -31q-165 0 -262 81q-99 83 -99 222q0 147 114 241q115 95 318 119l305 41l2 25q11 70 -29 108q-41 40 -122 41
q-83 2 -139 -34q-59 -37 -82 -103l-262 65q56 145 191 227q137 83 321 83q206 0 318 -103q111 -102 87 -274l-61 -438q-6 -38 13 -53t71 -13l-31 -217q-83 -34 -129 -74q-45 -39 -45 -78q0 -23 19 -38t52 -15q9 0 31 2q12 1 43 8zM483 199q105 0 175 48t81 128l17 112
l-246 -36q-90 -15 -136 -52t-46 -94q0 -52 41 -79t114 -27z" />
    <glyph glyph-name="Cacute" unicode="&#x106;" 
d="M764 1493q204 -2 340 -123q137 -122 164 -326l-287 -86q-15 129 -77 200q-64 73 -159 73q-155 0 -265 -179q-109 -178 -109 -425q0 -176 66 -281q65 -104 179 -104q96 0 176 73q79 71 123 197l271 -113q-83 -200 -238 -310q-157 -112 -350 -112q-234 0 -378 177
q-142 175 -142 467q0 364 196 617t490 255zM922 1552h-240l205 314h395z" />
    <glyph glyph-name="cacute" unicode="&#x107;" 
d="M692 858q-131 0 -219 -106t-88 -263q0 -126 66 -198t180 -72q94 0 163 48q67 47 101 139l229 -101q-52 -150 -191 -239t-325 -89q-227 0 -369 137q-141 136 -141 355q0 262 174 445q175 184 435 184q188 0 318 -90q131 -90 161 -236l-254 -100q-18 86 -83 136t-157 50z
M850 1174h-236l150 296h354z" />
    <glyph glyph-name="Ccircumflex" unicode="&#x108;" 
d="M764 1493q204 -2 340 -123q137 -122 164 -326l-287 -86q-15 129 -77 200q-64 73 -159 73q-155 0 -265 -179q-109 -178 -109 -425q0 -176 66 -281q65 -104 179 -104q96 0 176 73q79 71 123 197l271 -113q-83 -200 -238 -310q-157 -112 -350 -112q-234 0 -378 177
q-142 175 -142 467q0 364 196 617t490 255zM702 1866h314l194 -314h-211l-155 140l-193 -140h-227z" />
    <glyph glyph-name="ccircumflex" unicode="&#x109;" 
d="M692 858q-131 0 -219 -106t-88 -263q0 -126 66 -198t180 -72q94 0 163 48q67 47 101 139l229 -101q-52 -150 -191 -239t-325 -89q-227 0 -369 137q-141 136 -141 355q0 262 174 445q175 184 435 184q188 0 318 -90q131 -90 161 -236l-254 -100q-18 86 -83 136t-157 50z
M643 1470h291l162 -296h-205l-119 116l-151 -116h-224z" />
    <glyph glyph-name="Cdotaccent" unicode="&#x10a;" 
d="M764 1493q204 -2 340 -123q137 -122 164 -326l-287 -86q-15 129 -77 200q-64 73 -159 73q-155 0 -265 -179q-109 -178 -109 -425q0 -176 66 -281q65 -104 179 -104q96 0 176 73q79 71 123 197l271 -113q-83 -200 -238 -310q-157 -112 -350 -112q-234 0 -378 177
q-142 175 -142 467q0 364 196 617t490 255zM971 1552h-301l39 273h299z" />
    <glyph glyph-name="cdotaccent" unicode="&#x10b;" 
d="M692 858q-131 0 -219 -106t-88 -263q0 -126 66 -198t180 -72q94 0 163 48q67 47 101 139l229 -101q-52 -150 -191 -239t-325 -89q-227 0 -369 137q-141 136 -141 355q0 262 174 445q175 184 435 184q188 0 318 -90q131 -90 161 -236l-254 -100q-18 86 -83 136t-157 50z
M899 1204h-295l37 266h295z" />
    <glyph glyph-name="Ccaron" unicode="&#x10c;" 
d="M764 1493q204 -2 340 -123q137 -122 164 -326l-287 -86q-15 129 -77 200q-64 73 -159 73q-155 0 -265 -179q-109 -178 -109 -425q0 -176 66 -281q65 -104 179 -104q96 0 176 73q79 71 123 197l271 -113q-83 -200 -238 -310q-157 -112 -350 -112q-234 0 -378 177
q-142 175 -142 467q0 364 196 617t490 255zM1260 1866l-281 -314h-313l-193 314h209l156 -140l192 140h230z" />
    <glyph glyph-name="ccaron" unicode="&#x10d;" 
d="M692 858q-131 0 -219 -106t-88 -263q0 -126 66 -198t180 -72q94 0 163 48q67 47 101 139l229 -101q-52 -150 -191 -239t-325 -89q-227 0 -369 137q-141 136 -141 355q0 262 174 445q175 184 435 184q188 0 318 -90q131 -90 161 -236l-254 -100q-18 86 -83 136t-157 50z
M1147 1470l-246 -296h-291l-164 296h207l117 -114l154 114h223z" />
    <glyph glyph-name="Dcaron" unicode="&#x10e;" 
d="M436 0h-401l207 1470h362q292 0 445 -163t153 -469q0 -378 -208 -608t-558 -230zM500 1212l-135 -954h79q213 0 338 158t125 411q0 188 -82 286q-83 99 -241 99h-84zM1221 1866l-281 -314h-313l-193 314h209l156 -140l192 140h230z" />
    <glyph glyph-name="dcaron" unicode="&#x10f;" 
d="M1292 1073h-162l89 397h264zM369 -23q-160 0 -252 128t-92 346q0 269 136 457q137 190 339 190q84 0 148 -37t102 -107l73 516h277l-209 -1470h-275l15 106q-44 -60 -114 -95q-68 -34 -148 -34zM690 504l8 61q18 131 -26 212q-45 83 -131 83q-99 0 -169 -115
q-69 -114 -69 -274q0 -124 41 -189t121 -65q88 0 148 77q61 77 77 210z" />
    <glyph glyph-name="Dcroat" unicode="&#x110;" 
d="M436 0h-397l88 623h-98l37 260h98l82 587h358q292 0 445 -163t153 -469q0 -378 -208 -608t-558 -230zM420 623l-51 -365h75q213 0 338 158t125 411q0 188 -82 286q-83 99 -241 99h-80l-47 -329h245l-36 -260h-246z" />
    <glyph glyph-name="dcroat" unicode="&#x111;" 
d="M463 -23q-175 0 -280 132q-103 130 -103 350q0 268 142 453q142 186 358 186q95 0 173 -38q75 -37 117 -108l29 203h-221l29 209h221l14 106h289l-14 -106h108l-29 -209h-110l-164 -1155h-287l17 109q-48 -63 -123 -97q-78 -35 -166 -35zM561 223q101 0 168 75t84 206
l6 59q16 126 -38 208q-54 81 -154 81q-114 0 -185 -104t-71 -263q0 -127 49 -194q50 -68 141 -68z" />
    <glyph glyph-name="Emacron" unicode="&#x112;" 
d="M35 0l207 1470h1038l-37 -260h-741l-45 -327h622l-35 -258h-624l-51 -365h741l-37 -260h-1038zM1155 1794l-33 -225h-696l33 225h696z" />
    <glyph glyph-name="emacron" unicode="&#x113;" 
d="M592 -23q-228 0 -369 136q-139 135 -139 356q0 263 171 446t429 183q237 0 364 -154q126 -153 93 -397l-11 -72h-772q4 -124 72 -193t182 -69q88 0 156 43q70 44 104 119l222 -101q-66 -141 -198 -219t-304 -78zM666 870q-94 0 -167 -53t-110 -147h485q4 89 -53 145
q-56 55 -155 55zM1065 1425l-31 -217h-626l30 217h627z" />
    <glyph glyph-name="Ebreve" unicode="&#x114;" 
d="M35 0l207 1470h1038l-37 -260h-741l-45 -327h622l-35 -258h-624l-51 -365h741l-37 -260h-1038zM811 1548q-159 0 -251 89q-91 88 -83 233h213q0 -62 36 -100q36 -37 95 -37q62 0 105 37q42 36 53 100h203q-21 -154 -117 -238t-254 -84z" />
    <glyph glyph-name="ebreve" unicode="&#x115;" 
d="M592 -23q-228 0 -369 136q-139 135 -139 356q0 263 171 446t429 183q237 0 364 -154q126 -153 93 -397l-11 -72h-772q4 -124 72 -193t182 -69q88 0 156 43q70 44 104 119l222 -101q-66 -141 -198 -219t-304 -78zM666 870q-94 0 -167 -53t-110 -147h485q4 89 -53 145
q-56 55 -155 55zM754 1356q48 0 83 30q34 30 42 84h196q-17 -148 -101 -225q-86 -78 -226 -78q-148 0 -227 79q-78 78 -72 224h194q2 -54 32 -84t79 -30z" />
    <glyph glyph-name="Edotaccent" unicode="&#x116;" 
d="M35 0l207 1470h1038l-37 -260h-741l-45 -327h622l-35 -258h-624l-51 -365h741l-37 -260h-1038zM934 1552h-301l39 273h299z" />
    <glyph glyph-name="edotaccent" unicode="&#x117;" 
d="M592 -23q-228 0 -369 136q-139 135 -139 356q0 263 171 446t429 183q237 0 364 -154q126 -153 93 -397l-11 -72h-772q4 -124 72 -193t182 -69q88 0 156 43q70 44 104 119l222 -101q-66 -141 -198 -219t-304 -78zM666 870q-94 0 -167 -53t-110 -147h485q4 89 -53 145
q-56 55 -155 55zM866 1204h-295l37 266h295z" />
    <glyph glyph-name="Eogonek" unicode="&#x118;" 
d="M815 -377q-91 0 -149 47t-58 125q0 56 30 107q31 53 89 98h-692l207 1470h1038l-37 -260h-741l-45 -327h622l-35 -258h-624l-51 -365h741l-37 -260h-110q-74 -39 -114 -79q-38 -38 -38 -73q0 -23 19 -38t53 -15q7 0 31 2q15 1 42 8l-24 -165q-49 -11 -63 -13
q-24 -4 -54 -4z" />
    <glyph glyph-name="eogonek" unicode="&#x119;" 
d="M793 8q-101 -39 -144 -77q-47 -41 -47 -83q0 -23 20 -38t52 -15q8 0 32 2q15 1 42 8l-25 -165q-49 -11 -63 -13q-24 -4 -54 -4q-90 0 -148 47q-57 46 -57 125q0 47 25 97q24 48 74 92q-195 27 -304 156q-112 132 -112 329q0 263 171 446t429 183q237 0 364 -154
q126 -153 93 -397l-11 -72h-772q4 -124 72 -193t182 -69q88 0 156 43q70 44 104 119l222 -101q-42 -92 -116 -158q-72 -64 -185 -108zM666 870q-94 0 -167 -53t-110 -147h485q4 89 -53 145q-56 55 -155 55z" />
    <glyph glyph-name="Ecaron" unicode="&#x11a;" 
d="M35 0l207 1470h1038l-37 -260h-741l-45 -327h622l-35 -258h-624l-51 -365h741l-37 -260h-1038zM1223 1866l-281 -314h-313l-193 314h209l156 -140l192 140h230z" />
    <glyph glyph-name="ecaron" unicode="&#x11b;" 
d="M592 -23q-228 0 -369 136q-139 135 -139 356q0 263 171 446t429 183q237 0 364 -154q126 -153 93 -397l-11 -72h-772q4 -124 72 -193t182 -69q88 0 156 43q70 44 104 119l222 -101q-66 -141 -198 -219t-304 -78zM666 870q-94 0 -167 -53t-110 -147h485q4 89 -53 145
q-56 55 -155 55zM1114 1470l-246 -296h-290l-164 296h207l116 -114l154 114h223z" />
    <glyph glyph-name="Gcircumflex" unicode="&#x11c;" 
d="M1075 0h-239l18 131q-47 -72 -130 -113q-84 -41 -183 -41q-213 0 -338 175t-125 460q0 161 43 309q44 152 125 271q94 141 227 222q130 79 277 79q201 0 322 -115q119 -113 140 -327l-278 -82q-6 127 -57 193q-52 67 -142 67q-143 0 -255 -187q-111 -186 -111 -419
q0 -178 61 -279q62 -102 168 -102q103 0 182 88q81 91 99 217h-267l35 256h541zM680 1866h313l195 -314h-211l-156 140l-192 -140h-228z" />
    <glyph glyph-name="gcircumflex" unicode="&#x11d;" 
d="M1176 1077l-136 -964q-33 -242 -180 -371t-391 -129q-200 0 -330 83q-128 82 -166 236l260 74q23 -80 92 -125t164 -45q111 0 178 64t83 186l10 68q-53 -63 -122 -93q-70 -30 -157 -30q-185 0 -297 127t-112 334q0 255 145 430q146 176 367 176q99 0 174 -37t116 -105
l17 121h285zM817 547l2 28q12 129 -40 205t-154 76q-116 0 -190 -98q-75 -99 -75 -248q0 -113 52 -176q51 -62 149 -62q106 0 175 74t81 201zM604 1470h291l162 -296h-205l-119 116l-151 -116h-224z" />
    <glyph glyph-name="Gbreve" unicode="&#x11e;" 
d="M1075 0h-239l18 131q-47 -72 -130 -113q-84 -41 -183 -41q-213 0 -338 175t-125 460q0 161 43 309q44 152 125 271q94 141 227 222q130 79 277 79q201 0 322 -115q119 -113 140 -327l-278 -82q-6 127 -57 193q-52 67 -142 67q-143 0 -255 -187q-111 -186 -111 -419
q0 -178 61 -279q62 -102 168 -102q103 0 182 88q81 91 99 217h-267l35 256h541zM815 1548q-159 0 -251 89q-91 88 -83 233h213q0 -62 36 -100q36 -37 95 -37q62 0 105 37q42 36 53 100h203q-21 -154 -117 -238t-254 -84z" />
    <glyph glyph-name="gbreve" unicode="&#x11f;" 
d="M1176 1077l-136 -964q-33 -242 -180 -371t-391 -129q-200 0 -330 83q-128 82 -166 236l260 74q23 -80 92 -125t164 -45q111 0 178 64t83 186l10 68q-53 -63 -122 -93q-70 -30 -157 -30q-185 0 -297 127t-112 334q0 255 145 430q146 176 367 176q99 0 174 -37t116 -105
l17 121h285zM817 547l2 28q12 129 -40 205t-154 76q-116 0 -190 -98q-75 -99 -75 -248q0 -113 52 -176q51 -62 149 -62q106 0 175 74t81 201zM743 1356q49 0 83 30t42 84h197q-17 -148 -101 -225q-86 -78 -227 -78q-147 0 -226 79t-73 224h195q2 -54 32 -84t78 -30z" />
    <glyph glyph-name="Gdotaccent" unicode="&#x120;" 
d="M1075 0h-239l18 131q-47 -72 -130 -113q-84 -41 -183 -41q-213 0 -338 175t-125 460q0 161 43 309q44 152 125 271q94 141 227 222q130 79 277 79q201 0 322 -115q119 -113 140 -327l-278 -82q-6 127 -57 193q-52 67 -142 67q-143 0 -255 -187q-111 -186 -111 -419
q0 -178 61 -279q62 -102 168 -102q103 0 182 88q81 91 99 217h-267l35 256h541zM944 1552h-301l39 273h299z" />
    <glyph glyph-name="gdotaccent" unicode="&#x121;" 
d="M1176 1077l-136 -964q-33 -242 -180 -371t-391 -129q-200 0 -330 83q-128 82 -166 236l260 74q23 -80 92 -125t164 -45q111 0 178 64t83 186l10 68q-53 -63 -122 -93q-70 -30 -157 -30q-185 0 -297 127t-112 334q0 255 145 430q146 176 367 176q99 0 174 -37t116 -105
l17 121h285zM817 547l2 28q12 129 -40 205t-154 76q-116 0 -190 -98q-75 -99 -75 -248q0 -113 52 -176q51 -62 149 -62q106 0 175 74t81 201zM862 1204h-295l37 266h295z" />
    <glyph glyph-name="uni0122" unicode="&#x122;" 
d="M1075 0h-239l18 131q-47 -72 -130 -113q-84 -41 -183 -41q-213 0 -338 175t-125 460q0 161 43 309q44 152 125 271q94 141 227 222q130 79 277 79q201 0 322 -115q119 -113 140 -327l-278 -82q-6 127 -57 193q-52 67 -142 67q-143 0 -255 -187q-111 -186 -111 -419
q0 -178 61 -279q62 -102 168 -102q103 0 182 88q81 91 99 217h-267l35 256h541zM487 -246h-104l23 174h286l-20 -141q-15 -106 -98 -163q-81 -56 -218 -48l17 113q49 -4 79 12q29 16 35 53z" />
    <glyph glyph-name="uni0123" unicode="&#x123;" 
d="M1176 1077l-136 -964q-33 -242 -180 -371t-391 -129q-200 0 -330 83q-128 82 -166 236l260 74q23 -80 92 -125t164 -45q111 0 178 64t83 186l10 68q-53 -63 -122 -93q-70 -30 -157 -30q-185 0 -297 127t-112 334q0 255 145 430q146 176 367 176q99 0 174 -37t116 -105
l17 121h285zM817 547l2 28q12 129 -40 205t-154 76q-116 0 -190 -98q-75 -99 -75 -248q0 -113 52 -176q51 -62 149 -62q106 0 175 74t81 201zM768 1348h104l-24 -174h-285l21 141q15 108 97 165q81 56 218 48l-16 -115q-49 4 -79 -12q-30 -17 -36 -53z" />
    <glyph glyph-name="Hcircumflex" unicode="&#x124;" 
d="M864 885l82 585h303l-207 -1470h-303l88 625h-403l-86 -625h-303l207 1470h303l-84 -585h403zM643 1866h313l195 -314h-211l-156 140l-192 -140h-227z" />
    <glyph glyph-name="hcircumflex" unicode="&#x125;" 
d="M358 0h-286l207 1470h286l-69 -497q56 62 131 93q78 32 166 32q169 0 258 -112q88 -110 61 -300l-96 -686h-287l88 633q15 98 -24 150q-39 53 -125 53q-89 0 -150 -59q-59 -57 -74 -161zM655 1919h314l194 -313h-211l-155 139l-193 -139h-227z" />
    <glyph glyph-name="Hbar" unicode="&#x126;" 
d="M1309 1208l-37 -256h-105l-133 -952h-299l70 485h-395l-68 -485h-299l133 952h-104l37 256h104l37 262h299l-37 -262h393l37 262h299l-37 -262h105zM475 952l-29 -211h394l28 211h-393z" />
    <glyph glyph-name="hbar" unicode="&#x127;" 
d="M358 0h-286l161 1155h-110l29 209h112l15 106h286l-14 -106h229l-30 -209h-230l-24 -182q56 62 131 93q78 32 166 32q169 0 258 -112q88 -110 61 -300l-96 -686h-287l88 633q15 98 -24 150q-39 53 -125 53q-89 0 -150 -59q-59 -57 -74 -161z" />
    <glyph glyph-name="Itilde" unicode="&#x128;" 
d="M727 260h375l-37 -260h-1053l37 260h375l133 950h-375l37 260h1053l-37 -260h-377zM1008 1890h194q-23 -154 -98 -244q-77 -92 -182 -92q-36 0 -73 14q-38 14 -93 52q-43 30 -62 37q-22 8 -39 8q-36 0 -62 -28t-38 -83h-195q22 153 98 245q75 91 181 91q40 0 75 -13
q38 -14 93 -52q44 -31 60 -37q21 -8 38 -8q37 0 63 27q25 26 40 83z" />
    <glyph glyph-name="itilde" unicode="&#x129;" 
d="M1069 0h-1006l35 240h365l86 598h-361l35 239h645l-118 -837h352zM659 1278q-31 0 -52 -24q-23 -26 -40 -80h-182q22 147 86 231q63 82 158 82q33 0 64 -12q30 -11 83 -52q34 -24 53 -33q18 -8 31 -8q30 0 52 25t38 80h183q-23 -150 -85 -232q-62 -81 -157 -81
q-33 0 -66 12t-84 51q-33 26 -51 34q-15 7 -31 7z" />
    <glyph glyph-name="Imacron" unicode="&#x12a;" 
d="M727 260h375l-37 -260h-1053l37 260h375l133 950h-375l37 260h1053l-37 -260h-377zM1139 1794l-33 -225h-696l32 225h697z" />
    <glyph glyph-name="imacron" unicode="&#x12b;" 
d="M1069 0h-1006l35 240h365l86 598h-361l35 239h645l-118 -837h352zM1087 1425l-30 -217h-627l31 217h626z" />
    <glyph glyph-name="Ibreve" unicode="&#x12c;" 
d="M727 260h375l-37 -260h-1053l37 260h375l133 950h-375l37 260h1053l-37 -260h-377zM782 1548q-159 0 -251 89q-90 87 -82 233h213q0 -64 35 -100q36 -37 96 -37q61 0 104 37q42 36 53 100h203q-21 -154 -117 -238t-254 -84z" />
    <glyph glyph-name="ibreve" unicode="&#x12d;" 
d="M1069 0h-1006l35 240h365l86 598h-361l35 239h645l-118 -837h352zM772 1356q49 0 83 30t42 84h197q-16 -147 -102 -225t-226 -78q-147 0 -226 79t-73 224h195q2 -55 31 -84q30 -30 79 -30z" />
    <glyph glyph-name="Iogonek" unicode="&#x12e;" 
d="M528 -377q-91 0 -149 47q-57 46 -57 125q0 58 29 107q31 53 89 98h-428l37 260h375l133 950h-375l37 260h1053l-37 -260h-377l-131 -950h375l-37 -260h-389q-74 -39 -114 -79q-38 -38 -38 -73q0 -23 20 -38t52 -15q8 0 32 2q15 1 42 8l-25 -165q-53 -11 -62 -13
q-24 -4 -55 -4z" />
    <glyph glyph-name="iogonek" unicode="&#x12f;" 
d="M891 1204h-293l37 266h293zM469 0h-406l35 240h365l86 598h-361l35 239h645l-118 -837h352l-33 -240h-364q-74 -39 -114 -79q-38 -38 -38 -73q0 -23 19 -38q20 -15 53 -15q7 0 31 2q15 1 42 8l-24 -165q-49 -11 -63 -13q-24 -4 -54 -4q-91 0 -149 47t-58 125q0 56 30 107
q31 53 89 98z" />
    <glyph glyph-name="Idotaccent" unicode="&#x130;" 
d="M727 260h375l-37 -260h-1053l37 260h375l133 950h-375l37 260h1053l-37 -260h-377zM907 1552h-301l39 273h299z" />
    <glyph glyph-name="dotlessi" unicode="&#x131;" 
d="M1069 0h-1006l35 240h365l86 598h-361l35 239h645l-118 -837h352z" />
    <glyph glyph-name="Jcircumflex" unicode="&#x134;" 
d="M389 -18q-74 0 -155 6t-144 18l41 283q81 -14 127 -19q60 -6 121 -6q195 0 285 69t112 236l90 641h-528l37 260h831l-131 -940q-40 -281 -208 -415q-166 -133 -478 -133zM936 1866h313l195 -314h-211l-156 140l-192 -140h-228z" />
    <glyph glyph-name="jcircumflex" unicode="&#x135;" horiz-adv-x="1224" 
d="M356 -131q120 0 184 47q61 45 76 150l109 772h-489l34 239h774l-147 -1044q-28 -201 -170 -309q-142 -109 -369 -109q-76 0 -164 12q-86 12 -147 31l35 248q91 -21 148 -28q69 -9 126 -9zM815 1470h291l162 -296h-205l-119 116l-151 -116h-224z" />
    <glyph glyph-name="uni0136" unicode="&#x136;" 
d="M244 1470h297l-78 -552l532 552h353l-594 -612l399 -858h-322l-299 631l-129 -131l-69 -500h-297zM492 -246h-105l23 174h286l-20 -141q-15 -106 -97 -163q-81 -56 -219 -48l17 113q49 -4 79 12q30 17 36 53z" />
    <glyph glyph-name="uni0137" unicode="&#x137;" 
d="M279 1470h286l-116 -823l446 430h348l-450 -413l325 -664h-317l-228 463l-172 -158l-43 -305h-286zM494 -246h-105l23 174h286l-20 -141q-15 -106 -97 -163q-81 -56 -219 -48l17 113q49 -4 79 12q30 17 36 53z" />
    <glyph glyph-name="kgreenlandic" unicode="&#x138;" 
d="M223 1077h287l-61 -430l446 430h348l-450 -413l325 -664h-317l-228 463l-172 -158l-43 -305h-286z" />
    <glyph glyph-name="Lacute" unicode="&#x139;" 
d="M1063 0h-977l207 1470h301l-170 -1210h676zM582 1552h-240l205 314h395z" />
    <glyph glyph-name="lacute" unicode="&#x13a;" 
d="M1069 0h-1006l35 240h365l141 991h-358l33 239h645l-174 -1230h352zM918 1624h-240l205 313h395z" />
    <glyph glyph-name="uni013B" unicode="&#x13b;" 
d="M1063 0h-977l207 1470h301l-170 -1210h676zM498 -246h-105l23 174h286l-20 -141q-15 -106 -97 -163q-81 -56 -218 -48l16 113q49 -4 79 12q30 17 36 53z" />
    <glyph glyph-name="uni013C" unicode="&#x13c;" 
d="M1069 0h-1006l35 240h365l141 991h-358l33 239h645l-174 -1230h352zM504 -246h-105l23 174h287l-21 -141q-15 -106 -97 -163q-81 -56 -218 -48l16 113q49 -4 79 12q30 17 36 53z" />
    <glyph glyph-name="Lcaron" unicode="&#x13d;" 
d="M1063 0h-977l207 1470h301l-170 -1210h676zM950 1073h-178l94 397h283z" />
    <glyph glyph-name="lcaron" unicode="&#x13e;" 
d="M1069 0h-1006l35 240h365l141 991h-358l33 239h645l-174 -1230h352zM1120 1073h-178l94 397h283z" />
    <glyph glyph-name="Ldot" unicode="&#x13f;" 
d="M1063 0h-977l207 1470h301l-170 -1210h676zM1090 651h-295l36 267h295z" />
    <glyph glyph-name="ldot" unicode="&#x140;" 
d="M1069 0h-1006l35 240h365l141 991h-358l33 239h645l-174 -1230h352zM1419 600h-295l37 266h295z" />
    <glyph glyph-name="Lslash" unicode="&#x141;" 
d="M1063 0h-977l70 489l-144 -57l37 262l144 58l100 718h301l-84 -589l319 127l-36 -263l-318 -127l-51 -358h676z" />
    <glyph glyph-name="lslash" unicode="&#x142;" 
d="M1073 0h-1005l34 240h365l53 376l-219 -94l35 252l221 94l51 363h-358l33 239h645l-66 -471l217 93l-35 -252l-219 -95l-71 -505h352z" />
    <glyph glyph-name="Nacute" unicode="&#x143;" 
d="M969 1470h280l-207 -1470h-270l-321 965l-136 -965h-280l207 1470h297l301 -915zM807 1552h-240l205 314h395z" />
    <glyph glyph-name="nacute" unicode="&#x144;" 
d="M358 0h-286l151 1077h287l-14 -104q56 62 131 93q78 32 166 32q169 0 258 -112q88 -110 61 -300l-96 -686h-287l88 633q15 98 -24 150q-39 53 -125 53q-89 0 -150 -59q-59 -57 -74 -161zM811 1174h-236l150 296h354z" />
    <glyph glyph-name="uni0145" unicode="&#x145;" 
d="M969 1470h280l-207 -1470h-270l-321 965l-136 -965h-280l207 1470h297l301 -915zM469 -246h-104l22 174h287l-21 -141q-15 -106 -97 -163q-81 -56 -218 -48l16 113q49 -4 79 12q30 17 36 53z" />
    <glyph glyph-name="uni0146" unicode="&#x146;" 
d="M358 0h-286l151 1077h287l-14 -104q56 62 131 93q78 32 166 32q169 0 258 -112q88 -110 61 -300l-96 -686h-287l88 633q15 98 -24 150q-39 53 -125 53q-89 0 -150 -59q-59 -57 -74 -161zM473 -246h-104l22 174h287l-21 -141q-15 -106 -97 -163q-81 -56 -218 -48l16 113
q49 -4 79 12q30 17 36 53z" />
    <glyph glyph-name="Ncaron" unicode="&#x147;" 
d="M969 1470h280l-207 -1470h-270l-321 965l-136 -965h-280l207 1470h297l301 -915zM1194 1866l-281 -314h-313l-192 314h208l156 -140l193 140h229z" />
    <glyph glyph-name="ncaron" unicode="&#x148;" 
d="M358 0h-286l151 1077h287l-14 -104q56 62 131 93q78 32 166 32q169 0 258 -112q88 -110 61 -300l-96 -686h-287l88 633q15 98 -24 150q-39 53 -125 53q-89 0 -150 -59q-59 -57 -74 -161zM1122 1470l-245 -296h-291l-164 296h207l116 -114l154 114h223z" />
    <glyph glyph-name="Eng" unicode="&#x14a;" 
d="M479 -143q120 0 190 44q68 43 91 134l-309 930l-136 -965h-280l207 1470h297l301 -915l129 915h280l-202 -1439q-28 -193 -183 -305q-153 -111 -381 -111q-79 0 -159 12q-77 12 -127 31l32 236q68 -17 131 -27t119 -10z" />
    <glyph glyph-name="eng" unicode="&#x14b;" 
d="M473 -143q122 0 186 47q63 46 78 149l80 580q15 98 -24 150q-39 53 -125 53q-89 0 -150 -59q-59 -57 -74 -161l-86 -616h-286l151 1077h287l-14 -104q56 62 131 93q78 32 166 32q169 0 257 -112q86 -110 62 -300l-92 -655q-28 -201 -171 -309q-141 -107 -370 -107
q-75 0 -160 12q-80 11 -149 31l33 236q97 -21 150 -28q66 -9 120 -9z" />
    <glyph glyph-name="Omacron" unicode="&#x14c;" 
d="M1206 883q0 -387 -181 -646q-182 -260 -462 -260q-229 0 -357 162q-128 163 -128 449q0 387 181 646t462 259q229 0 357 -162q128 -163 128 -448zM913 874q0 176 -52 265q-53 90 -154 90q-146 0 -241 -180q-95 -181 -95 -453q0 -175 52 -264q53 -90 155 -90
q146 0 240 180q95 181 95 452zM1139 1794l-33 -225h-696l32 225h697z" />
    <glyph glyph-name="omacron" unicode="&#x14d;" 
d="M82 475q0 268 164 446q164 177 418 177q223 0 353 -133t130 -365q0 -269 -163 -445q-164 -178 -419 -178q-220 0 -352 135q-131 134 -131 363zM367 483q0 -130 56 -198q58 -70 157 -70q122 0 202 108q80 109 80 269q0 131 -55 199q-55 69 -156 69q-126 0 -205 -107
t-79 -270zM1053 1425l-31 -217h-627l31 217h627z" />
    <glyph glyph-name="Obreve" unicode="&#x14e;" 
d="M1206 883q0 -387 -181 -646q-182 -260 -462 -260q-229 0 -357 162q-128 163 -128 449q0 387 181 646t462 259q229 0 357 -162q128 -163 128 -448zM913 874q0 176 -52 265q-53 90 -154 90q-146 0 -241 -180q-95 -181 -95 -453q0 -175 52 -264q53 -90 155 -90
q146 0 240 180q95 181 95 452zM782 1548q-159 0 -251 89q-90 87 -82 233h213q0 -64 35 -100q36 -37 96 -37q61 0 104 37q42 36 53 100h203q-21 -154 -117 -238t-254 -84z" />
    <glyph glyph-name="obreve" unicode="&#x14f;" 
d="M82 475q0 268 164 446q164 177 418 177q223 0 353 -133t130 -365q0 -269 -163 -445q-164 -178 -419 -178q-220 0 -352 135q-131 134 -131 363zM367 483q0 -130 56 -198q58 -70 157 -70q122 0 202 108q80 109 80 269q0 131 -55 199q-55 69 -156 69q-126 0 -205 -107
t-79 -270zM737 1356q49 0 83 30t42 84h197q-17 -147 -102 -225t-226 -78q-147 0 -226 79t-73 224h195q2 -55 31 -84q30 -30 79 -30z" />
    <glyph glyph-name="Ohungarumlaut" unicode="&#x150;" 
d="M1206 883q0 -387 -181 -646q-182 -260 -462 -260q-229 0 -357 162q-128 163 -128 449q0 387 181 646t462 259q229 0 357 -162q128 -163 128 -448zM913 874q0 176 -52 265q-53 90 -154 90q-146 0 -241 -180q-95 -181 -95 -453q0 -175 52 -264q53 -90 155 -90
q146 0 240 180q95 181 95 452zM1069 1556h-227l211 314h325zM645 1556h-227l211 314h325z" />
    <glyph glyph-name="ohungarumlaut" unicode="&#x151;" 
d="M82 475q0 268 164 446q164 177 418 177q223 0 353 -133t130 -365q0 -269 -163 -445q-164 -178 -419 -178q-220 0 -352 135q-131 134 -131 363zM367 483q0 -130 56 -198q58 -70 157 -70q122 0 202 108q80 109 80 269q0 131 -55 199q-55 69 -156 69q-126 0 -205 -107
t-79 -270zM993 1174h-215l158 296h309zM618 1174h-215l158 296h311z" />
    <glyph glyph-name="OE" unicode="&#x152;" 
d="M43 612q0 372 180 615t463 243h645l-37 -256h-329l-47 -331h245l-37 -256h-245l-52 -371h332l-37 -256h-614q-224 0 -346 160q-121 158 -121 452zM541 252l137 967h-16q-139 0 -240 -182q-100 -181 -100 -425q0 -170 53 -265t149 -95h17z" />
    <glyph glyph-name="oe" unicode="&#x153;" 
d="M961 373l217 -82q-53 -146 -155 -230t-222 -84q-77 0 -138 32t-100 93q-52 -61 -118 -93t-140 -32q-141 0 -222 104q-81 103 -81 281q0 322 117 529t313 207q75 0 133 -32t97 -95q58 64 124 95q69 32 142 32q172 0 250 -152q78 -151 39 -403l-9 -68h-483q-2 -10 -2 -18
v-31q0 -102 25 -161q24 -56 71 -56q41 0 77 42q37 43 65 122zM901 872q-46 0 -84 -56q-39 -58 -63 -152h227q8 97 -12 151q-21 57 -68 57zM489 698q0 89 -17 130q-18 44 -52 44q-71 0 -117 -158q-47 -161 -47 -333q0 -90 17 -131q18 -43 55 -43q68 0 115 157q46 154 46 334z
" />
    <glyph glyph-name="Racute" unicode="&#x154;" 
d="M590 547h-176l-76 -547h-303l207 1470h485q241 0 375 -112q135 -112 135 -311q0 -166 -93 -292t-255 -177l264 -578h-326zM506 1214l-55 -415h225q119 0 192 64q74 65 74 163q0 89 -64 138q-65 50 -182 50h-190zM840 1552h-240l205 314h395z" />
    <glyph glyph-name="racute" unicode="&#x155;" 
d="M950 0h-925l32 240h279l86 598h-281l35 239h553l-22 -162q61 84 159 132q99 49 217 49q39 0 82 -6q36 -5 80 -19l-37 -274q-58 12 -95 18q-40 6 -77 6q-155 0 -259 -76q-106 -77 -122 -200l-43 -305h371zM889 1174h-236l150 296h354z" />
    <glyph glyph-name="uni0156" unicode="&#x156;" 
d="M590 547h-176l-76 -547h-303l207 1470h485q241 0 375 -112q135 -112 135 -311q0 -166 -93 -292t-255 -177l264 -578h-326zM506 1214l-55 -415h225q119 0 192 64q74 65 74 163q0 89 -64 138q-65 50 -182 50h-190zM489 -246h-104l23 174h286l-20 -141q-15 -106 -97 -163
q-81 -56 -219 -48l17 113q49 -4 79 12q29 16 35 53z" />
    <glyph glyph-name="uni0157" unicode="&#x157;" 
d="M950 0h-925l32 240h279l86 598h-281l35 239h553l-22 -162q61 84 159 132q99 49 217 49q39 0 82 -6q36 -5 80 -19l-37 -274q-58 12 -95 18q-40 6 -77 6q-155 0 -259 -76q-106 -77 -122 -200l-43 -305h371zM369 -246h-105l23 174h286l-20 -141q-15 -106 -97 -163
q-81 -56 -218 -48l16 113q49 -4 79 12q30 17 36 53z" />
    <glyph glyph-name="Rcaron" unicode="&#x158;" 
d="M590 547h-176l-76 -547h-303l207 1470h485q241 0 375 -112q135 -112 135 -311q0 -166 -93 -292t-255 -177l264 -578h-326zM506 1214l-55 -415h225q119 0 192 64q74 65 74 163q0 89 -64 138q-65 50 -182 50h-190zM1223 1866l-281 -314h-313l-193 314h209l156 -140l192 140
h230z" />
    <glyph glyph-name="rcaron" unicode="&#x159;" 
d="M950 0h-925l32 240h279l86 598h-281l35 239h553l-22 -162q61 84 159 132q99 49 217 49q39 0 82 -6q36 -5 80 -19l-37 -274q-58 12 -95 18q-40 6 -77 6q-155 0 -259 -76q-106 -77 -122 -200l-43 -305h371zM1196 1470l-246 -296h-291l-163 296h206l117 -114l154 114h223z
" />
    <glyph glyph-name="Sacute" unicode="&#x15a;" 
d="M588 -23q-200 0 -369 89t-250 231l217 184q69 -118 180 -185t238 -67q119 0 194 57q74 56 74 146q0 70 -56 110t-193 70q-250 56 -360 153q-111 97 -111 255q0 207 157 340t406 133q180 0 328 -74q149 -74 221 -200l-207 -177q-56 93 -153 147q-94 52 -208 52
q-111 0 -179 -49t-68 -129q0 -69 67 -109q69 -41 234 -80q221 -51 322 -145q102 -95 102 -250q0 -223 -163 -362q-164 -140 -423 -140zM877 1552h-240l205 314h395z" />
    <glyph glyph-name="sacute" unicode="&#x15b;" 
d="M580 -23q-167 0 -319 64q-149 63 -228 164l184 174q70 -85 171 -131q103 -47 214 -47q94 0 147 31q54 32 54 83q0 44 -49 69q-50 26 -174 48q-214 39 -308 111t-94 194q0 159 134 260t354 101q158 0 292 -57t195 -148l-186 -164q-46 69 -134 109q-90 41 -190 41
q-82 0 -132 -28q-48 -27 -48 -75q0 -38 46 -62q50 -26 193 -55q205 -40 297 -113q93 -73 93 -196q0 -162 -142 -268q-141 -105 -370 -105zM817 1174h-235l149 296h354z" />
    <glyph glyph-name="Scircumflex" unicode="&#x15c;" 
d="M588 -23q-200 0 -369 89t-250 231l217 184q69 -118 180 -185t238 -67q119 0 194 57q74 56 74 146q0 70 -56 110t-193 70q-250 56 -360 153q-111 97 -111 255q0 207 157 340t406 133q180 0 328 -74q149 -74 221 -200l-207 -177q-56 93 -153 147q-94 52 -208 52
q-111 0 -179 -49t-68 -129q0 -69 67 -109q69 -41 234 -80q221 -51 322 -145q102 -95 102 -250q0 -223 -163 -362q-164 -140 -423 -140zM678 1866h313l195 -314h-211l-156 140l-192 -140h-228z" />
    <glyph glyph-name="scircumflex" unicode="&#x15d;" 
d="M580 -23q-167 0 -319 64q-149 63 -228 164l184 174q70 -85 171 -131q103 -47 214 -47q94 0 147 31q54 32 54 83q0 44 -49 69q-50 26 -174 48q-214 39 -308 111t-94 194q0 159 134 260t354 101q158 0 292 -57t195 -148l-186 -164q-46 69 -134 109q-90 41 -190 41
q-82 0 -132 -28q-48 -27 -48 -75q0 -38 46 -62q50 -26 193 -55q205 -40 297 -113q93 -73 93 -196q0 -162 -142 -268q-141 -105 -370 -105zM606 1470h291l162 -296h-205l-119 116l-151 -116h-224z" />
    <glyph glyph-name="Scedilla" unicode="&#x15e;" 
d="M-31 297l217 184q69 -118 180 -185t238 -67q119 0 194 57q74 56 74 146q0 70 -56 110t-193 70q-250 56 -360 153q-111 97 -111 255q0 207 157 340t406 133q180 0 328 -74q149 -74 221 -200l-207 -177q-56 93 -153 147q-94 52 -208 52q-111 0 -179 -49t-68 -129
q0 -69 67 -109q69 -41 234 -80q221 -51 322 -145q102 -95 102 -250q0 -223 -163 -362q-164 -140 -423 -140h-8h-9l-10 -22q72 -12 111 -51t39 -101q0 -83 -73 -136q-71 -52 -187 -52q-67 0 -123 19q-58 20 -101 57l103 123q24 -22 57 -36q36 -15 66 -16q31 0 50 15t19 35
q0 27 -34 42q-36 16 -99 17l53 119q-160 29 -282 110q-125 83 -191 197z" />
    <glyph glyph-name="scedilla" unicode="&#x15f;" 
d="M33 205l184 174q70 -85 171 -131q103 -47 214 -47q94 0 147 31q54 32 54 83q0 44 -49 69q-50 26 -174 48q-214 39 -308 111t-94 194q0 159 134 260t354 101q158 0 292 -57t195 -148l-186 -164q-46 69 -134 109q-90 41 -190 41q-82 0 -132 -28q-48 -27 -48 -75
q0 -38 46 -62q50 -26 193 -55q205 -40 297 -113q93 -73 93 -196q0 -162 -142 -268q-141 -105 -370 -105h-10h-9l-10 -22q72 -12 111 -51q38 -38 38 -101q0 -83 -72 -136q-71 -52 -188 -52q-67 0 -123 19t-100 57l102 123q23 -22 58 -36q36 -15 65 -16q31 0 51 15
q19 15 19 35q0 27 -34 42q-36 16 -99 17l53 119q-125 22 -232 80q-106 57 -167 135z" />
    <glyph glyph-name="Scaron" unicode="&#x160;" 
d="M588 -23q-200 0 -369 89t-250 231l217 184q69 -118 180 -185t238 -67q119 0 194 57q74 56 74 146q0 70 -56 110t-193 70q-250 56 -360 153q-111 97 -111 255q0 207 157 340t406 133q180 0 328 -74q149 -74 221 -200l-207 -177q-56 93 -153 147q-94 52 -208 52
q-111 0 -179 -49t-68 -129q0 -69 67 -109q69 -41 234 -80q221 -51 322 -145q102 -95 102 -250q0 -223 -163 -362q-164 -140 -423 -140zM1229 1866l-281 -314h-313l-193 314h209l156 -140l192 140h230z" />
    <glyph glyph-name="scaron" unicode="&#x161;" 
d="M580 -23q-167 0 -319 64q-149 63 -228 164l184 174q70 -85 171 -131q103 -47 214 -47q94 0 147 31q54 32 54 83q0 44 -49 69q-50 26 -174 48q-214 39 -308 111t-94 194q0 159 134 260t354 101q158 0 292 -57t195 -148l-186 -164q-46 69 -134 109q-90 41 -190 41
q-82 0 -132 -28q-48 -27 -48 -75q0 -38 46 -62q50 -26 193 -55q205 -40 297 -113q93 -73 93 -196q0 -162 -142 -268q-141 -105 -370 -105zM1108 1470l-246 -296h-291l-163 296h206l117 -114l154 114h223z" />
    <glyph glyph-name="uni0162" unicode="&#x162;" 
d="M723 -197q0 -83 -73 -136q-71 -52 -187 -52q-67 0 -123 19t-100 57l102 123q24 -22 57 -36q36 -15 66 -16q31 0 50 15q20 15 20 35q0 27 -34 42q-36 16 -100 17l58 129h-72l170 1210h-416l37 260h1135l-37 -260h-418l-168 -1210h-96l-21 -45q72 -12 111 -51t39 -101z" />
    <glyph glyph-name="uni0163" unicode="&#x163;" 
d="M319 371l66 467h-283l33 239h285l43 318h285l-46 -318h488l-35 -239h-487l-60 -428q-12 -90 38 -131t175 -41q55 0 122 8q59 7 132 26l-37 -247q-70 -20 -142 -31q-66 -10 -134 -10q-23 0 -37 1q-23 2 -53 3l-17 -33q72 -12 111 -51t39 -101q0 -83 -73 -136
q-71 -52 -187 -52q-67 0 -123 19t-100 57l102 123q24 -22 57 -36q36 -15 66 -16q31 0 50 15t19 35q0 28 -33 42q-36 16 -100 17l64 143q-130 41 -188 132t-40 225z" />
    <glyph glyph-name="Tcaron" unicode="&#x164;" 
d="M1313 1470l-37 -260h-418l-168 -1210h-303l170 1210h-416l37 260h1135zM1194 1866l-281 -314h-313l-192 314h208l156 -140l193 140h229z" />
    <glyph glyph-name="tcaron" unicode="&#x165;" 
d="M762 -16q-228 0 -347 101q-120 102 -96 286l66 467h-283l33 239h285l43 318h285l-46 -318h488l-35 -239h-487l-60 -428q-12 -90 38 -131t175 -41q55 0 122 8q59 7 132 26l-37 -247q-70 -20 -142 -31q-66 -10 -134 -10zM963 1153h-179l95 397h282z" />
    <glyph glyph-name="Tbar" unicode="&#x166;" 
d="M1022 874l-37 -260h-209l-86 -614h-303l86 614h-209l37 260h209l47 336h-416l37 260h1135l-37 -260h-418l-47 -336h211z" />
    <glyph glyph-name="tbar" unicode="&#x167;" 
d="M754 -16q-226 0 -343 101q-118 102 -94 286l15 108h-275l31 226h277l20 147h-276l32 225h277l45 318h282l-43 -318h482l-31 -225h-483l-21 -147h484l-31 -226h-484l-10 -71q-15 -91 35 -132q49 -40 174 -40q60 0 123 9q68 10 129 25l-35 -245q-69 -20 -142 -31
q-67 -10 -138 -10z" />
    <glyph glyph-name="Utilde" unicode="&#x168;" 
d="M569 -23q-255 0 -382 154q-126 153 -87 428l129 911h297l-127 -899q-22 -158 25 -240q46 -81 162 -81q108 0 168 77t84 244l127 899h297l-127 -911q-40 -292 -182 -437t-384 -145zM1008 1890h194q-23 -154 -98 -244q-77 -92 -182 -92q-36 0 -73 14q-38 14 -93 52
q-43 30 -62 37q-22 8 -39 8q-36 0 -62 -28t-38 -83h-195q22 153 98 245q75 91 181 91q40 0 75 -13q38 -14 93 -52q44 -31 60 -37q21 -8 38 -8q37 0 63 27q25 26 40 83z" />
    <glyph glyph-name="utilde" unicode="&#x169;" 
d="M870 1077h287l-151 -1077h-287l14 104q-56 -62 -131 -93t-166 -31q-170 0 -258 111q-88 110 -61 300l96 686h287l-88 -633q-15 -98 24 -152t125 -54q91 0 150 59q58 58 73 164zM618 1278q-31 0 -52 -24q-23 -26 -40 -80h-182q22 147 86 231q63 82 158 82q32 0 64 -12
q30 -11 83 -52q34 -24 53 -33q18 -8 31 -8q30 0 52 25t38 80h183q-23 -150 -85 -232q-62 -81 -157 -81q-33 0 -66 12t-84 51q-33 26 -51 34q-15 7 -31 7z" />
    <glyph glyph-name="Umacron" unicode="&#x16a;" 
d="M569 -23q-255 0 -382 154q-126 153 -87 428l129 911h297l-127 -899q-22 -158 25 -240q46 -81 162 -81q108 0 168 77t84 244l127 899h297l-127 -911q-40 -292 -182 -437t-384 -145zM1139 1794l-33 -225h-696l32 225h697z" />
    <glyph glyph-name="umacron" unicode="&#x16b;" 
d="M870 1077h287l-151 -1077h-287l14 104q-56 -62 -131 -93t-166 -31q-170 0 -258 111q-88 110 -61 300l96 686h287l-88 -633q-15 -98 24 -152t125 -54q91 0 150 59q58 58 73 164zM1047 1425l-31 -217h-627l31 217h627z" />
    <glyph glyph-name="Ubreve" unicode="&#x16c;" 
d="M569 -23q-255 0 -382 154q-126 153 -87 428l129 911h297l-127 -899q-22 -158 25 -240q46 -81 162 -81q108 0 168 77t84 244l127 899h297l-127 -911q-40 -292 -182 -437t-384 -145zM782 1548q-159 0 -251 89q-90 87 -82 233h213q0 -64 35 -100q36 -37 96 -37q61 0 104 37
q42 36 53 100h203q-21 -154 -117 -238t-254 -84z" />
    <glyph glyph-name="ubreve" unicode="&#x16d;" 
d="M870 1077h287l-151 -1077h-287l14 104q-56 -62 -131 -93t-166 -31q-170 0 -258 111q-88 110 -61 300l96 686h287l-88 -633q-15 -98 24 -152t125 -54q91 0 150 59q58 58 73 164zM731 1356q49 0 83 30t42 84h197q-17 -147 -102 -225t-226 -78q-147 0 -226 79t-73 224h195
q2 -55 31 -84q30 -30 79 -30z" />
    <glyph glyph-name="Uring" unicode="&#x16e;" 
d="M569 -23q-255 0 -382 154q-126 153 -87 428l129 911h297l-127 -899q-22 -158 25 -240q46 -81 162 -81q108 0 168 77t84 244l127 899h297l-127 -911q-40 -292 -182 -437t-384 -145zM526 1788q0 113 79 189q80 77 198 77q114 0 182 -67q70 -68 70 -172q0 -114 -79 -190
q-80 -77 -198 -77q-112 0 -182 68t-70 172zM690 1790q0 -39 27 -63q26 -23 69 -23q44 0 75 31q30 30 30 75q0 42 -27 67q-28 26 -69 26q-45 0 -75 -33t-30 -80z" />
    <glyph glyph-name="uring" unicode="&#x16f;" 
d="M870 1077h287l-151 -1077h-287l14 104q-56 -62 -131 -93t-166 -31q-170 0 -258 111q-88 110 -61 300l96 686h287l-88 -633q-15 -98 24 -152t125 -54q91 0 150 59q58 58 73 164zM498 1360q0 96 69 165q68 68 172 68q97 0 157 -60t60 -153q0 -96 -69 -163q-70 -68 -174 -68
q-95 0 -155 60t-60 151zM637 1364q0 -38 23 -61q25 -25 61 -25q40 0 67 29t27 71q0 39 -23 62q-24 24 -61 24q-40 0 -66 -29q-28 -31 -28 -71z" />
    <glyph glyph-name="Uhungarumlaut" unicode="&#x170;" 
d="M569 -23q-255 0 -382 154q-126 153 -87 428l129 911h297l-127 -899q-22 -158 25 -240q46 -81 162 -81q108 0 168 77t84 244l127 899h297l-127 -911q-40 -292 -182 -437t-384 -145zM1061 1556h-227l210 314h326zM637 1556h-227l211 314h325z" />
    <glyph glyph-name="uhungarumlaut" unicode="&#x171;" 
d="M870 1077h287l-151 -1077h-287l14 104q-56 -62 -131 -93t-166 -31q-170 0 -258 111q-88 110 -61 300l96 686h287l-88 -633q-15 -98 24 -152t125 -54q91 0 150 59q58 58 73 164zM997 1174h-215l158 296h309zM623 1174h-215l157 296h312z" />
    <glyph glyph-name="Uogonek" unicode="&#x172;" 
d="M727 -195l-25 -165q-49 -11 -61 -13q-25 -4 -55 -4q-92 0 -150 47q-57 46 -57 125q0 50 25 97q26 49 75 92q-214 27 -312 176q-100 151 -67 399l129 911h297l-127 -899q-22 -158 25 -240q46 -81 162 -81q108 0 168 77t84 244l127 899h297l-127 -911q-33 -227 -124 -363
t-249 -192q-84 -30 -133 -72q-47 -41 -47 -84q0 -23 19 -38t52 -15q8 0 32 2q15 1 42 8z" />
    <glyph glyph-name="uogonek" unicode="&#x173;" 
d="M782 -377q-91 0 -149 47t-58 125q0 63 37 119q39 59 111 109l12 81q-56 -62 -131 -93t-166 -31q-170 0 -258 111q-88 110 -61 300l96 686h287l-88 -633q-15 -98 24 -152t125 -54q91 0 150 59q58 58 73 164l86 616h287l-151 -1077h-78q-74 -39 -114 -79q-38 -38 -38 -73
q0 -23 20 -38t52 -15q8 0 32 2q15 1 42 8l-25 -165q-53 -11 -62 -13q-24 -4 -55 -4z" />
    <glyph glyph-name="Wcircumflex" unicode="&#x174;" 
d="M373 553l266 917h209l-10 -917l243 917h262l-430 -1470h-235l-4 956l-295 -956h-246l14 1470h254zM643 1866h313l195 -314h-211l-156 140l-192 -140h-227z" />
    <glyph glyph-name="wcircumflex" unicode="&#x175;" 
d="M352 414l234 663h209l22 -663l211 663h266l-387 -1077h-237l-29 715l-256 -715h-254l-41 1077h252zM600 1470h291l162 -296h-205l-119 116l-151 -116h-224z" />
    <glyph glyph-name="Ycircumflex" unicode="&#x176;" 
d="M449 1470l210 -587l375 587h324l-586 -888l-82 -582h-303l82 582l-338 888h318zM643 1866h313l195 -314h-211l-156 140l-192 -140h-227z" />
    <glyph glyph-name="ycircumflex" unicode="&#x177;" 
d="M1260 1077l-633 -1136q-112 -199 -199 -257q-89 -59 -235 -59q-21 0 -63 2q-32 2 -62 6l30 232q8 -1 22.5 -2.5t21.5 -1.5q28 -2 40 -2q59 0 94 21q36 22 66 77l43 80l-266 1040h287l165 -719l390 719h299zM600 1470h291l162 -296h-205l-119 116l-151 -116h-224z" />
    <glyph glyph-name="Ydieresis" unicode="&#x178;" 
d="M449 1470l210 -587l375 587h324l-586 -888l-82 -582h-303l82 582l-338 888h318zM696 1552h-290l36 273h291zM1110 1552h-293l39 273h291z" />
    <glyph glyph-name="Zacute" unicode="&#x179;" 
d="M410 260h727l-37 -260h-1114l30 229l861 981h-715l37 260h1099l-32 -229zM821 1552h-239l204 314h396z" />
    <glyph glyph-name="zacute" unicode="&#x17a;" 
d="M463 240h600l-33 -240h-985l29 211l700 627h-606l35 239h973l-31 -213zM807 1174h-236l150 296h354z" />
    <glyph glyph-name="Zdotaccent" unicode="&#x17b;" 
d="M410 260h727l-37 -260h-1114l30 229l861 981h-715l37 260h1099l-32 -229zM907 1552h-301l39 273h299z" />
    <glyph glyph-name="zdotaccent" unicode="&#x17c;" 
d="M463 240h600l-33 -240h-985l29 211l700 627h-606l35 239h973l-31 -213zM856 1204h-295l37 266h295z" />
    <glyph glyph-name="Zcaron" unicode="&#x17d;" 
d="M410 260h727l-37 -260h-1114l30 229l861 981h-715l37 260h1099l-32 -229zM1200 1866l-280 -314h-314l-192 314h209l155 -140l193 140h229z" />
    <glyph glyph-name="zcaron" unicode="&#x17e;" 
d="M463 240h600l-33 -240h-985l29 211l700 627h-606l35 239h973l-31 -213zM1108 1470l-246 -296h-291l-163 296h206l117 -114l154 114h223z" />
    <glyph glyph-name="florin" unicode="&#x192;" 
d="M492 680h-189l27 201h215l51 188q55 208 171 316q115 108 286 108q84 0 162 -28q76 -28 122 -76l-133 -195q-23 29 -55 45t-68 16q-61 0 -109 -49q-50 -51 -73 -139l-49 -186h215l-29 -201h-241l-74 -279q-52 -206 -168 -316q-114 -108 -287 -108q-84 0 -162 26
q-74 25 -127 73l134 196q29 -27 65 -43q32 -14 68 -14q59 0 104 48q46 49 70 140z" />
    <glyph glyph-name="AEacute" unicode="&#x1fc;" 
d="M-76 0l582 1470h821l-37 -253h-309l-47 -336h242l-35 -252h-242l-53 -375h309l-35 -254h-594l47 336h-235l-131 -336h-283zM705 1268l-269 -686h172zM985 1552h-240l205 314h396z" />
    <glyph glyph-name="aeacute" unicode="&#x1fd;" 
d="M979 373l207 -74q-50 -151 -154 -236q-106 -86 -235 -86q-86 0 -158 39q-71 38 -109 107q-52 -69 -126 -107q-69 -36 -154 -36q-122 0 -199 81q-78 83 -78 213q0 176 128 284q127 108 345 108h46l6 53q10 66 -14 106q-24 39 -74 39q-52 0 -86 -36q-37 -38 -54 -105
l-213 45q30 148 132 239q101 91 237 91q81 2 137 -28q57 -30 90 -87q57 57 124 86t136 29q172 0 261 -154q88 -152 53 -385l-13 -82h-524q-2 -14 -2 -20v-33q0 -103 35 -164q34 -59 96 -59q53 0 94 45q43 48 66 127zM895 870q-55 0 -101 -54q-46 -53 -73 -150h280
q12 94 -16 149t-90 55zM211 303q0 -51 25 -79q24 -27 69 -27q58 0 95 43q39 46 51 125l14 112h-19q-115 0 -176 -44q-59 -43 -59 -130zM793 1174h-236l150 296h354z" />
    <glyph glyph-name="Oslashacute" unicode="&#x1fe;" 
d="M139 -47l-147 113l147 186q-31 72 -46 154q-15 84 -15 182q0 387 181 646t462 259q92 0 173 -29q77 -28 140 -86l111 140l149 -113l-149 -188q32 -71 46 -152q15 -84 15 -182q0 -387 -181 -646q-182 -260 -462 -260q-92 0 -173 29q-77 28 -140 86zM707 1241
q-152 0 -251 -184q-100 -186 -100 -461v-43q0 -11 2 -25l504 633q-28 40 -66 60q-39 20 -89 20zM578 229q151 0 250 185q100 186 100 460v42q0 10 -2 26l-504 -633q27 -39 66 -59q40 -21 90 -21zM868 1552h-239l205 314h395z" />
    <glyph glyph-name="oslashacute" unicode="&#x1ff;" 
d="M1147 600q0 -269 -163 -445q-164 -178 -419 -178q-81 0 -155 20q-73 20 -129 58l-111 -112l-137 127l119 123q-35 58 -53 129q-17 68 -17 153q0 268 164 446q164 177 418 177q82 0 156 -20q75 -20 130 -58l109 113l139 -127l-119 -123q32 -57 50 -131q18 -72 18 -152z
M653 877q-130 0 -216 -113q-85 -112 -85 -285q0 -15 2 -39q1 -6 2.5 -17.5t1.5 -16.5l420 436q-26 16 -58 25q-35 10 -67 10zM575 201q132 0 217 112t85 283q0 19 -1 29l-4 43l-419 -432q29 -17 57 -26q30 -9 65 -9zM815 1174h-235l149 296h354z" />
    <glyph glyph-name="uni0218" unicode="&#x218;" 
d="M588 -23q-200 0 -369 89t-250 231l217 184q69 -118 180 -185t238 -67q119 0 194 57q74 56 74 146q0 70 -56 110t-193 70q-250 56 -360 153q-111 97 -111 255q0 207 157 340t406 133q180 0 328 -74q149 -74 221 -200l-207 -177q-56 93 -153 147q-94 52 -208 52
q-111 0 -179 -49t-68 -129q0 -69 67 -109q69 -41 234 -80q221 -51 322 -145q102 -95 102 -250q0 -223 -163 -362q-164 -140 -423 -140zM475 -246h-104l22 174h287l-21 -141q-15 -106 -97 -163q-81 -56 -218 -48l16 113q49 -4 79 12q30 17 36 53z" />
    <glyph glyph-name="uni0219" unicode="&#x219;" 
d="M580 -23q-167 0 -319 64q-149 63 -228 164l184 174q70 -85 171 -131q103 -47 214 -47q94 0 147 31q54 32 54 83q0 44 -49 69q-50 26 -174 48q-214 39 -308 111t-94 194q0 159 134 260t354 101q158 0 292 -57t195 -148l-186 -164q-46 69 -134 109q-90 41 -190 41
q-82 0 -132 -28q-48 -27 -48 -75q0 -38 46 -62q50 -26 193 -55q205 -40 297 -113q93 -73 93 -196q0 -162 -142 -268q-141 -105 -370 -105zM469 -246h-104l22 174h287l-21 -141q-15 -106 -97 -163q-81 -56 -218 -48l16 113q49 -4 79 12q30 17 36 53z" />
    <glyph glyph-name="uni021A" unicode="&#x21a;" 
d="M1313 1470l-37 -260h-418l-168 -1210h-303l170 1210h-416l37 260h1135zM467 -246h-105l23 174h287l-21 -141q-15 -106 -97 -163q-81 -56 -218 -48l16 113q49 -4 79 12q30 17 36 53z" />
    <glyph glyph-name="uni021B" unicode="&#x21b;" 
d="M762 -16q-228 0 -347 101q-120 102 -96 286l66 467h-283l33 239h285l43 318h285l-46 -318h488l-35 -239h-487l-60 -428q-12 -90 38 -131t175 -41q55 0 122 8q59 7 132 26l-37 -247q-70 -20 -142 -31q-66 -10 -134 -10zM561 -246h-104l22 174h287l-21 -141
q-15 -106 -97 -163q-81 -56 -218 -48l16 113q49 -4 79 12q30 17 36 53z" />
    <glyph glyph-name="uni0237" unicode="&#x237;" 
d="M362 -131q120 0 184 47q62 45 77 150l108 772h-489l34 239h775l-148 -1044q-28 -201 -170 -309q-142 -109 -368 -109q-77 0 -165 12q-86 12 -147 31l35 248q89 -20 149 -28q69 -9 125 -9z" />
    <glyph glyph-name="circumflex" unicode="&#x2c6;" 
d="M600 1470h291l162 -296h-205l-119 116l-151 -116h-224z" />
    <glyph glyph-name="caron" unicode="&#x2c7;" 
d="M1096 1470l-246 -296h-291l-164 296h207l117 -114l153 114h224z" />
    <glyph glyph-name="breve" unicode="&#x2d8;" 
d="M739 1356q49 0 83 30t42 84h197q-17 -147 -102 -225t-226 -78q-147 0 -226 79t-73 224h195q2 -55 31 -84q30 -30 79 -30z" />
    <glyph glyph-name="dotaccent" unicode="&#x2d9;" 
d="M856 1204h-295l37 266h295z" />
    <glyph glyph-name="ring" unicode="&#x2da;" 
d="M504 1360q0 96 69 165q68 68 172 68q97 0 157 -60q61 -61 61 -153q0 -95 -70 -163t-174 -68q-95 0 -155 60t-60 151zM643 1364q0 -37 24 -61q25 -25 60 -25q41 0 68 29q26 27 26 71q0 39 -23 62q-24 24 -61 24q-40 0 -66 -29q-28 -31 -28 -71z" />
    <glyph glyph-name="ogonek" unicode="&#x2db;" 
d="M541 -377q-92 0 -150 47q-57 46 -57 125q0 87 77 167q76 79 222 142l59 -102q-77 -40 -117 -80q-38 -38 -38 -74q0 -23 19 -38q20 -15 52 -15q8 0 32 2q15 1 42 8l-25 -165q-53 -11 -62 -13q-24 -4 -54 -4z" />
    <glyph glyph-name="tilde" unicode="&#x2dc;" 
d="M625 1278q-32 0 -53 -24q-23 -26 -40 -80h-182q22 147 86 231q63 82 158 82q32 0 64 -12q30 -11 83 -52q32 -23 54 -33q18 -8 30 -8q31 0 53 25q20 23 37 80h183q-23 -150 -85 -232q-62 -81 -157 -81q-32 0 -65 12t-84 51q-32 25 -52 34q-15 7 -30 7z" />
    <glyph glyph-name="hungarumlaut" unicode="&#x2dd;" 
d="M887 1174h-215l157 296h310zM512 1174h-215l158 296h311z" />
    <glyph glyph-name="gravecmb" unicode="&#x300;" horiz-adv-x="0" 
d="M123 1470l88 -296h-215l-205 296h332z" />
    <glyph glyph-name="acutecmb" unicode="&#x301;" horiz-adv-x="0" 
d="M-16 1174h-236l150 296h354z" />
    <glyph glyph-name="uni0302" unicode="&#x302;" horiz-adv-x="0" 
d="M-102 1470h290l162 -296h-205l-118 116l-152 -116h-223z" />
    <glyph glyph-name="tildecmb" unicode="&#x303;" horiz-adv-x="0" 
d="M-98 1278q-32 0 -53 -24q-21 -25 -39 -80h-183q22 147 86 231q63 82 158 82q33 0 64 -12q30 -11 83 -52q32 -23 54 -33q18 -8 30 -8q31 0 53 25t38 80h182q-23 -150 -85 -232q-62 -81 -157 -81q-32 0 -65 12t-84 51q-32 25 -52 34q-15 7 -30 7z" />
    <glyph glyph-name="uni0304" unicode="&#x304;" horiz-adv-x="0" 
d="M330 1425l-31 -217h-627l31 217h627z" />
    <glyph glyph-name="uni0306" unicode="&#x306;" horiz-adv-x="0" 
d="M-8 1356q48 0 83 30q34 30 42 84h196q-17 -148 -101 -225q-85 -78 -226 -78q-148 0 -227 79q-78 78 -72 224h194q2 -54 32 -84t79 -30z" />
    <glyph glyph-name="uni0307" unicode="&#x307;" horiz-adv-x="0" 
d="M129 1204h-295l37 266h295z" />
    <glyph glyph-name="uni0308" unicode="&#x308;" horiz-adv-x="0" 
d="M-72 1204h-290l36 266h291zM326 1204h-291l37 266h290z" />
    <glyph glyph-name="uni030A" unicode="&#x30a;" horiz-adv-x="0" 
d="M-229 1360q0 96 69 165q68 68 172 68q97 0 157 -60t60 -153q0 -96 -69 -163q-70 -68 -174 -68q-95 0 -155 60t-60 151zM-90 1364q0 -38 23 -61q25 -25 61 -25q40 0 67 29t27 71q0 39 -23 62q-24 24 -61 24q-40 0 -66 -29q-28 -31 -28 -71z" />
    <glyph glyph-name="uni030B" unicode="&#x30b;" horiz-adv-x="0" 
d="M170 1174h-215l158 296h309zM-205 1174h-215l158 296h311z" />
    <glyph glyph-name="uni030C" unicode="&#x30c;" horiz-adv-x="0" 
d="M350 1470l-246 -296h-290l-164 296h207l116 -114l154 114h223z" />
    <glyph glyph-name="uni0312" unicode="&#x312;" horiz-adv-x="0" 
d="M37 1348h104l-24 -174h-285l21 141q15 108 97 165q81 56 218 48l-16 -115q-49 4 -79 -12q-30 -17 -36 -53z" />
    <glyph glyph-name="uni0315" unicode="&#x315;" horiz-adv-x="0" 
d="M-10 1073h-178l94 397h282z" />
    <glyph glyph-name="uni0326" unicode="&#x326;" horiz-adv-x="0" 
d="M-37 -246h-104l22 174h287l-21 -141q-15 -106 -97 -163q-81 -56 -218 -48l16 113q49 -4 79 12q30 17 36 53z" />
    <glyph glyph-name="uni0327" unicode="&#x327;" horiz-adv-x="0" 
d="M242 -197q0 -83 -73 -136q-71 -52 -187 -52q-67 0 -123 19q-58 20 -101 57l103 123q24 -22 57 -36q36 -15 66 -16q31 0 50 15t19 35q0 27 -34 42q-36 16 -99 17l68 154h137l-33 -70q72 -12 111 -51t39 -101z" />
    <glyph glyph-name="uni0328" unicode="&#x328;" horiz-adv-x="0" 
d="M29 -377q-92 0 -150 47q-57 46 -57 125q0 87 77 167q76 79 222 142l59 -102q-77 -40 -117 -80q-38 -38 -38 -74q0 -23 19 -38t52 -15q8 0 32 2q15 1 42 8l-25 -165q-53 -11 -62 -13q-24 -4 -54 -4z" />
    <glyph glyph-name="Wgrave" unicode="&#x1e80;" 
d="M373 553l266 917h209l-10 -917l243 917h262l-430 -1470h-235l-4 956l-295 -956h-246l14 1470h254zM739 1866l146 -314h-226l-292 314h372z" />
    <glyph glyph-name="wgrave" unicode="&#x1e81;" 
d="M352 414l234 663h209l22 -663l211 663h266l-387 -1077h-237l-29 715l-256 -715h-254l-41 1077h252zM711 1470l88 -296h-215l-205 296h332z" />
    <glyph glyph-name="Wacute" unicode="&#x1e82;" 
d="M373 553l266 917h209l-10 -917l243 917h262l-430 -1470h-235l-4 956l-295 -956h-246l14 1470h254zM872 1552h-239l205 314h395z" />
    <glyph glyph-name="wacute" unicode="&#x1e83;" 
d="M352 414l234 663h209l22 -663l211 663h266l-387 -1077h-237l-29 715l-256 -715h-254l-41 1077h252zM844 1174h-236l150 296h354z" />
    <glyph glyph-name="Wdieresis" unicode="&#x1e84;" 
d="M373 553l266 917h209l-10 -917l243 917h262l-430 -1470h-235l-4 956l-295 -956h-246l14 1470h254zM696 1552h-290l36 273h291zM1110 1552h-293l39 273h291z" />
    <glyph glyph-name="wdieresis" unicode="&#x1e85;" 
d="M352 414l234 663h209l22 -663l211 663h266l-387 -1077h-237l-29 715l-256 -715h-254l-41 1077h252zM655 1204h-290l36 266h291zM1053 1204h-291l37 266h291z" />
    <glyph glyph-name="Ygrave" unicode="&#x1ef2;" 
d="M449 1470l210 -587l375 587h324l-586 -888l-82 -582h-303l82 582l-338 888h318zM776 1866l146 -314h-226l-293 314h373z" />
    <glyph glyph-name="ygrave" unicode="&#x1ef3;" 
d="M1260 1077l-633 -1136q-112 -199 -199 -257q-89 -59 -235 -59q-21 0 -63 2q-32 2 -62 6l30 232q8 -1 22.5 -2.5t21.5 -1.5q28 -2 40 -2q59 0 94 21q36 22 66 77l43 80l-266 1040h287l165 -719l390 719h299zM686 1470l88 -296h-215l-205 296h332z" />
    <glyph glyph-name="endash" unicode="&#x2013;" 
d="M1053 485h-893l35 234h892z" />
    <glyph glyph-name="emdash" unicode="&#x2014;" 
d="M1212 485h-1212l33 234h1214z" />
    <glyph glyph-name="quoteleft" unicode="&#x2018;" 
d="M723 1114h168l-53 -389h-396l56 399q24 171 136 259q111 87 308 87l-27 -178q-92 -5 -137 -44q-48 -42 -55 -115v-19z" />
    <glyph glyph-name="quoteright" unicode="&#x2019;" 
d="M664 1081h-168l53 389h395l-55 -399q-24 -171 -136 -259q-111 -87 -309 -87l27 178q92 5 137 44q49 42 56 116v18z" />
    <glyph glyph-name="quotesinglbase" unicode="&#x201a;" 
d="M512 0h-168l53 389h396l-56 -399q-24 -171 -136 -259q-111 -87 -308 -87l26 178q93 5 138 44q48 42 55 116v18z" />
    <glyph glyph-name="quotedblleft" unicode="&#x201c;" 
d="M449 1114h167l-53 -389h-395l55 399q24 171 136 259q111 87 309 87l-27 -178q-92 -5 -137 -44q-48 -42 -55 -115v-19zM997 1114h168l-53 -389h-395l55 399q24 171 136 259q111 87 309 87l-27 -178q-92 -5 -137 -44q-49 -43 -56 -115v-19z" />
    <glyph glyph-name="quotedblright" unicode="&#x201d;" 
d="M940 1081h-168l53 389h396l-56 -399q-24 -171 -136 -259q-111 -87 -308 -87l27 178q92 5 137 44q48 42 55 116v18zM391 1081h-168l53 389h396l-56 -399q-24 -171 -136 -259q-111 -87 -308 -87l27 178q92 5 137 44q48 42 55 116v18z" />
    <glyph glyph-name="quotedblbase" unicode="&#x201e;" 
d="M786 0h-168l54 389h395l-55 -399q-24 -171 -136 -259q-111 -87 -309 -87l27 178q92 5 137 44q48 42 55 116v18zM238 0h-168l53 389h395l-55 -399q-24 -171 -136 -259q-111 -87 -309 -87l27 178q92 5 137 44q49 42 56 116v18z" />
    <glyph glyph-name="dagger" unicode="&#x2020;" 
d="M727 578h-213l66 464h-269l31 215h268l35 254h215l-37 -254h267l-29 -215h-268z" />
    <glyph glyph-name="daggerdbl" unicode="&#x2021;" 
d="M729 578h-217l25 182h-265l29 201h264l25 167h-266l28 203h266l25 180h219l-26 -180h266l-29 -203h-266l-23 -167h265l-29 -201h-264z" />
    <glyph glyph-name="bullet" unicode="&#x2022;" 
d="M991 637q0 -167 -114 -286q-114 -118 -281 -118q-147 0 -244 95q-96 94 -96 239q0 166 115 286q114 118 280 118q149 0 244 -94q96 -95 96 -240z" />
    <glyph glyph-name="ellipsis" unicode="&#x2026;" 
d="M311 0h-338l50 344h335zM709 0h-338l49 344h336zM1106 0h-338l49 344h338z" />
    <glyph glyph-name="guilsinglleft" unicode="&#x2039;" 
d="M774 121l-399 278l39 267l475 278l-39 -282l-240 -136l203 -135z" />
    <glyph glyph-name="guilsinglright" unicode="&#x203a;" 
d="M455 944l399 -278l-39 -267l-475 -278l39 282l239 136l-202 135z" />
    <glyph glyph-name="fraction" unicode="&#x2044;" horiz-adv-x="0" 
d="M-694 0l1208 1470h234l-1207 -1470h-235z" />
    <glyph glyph-name="uni2070" unicode="&#x2070;" 
d="M365 979q0 220 101 360q103 142 263 142q131 0 206 -89t75 -247q0 -221 -102 -364q-102 -142 -265 -142q-132 0 -205 91t-73 249zM578 969q0 -72 20 -106q21 -36 59 -36q60 0 99 95q39 94 39 233q0 70 -20 105q-19 34 -58 34q-59 0 -100 -93q-39 -90 -39 -232z" />
    <glyph glyph-name="uni2074" unicode="&#x2074;" 
d="M885 834l-25 -179h-198l26 179h-358l20 157l348 479h279l-68 -466h103l-25 -170h-102zM748 1296l-203 -292h162z" />
    <glyph glyph-name="uni2075" unicode="&#x2075;" 
d="M692 1036q-24 0 -48 -12q-22 -11 -38 -33l-198 29l100 450h504l-27 -184h-334l-26 -112q28 19 58 26q34 8 67 8q106 0 172 -66q65 -65 65 -175q0 -136 -94 -230t-238 -94q-133 0 -218 72q-85 71 -89 192l215 25q5 -50 33 -78q29 -29 72 -29q47 0 78 34q32 35 32 83
q0 42 -23 68t-63 26z" />
    <glyph glyph-name="uni2076" unicode="&#x2076;" 
d="M770 1483q108 0 176 -49q69 -50 92 -140l-178 -71q-10 41 -39 63q-29 23 -71 23q-60 0 -105 -48t-57 -122q29 28 70 43q38 14 85 14q107 0 175 -69q67 -68 67 -175q0 -129 -92 -219q-91 -90 -234 -90q-138 0 -218 89q-79 88 -79 247q0 214 115 359t293 145zM567 915
q0 -44 27 -71t72 -27q51 0 84 34q32 33 32 85q0 44 -28 72t-72 28q-49 0 -82 -35t-33 -86z" />
    <glyph glyph-name="uni2077" unicode="&#x2077;" 
d="M805 1286h-219l-17 -119h-188l45 303h645l-27 -186q-143 -134 -215 -275q-71 -140 -100 -354h-225q30 210 102 361q72 152 199 270z" />
    <glyph glyph-name="uni2078" unicode="&#x2078;" 
d="M430 1237q0 105 84 175q85 71 215 71q120 0 196 -62q74 -61 74 -159q0 -63 -31 -112t-94 -83q52 -24 79 -70q28 -47 28 -104q0 -111 -91 -180q-93 -70 -237 -70q-137 0 -223 63t-86 164q0 73 44 131t120 86q-37 23 -58 63q-20 38 -20 87zM623 1235q0 -33 23 -53
q24 -21 63 -21q42 0 70 25t28 61q0 32 -25 52t-63 20q-41 0 -69 -25q-27 -24 -27 -59zM557 897q0 -38 27 -62t71 -24q48 0 83 29q34 28 34 71q0 37 -27 60q-26 22 -71 22q-48 0 -83 -27q-34 -27 -34 -69z" />
    <glyph glyph-name="uni2079" unicode="&#x2079;" 
d="M604 643q-106 0 -176 50q-69 50 -92 141l178 71q10 -40 39 -64t72 -24q59 0 104 48t57 122q-29 -28 -70 -43q-38 -14 -85 -14q-107 0 -174 68q-68 70 -68 176q0 129 92 219q91 90 234 90q138 0 218 -89q79 -88 79 -247q0 -215 -115 -360q-114 -144 -293 -144zM807 1210
q0 45 -27 72t-71 27q-51 0 -84 -34q-33 -35 -33 -85q0 -43 29 -72q28 -28 71 -28q49 0 82 34t33 86z" />
    <glyph glyph-name="uni2080" unicode="&#x2080;" 
d="M238 80q0 220 101 360q103 142 263 142q131 0 206 -89t75 -247q0 -221 -102 -364q-102 -142 -265 -142q-132 0 -205 91t-73 249zM451 70q0 -72 20 -106q21 -36 59 -36q60 0 99 95t39 233q0 69 -20 104t-58 35q-60 0 -100 -93q-39 -90 -39 -232z" />
    <glyph glyph-name="uni2081" unicode="&#x2081;" 
d="M596 571h164l-88 -630h162l-27 -187h-571l26 187h195l47 335h-187l23 162l78 6q72 5 112 34q43 32 66 93z" />
    <glyph glyph-name="uni2082" unicode="&#x2082;" 
d="M205 -246l22 154l277 207q88 63 126 108q38 46 38 88q0 37 -23 60q-22 22 -59 22q-50 0 -77 -37q-28 -39 -28 -98v-27q0 -6 2 -16h-207l-3 31q-1 7 -1 20q0 138 93 228q91 88 243 88q130 0 206 -66q77 -66 77 -176q0 -83 -43 -153q-44 -71 -129 -132l-154 -112h273
l-27 -189h-606z" />
    <glyph glyph-name="uni2083" unicode="&#x2083;" 
d="M850 2q0 -115 -86 -187q-87 -73 -227 -73q-138 0 -225 72t-93 188l219 29q5 -53 34 -79q31 -28 77 -28q38 0 66 26t28 60q0 35 -25 55q-23 19 -69 19h-76l23 168h88q40 0 66 21t26 57q0 31 -23 49t-57 18q-44 0 -73 -25q-31 -26 -38 -69l-202 23q27 119 114 187
q89 69 217 69q123 0 200 -62t77 -160q0 -66 -38 -121t-99 -79q47 -23 71 -63q25 -42 25 -95z" />
    <glyph glyph-name="uni2084" unicode="&#x2084;" 
d="M758 -68l-25 -178h-198l26 178h-358l20 158l348 479h279l-68 -467h103l-25 -170h-102zM621 395l-203 -293h162z" />
    <glyph glyph-name="uni2085" unicode="&#x2085;" 
d="M565 135q-24 0 -48 -12q-22 -11 -38 -33l-198 29l100 450h504l-27 -184h-334l-26 -113q31 21 58 27q34 8 67 8q106 0 172 -66q65 -65 65 -175q0 -136 -94 -230t-238 -94q-132 0 -218 72q-85 71 -89 192l215 25q4 -49 33 -78t72 -29q48 0 79 34t31 83q0 42 -23 68t-63 26z
" />
    <glyph glyph-name="uni2086" unicode="&#x2086;" 
d="M643 582q106 0 176 -50t92 -139l-178 -71q-11 40 -39 63q-29 23 -71 23q-59 0 -105 -49q-45 -48 -57 -121q29 28 70 43q38 14 85 14q108 0 175 -69q67 -68 67 -175q0 -129 -92 -219t-234 -90q-138 0 -218 89q-78 87 -78 247q0 215 114 359q115 145 293 145zM440 14
q0 -44 27 -71t72 -27q51 0 84 34q32 33 32 85q0 43 -28 71q-29 29 -72 29q-49 0 -82 -35q-33 -34 -33 -86z" />
    <glyph glyph-name="uni2087" unicode="&#x2087;" 
d="M678 385h-219l-17 -119h-188l45 303h645l-26 -186q-145 -136 -216 -275q-71 -140 -100 -354h-225q30 210 102 361q72 152 199 270z" />
    <glyph glyph-name="uni2088" unicode="&#x2088;" 
d="M303 336q0 104 84 175q85 71 215 71q120 0 196 -62q74 -61 74 -160q0 -62 -31 -111q-32 -50 -93 -83q50 -24 78 -70q28 -47 28 -104q0 -111 -91 -180q-93 -70 -237 -70q-139 0 -223 62q-86 63 -86 165q0 73 44 131t120 86q-37 23 -58 63q-20 38 -20 87zM496 334
q0 -33 23 -53q24 -21 63 -21q42 0 70 25t28 61q0 32 -25 52t-63 20q-41 0 -69 -25q-27 -24 -27 -59zM430 -4q0 -39 27 -63q26 -23 71 -23q48 0 83 29q34 28 34 71q0 38 -27 60q-26 22 -71 22q-49 0 -83 -27t-34 -69z" />
    <glyph glyph-name="uni2089" unicode="&#x2089;" 
d="M477 -258q-106 0 -176 50q-69 50 -92 140l178 72q10 -40 39 -64q28 -24 72 -24q59 0 104 48t57 122q-29 -28 -70 -43q-38 -14 -85 -14q-107 0 -174 68q-68 70 -68 175q0 130 92 220t234 90q138 0 218 -89q79 -88 79 -247q0 -215 -115 -360q-114 -144 -293 -144zM680 309
q0 45 -27 72t-71 27q-51 0 -84 -34t-33 -85q0 -43 29 -72t71 -29q49 0 82 35t33 86z" />
    <glyph glyph-name="Euro" unicode="&#x20ac;" 
d="M188 483h-159l28 197h129q2 20 8 71q4 32 7 48h-127l28 194h146q79 233 237 367q157 133 359 133q186 0 304 -108q117 -107 146 -298l-262 -83q-18 119 -68 180q-49 59 -137 59q-95 0 -172 -64q-78 -65 -129 -186h396l-70 -194h-379q-3 -13 -7 -43q-1 -8 -7 -76h350
l-68 -197h-278q17 -129 75 -192q59 -64 162 -64q89 0 150 56q59 55 100 180l250 -101q-77 -193 -205 -288q-130 -97 -313 -97q-219 0 -345 129q-127 130 -149 377z" />
    <glyph glyph-name="trademark" unicode="&#x2122;" 
d="M485 1294l-69 -499h-205l70 499h-138l25 176h479l-26 -176h-136zM1133 1233l-158 -438h-103l-34 438l-62 -438h-174l94 675h238l29 -385l135 385h241l-94 -675h-174z" />
    <glyph glyph-name="uni2153" unicode="&#x2153;" horiz-adv-x="2457" 
d="M723 1470h164l-88 -630h162l-27 -187h-572l27 187h195l47 336h-187l23 161l78 6q72 5 112 34q43 32 66 93zM535 0l1208 1470h233l-1206 -1470h-235zM2114 248q0 -116 -86 -188t-228 -72q-138 0 -224 71q-87 72 -93 189l219 28q5 -51 34 -78q31 -28 76 -28q39 0 67 26
t28 60t-25 54t-70 20h-75l22 168h88q41 0 67 21q25 21 25 56q0 32 -22 50q-23 18 -57 18q-42 0 -73 -26t-38 -68l-203 22q27 120 115 188q87 68 217 68q124 0 200 -61t76 -160q0 -69 -37 -122t-100 -78q49 -24 72 -63q25 -42 25 -95z" />
    <glyph glyph-name="uni2154" unicode="&#x2154;" horiz-adv-x="2457" 
d="M332 655l22 154l277 207q89 63 126 108q38 46 38 88q0 37 -23 60q-22 22 -59 22q-50 0 -77 -37q-28 -39 -28 -98v-26q0 -7 2 -17h-207l-3 31q-1 7 -1 20q0 138 93 228q91 88 243 88q129 0 206 -66t77 -176q0 -82 -43 -152q-45 -72 -129 -133l-154 -112h273l-27 -189h-606
zM535 0l1208 1470h233l-1206 -1470h-235zM2114 248q0 -116 -86 -188t-228 -72q-138 0 -224 71q-87 72 -93 189l219 28q5 -51 34 -78q31 -28 76 -28q39 0 67 26t28 60t-25 54t-70 20h-75l22 168h88q41 0 67 21q25 21 25 56q0 32 -22 50q-23 18 -57 18q-42 0 -73 -26t-38 -68
l-203 22q27 120 115 188q87 68 217 68q124 0 200 -61t76 -160q0 -69 -37 -122t-100 -78q49 -24 72 -63q25 -42 25 -95z" />
    <glyph glyph-name="uni215B" unicode="&#x215b;" horiz-adv-x="2457" 
d="M723 1470h164l-88 -630h162l-27 -187h-572l27 187h195l47 336h-187l23 161l78 6q72 5 112 34q43 32 66 93zM535 0l1208 1470h233l-1206 -1470h-235zM1567 582q0 104 84 175q83 70 215 70q121 0 195 -61q75 -62 75 -160q0 -61 -32 -111t-93 -83q52 -24 79 -70
q28 -47 28 -104q0 -112 -92 -181t-236 -69q-139 0 -223 62q-86 63 -86 165q0 73 44 131t120 86q-39 24 -59 63q-19 37 -19 87zM1759 580q0 -33 24 -54q23 -20 62 -20q44 0 71 24q28 25 28 62q0 32 -25 52t-64 20q-40 0 -68 -25t-28 -59zM1694 242q0 -40 26 -63t72 -23
q49 0 83 28t34 72q0 36 -27 59q-28 23 -72 23q-47 0 -83 -28q-33 -26 -33 -68z" />
    <glyph glyph-name="uni215C" unicode="&#x215c;" horiz-adv-x="2457" 
d="M977 903q0 -115 -86 -187q-87 -73 -227 -73q-138 0 -225 72t-93 188l219 29q5 -53 34 -79q31 -28 77 -28q38 0 66 26t28 60q0 35 -25 55q-23 19 -69 19h-76l23 168h88q39 0 66 22q26 21 26 56q0 31 -23 49q-22 18 -57 18q-44 0 -73 -25q-31 -26 -38 -69l-202 23
q27 119 114 187q88 69 217 69q123 0 200 -62t77 -159q0 -67 -38 -122t-99 -79q47 -23 71 -63q25 -42 25 -95zM535 0l1208 1470h233l-1206 -1470h-235zM1567 582q0 104 84 175q83 70 215 70q121 0 195 -61q75 -62 75 -160q0 -61 -32 -111t-93 -83q52 -24 79 -70
q28 -47 28 -104q0 -112 -92 -181t-236 -69q-139 0 -223 62q-86 63 -86 165q0 73 44 131t120 86q-39 24 -59 63q-19 37 -19 87zM1759 580q0 -33 24 -54q23 -20 62 -20q44 0 71 24q28 25 28 62q0 32 -25 52t-64 20q-40 0 -68 -25t-28 -59zM1694 242q0 -40 26 -63t72 -23
q49 0 83 28t34 72q0 36 -27 59q-28 23 -72 23q-47 0 -83 -28q-33 -26 -33 -68z" />
    <glyph glyph-name="uni215D" unicode="&#x215d;" horiz-adv-x="2457" 
d="M692 1036q-24 0 -48 -12q-22 -11 -38 -33l-198 29l100 450h504l-27 -184h-334l-26 -112q28 19 58 26q34 8 67 8q106 0 172 -66q65 -65 65 -175q0 -136 -94 -230t-238 -94q-133 0 -218 72q-85 71 -89 192l215 25q5 -50 33 -78q29 -29 72 -29q47 0 78 34q32 35 32 83
q0 42 -23 68t-63 26zM535 0l1208 1470h233l-1206 -1470h-235zM1567 582q0 104 84 175q83 70 215 70q121 0 195 -61q75 -62 75 -160q0 -61 -32 -111t-93 -83q52 -24 79 -70q28 -47 28 -104q0 -112 -91 -181t-237 -69q-139 0 -223 62q-86 63 -86 165q0 73 44 131t120 86
q-39 24 -59 63q-19 37 -19 87zM1759 580q0 -33 24 -54q23 -20 62 -20q44 0 71 24q28 25 28 62q0 32 -25 52t-63 20q-41 0 -69 -25t-28 -59zM1694 242q0 -40 26 -63t72 -23q49 0 83 28t34 72q0 36 -27 59q-28 23 -72 23q-46 0 -82 -28q-34 -27 -34 -68z" />
    <glyph glyph-name="uni215E" unicode="&#x215e;" horiz-adv-x="2457" 
d="M838 1286h-220l-16 -119h-188l45 303h645l-27 -186q-143 -134 -215 -275q-71 -140 -100 -354h-225q30 210 102 361q72 152 199 270zM535 0l1208 1470h233l-1206 -1470h-235zM1567 582q0 104 84 175q83 70 215 70q121 0 195 -61q75 -62 75 -160q0 -61 -32 -111t-93 -83
q52 -24 79 -70q28 -47 28 -104q0 -112 -92 -181t-236 -69q-139 0 -223 62q-86 63 -86 165q0 73 44 131t120 86q-39 24 -59 63q-19 37 -19 87zM1759 580q0 -33 24 -54q23 -20 62 -20q44 0 71 24q28 25 28 62q0 32 -25 52t-64 20q-40 0 -68 -25t-28 -59zM1694 242
q0 -40 26 -63t72 -23q49 0 83 28t34 72q0 36 -27 59q-28 23 -72 23q-47 0 -83 -28q-33 -26 -33 -68z" />
    <glyph glyph-name="minus" unicode="&#x2212;" 
d="M1157 586h-1073l35 237h1073z" />
    <glyph glyph-name="uniF6C3" unicode="&#xf6c3;" 
d="M465 -246h-105l23 174h287l-21 -141q-15 -106 -97 -163q-81 -56 -218 -48l16 113q49 -4 79 12q30 17 36 53z" />
    <glyph glyph-name="NULL" horiz-adv-x="0" 
 />
    <glyph glyph-name="a.1" 
d="M993 0h-274q0 18 1 28q2 15 3 54q-51 -50 -126 -75q-74 -25 -161 -25q-157 0 -255 83q-97 82 -97 220q0 149 114 244q115 95 324 122l271 39l8 53q6 58 -34 88q-42 31 -124 31q-79 0 -122 -32q-41 -31 -56 -101h-277q27 179 151 273q126 96 331 96q212 0 323 -93t88 -253
l-65 -488q-12 -75 -17 -136q-6 -69 -6 -128zM516 201q95 0 159 47q63 46 75 129l16 110l-223 -32q-89 -12 -133 -48q-43 -36 -43 -98q0 -51 39 -80q38 -28 110 -28z" />
    <glyph glyph-name="aogonek.1" 
d="M823 -377q-91 0 -149 47t-58 125q0 53 30 106t87 99h-14q0 18 1 28q2 15 3 54q-51 -50 -126 -75q-74 -25 -161 -25q-157 0 -255 83q-97 82 -97 220q0 149 114 244q115 95 324 122l271 39l8 53q6 58 -34 88q-42 31 -124 31q-79 0 -122 -32q-41 -31 -56 -101h-277
q27 179 151 273q126 96 331 96q212 0 323 -93t88 -253l-65 -488q-12 -75 -17 -136q-6 -69 -6 -128q-80 -29 -129 -72q-47 -41 -47 -80q0 -23 20 -38q19 -15 52 -15q9 0 31 2q12 1 43 8l-25 -165q-53 -11 -62 -13q-24 -4 -53 -4zM516 201q95 0 159 47q63 46 75 129l16 110
l-223 -32q-89 -12 -133 -48q-43 -36 -43 -98q0 -51 39 -80q38 -28 110 -28z" />
    <glyph glyph-name="aacute.1" 
d="M993 0h-274q0 18 1 28q2 15 3 54q-51 -50 -126 -75q-74 -25 -161 -25q-157 0 -255 83q-97 82 -97 220q0 149 114 244q115 95 324 122l271 39l8 53q6 58 -34 88q-42 31 -124 31q-79 0 -122 -32q-41 -31 -56 -101h-277q27 179 151 273q126 96 331 96q212 0 323 -93t88 -253
l-65 -488q-12 -75 -17 -136q-6 -69 -6 -128zM516 201q95 0 159 47q63 46 75 129l16 110l-223 -32q-89 -12 -133 -48q-43 -36 -43 -98q0 -51 39 -80q38 -28 110 -28zM825 1174h-235l149 296h355z" />
    <glyph glyph-name="adieresis.1" 
d="M993 0h-274q0 18 1 28q2 15 3 54q-51 -50 -126 -75q-74 -25 -161 -25q-157 0 -255 83q-97 82 -97 220q0 149 114 244q115 95 324 122l271 39l8 53q6 58 -34 88q-42 31 -124 31q-79 0 -122 -32q-41 -31 -56 -101h-277q27 179 151 273q126 96 331 96q212 0 323 -93t88 -253
l-65 -488q-12 -75 -17 -136q-6 -69 -6 -128zM516 201q95 0 159 47q63 46 75 129l16 110l-223 -32q-89 -12 -133 -48q-43 -36 -43 -98q0 -51 39 -80q38 -28 110 -28zM651 1204h-291l37 266h291zM1049 1204h-291l37 266h290z" />
    <glyph glyph-name="acircumflex.1" 
d="M993 0h-274q0 18 1 28q2 15 3 54q-51 -50 -126 -75q-74 -25 -161 -25q-157 0 -255 83q-97 82 -97 220q0 149 114 244q115 95 324 122l271 39l8 53q6 58 -34 88q-42 31 -124 31q-79 0 -122 -32q-41 -31 -56 -101h-277q27 179 151 273q126 96 331 96q212 0 323 -93t88 -253
l-65 -488q-12 -75 -17 -136q-6 -69 -6 -128zM516 201q95 0 159 47q63 46 75 129l16 110l-223 -32q-89 -12 -133 -48q-43 -36 -43 -98q0 -51 39 -80q38 -28 110 -28zM598 1470h291l162 -296h-205l-119 116l-152 -116h-223z" />
    <glyph glyph-name="aring.1" 
d="M993 0h-274q0 18 1 28q2 15 3 54q-51 -50 -126 -75q-74 -25 -161 -25q-157 0 -255 83q-97 82 -97 220q0 149 114 244q115 95 324 122l271 39l8 53q6 58 -34 88q-42 31 -124 31q-79 0 -122 -32q-41 -31 -56 -101h-277q27 179 151 273q126 96 331 96q212 0 323 -93t88 -253
l-65 -488q-12 -75 -17 -136q-6 -69 -6 -128zM516 201q95 0 159 47q63 46 75 129l16 110l-223 -32q-89 -12 -133 -48q-43 -36 -43 -98q0 -51 39 -80q38 -28 110 -28zM492 1360q0 96 69 165q68 68 172 68q97 0 157 -60t60 -153q0 -96 -69 -163q-70 -68 -174 -68q-95 0 -155 60
t-60 151zM631 1364q0 -38 23 -61q25 -25 61 -25q40 0 67 29t27 71q0 38 -24 62t-60 24q-41 0 -67 -29q-27 -30 -27 -71z" />
    <glyph glyph-name="abreve.1" 
d="M993 0h-274q0 18 1 28q2 15 3 54q-51 -50 -126 -75q-74 -25 -161 -25q-157 0 -255 83q-97 82 -97 220q0 149 114 244q115 95 324 122l271 39l8 53q6 58 -34 88q-42 31 -124 31q-79 0 -122 -32q-41 -31 -56 -101h-277q27 179 151 273q126 96 331 96q212 0 323 -93t88 -253
l-65 -488q-12 -75 -17 -136q-6 -69 -6 -128zM516 201q95 0 159 47q63 46 75 129l16 110l-223 -32q-89 -12 -133 -48q-43 -36 -43 -98q0 -51 39 -80q38 -28 110 -28zM737 1356q49 0 83 30t42 84h197q-17 -147 -102 -225t-226 -78q-147 0 -226 79t-73 224h195q2 -55 31 -84
q30 -30 79 -30z" />
    <glyph glyph-name="agrave.1" 
d="M993 0h-274q0 18 1 28q2 15 3 54q-51 -50 -126 -75q-74 -25 -161 -25q-157 0 -255 83q-97 82 -97 220q0 149 114 244q115 95 324 122l271 39l8 53q6 58 -34 88q-42 31 -124 31q-79 0 -122 -32q-41 -31 -56 -101h-277q27 179 151 273q126 96 331 96q212 0 323 -93t88 -253
l-65 -488q-12 -75 -17 -136q-6 -69 -6 -128zM516 201q95 0 159 47q63 46 75 129l16 110l-223 -32q-89 -12 -133 -48q-43 -36 -43 -98q0 -51 39 -80q38 -28 110 -28zM741 1470l88 -296h-215l-204 296h331z" />
    <glyph glyph-name="atilde.1" 
d="M993 0h-274q0 18 1 28q2 15 3 54q-51 -50 -126 -75q-74 -25 -161 -25q-157 0 -255 83q-97 82 -97 220q0 149 114 244q115 95 324 122l271 39l8 53q6 58 -34 88q-42 31 -124 31q-79 0 -122 -32q-41 -31 -56 -101h-277q27 179 151 273q126 96 331 96q212 0 323 -93t88 -253
l-65 -488q-12 -75 -17 -136q-6 -69 -6 -128zM516 201q95 0 159 47q63 46 75 129l16 110l-223 -32q-89 -12 -133 -48q-43 -36 -43 -98q0 -51 39 -80q38 -28 110 -28zM619 1278q-32 0 -53 -24q-23 -26 -40 -80h-182q22 147 86 231q63 82 158 82q32 0 64 -12q30 -11 83 -52
q34 -24 53 -33q18 -8 31 -8q30 0 52 25t38 80h183q-23 -150 -85 -232q-62 -81 -157 -81q-33 0 -66 12t-84 51q-33 26 -51 34q-15 7 -30 7z" />
    <glyph glyph-name="amacron.1" 
d="M993 0h-274q0 18 1 28q2 15 3 54q-51 -50 -126 -75q-74 -25 -161 -25q-157 0 -255 83q-97 82 -97 220q0 149 114 244q115 95 324 122l271 39l8 53q6 58 -34 88q-42 31 -124 31q-79 0 -122 -32q-41 -31 -56 -101h-277q27 179 151 273q126 96 331 96q212 0 323 -93t88 -253
l-65 -488q-12 -75 -17 -136q-6 -69 -6 -128zM516 201q95 0 159 47q63 46 75 129l16 110l-223 -32q-89 -12 -133 -48q-43 -36 -43 -98q0 -51 39 -80q38 -28 110 -28zM1051 1425l-31 -217h-627l31 217h627z" />
    <glyph glyph-name="i.loclTRK" 
d="M891 1204h-293l37 266h293zM1069 0h-1006l35 240h365l86 598h-361l35 239h645l-118 -837h352z" />
    <glyph glyph-name="ordfeminine.1" 
d="M985 702h-240q-2 11 -1 21l4 37q-38 -35 -92 -53q-57 -19 -119 -19q-113 0 -182 60q-68 59 -68 157q0 109 91 179q92 71 257 87l156 19l4 27q4 34 -19 53q-22 18 -69 18q-45 0 -71 -18t-32 -58h-248q23 131 119 203t252 72q165 0 250 -72q87 -73 72 -194l-48 -324
q-9 -74 -13 -124q-3 -42 -3 -71zM627 872q54 0 91 29t44 78l8 51l-127 -14q-51 -6 -78 -27q-26 -20 -26 -55q0 -29 23 -45q25 -17 65 -17zM944 412h-727l27 180h727z" />
    <glyph glyph-name="a.ord" 
d="M1051 889l-27 -187q-92 -18 -167 0t-105 68q-39 -39 -98 -60q-61 -22 -128 -22q-114 0 -186 60t-72 157q0 109 85 176q86 68 241 84l188 21l4 14q5 42 -19 63t-71 21q-48 2 -76 -18q-30 -21 -45 -62l-239 45q39 112 140 174q104 64 245 64q162 0 249 -75q86 -74 68 -202
l-41 -278q-2 -23 10 -33q11 -10 44 -10zM608 870q59 0 99 29q39 29 47 76l6 55l-133 -18q-54 -8 -81 -29q-28 -22 -28 -53q0 -29 24 -44q26 -16 66 -16z" />
    <glyph glyph-name="a.1.ord" 
d="M985 702h-240q-2 11 -1 21l4 37q-38 -35 -92 -53q-57 -19 -119 -19q-113 0 -182 60q-68 59 -68 157q0 109 91 179q92 71 257 87l156 19l4 27q4 34 -19 53q-22 18 -69 18q-45 0 -71 -18t-32 -58h-248q23 131 119 203t252 72q165 0 250 -72q87 -73 72 -194l-48 -324
q-9 -74 -13 -124q-3 -42 -3 -71zM627 872q54 0 91 29t44 78l8 51l-127 -14q-51 -6 -78 -27q-26 -20 -26 -55q0 -29 23 -45q25 -17 65 -17z" />
    <glyph glyph-name="b.ord" 
d="M821 1487q124 0 196 -93q73 -94 73 -249q0 -192 -101 -326q-100 -133 -250 -133q-65 0 -119 27q-55 27 -81 71l-13 -82h-256l148 1045h256l-49 -350q31 41 84 66q51 24 112 24zM723 1270q-57 0 -93 -42q-35 -41 -46 -118l-6 -39q-11 -74 20 -121q30 -47 88 -47
q66 0 107 62t41 153q0 73 -29 113q-29 39 -82 39z" />
    <glyph glyph-name="c.ord" 
d="M739 1278q-78 0 -129 -65t-51 -160q0 -77 37 -117q38 -41 102 -41q54 0 96 31q40 29 58 86l215 -76q-38 -118 -140 -183q-105 -67 -251 -67q-166 0 -270 98q-105 99 -105 254q0 189 127 319t322 130q143 0 243 -70q98 -69 115 -180l-236 -76q-8 53 -44 85q-37 32 -89 32z
" />
    <glyph glyph-name="d.ord" 
d="M559 686q-122 0 -194 93t-72 249q0 196 98 327q99 132 248 132q67 0 121 -26t82 -72l51 358h256l-148 -1045h-256l11 72q-33 -40 -85 -64q-53 -24 -112 -24zM657 903q57 0 94 42q38 42 48 118l4 39q10 72 -21 121q-30 47 -88 47q-65 0 -106 -62t-41 -155q0 -73 28 -111
q29 -39 82 -39z" />
    <glyph glyph-name="e.ord" 
d="M674 686q-169 0 -272 95q-101 94 -101 255q0 191 124 321t310 130q178 0 273 -115q94 -114 67 -293l-8 -49h-522q6 -70 45 -107q40 -38 102 -38q49 0 89 25q41 26 65 71l198 -74q-46 -102 -146 -162q-97 -59 -224 -59zM723 1294q-53 0 -92 -29q-43 -32 -66 -85h275
q2 51 -30 83q-31 31 -87 31z" />
    <glyph glyph-name="f.ord" 
d="M979 702h-733l28 209h215l48 338h-215l30 211h213q21 147 129 226q107 79 287 79q49 0 101 -6q58 -7 94 -16l-27 -187q-16 2 -48 6.5t-44 5.5q-33 3 -58 3q-82 0 -127 -28q-43 -27 -49 -83h314l-29 -211h-315l-48 -338h263z" />
    <glyph glyph-name="g.ord" 
d="M1110 1470l-96 -682q-24 -172 -134 -264t-292 -92q-151 0 -247 61t-120 173l242 47q12 -43 50 -67q36 -23 91 -23q66 0 103 36q38 37 49 107l6 45q-32 -40 -81 -61q-48 -21 -108 -21q-130 0 -208 88t-78 238q0 180 102 306t256 126q63 0 118 -25q53 -24 81 -67l12 75h254
zM803 1094l2 26q7 71 -23 115q-30 43 -86 43q-67 0 -109 -57t-42 -146q0 -66 28 -101q29 -36 84 -36q60 0 99 42q40 43 47 114z" />
    <glyph glyph-name="h.ord" 
d="M532 702h-256l148 1045h256l-49 -346q39 41 94 63q57 23 117 23q120 0 183 -80q62 -78 44 -213l-68 -492h-256l62 439q8 57 -14 86q-23 30 -72 30q-52 0 -85 -33q-34 -34 -42 -98z" />
    <glyph glyph-name="i.ord" 
d="M911 1540h-260l29 207h258zM1024 702h-754l31 209h262l49 351h-247l30 208h502l-78 -559h234z" />
    <glyph glyph-name="j.ord" 
d="M1026 1540h-258l29 207h260zM496 653q78 0 118 29q39 29 50 98l67 482h-319l30 208h574l-101 -722q-23 -156 -125 -234q-104 -80 -278 -80q-56 0 -123 8q-55 7 -104 21l28 211q53 -12 96 -16q53 -5 87 -5z" />
    <glyph glyph-name="k.ord" 
d="M424 1747h256l-76 -543l260 266h295l-301 -286l205 -482h-279l-122 291l-103 -96l-27 -195h-256z" />
    <glyph glyph-name="l.ord" 
d="M1024 702h-754l31 209h262l88 627h-245l28 209h504l-119 -836h234z" />
    <glyph glyph-name="m.ord" 
d="M571 1288q-24 0 -39 -21q-14 -19 -20 -69l-72 -496h-194l108 768h195l-6 -49q23 30 58 48q36 18 77 18q42 0 76 -20q32 -19 49 -54q23 31 66 53q42 21 87 21q81 0 124 -64t28 -168l-78 -553h-196l69 498q6 46 -2 68q-7 20 -35 20q-26 0 -41 -21q-14 -19 -20 -69l-70 -496
h-194l69 498q6 50 -3 69t-36 19z" />
    <glyph glyph-name="n.ord" 
d="M532 702h-256l109 768h256l-10 -69q39 41 94 63q57 23 117 23q120 0 183 -80q62 -78 44 -213l-68 -492h-256l62 439q8 57 -14 86q-23 30 -72 30q-52 0 -85 -33q-34 -34 -42 -98z" />
    <glyph glyph-name="o.ord" 
d="M297 1044q0 190 119 317q118 126 303 126q168 0 266 -97t98 -264q0 -189 -118 -314q-119 -126 -306 -126q-166 0 -264 97t-98 261zM549 1051q0 -73 32 -116q31 -42 89 -42q70 0 116 65q48 68 48 164q0 76 -33 117t-90 41q-69 0 -116 -66q-46 -65 -46 -163z" />
    <glyph glyph-name="p.ord" 
d="M821 1487q124 0 196 -93q73 -94 73 -249q0 -192 -101 -326q-100 -133 -250 -133q-65 0 -118 27q-55 28 -82 71l-47 -335h-259l146 1021h256l-10 -73q31 41 84 66q51 24 112 24zM723 1270q-57 0 -93 -42q-35 -41 -46 -118l-6 -39q-11 -74 20 -121q30 -47 88 -47
q66 0 107 62t41 153q0 73 -29 113q-29 39 -82 39z" />
    <glyph glyph-name="q.ord" 
d="M559 686q-122 0 -194 93t-72 249q0 196 98 327q99 132 248 132q67 0 121 -26t82 -72l10 81h258l-145 -1021h-256l47 325q-33 -40 -85 -64q-53 -24 -112 -24zM657 903q57 0 94 42q38 42 48 118l4 39q10 72 -21 121q-30 47 -88 47q-65 0 -106 -62t-41 -155q0 -73 28 -111
q29 -39 82 -39z" />
    <glyph glyph-name="r.ord" 
d="M930 702h-676l31 209h186l51 351h-190l30 208h431l-17 -106q45 55 117 84q76 31 158 31q24 0 52 -2q16 -1 38 -9l-33 -241q-29 6 -55 9q-27 3 -52 3q-111 0 -183 -48q-73 -49 -85 -132l-20 -148h248z" />
    <glyph glyph-name="s.ord" 
d="M655 686q-115 0 -225 37t-170 94l123 166q57 -51 137 -81t156 -30q50 0 81 17q29 16 29 43q0 25 -29 38q-28 13 -102 25q-152 24 -225 77q-72 52 -72 142q0 120 103 197q101 76 266 76q109 0 209 -35q96 -34 147 -92l-133 -148q-42 42 -105 67q-66 26 -130 26
q-47 0 -73 -15t-26 -39q0 -19 26 -33q25 -13 110 -30q146 -24 218 -79q70 -54 70 -142q0 -125 -105 -203t-280 -78z" />
    <glyph glyph-name="t.ord" 
d="M791 690q-171 0 -261 73q-87 71 -69 204l41 297h-191l29 206h190l35 230h254l-31 -230h336l-28 -206h-338l-35 -246q-8 -58 25 -83q34 -26 116 -26q43 0 91 6q43 5 94 19l-31 -213q-53 -16 -109 -23q-64 -8 -118 -8z" />
    <glyph glyph-name="u.ord" 
d="M848 1470h256l-107 -768h-256l9 70q-38 -41 -94 -63q-58 -23 -117 -23q-121 0 -184 80q-62 78 -44 213l70 491h256l-59 -440q-8 -59 14 -89q23 -32 72 -32q48 0 82 36t42 99z" />
    <glyph glyph-name="v.ord" 
d="M1165 1470l-413 -768h-256l-177 768h256l93 -456l237 456h260z" />
    <glyph glyph-name="w.ord" 
d="M520 1065l139 405h166l15 -405l121 405h219l-265 -768h-196l-19 455l-157 -455h-209l-25 768h211v-405z" />
    <glyph glyph-name="x.ord" 
d="M1053 702h-275l-110 216l-166 -216h-279l318 400l-197 368h272l99 -192l151 192h279l-303 -376z" />
    <glyph glyph-name="y.ord" 
d="M1165 1470l-413 -761q-95 -177 -167 -225t-192 -48q-17 0 -49 2q-26 2 -49 6l27 197q28 -1 37 -3q6 -1 18 -1q40 0 62 14q24 15 40 47l21 35l-181 737h256l95 -448l235 448h260z" />
    <glyph glyph-name="z.ord" 
d="M655 911h379l-30 -209h-736l25 183l444 377h-387l31 208h727l-25 -182z" />
    <glyph glyph-name="caron.Slovak" 
d="M690 1073h-178l94 397h283z" />
    <glyph glyph-name="commaturn" 
d="M766 1348h104l-24 -174h-285l21 141q15 108 97 165q81 56 218 48l-16 -115q-49 4 -79 -12q-30 -17 -36 -53z" />
    <glyph glyph-name="grave.cap" 
d="M893 1866l145 -314h-225l-293 314h373z" />
    <glyph glyph-name="acute.cap" 
d="M694 1552h-239l204 314h396z" />
    <glyph glyph-name="circumflex.cap" 
d="M643 1866h313l195 -314h-211l-156 140l-192 -140h-227z" />
    <glyph glyph-name="caron.cap" 
d="M1194 1866l-281 -314h-313l-192 314h208l156 -140l193 140h229z" />
    <glyph glyph-name="tilde.cap" 
d="M1008 1890h194q-23 -154 -98 -244q-77 -92 -182 -92q-36 0 -73 14q-38 14 -93 52q-43 30 -62 37q-22 8 -39 8q-36 0 -62 -28t-38 -83h-195q22 153 98 245q75 91 181 91q40 0 75 -13q38 -14 93 -52q44 -31 60 -37q21 -8 38 -8q37 0 63 27q25 26 40 83z" />
    <glyph glyph-name="macron.cap" 
d="M1139 1794l-33 -225h-696l32 225h697z" />
    <glyph glyph-name="breve.cap" 
d="M784 1548q-158 0 -250 89q-91 88 -83 233h213q0 -64 35 -100q36 -37 96 -37q61 0 104 37q42 36 53 100h203q-21 -154 -117 -238t-254 -84z" />
    <glyph glyph-name="dotaccent.cap" 
d="M907 1552h-301l39 273h299z" />
    <glyph glyph-name="dieresis.cap" 
d="M696 1552h-290l36 273h291zM1110 1552h-293l39 273h291z" />
    <glyph glyph-name="ring.cap" 
d="M526 1788q0 113 79 189q80 77 198 77q114 0 182 -67q70 -68 70 -172q0 -114 -79 -190q-80 -77 -198 -77q-112 0 -182 68t-70 172zM690 1790q0 -39 27 -63q26 -23 69 -23q44 0 75 31q30 30 30 75q0 42 -27 67q-28 26 -69 26q-45 0 -75 -33t-30 -80z" />
    <glyph glyph-name="hungarumlaut.cap" 
d="M967 1556h-228l211 314h326zM543 1556h-228l211 314h326z" />
    <glyph glyph-name="guilsinglleft.cap" 
d="M803 326l-400 278l39 266l476 279l-39 -283l-240 -135l203 -135z" />
    <glyph glyph-name="guilsinglright.cap" 
d="M483 1149l400 -279l-39 -266l-475 -278l39 282l239 135l-203 136z" />
    <glyph glyph-name="guillemotleft.cap" 
d="M543 326l-400 278l39 266l475 279l-39 -283l-239 -135l203 -135zM1063 326l-399 278l38 266l476 279l-39 -283l-240 -135l203 -135z" />
    <glyph glyph-name="guillemotright.cap" 
d="M743 1149l400 -279l-39 -266l-475 -278l39 282l239 135l-202 136zM223 1149l400 -279l-39 -266l-475 -278l38 282l240 135l-203 136z" />
    <glyph glyph-name="slash.cap" 
d="M381 -119h-301l825 1712h301z" />
    <glyph glyph-name="backslash.cap" 
d="M692 1589l172 -1712h-274l-174 1712h276z" />
    <glyph glyph-name="bar.cap" 
d="M662 -119h-279l240 1712h278z" />
    <glyph glyph-name="periodcentered.cap" 
d="M809 526h-393l53 389h395z" />
    <glyph glyph-name="bullet.cap" 
d="M1004 727q0 -166 -115 -286q-113 -117 -281 -117q-146 0 -243 95t-97 240q0 167 115 285q114 117 281 117q148 0 243 -94q97 -95 97 -240z" />
    <glyph glyph-name="hyphen.cap" 
d="M913 567h-589l36 256h590z" />
    <glyph glyph-name="endash.cap" 
d="M1065 578h-893l35 233h893z" />
    <glyph glyph-name="emdash.cap" 
d="M1225 578h-1213l33 233h1215z" />
    <glyph glyph-name="parenleft.cap" 
d="M338 594q0 276 128 547q126 268 341 452h297q-217 -219 -336 -482q-119 -264 -119 -523q0 -196 57 -382q58 -189 156 -325h-272q-120 151 -187 337q-65 180 -65 376z" />
    <glyph glyph-name="parenright.cap" 
d="M952 881q0 -276 -128 -547q-127 -269 -341 -453h-297q216 218 336 483q119 264 119 523q0 196 -56 379q-57 187 -157 327h270q123 -151 189 -336q65 -182 65 -376z" />
    <glyph glyph-name="bracketleft.cap" 
d="M1081 1368h-372l-181 -1264h373l-29 -223h-657l240 1712h657z" />
    <glyph glyph-name="bracketright.cap" 
d="M207 106h373l178 1264h-373l31 223h657l-242 -1712h-657z" />
    <glyph glyph-name="braceleft.cap" 
d="M305 623h-96l33 229h96q60 0 90 36q31 38 43 118l35 239q23 168 133 258q111 90 293 90h258l-33 -225h-190q-97 0 -146 -45q-48 -44 -63 -145l-25 -183q-15 -106 -59 -166q-44 -61 -129 -94q78 -33 103 -92q26 -61 11 -164l-24 -182q-15 -97 25 -143q42 -48 135 -48h186
l-33 -225h-219q-191 0 -287 93q-97 94 -80 262l33 233q12 79 -9 117q-21 37 -81 37z" />
    <glyph glyph-name="braceright.cap" 
d="M981 852h96l-33 -229h-96q-59 0 -92 -37q-32 -37 -43 -117l-33 -240q-24 -171 -132 -259q-109 -89 -290 -89h-262l33 225h190q95 0 146 46q48 44 63 145l25 182q15 105 59 167q45 63 129 93q-78 33 -103 92q-26 61 -11 164l24 183q15 96 -24 143t-133 47h-189l33 225h215
q189 0 287 -94q99 -94 84 -260l-33 -233q-12 -80 9 -117t81 -37z" />
    <glyph glyph-name="at.cap" 
d="M887 455q53 0 108 177q56 179 56 347q0 188 -73 291q-72 102 -208 102q-124 0 -230 -89t-182 -255q-55 -120 -85 -265q-29 -139 -29 -286q0 -225 84 -345t239 -120q83 0 158 35q73 34 141 107l101 -129q-84 -93 -185 -139t-223 -46q-239 0 -373 167q-133 166 -133 466
q0 176 44 358q43 178 124 326q101 188 243 286q142 99 310 99q216 0 340 -151q125 -152 125 -412q0 -287 -115 -500q-114 -211 -278 -211q-63 0 -108 31q-43 29 -58 86q-34 -56 -82 -87q-46 -30 -100 -30q-83 0 -133 74t-50 203q0 217 99 401t233 184q53 0 93 -30
q41 -30 53 -78l26 90h195l-144 -557q-14 -42 -9 -73q5 -27 26 -27zM573 457q32 0 56 42q25 45 43 122l43 170q18 70 8 111q-11 42 -43 42q-58 0 -106 -131t-48 -256q0 -52 12 -76t35 -24z" />
    <glyph glyph-name="zero.dnom" horiz-adv-x="1226" 
d="M272 326q0 219 102 360t263 141q131 0 206 -89q75 -88 75 -246q0 -222 -102 -364t-265 -142q-132 0 -205 91q-74 92 -74 249zM485 315q0 -69 21 -105t59 -36q60 0 99 94q38 92 38 234q0 70 -19 104q-20 35 -58 35q-59 0 -100 -93q-40 -92 -40 -233z" />
    <glyph glyph-name="one.dnom" horiz-adv-x="1226" 
d="M631 817h164l-88 -631h161l-26 -186h-572l27 186h195l47 336h-187l23 162l78 6q72 5 112 34q43 32 66 93z" />
    <glyph glyph-name="two.dnom" horiz-adv-x="1226" 
d="M240 0l22 154l277 206q86 62 126 109q37 44 37 88q0 37 -22 59q-23 23 -59 23q-50 0 -77 -37q-28 -39 -28 -98v-27q0 -6 2 -16h-207l-3 31q-1 7 -1 20q0 138 92 227q91 88 244 88q131 0 206 -65q77 -66 77 -176q0 -83 -43 -153q-43 -71 -129 -132l-154 -113h272l-26 -188
h-606z" />
    <glyph glyph-name="three.dnom" horiz-adv-x="1226" 
d="M885 248q0 -116 -86 -188t-228 -72q-138 0 -224 71q-87 72 -93 189l219 28q5 -51 34 -78q31 -28 77 -28q38 0 66 26t28 60t-25 54t-69 20h-76l22 168h88q42 0 67 21q26 21 26 56q0 32 -23 50q-22 18 -57 18q-42 0 -73 -26t-38 -68l-203 22q27 120 115 188q87 68 217 68
q124 0 200 -61q77 -62 77 -160q0 -67 -38 -122q-37 -53 -100 -78q49 -24 72 -63q25 -42 25 -95z" />
    <glyph glyph-name="four.dnom" horiz-adv-x="1226" 
d="M793 178l-25 -178h-199l27 178h-358l20 158l348 479h279l-68 -467h103l-25 -170h-102zM655 641l-202 -293h161z" />
    <glyph glyph-name="five.dnom" horiz-adv-x="1226" 
d="M600 381q-24 0 -48 -12q-22 -11 -38 -33l-199 29l101 450h504l-27 -184h-334l-27 -113q30 20 59 27q34 8 66 8q105 0 172 -67q66 -66 66 -175q0 -135 -94 -229t-238 -94q-134 0 -218 71t-89 193l215 24q4 -48 33 -77t71 -29q48 0 79 34q32 35 32 83q0 41 -23 67
q-24 27 -63 27z" />
    <glyph glyph-name="six.dnom" horiz-adv-x="1226" 
d="M678 827q108 0 176 -49q70 -50 92 -139l-178 -72q-11 42 -39 64t-72 22q-59 0 -104 -48t-57 -122q29 28 70 43q40 15 85 15q107 0 174 -69q68 -70 68 -175q0 -129 -92 -219q-91 -90 -234 -90q-138 0 -218 89q-79 88 -79 247q0 214 115 359q114 144 293 144zM475 260
q0 -45 27 -72q26 -26 71 -26q51 0 84 34q33 35 33 85q0 43 -28 71q-29 29 -72 29q-49 0 -82 -35q-33 -34 -33 -86z" />
    <glyph glyph-name="seven.dnom" horiz-adv-x="1226" 
d="M713 631h-219l-17 -119h-188l45 303h645l-27 -186q-142 -133 -215 -276q-72 -140 -100 -353h-225q30 208 102 360q73 154 199 271z" />
    <glyph glyph-name="eight.dnom" horiz-adv-x="1226" 
d="M338 582q0 104 84 175q83 70 215 70q122 0 196 -61t74 -160q0 -62 -31 -111t-94 -83q52 -24 79 -70q28 -47 28 -104q0 -112 -91 -181q-92 -69 -237 -69q-139 0 -223 62q-86 63 -86 165q0 73 44 131t120 86q-39 24 -59 63q-19 37 -19 87zM530 580q0 -33 24 -54
q23 -20 62 -20q44 0 71 24q28 25 28 62q0 32 -25 52t-63 20q-41 0 -69 -25t-28 -59zM465 242q0 -39 27 -63q26 -23 71 -23q49 0 83 28t34 72q0 36 -27 59q-28 23 -71 23q-47 0 -83 -28q-34 -27 -34 -68z" />
    <glyph glyph-name="nine.dnom" horiz-adv-x="1226" 
d="M512 -12q-106 0 -176 50q-69 50 -92 140l178 72q11 -41 39 -65q27 -23 71 -23q60 0 105 48t57 122q-29 -28 -70 -43q-40 -15 -85 -15q-107 0 -174 69q-68 70 -68 175q0 129 92 219q91 90 234 90q138 0 218 -89q79 -88 79 -246q0 -215 -115 -360q-114 -144 -293 -144z
M715 555q0 45 -27 72q-26 26 -72 26q-52 0 -84 -33t-32 -85q0 -44 28 -72q29 -29 72 -29q49 0 82 35t33 86z" />
    <glyph glyph-name="colon.mid" 
d="M766 223h-393l53 389h395zM864 918h-393l53 389h396z" />
    <glyph glyph-name="_222" horiz-adv-x="0" 
 />
    <glyph glyph-name="g.1.ord" 
d="M348 1204q0 123 95 203t251 80q72 0 134 -20q64 -21 102 -56q29 38 78 60t102 22q12 0 30 -2l12.5 -2.5t10.5 -1.5l-30 -213q-8 3 -26 7q-13 3 -26 3q-23 0 -43 -10q-17 -9 -34 -27v-8q0 -123 -93 -207q-91 -82 -239 -82q-37 0 -77 5q-33 4 -67 16q-14 -4 -22 -15t-8 -24
q0 -16 11 -23q13 -8 32 -8h243q121 0 188 -50q66 -50 66 -140q0 -129 -115 -208t-317 -79q-188 0 -292 52q-105 52 -105 142q0 51 32 94q31 42 89 66q-25 17 -38 43t-13 60q0 52 35 94t98 65q-30 30 -47 73t-17 91zM776 1227q0 35 -25 56q-27 22 -67 22q-48 0 -75 -27
t-27 -68q0 -34 24 -55q23 -20 68 -20q49 0 75 25q27 26 27 67zM449 651q0 -31 40 -47q39 -16 123 -16q90 0 132 19q44 20 44 57q0 16 -15 25t-46 9h-205q-34 0 -54 -12q-19 -12 -19 -35z" />
    <glyph glyph-name="ae.1" 
d="M979 373l207 -74q-50 -151 -154 -236q-106 -86 -235 -86q-86 0 -158 39q-71 38 -109 107q-52 -69 -126 -107q-69 -36 -154 -36q-122 0 -199 81q-78 83 -78 213q0 176 128 284q127 108 345 108h46l6 53q10 66 -14 106q-24 39 -74 39q-47 0 -82 -35q-36 -36 -52 -100h-229
q27 162 133 265q107 104 246 104q81 2 137 -28q57 -30 90 -87q57 57 124 86t136 29q172 0 259 -153q88 -154 55 -386l-13 -82h-524q-2 -14 -2 -20v-33q0 -103 35 -164q34 -59 96 -59q53 0 94 45q43 48 66 127zM895 870q-55 0 -101 -54q-46 -53 -73 -150h280q12 94 -16 149
t-90 55zM211 303q0 -51 25 -79q24 -27 69 -27q58 0 95 43q39 46 51 125l14 112h-19q-115 0 -176 -44q-59 -43 -59 -130z" />
    <glyph glyph-name="dcaron.1" 
d="M463 -23q-175 0 -280 132q-103 130 -103 350q0 268 142 453q142 186 358 186q95 0 173 -38q75 -37 117 -108l72 518h289l-209 -1470h-287l17 109q-48 -63 -123 -97q-78 -35 -166 -35zM561 223q101 0 168 75t84 206l6 59q16 126 -38 208q-54 81 -154 81q-114 0 -185 -104
t-71 -263q0 -127 49 -194q50 -68 141 -68zM1425 1073h-178l94 397h283z" />
    <glyph glyph-name="g.1" 
d="M160 705q0 170 131 281q132 112 336 112q104 0 188 -30t139 -85q43 59 109 92t141 33q14 0 38 -2q18 -2 30 -6l-37 -262q-13 5 -34 10q-17 4 -36 4q-37 0 -68 -16q-32 -17 -53 -45q3 -12 3 -15v-24q0 -172 -131 -285t-332 -113q-49 0 -100 8q-44 7 -91 23q-32 -7 -54 -27
q-20 -18 -20 -45q0 -26 20 -41q18 -14 54 -14h346q167 0 254 -65q88 -66 88 -189q0 -181 -155 -288t-426 -107q-253 0 -394 73q-139 72 -139 205q0 73 43 129q44 57 121 90q-33 29 -52 68q-18 37 -18 82q0 73 49 134t132 91q-41 46 -62 102q-20 54 -20 122zM778 743
q0 65 -45 102q-46 38 -119 38q-84 0 -134 -48t-50 -124q0 -65 45 -102q46 -38 119 -38q83 0 134 49q50 48 50 123zM242 -72q0 -54 67 -82q66 -28 197 -28q148 0 226 35q77 35 77 102q0 32 -27 50t-80 18h-327q-60 0 -97 -26q-36 -25 -36 -69z" />
    <glyph glyph-name="gdotaccent.1" 
d="M160 705q0 170 131 281q132 112 336 112q104 0 188 -30t139 -85q43 59 109 92t141 33q14 0 38 -2q18 -2 30 -6l-37 -262q-13 5 -34 10q-17 4 -36 4q-37 0 -68 -16q-32 -17 -53 -45q3 -12 3 -15v-24q0 -172 -131 -285t-332 -113q-49 0 -100 8q-44 7 -91 23q-32 -7 -54 -27
q-20 -18 -20 -45q0 -26 20 -41q18 -14 54 -14h346q167 0 254 -65q88 -66 88 -189q0 -181 -155 -288t-426 -107q-253 0 -394 73q-139 72 -139 205q0 73 43 129q44 57 121 90q-33 29 -52 68q-18 37 -18 82q0 73 49 134t132 91q-41 46 -62 102q-20 54 -20 122zM778 743
q0 65 -45 102q-46 38 -119 38q-84 0 -134 -48t-50 -124q0 -65 45 -102q46 -38 119 -38q83 0 134 49q50 48 50 123zM242 -72q0 -54 67 -82q66 -28 197 -28q148 0 226 35q77 35 77 102q0 32 -27 50t-80 18h-327q-60 0 -97 -26q-36 -25 -36 -69zM852 1204h-295l37 266h295z" />
    <glyph glyph-name="uni0123.1" 
d="M160 705q0 170 131 281q132 112 336 112q104 0 188 -30t139 -85q43 59 109 92t141 33q14 0 38 -2q18 -2 30 -6l-37 -262q-13 5 -34 10q-17 4 -36 4q-37 0 -68 -16q-32 -17 -53 -45q3 -12 3 -15v-24q0 -172 -131 -285t-332 -113q-49 0 -100 8q-44 7 -91 23q-32 -7 -54 -27
q-20 -18 -20 -45q0 -26 20 -41q18 -14 54 -14h346q167 0 254 -65q88 -66 88 -189q0 -181 -155 -288t-426 -107q-253 0 -394 73q-139 72 -139 205q0 73 43 129q44 57 121 90q-33 29 -52 68q-18 37 -18 82q0 73 49 134t132 91q-41 46 -62 102q-20 54 -20 122zM778 743
q0 65 -45 102q-46 38 -119 38q-84 0 -134 -48t-50 -124q0 -65 45 -102q46 -38 119 -38q83 0 134 49q50 48 50 123zM242 -72q0 -54 67 -82q66 -28 197 -28q148 0 226 35q77 35 77 102q0 32 -27 50t-80 18h-327q-60 0 -97 -26q-36 -25 -36 -69zM756 1348h104l-24 -174h-285
l20 141q15 108 98 165q81 56 218 48l-17 -115q-48 4 -78 -12q-30 -17 -36 -53z" />
    <glyph glyph-name="aeacute.1" 
d="M793 1174h-236l150 296h354zM979 373l207 -74q-50 -151 -154 -236q-106 -86 -235 -86q-86 0 -158 39q-71 38 -109 107q-52 -69 -126 -107q-69 -36 -154 -36q-122 0 -199 81q-78 83 -78 213q0 176 128 284q127 108 345 108h46l6 53q10 66 -14 106q-24 39 -74 39
q-47 0 -82 -35q-36 -36 -52 -100h-229q27 162 133 265q107 104 246 104q81 2 137 -28q57 -30 90 -87q57 57 124 86t136 29q172 0 259 -153q88 -154 55 -386l-13 -82h-524q-2 -14 -2 -20v-33q0 -103 35 -164q34 -59 96 -59q53 0 94 45q43 48 66 127zM895 870q-55 0 -101 -54
q-46 -53 -73 -150h280q12 94 -16 149t-90 55zM211 303q0 -51 25 -79q24 -27 69 -27q58 0 95 43q39 46 51 125l14 112h-19q-115 0 -176 -44q-59 -43 -59 -130z" />
    <glyph glyph-name="gbreve.1" 
d="M160 705q0 170 131 281q132 112 336 112q104 0 188 -30t139 -85q43 59 109 92t141 33q14 0 38 -2q18 -2 30 -6l-37 -262q-13 5 -34 10q-17 4 -36 4q-37 0 -68 -16q-32 -17 -53 -45q3 -12 3 -15v-24q0 -172 -131 -285t-332 -113q-49 0 -100 8q-44 7 -91 23q-32 -7 -54 -27
q-20 -18 -20 -45q0 -26 20 -41q18 -14 54 -14h346q167 0 254 -65q88 -66 88 -189q0 -181 -155 -288t-426 -107q-253 0 -394 73q-139 72 -139 205q0 73 43 129q44 57 121 90q-33 29 -52 68q-18 37 -18 82q0 73 49 134t132 91q-41 46 -62 102q-20 54 -20 122zM778 743
q0 65 -45 102q-46 38 -119 38q-84 0 -134 -48t-50 -124q0 -65 45 -102q46 -38 119 -38q83 0 134 49q50 48 50 123zM242 -72q0 -54 67 -82q66 -28 197 -28q148 0 226 35q77 35 77 102q0 32 -27 50t-80 18h-327q-60 0 -97 -26q-36 -25 -36 -69zM733 1356q49 0 83 30t42 84h197
q-17 -147 -102 -225t-226 -78q-147 0 -226 79t-73 224h195q2 -55 31 -84q30 -30 79 -30z" />
    <glyph glyph-name="gcircumflex.1" 
d="M160 705q0 170 131 281q132 112 336 112q104 0 188 -30t139 -85q43 59 109 92t141 33q14 0 38 -2q18 -2 30 -6l-37 -262q-13 5 -34 10q-17 4 -36 4q-37 0 -68 -16q-32 -17 -53 -45q3 -12 3 -15v-24q0 -172 -131 -285t-332 -113q-49 0 -100 8q-44 7 -91 23q-32 -7 -54 -27
q-20 -18 -20 -45q0 -26 20 -41q18 -14 54 -14h346q167 0 254 -65q88 -66 88 -189q0 -181 -155 -288t-426 -107q-253 0 -394 73q-139 72 -139 205q0 73 43 129q44 57 121 90q-33 29 -52 68q-18 37 -18 82q0 73 49 134t132 91q-41 46 -62 102q-20 54 -20 122zM778 743
q0 65 -45 102q-46 38 -119 38q-84 0 -134 -48t-50 -124q0 -65 45 -102q46 -38 119 -38q83 0 134 49q50 48 50 123zM242 -72q0 -54 67 -82q66 -28 197 -28q148 0 226 35q77 35 77 102q0 32 -27 50t-80 18h-327q-60 0 -97 -26q-36 -25 -36 -69zM594 1470h291l162 -296h-205
l-119 116l-152 -116h-223z" />
  </font>
</defs>
</svg>
